<?xml version="1.0" encoding="utf-8"?>
<!-- Generator: Adobe Illustrator 27.2.0, SVG Export Plug-In . SVG Version: 6.00 Build 0)  -->
<svg version="1.1" id="Capa_1" xmlns="http://www.w3.org/2000/svg" xmlns:xlink="http://www.w3.org/1999/xlink" x="0px" y="0px"
	 viewBox="0 0 1920 1080" style="enable-background:new 0 0 1920 1080;" xml:space="preserve">
<g>
	<path d="M1564.11,597.95c-7.86,58.57-60.25,119.56-130.37,132.77c-43.23,8.14-84.72,2.9-122.5-20.77
		c-36.93-23.14-64.53-54.12-76.02-96.67c-4.52,10.49-8.08,21.73-13.87,31.68c-31.85,54.76-78.94,85.31-142.95,88.59
		c-70.99,3.64-141.16-41.31-164.89-107.29c-25.85-71.88-3.2-159.76,80.69-202.82c90.08-46.23,199.98-4.09,236.56,90.35
		c1.52,3.93,2.67,8.01,4.34,13.07c15.99-51.95,48.72-87.95,97.42-108.68c38.5-16.39,78.49-17.07,118.19-4.57
		c62.21,19.59,118.49,81.15,114.98,156.43c-100.94,0-201.91,0-303.35,0c-0.31,13.6,0.96,26.38,5.37,38.38
		c19.8,53.95,57.95,86.24,115.26,93.69c63.86,8.31,125.05-30.61,145.3-91.13c0.84-2.52,1.98-5.04,2.23-7.64
		c0.46-4.83,3.02-5.66,7.35-5.5C1546.47,598.19,1555.11,597.95,1564.11,597.95z M1087.96,702.72c23.92-0.18,57.36-14.62,84.74-43.43
		c36.51-38.43,46.24-100.44,22.86-147.66c-27.44-55.42-87.75-84.92-150.2-73.48c-75.24,13.78-124.25,90.69-105.61,164.77
		C951.35,649.02,1001.17,703.44,1087.96,702.72z M1531.12,541.74c-4.76-41.93-51.95-101.65-123.31-105.36
		c-68.73-3.57-135.64,46.09-142.16,105.36C1354.15,541.74,1442.63,541.74,1531.12,541.74z"/>
	<path d="M631.44,648.6c8.58,5.17,17.2,10.37,26.03,15.7c-17.03,24.02-38.76,41.74-64.68,54.24
		c-84.14,40.58-192.18,5.64-227.06-89.17c-40.44-109.95,31.67-201.08,114.49-219.29c60.46-13.29,114.3,1.95,160.6,43.14
		c3.7,3.29,6.73,7.33,10.65,11.66c-9.63,5.75-18.79,11.23-27.96,16.71c-30.52-33.12-68.41-47.41-112.55-45.14
		c-35.05,1.8-63.22,17.98-87.31,42.95c-51.57,53.46-47.23,136.79,5.59,187.1C489.6,723.97,583.71,713.05,631.44,648.6z"/>
	<path d="M883.04,699.81c0,9.9,0,19.14,0,28.69c-54.12,0-107.98,0-162.14,0c0-105.44,0-210.75,0-316.38c10.25,0,20.5,0,31.32,0
		c0,95.77,0,191.39,0,287.68C796.1,699.81,839.45,699.81,883.04,699.81z"/>
	<path d="M990.54,374.16c0-9.99,0-19.55,0-29.36c54.69,0,109.07,0,163.84,0c0,9.76,0,19.47,0,29.36
		C1099.78,374.16,1045.39,374.16,990.54,374.16z"/>
</g>
</svg>
