<?xml version="1.0" encoding="utf-8"?>
<!-- Generator: Adobe Illustrator 27.2.0, SVG Export Plug-In . SVG Version: 6.00 Build 0)  -->
<svg version="1.1" id="Capa_1" xmlns="http://www.w3.org/2000/svg" xmlns:xlink="http://www.w3.org/1999/xlink" x="0px" y="0px"
	 viewBox="0 0 1920 1080" style="enable-background:new 0 0 1920 1080;" xml:space="preserve">
<style type="text/css">
	.st0{fill:#FFDE16;}
	.st1{fill:#223878;}
</style>
<g>
	<path class="st0" d="M345.21,605.54c1.29-1.05,2.82-0.54,4.23-0.54c384.48-0.03,768.97-0.03,1153.45-0.01
		c1.19,0,2.44-0.32,3.59,0.31c-1.41,0.3-2.82,0.61-4.24,0.89c-23.95,4.76-37.28,20.97-45.17,42.55c-3.26,8.92-3.46,18.44-3.1,27.95
		c0.26,6.59,1.58,13.05,3.92,18.96c8.79,22.23,23.96,37.43,48.6,41.27c-11.94,0.03-23.89,0.06-35.83,0.09
		c-5.95-3.66-11.18-8.13-15.64-13.54c-8.09-9.82-14.91-20.48-20.91-31.65c-1.37-2.55-2.95-3.24-5.7-3.23
		c-31.72,0.1-63.44,0.06-95.17,0.06c-327.84,0-655.67-0.01-983.51,0.09c-3.72,0-4.6-0.9-4.57-4.58
		C345.31,657.95,345.22,631.75,345.21,605.54z"/>
	<path class="st1" d="M345.21,605.54c0.01,26.2,0.11,52.41-0.05,78.61c-0.02,3.68,0.85,4.59,4.57,4.58
		c327.84-0.1,655.67-0.09,983.51-0.09c31.72,0,63.44,0.03,95.17-0.06c2.75-0.01,4.33,0.67,5.7,3.23c6,11.17,12.83,21.83,20.91,31.65
		c4.46,5.42,9.69,9.88,15.64,13.54c-1.95,0.01-3.9,0.03-5.86,0.03c-371.7,0-743.4,0-1115.1,0c-13.79,0-27.58-0.1-41.37-0.01
		c-2.45,0.02-3.34-0.47-3.33-3.15c0.11-24.99,0.07-49.98,0.05-74.97c0-1.36,0.15-2.54,1.07-3.72c12.6-16.14,25.15-32.32,37.72-48.48
		C344.21,606.26,344.75,605.93,345.21,605.54z"/>
	<path class="st1" d="M960.38,485.4c0-4.57,0-8.56,0-12.55c0-41.32,0.04-82.64-0.08-123.96c-0.01-3.14,0.62-4.11,3.94-4.02
		c9.63,0.26,19.28,0.17,28.92,0.04c2.38-0.03,3.09,0.61,3.09,3.04c-0.06,77.28-0.06,154.56,0,231.83c0,2.37-0.61,3.1-3.04,3.07
		c-11.71-0.12-23.43-0.11-35.14-0.01c-2.59,0.02-3.6-0.67-4.33-3.43c-3.15-11.85-6.77-23.57-10.17-35.35
		c-5.19-17.98-10.29-35.98-15.52-53.95c-4.43-15.23-9.04-30.41-13.47-45.64c-2.9-9.95-5.62-19.95-8.44-29.92
		c-0.19-0.66-0.53-1.28-1.22-2.94c0,2.7,0,4.32,0,5.94c0,53.75-0.02,107.51,0.06,161.26c0.01,3.03-0.47,4.18-3.89,4.08
		c-9.75-0.28-19.52-0.18-29.28-0.04c-2.47,0.04-3-0.74-2.99-3.07c0.06-77.28,0.06-154.56,0-231.83c0-2.36,0.6-3.07,3.02-3.05
		c14.89,0.11,29.77,0.08,44.66,0.02c1.76-0.01,2.95,0.2,3.44,2.22c2.73,11.25,6.37,22.24,9.59,33.35
		c4.57,15.77,8.73,31.66,13.45,47.38c4.29,14.28,8.17,28.69,12.5,42.96C956.89,475.51,957.47,480.56,960.38,485.4z"/>
	<path class="st1" d="M1396.84,485.52c0-23.19,0-45.74,0-68.28c0-22.91,0.05-45.83-0.07-68.74c-0.01-2.82,0.64-3.68,3.57-3.62
		c9.76,0.2,19.52,0.15,29.28,0.02c2.36-0.03,3.1,0.57,3.09,3.02c-0.06,77.27-0.07,154.54,0.01,231.81c0,2.74-0.98,3.13-3.37,3.11
		c-10.98-0.11-21.96-0.05-32.94-0.05c-5.53,0-5.43-0.03-6.86-5.11c-4.12-14.67-8.33-29.32-12.52-43.97
		c-5.15-17.99-10.28-35.99-15.52-53.95c-4.48-15.34-9.15-30.62-13.65-45.95c-1.88-6.42-3.52-12.91-5.3-19.36
		c-0.18-0.66-0.55-1.27-1.19-2.69c0,25.42,0,49.88,0,74.35c0,30.59,0,61.18,0,91.77c0,4.91,0,4.91-5.1,4.91
		c-9.15,0-18.3-0.13-27.45,0.07c-2.91,0.06-3.59-0.76-3.58-3.61c0.09-52.16,0.06-104.33,0.06-156.49c0-24.74,0.04-49.48-0.06-74.22
		c-0.01-2.73,0.5-3.71,3.51-3.67c14.52,0.18,29.04,0.17,43.55-0.01c2.57-0.03,3.6,0.84,4.22,3.06c4.41,15.73,8.79,31.46,13.33,47.15
		c5.11,17.62,10.44,35.18,15.57,52.8c3.46,11.91,6.73,23.88,10.11,35.81C1395.67,484.11,1396.07,484.45,1396.84,485.52z"/>
	<path class="st1" d="M1158.16,463.47c0-23.52-0.03-47.03,0.01-70.55c0.04-21.14,16.69-42.36,37.59-47.76
		c16.58-4.28,33.22-4.32,49.48,1.18c17.52,5.93,28.1,18.43,32.28,36.42c1.62,6.98,2.26,14.03,2.26,21.17
		c0.01,39.97-0.01,79.93,0.01,119.9c0.01,9.8-1.08,19.46-4.55,28.64c-6.13,16.26-18.2,26.14-34.82,30.34
		c-15.54,3.93-31.18,3.98-46.55-0.98c-18.8-6.07-29.64-19.43-34.23-38.28c-1.44-5.91-1.59-11.92-1.59-17.94c0-20.71,0-41.43,0-62.14
		C1158.09,463.47,1158.13,463.47,1158.16,463.47z M1239.59,463.96c0-5.24,0-10.48,0-15.72c-0.02-17.07,0.31-34.14-0.2-51.19
		c-0.29-9.72-2.93-17.81-14.79-20.21c-2.68-0.54-5.34-0.19-8.01-0.23c-10.05-0.13-18.02,7.26-18.08,17.29
		c-0.21,35.35-0.24,70.7-0.28,106.04c-0.01,11.21-0.16,22.44,0.34,33.63c0.34,7.66,3.97,14.01,11.56,16.59
		c7.45,2.53,15.03,2.07,21.93-2.35c2.31-1.48,4.05-3.62,4.97-6.18c1.67-4.63,2.64-9.39,2.61-14.4
		C1239.52,506.14,1239.59,485.05,1239.59,463.96z"/>
	<path class="st1" d="M714.11,536.55c1.58-10.46,3.06-20.79,4.71-31.1c1.56-9.76,3.36-19.49,4.92-29.25
		c1.17-7.32,2.06-14.69,3.21-22.02c1.26-7.99,2.73-15.95,4.01-23.95c1.4-8.73,2.66-17.47,4.02-26.21
		c1.29-8.25,2.64-16.49,3.93-24.74c1.39-8.86,2.8-17.71,4.08-26.58c0.27-1.88,0.86-3.7,0.87-5.66c0.01-1.28,1-2.16,2.75-2.14
		c10.74,0.1,21.48,0.1,32.21,0.01c2.13-0.02,2.39,0.8,2.08,2.62c-1.92,11.25-3.74,22.52-5.65,33.78
		c-1.89,11.17-3.88,22.32-5.74,33.49c-1.57,9.4-2.98,18.84-4.55,28.24c-1.6,9.63-3.37,19.23-4.96,28.86
		c-1.34,8.1-2.48,16.23-3.78,24.33c-1.29,8.03-2.65,16.04-3.99,24.06c-1.36,8.1-2.72,16.2-4.09,24.29
		c-1.63,9.62-3.28,19.24-4.93,28.86c-0.32,1.87-1.08,3.8-0.87,5.61c0.42,3.66-1.46,3.8-4.29,3.79c-17.21-0.1-34.41-0.05-51.62-0.05
		c-4.92,0-4.88-0.01-5.72-6.19c-1.79-13.26-4.14-26.43-6.49-39.6c-1.95-10.94-3.4-21.97-5.21-32.93
		c-2.11-12.7-4.45-25.36-6.55-38.05c-2.05-12.36-3.83-24.77-5.89-37.13c-1.84-11.07-4.01-22.08-5.83-33.15
		c-2.08-12.6-3.92-25.23-5.91-37.85c-0.52-3.3-1.07-6.61-1.89-9.84c-0.58-2.27-0.07-3.13,2.31-3.12c11.96,0.05,23.92,0.05,35.88,0
		c1.67-0.01,2.28,0.57,2.54,2.26c1.85,12.17,3.87,24.32,5.74,36.49c1.81,11.82,3.42,23.67,5.27,35.49c1.28,8.24,2.9,16.42,4.2,24.66
		c1.6,10.15,3,20.33,4.54,30.49c1,6.61,2.06,13.21,3.12,19.81c1.15,7.17,2.34,14.33,3.46,21.5c1.06,6.72,2.05,13.44,3.11,20.16
		C713.16,536.04,713.66,536.22,714.11,536.55z"/>
	<path class="st1" d="M1037.92,511.08c5.37,0,10.74,0.09,16.11-0.04c2.1-0.05,2.63,0.65,2.66,2.69c0.12,8.02-0.67,16.07,1.1,24.04
		c1.31,5.9,7.02,11.72,12.94,12.9c4.43,0.89,8.76,0.94,13.19-0.14c7.99-1.95,12.52-8.08,13.63-16.02
		c2.59-18.53-5.81-32.21-18.25-44.38c-8.29-8.11-17.44-15.25-26.04-23.01c-7.72-6.96-14.94-14.36-20.81-22.99
		c-10.61-15.61-14.44-33.05-12.53-51.5c1.57-15.08,6.61-29.02,19.3-38.83c8.7-6.73,18.72-9.77,29.59-11
		c6.7-0.76,13.26-0.06,19.89-0.04c21.24,0.05,40.89,15.82,46.17,36.59c2.29,9,3.04,18.02,3.11,27.21c0.02,2.45-0.74,3.02-3.08,3
		c-10.61-0.12-21.23-0.13-31.85,0c-2.41,0.03-3.04-0.66-3.03-3.04c0.03-6.16,0.11-12.27-1.76-18.38
		c-2.34-7.67-7.84-10.9-14.56-11.49c-3.38-0.3-6.95-0.47-10.2,0.3c-8.94,2.11-12.3,8.34-13.39,16.92
		c-2.02,15.89,4.58,28.74,15.15,39.99c8.12,8.65,17.45,15.96,26.32,23.77c5.13,4.51,10.13,9.15,14.76,14.19
		c12.4,13.48,20.11,28.87,21.47,47.51c0.8,10.98-0.17,21.62-3.45,31.88c-5.23,16.37-16.8,26.79-33.31,31.36
		c-15.21,4.21-30.73,4.43-45.82-0.04c-14.36-4.25-25.22-13.28-31.21-27.5c-3.52-8.35-5.19-17.01-5.21-26.02
		c-0.02-4.88,0.14-9.76-0.14-14.62c-0.17-2.89,0.89-3.44,3.51-3.34C1027.42,511.22,1032.67,511.08,1037.92,511.08z"/>
	<path class="st1" d="M519.1,464c0-38.27,0.03-76.55-0.06-114.82c-0.01-3.15,0.53-4.33,4.09-4.31c33.92,0.15,67.84,0.13,101.77,0.02
		c3-0.01,3.91,0.7,3.83,3.79c-0.22,8.89-0.22,17.8,0,26.69c0.07,3-0.91,3.56-3.68,3.55c-20.62-0.11-41.24,0.02-61.86-0.14
		c-3.22-0.02-4.04,0.74-4.02,3.99c0.17,19.62,0.15,39.25,0.01,58.87c-0.02,2.95,0.84,3.62,3.67,3.6
		c15.98-0.13,31.97,0.02,47.95-0.14c2.97-0.03,3.61,0.89,3.56,3.67c-0.17,8.89-0.23,17.8,0.02,26.69c0.09,3.25-1.07,3.69-3.93,3.67
		c-15.86-0.13-31.73,0-47.59-0.12c-2.75-0.02-3.72,0.52-3.7,3.55c0.15,20.84,0.13,41.69,0.01,62.53c-0.02,2.81,0.63,3.69,3.58,3.67
		c20.74-0.13,41.49-0.02,62.23-0.13c2.75-0.01,3.8,0.5,3.73,3.55c-0.22,9.26-0.15,18.53-0.03,27.79c0.03,2.23-0.56,2.89-2.85,2.88
		c-34.65-0.07-69.31-0.09-103.96,0.02c-3.18,0.01-2.8-1.7-2.79-3.68C519.1,540.8,519.1,502.4,519.1,464z"/>
	<path class="st1" d="M1506.48,736.93c-24.63-3.84-39.8-19.04-48.6-41.27c-2.34-5.91-3.67-12.37-3.92-18.96
		c-0.37-9.51-0.17-19.04,3.1-27.95c7.89-21.58,21.22-37.8,45.17-42.55c1.42-0.28,2.82-0.59,4.24-0.89
		c5.73,0.82,11.49-0.09,17.3,1.32c13.58,3.3,23.99,10.91,32.18,21.83c8.04,10.71,11.98,22.84,13.11,36.21
		c1.23,14.47-1.15,28.07-7.99,40.75c-8.48,15.72-21.13,26.2-38.87,30.53C1516.84,737.25,1511.74,737.05,1506.48,736.93z"/>
	<path class="st1" d="M395.59,464c0-38.28,0.06-76.55-0.09-114.83c-0.01-3.65,1.02-4.38,4.45-4.3c10.49,0.24,20.99,0.27,31.48-0.02
		c3.7-0.1,4.28,1.09,4.27,4.46c-0.1,64.97-0.04,129.94-0.17,194.91c-0.01,3.8,1.03,4.57,4.64,4.54c19.4-0.19,38.8-0.03,58.2-0.15
		c2.76-0.02,3.52,0.73,3.47,3.47c-0.17,9.14-0.14,18.28-0.01,27.42c0.03,2.43-0.44,3.36-3.15,3.35c-33.31-0.1-66.63-0.11-99.94,0.02
		c-3.14,0.01-3.17-1.36-3.17-3.69C395.61,540.79,395.59,502.4,395.59,464z"/>
	<path class="st1" d="M799.99,464.02c0-38.38,0.04-76.77-0.08-115.15c-0.01-3.19,0.71-4.06,3.97-3.99
		c10.97,0.23,21.96,0.15,32.93,0.04c2.39-0.02,3.39,0.41,3.38,3.14c-0.07,77.26-0.07,154.51-0.01,231.77c0,2.42-0.69,3.07-3.09,3.04
		c-11.22-0.13-22.45-0.18-33.67,0.03c-3.08,0.06-3.49-1.04-3.49-3.71C800.01,540.79,799.99,502.4,799.99,464.02z"/>
	<path class="st1" d="M1590.11,691.11c16.69-0.65,25.06,11.17,24.88,23.14c-0.21,14.73-10.71,23.42-24.36,23.67
		c-14.94,0.27-25.33-10.67-25.21-23.84C1565.53,701.47,1575.68,689.88,1590.11,691.11z M1589.87,695.5
		c-11.4-0.39-19.14,8.53-19.33,18.81c-0.2,10.36,8.63,19.27,19.14,19.1c12.52-0.2,20.08-7.58,20.13-19.23
		C1609.86,703.55,1602.75,695.27,1589.87,695.5z"/>
	<path class="st1" d="M1582.58,714.21c0-3.89,0.06-7.78-0.03-11.66c-0.04-1.81,0.43-2.71,2.44-2.56c3.02,0.22,6.08-0.31,9.07,0.52
		c2.78,0.77,4.51,2.34,4.16,5.46c-0.31,2.76,1.16,5.92-1.87,8.08c-0.7,0.5-0.28,0.94,0.2,1.41c3.53,3.43,0.59,8.16,2.36,12.07
		c0.6,1.33-1.56,0.76-2.42,0.84c-1.53,0.14-3.37,0.42-3.39-2.05c-0.02-1.82-0.09-3.65,0.01-5.47c0.14-2.56-1.17-3.48-3.53-3.48
		c-2.67-0.01-1.43,2-1.57,3.16c-0.19,1.56-0.12,3.16-0.03,4.73c0.12,2.02,0.04,3.27-2.75,3.29c-2.95,0.02-2.7-1.51-2.68-3.4
		C1582.61,721.5,1582.58,717.85,1582.58,714.21z M1587.84,709.2c1.43,0.74-1.69,3.71,1.67,3.77c2.39,0.04,3.92-1.32,3.63-4.14
		c-0.2-1.93,0.28-3.79-2.79-3.9C1586.79,704.8,1588.33,707.26,1587.84,709.2z"/>
</g>
</svg>
