<?xml version="1.0" encoding="utf-8"?>
<!-- Generator: Adobe Illustrator 27.2.0, SVG Export Plug-In . SVG Version: 6.00 Build 0)  -->
<svg version="1.1" id="Capa_1" xmlns="http://www.w3.org/2000/svg" xmlns:xlink="http://www.w3.org/1999/xlink" x="0px" y="0px"
	 viewBox="0 0 1920 1080" style="enable-background:new 0 0 1920 1080;" xml:space="preserve">
<style type="text/css">
	.st0{fill-rule:evenodd;clip-rule:evenodd;fill:#D52B1E;}
	.st1{fill-rule:evenodd;clip-rule:evenodd;fill:#B6BF00;}
</style>
<g>
	
		<sodipodi:namedview  bordercolor="#666666" borderopacity="1.0" fit-margin-bottom="0" fit-margin-left="0" fit-margin-right="0" fit-margin-top="0" id="namedview16" pagecolor="#ffffff" showgrid="false">
		</sodipodi:namedview>
	<g id="g12_00000057865771804736324360000010220082582737040774_" transform="matrix(30.857143,0,0,30.857143,-0.01110856,0)">
		<g id="g10_00000105406042857975874680000008415902214186055585_">
			<g id="g8_00000085972070936251520310000018272960701091597976_">
				<path id="path2_00000062911169315292586500000009839053669513691266_" class="st0" d="M16.92,14c-0.71,0-1.7,0.3-2.41,1.29
					c-0.13,0.18-0.24,0.41-0.3,0.63c-0.22,0.77-0.06,1.61,0.41,2.26c0.37,0.5,0.84,0.87,1.25,1.2c0.2,0.16,0.63,0.57,0.77,0.74
					c0.21,0.26,0.36,0.41,0.55,0.98c0.11,0.35,0.13,0.8,0.07,1.06c1.3-1.31,2.71-3.02,2.71-4.88C19.98,15.15,18.45,14,16.92,14"/>
				<path id="path4_00000085213895201950054150000015382758151323456646_" class="st1" d="M14.51,21.22
					c-0.54-0.74-1.17-1.18-1.68-1.66c-0.23-0.21-0.47-0.36-0.66-0.54c-0.88-0.87-1.29-1.94-1.08-3.27c0.16-1.04,0.68-1.72,1.3-2.22
					c-0.74-0.54-1.62-0.84-2.62-0.84c-2.47,0-4.53,1.98-4.47,4.43c0.11,4.42,5.64,8.18,7.92,8.95c1.22-0.62,1.87-1.79,1.87-2.99
					C15.09,22.22,14.71,21.5,14.51,21.22"/>
				<path id="path6_00000074435867789990724490000005598454200618213024_" class="st0" d="M23.77,21.15c0.42,0.3,1.26,0.7,1.86,0.7
					c0.46,0,0.85-0.17,0.85-0.67c0-0.49-0.62-0.66-1.24-0.91c-0.72-0.28-1.44-0.73-1.44-1.9c0-1.56,1.14-2.39,2.78-2.39
					c1.08,0,2.05,0.55,2.55,1.14l-1.08,1.15c-0.49-0.42-1.03-0.74-1.55-0.74c-0.42,0-0.74,0.17-0.74,0.57
					c0,0.53,0.46,0.66,1.23,0.99c0.74,0.31,1.51,0.77,1.51,1.89c0,1.52-1.21,2.5-2.93,2.5c-1.21,0-2.23-0.51-2.63-0.84L23.77,21.15
					L23.77,21.15z M32.42,20.62c0.06-0.35,0.08-0.66,0.08-0.9c0-0.52-0.16-0.83-0.53-0.83c-0.49,0-0.82,0.5-0.98,1.4
					c-0.06,0.34-0.09,0.71-0.09,0.99c0,0.48,0.13,0.87,0.52,0.87C31.94,22.15,32.24,21.68,32.42,20.62 M32.27,17.59
					c0.75,0,2.06,0.29,2.06,2.09c0,0.24-0.01,0.52-0.05,0.81c-0.32,2.12-1.63,2.97-3.12,2.97c-1.3,0-2.04-0.78-2.04-2.16
					c0-0.26,0.01-0.57,0.06-0.88C29.57,18.16,31.06,17.59,32.27,17.59 M36.66,23.14h-1.67l0.73-4.37l0.04-1.02h1.34l0.03,0.75
					c0.37-0.66,0.89-0.91,1.31-0.91c0.29,0,0.6,0.07,0.8,0.21l-0.48,1.46c-0.19-0.11-0.43-0.19-0.68-0.19
					c-0.43,0-0.77,0.27-0.86,0.77L36.66,23.14L36.66,23.14z M38.9,23.14l0.91-5.22h1.7l-0.91,5.22L38.9,23.14z M41.01,15.31
					c0.51,0,0.83,0.38,0.83,0.84c0,0.62-0.5,1.12-1.14,1.12c-0.52,0-0.82-0.34-0.82-0.81C39.88,15.84,40.36,15.31,41.01,15.31
					 M45.46,18.95c-0.12-0.05-0.29-0.09-0.49-0.09c-0.98,0-1.33,1.48-1.33,2.37c0,0.52,0.12,0.94,0.63,0.94
					c0.37,0,0.62-0.24,0.73-0.62L45.46,18.95L45.46,18.95z M46.67,22.13l-0.08,1.17h-1.52v-0.51l-0.05-0.01
					c-0.38,0.44-0.86,0.68-1.51,0.68c-1.15,0-1.67-0.85-1.67-2.03c0-2.22,1.23-3.85,3.48-3.85c0.45,0,1.26,0.11,2.07,0.43
					L46.67,22.13z M47.39,23.14l0.74-4.31l0.06-1.08h1.41l0.02,0.58c0.4-0.45,0.93-0.74,1.62-0.74c0.85,0,1.36,0.4,1.37,1.3
					c0,0.17-0.02,0.38-0.05,0.58l-0.63,3.66h-1.71l0.53-3.15c0.03-0.17,0.08-0.41,0.08-0.61c0-0.21-0.08-0.44-0.39-0.44
					c-0.44,0-0.7,0.34-0.77,0.78l-0.58,3.42H47.39z M56.88,18.95c-0.12-0.05-0.29-0.09-0.48-0.09c-0.98,0-1.34,1.48-1.34,2.37
					c0,0.52,0.12,0.94,0.64,0.94c0.37,0,0.62-0.24,0.73-0.62L56.88,18.95z M58.08,22.13l-0.08,1.17h-1.52v-0.51l-0.05-0.01
					c-0.38,0.44-0.86,0.68-1.51,0.68c-1.15,0-1.67-0.85-1.67-2.03c0-2.22,1.23-3.85,3.48-3.85c0.45,0,1.26,0.11,2.07,0.43
					L58.08,22.13z"/>
			</g>
		</g>
	</g>
</g>
</svg>
