<?xml version="1.0" encoding="utf-8"?>
<!-- Generator: Adobe Illustrator 27.2.0, SVG Export Plug-In . SVG Version: 6.00 Build 0)  -->
<svg version="1.1" id="Capa_1" xmlns="http://www.w3.org/2000/svg" xmlns:xlink="http://www.w3.org/1999/xlink" x="0px" y="0px"
	 viewBox="0 0 1920 1080" style="enable-background:new 0 0 1920 1080;" xml:space="preserve">
<style type="text/css">
	.st0{fill:#FD0102;}
	.st1{fill:#FBF9F7;}
	.st2{fill:#FFFFFF;}
</style>
<g>
	<path class="st0" d="M936.09,659.05c-0.71,0-1.41-0.01-2.12-0.01c-0.25-0.24-0.55-0.35-0.9-0.31c0,0-0.08-0.09-0.08-0.09
		c-0.01-78.83-0.02-157.67-0.03-236.5c0,0,0.1-0.12,0.1-0.11c2.49-0.05,4.98-0.17,7.48-0.15c19.12,0.09,38.24,0.21,57.37,0.32
		c1.04,11.13,4.11,21.85,6.43,32.73c2.79,13.1,5.09,26.31,7.68,39.46c1.75,8.87,3.54,17.74,5.51,26.57
		c0.79,3.53,0.19,7.5,3.56,11.03c2-12.47,3.55-24.54,5.98-36.43c1.88-9.18,3.37-18.41,4.94-27.63c2.18-12.78,4.53-25.53,6.86-38.29
		c0.49-2.71,0.84-5.48,2.17-7.97c1.82,0.08,3.64,0.21,5.46,0.22c20.44,0.04,40.87,0.06,61.31,0.09c0,0,0.11,0.2,0.11,0.2
		c0,73.85-0.01,147.7,0,221.55c0,4.65,0.1,9.31,0.15,13.96c-0.07,0.34-0.15,0.69-0.22,1.03c-14.3,0.08-28.59,0.16-42.89,0.24
		c-1.27-1.62-0.68-3.51-0.68-5.28c-0.03-53.05-0.01-106.11-0.06-159.16c0-1.8,1-4.9-1-5.17c-2.3-0.3-1.81,3.18-2.09,4.65
		c-2.63,14.03-4.76,28.16-7.18,42.23c-1.62,9.41-3.56,18.77-5.21,28.18c-2.33,13.25-4.09,26.61-6.92,39.75
		c-2.25,10.43-2.97,21.13-6,31.38c-11.27,0.1-22.55,0.2-33.83,0.3c-1.96-7.94-4.32-15.81-5.76-23.84
		c-1.53-8.57-3.42-17.07-5.04-25.6c-1.73-9.06-3.53-18.13-5.23-27.2c-1.09-5.82-2.48-11.59-3.73-17.38
		c-0.45-1.62,0.52-3.62-1.29-4.89c-0.09-1.01-0.17-2.02-0.26-3.04c0.31-0.69-0.21-0.85-0.66-1.06c-1.42-7.95-2.84-15.91-4.27-23.86
		c0.12-0.83,0.12-1.6-0.82-1.99c-0.08-0.67-0.15-1.33-0.23-2c0.36-2.56-0.4-4.85-1.71-7c0.06-1.45-0.06-2.84-1.12-3.98
		c0.56-2.99-0.04-5.76-1.68-8.59c0,3.03,0,5.81,0,8.59c0,6.32,0,12.65,0,18.97c0.03,1.38,0.05,2.76,0.08,4.14
		c-0.02,0.35-0.04,0.69-0.06,1.04c-0.06,0.49-0.17,0.98-0.17,1.47c-0.01,40.13-0.01,80.26,0.01,120.39c0,1.11-0.38,2.35,0.64,3.28
		l-0.11,0.11c-1.01,1.77-0.55,3.63-0.32,5.47c-0.01,0.33-0.02,0.67-0.04,1c-0.07,2.94-0.13,5.88-0.2,8.82
		c-0.69,0.13-1.39,0.25-2.08,0.38c-7.95-0.44-15.89-0.37-23.84-0.01c-0.71,0-1.41,0-2.12,0.01
		C940,659.06,938.04,659.05,936.09,659.05z"/>
	<path class="st0" d="M1333.53,421.66c1.41,1.59,0.55,3.68,1.2,5.44c-0.01,0.66-0.01,1.32-0.02,1.99c-0.42,1.67-0.43,3.34,0,5.01
		c-0.53,21.95-0.53,43.91,0,65.86c0.01,0.67,0.01,1.35,0.02,2.02c-0.46,2.65-0.56,5.3,0.02,7.96c-0.31,0.7-0.33,1.37,0.17,2
		c0.17,1.22,0.97,0.81,1.68,0.66c1.04,0,2.07,0.01,3.11,0.01c12.9,0.07,25.81,0.15,38.71,0.17c0.31,0,0.63-0.55,0.94-0.84
		c0.09-15.88,0.2-31.75,0.25-47.63c0.05-14.06,0.02-28.13,0.03-42.19c13.96-0.12,27.91-0.24,41.87-0.36l0.06,0.34
		c0,0,0.33,0.1,0.33,0.1c0.03,1.16,0.09,2.32,0.09,3.48c0,71.76,0.13,143.51-0.27,215.27c-0.03,5.94,1.23,11.97-0.11,17.92
		c-0.7,0.07-1.4,0.14-2.1,0.2c-12.62,0-25.23,0-37.85,0c-3.29-0.4-1.98-2.96-1.99-4.63c-0.07-31.21-0.19-62.42,0.1-93.63
		c0.05-5.2-1.46-6.2-6.28-6.04c-12.61,0.41-25.24,0.25-37.86,0.32c-0.58-0.05-1.16-0.1-0.91,0.8c0,1,0,2,0,3.01
		c-0.11,12.24-0.31,24.48-0.3,36.71c0.02,18.37,0.19,36.74,0.3,55.1c-0.4,1.01-0.4,2.02,0.01,3.02c-0.08,1.62-0.15,3.25-0.23,4.87
		c0,0,0-0.02,0-0.02c-0.37-0.1-0.64,0.03-0.8,0.38c-0.7,0.03-1.4,0.07-2.09,0.1c-12.95-0.15-25.91-0.3-38.86-0.44
		c0,0,0.05,0.02,0.05,0.02c-0.08-2.63-0.17-5.26-0.25-7.89c0.01-1.02,0.03-2.03,0.04-3.04c0.1-1.65,0.28-3.3,0.28-4.95
		c0.01-68.57,0.01-137.13-0.01-205.7c0-3.64-0.18-7.28-0.28-10.93c0.01-0.67,0.02-1.35,0.03-2.02c0-0.33,0-0.66,0.01-0.99
		c0.4-0.49,0.8-0.98,1.2-1.47C1307.04,422.08,1320.29,422.01,1333.53,421.66z"/>
	<path class="st0" d="M782.23,659.04c-0.71,0-1.42,0-2.12,0c-1.29,0-2.58,0-3.87-0.01c-0.71,0-1.42,0-2.12,0
		c-1.96,0.01-3.91,0.03-5.87,0.04c-2.24-1.45-1.33-3.81-0.94-5.42c3.48-14.21,5.08-28.75,7.96-43.05
		c2.58-12.79,5.12-25.62,7.43-38.44c2.24-12.41,4.65-24.82,6.54-37.31c1.43-9.44,3.74-18.79,5.36-28.19
		c1.56-9.11,2.99-18.28,4.69-27.36c1.64-8.74,3.35-17.47,4.92-26.23c1.75-9.72,4.03-19.34,4.95-29.2c0.08-0.86,0.25-1.63,1.04-2.11
		c1.33,0.03,2.66,0.08,3.99,0.09c19.96,0.08,39.92,0.15,59.88,0.22c1.73,5.92,1.63,12.12,2.85,18.15
		c2.72,13.48,4.12,27.2,6.97,40.69c2.31,10.94,3.33,22.15,5.19,33.2c1.53,9.09,2.8,18.21,4.64,27.25c1.91,9.37,2.91,18.92,4.4,28.38
		c0.99,6.24,2.57,12.37,3.24,18.69c1.06,9.99,3.6,19.76,4.86,29.75c1.3,10.29,3.59,20.45,5.21,30.7c0.53,3.34,2.38,6.69,0.55,10.18
		c-12.61-0.46-25.22-0.42-37.83-0.02c-0.7,0-1.41-0.01-2.11-0.01c-0.31-0.05-0.63-0.1-0.94-0.15c-2.33-7.21-2.64-14.79-3.99-22.17
		c-1.28-7-1.46-14.26-3.36-21.07c-1.02-3.65,0.92-7.68-1.88-10.87c-0.29-0.31-0.57-0.9-0.86-0.91c-14.71-0.07-29.42-0.06-44.13-0.16
		c-2.28-0.02-2.85,1.11-2.88,3c-1.28,7.22-2.42,14.47-3.89,21.65c-2.08,10.21-2.23,20.8-6.05,30.67
		C796.8,659.05,789.51,659.05,782.23,659.04z M838.74,464.21c-1.16,0.56-1.51,1.34-1.65,2.45c-0.83,6.42-2.08,12.81-3.26,19.15
		c-1.69,9.08-2.98,18.23-4.65,27.31c-2.73,14.86-4.92,29.81-7.52,44.69c-1.05,5.99-0.82,6.52,5.09,6.51
		c7.82-0.02,15.65-0.23,23.45,0.11c4.16,0.18,5.87-0.85,4.78-5.14c-0.23-0.92-0.37-1.91-0.53-2.84
		c-1.91-11.02-3.35-22.14-5.56-33.09c-1.16-5.74-1.44-11.55-2.61-17.27c-1.27-6.2-2.12-12.48-3.23-18.72
		C841.68,479.65,841.23,471.75,838.74,464.21z"/>
	<path class="st0" d="M1488.44,604.75c-1.62,8.96-3.34,17.9-4.84,26.87c-1.06,6.36-1.61,12.83-3.49,19.02
		c-0.55,1.82-0.51,3.56-0.49,5.34c0.02,1.62-0.11,2.99-2.18,3.05c-8.62,0-17.23,0-25.85,0c-0.71,0-1.41-0.01-2.12-0.01
		c-2.62-0.02-5.24-0.04-7.86-0.06c-0.6-0.32-1.21-0.7-1.03-1.49c4.99-21.61,7.75-43.63,12.16-65.33c3.38-16.65,6.1-33.41,9.59-50.04
		c3.3-15.7,5.37-31.65,8.18-47.46c2.26-12.75,5.1-25.41,7.15-38.19c1.51-9.42,4.18-18.64,4.86-28.21c0.1-1.41,0.65-2.79,0.99-4.19
		c0.2-0.67,0.4-1.34,0.6-2.01l0.32,0.05c0,0,0.05-0.32,0.05-0.32c21.3,0.06,42.59,0.12,63.89,0.18c1.48,9.64,3.12,19.25,4.39,28.91
		c1.53,11.59,4.5,22.92,5.72,34.56c0.64,6.1,2.19,12.09,3.23,18.15c1.32,7.68,3.02,15.33,3.66,23.07
		c0.61,7.34,2.62,14.38,3.42,21.68c1.1,10.13,3.07,20.18,4.77,30.24c1.02,6.05,2.49,12.04,3.28,18.12
		c1.26,9.68,3.8,19.13,4.74,28.88c0.62,6.43,2.18,12.78,3.33,19.16c0.83,4.62,0.86,9.38,2.48,13.85
		c-13.29,0.13-26.58,0.27-39.87,0.4c-1.62-0.21-3.04-0.16-3.2-2.66c-0.64-9.85-2.88-19.52-4.31-29.25
		c-0.99-6.72-1.32-13.78-3.7-20.34c0.8-3.84-2.06-2.97-4-2.98c-13.09-0.05-26.19-0.06-39.28,0.02
		C1491.49,603.81,1489.67,603.06,1488.44,604.75z M1528.23,553.89c-1.67-4.26-1.32-8.9-2.43-13.25c-1.53-5.96-1.99-12.11-3.03-18.12
		c-1.04-6-1.85-12.23-2.61-18.34c-1.53-12.38-4.35-24.6-5.9-37.02c-0.22-1.79,0.07-4.51-2.02-6.09c-1.95,11-3.93,21.69-5.74,32.41
		c-2,11.87-3.85,23.76-5.77,35.65c-1.33,8.26-2.66,16.52-3.99,24.78c-1.37,1.67-0.88,3.69-1.18,5.59c-0.62,3.93,0.74,5.1,4.65,4.96
		c8.56-0.3,17.14-0.27,25.7-0.15c3.99,0.06,4.68-1.26,2.58-4.46c-0.12-1.67-0.24-3.34-0.36-5.01
		C1528.34,554.54,1528.37,554.22,1528.23,553.89z"/>
	<path class="st0" d="M1230.74,658.76c-2.11-11.33-3.53-22.77-5.64-34.11c-1.05-5.64-2.6-11.46-2.37-17.38
		c0.03-0.9,0.39-2.05-0.92-2.51c-0.19-0.26-0.39-0.74-0.58-0.74c-15.11-0.1-30.22-0.15-45.33-0.23c-2.34-0.01-2.21,1.41-1.87,3
		c-1.38,6.75-3.09,13.46-4.04,20.27c-1.03,7.33-1.98,14.67-3.77,21.84c-0.83,3.34,0.85,6.97-1.45,10.03
		c-2.3,0.04-4.59,0.08-6.89,0.11c-0.71,0-1.42,0-2.13,0c-8.61,0-17.23,0.01-25.84,0.01c-0.7-0.01-1.41-0.02-2.11-0.03
		c-0.31-0.11-0.63-0.22-0.94-0.33c1.77-10.08,3.49-20.17,5.31-30.24c3.6-19.98,7.13-39.99,10.9-59.93
		c2.42-12.83,4.64-25.74,7.32-38.54c1.85-8.82,2.97-17.96,4.5-26.92c3.63-21.26,7.83-42.43,11.8-63.63
		c1.07-5.73,2.15-11.47,3.22-17.2c1.98-0.13,3.96-0.36,5.94-0.36c19.26-0.09,38.52-0.14,57.78-0.2c2.25,5.71,1.8,11.88,3.08,17.76
		c1.96,9.01,3.08,18.18,4.71,27.26c2.24,12.47,3.97,25.03,6.25,37.5c2.19,11.98,3.77,24.06,5.95,36.05
		c2.44,13.43,3.52,27.12,6.37,40.45c2.35,10.96,3.39,22.08,5.64,33.04c2.19,10.65,3.22,21.53,5.2,32.22
		c0.54,2.92,0.76,5.83,1.13,8.74c-0.06,1.4-0.12,2.8-0.19,4.2c-0.71,0.06-1.43,0.11-2.14,0.17
		C1256.67,658.96,1243.71,658.86,1230.74,658.76z M1198.32,462.96c-0.75,0.91-1.28,1.25-1.34,1.66
		c-2.41,15.38-4.65,30.79-7.18,46.16c-2.77,16.79-6.17,33.47-8.39,50.36c-0.28,2.12-0.63,3.19,1.79,3.2
		c9.98,0.02,19.95,0,29.93-0.04c1.45,0,1.85-0.27,1.84-2.23c-0.02-5.01-1.55-9.67-2.29-14.5c-1.54-10.13-3.2-20.24-4.76-30.36
		c-1.78-11.56-3.1-23.21-5.42-34.65C1201.21,476.13,1201.28,469.36,1198.32,462.96z"/>
	<path class="st0" d="M780.12,422.01c-5.7,16.85-11.42,33.69-17.1,50.55c-2.98,8.87-5.8,17.79-8.85,26.64
		c-3.5,10.15-7.6,20.12-10.66,30.4c-3,10.1-7.96,19.6-9.34,30.19c-1.91,2.48-1.38,5.4-1.38,8.17c-0.05,23.95-0.04,47.9-0.01,71.84
		c0,2.98,0.25,5.95,0.39,8.93c0,0.65-0.01,1.31-0.01,1.96c-0.72,2.58-0.37,5.19-0.16,7.79c0,0-0.02,0.03-0.02,0.03
		c-0.38-0.1-0.63,0.03-0.75,0.4c-0.7,0.04-1.39,0.09-2.09,0.13c-7.47-0.07-14.94-0.04-22.4-0.25c-7.11-0.2-14.26,0.73-21.34-0.56
		c0.06-29.91,0.84-59.85-0.23-89.72c-0.35-9.88-5.38-19.61-8.45-29.36c-4.38-13.91-8.95-27.76-13.38-41.65
		c-5.06-15.84-10.23-31.65-15-47.57c-2.8-9.33-6.52-18.41-7.98-28.11c13.62,0.11,27.25,0.22,40.87,0.33
		c3.01,9.89,6.4,19.69,8.91,29.7c2.67,10.66,6.38,20.98,9.45,31.51c2.79,9.57,5.1,19.47,10.06,29.22
		c7.4-21.71,14.52-42.58,21.61-63.45c2.74-8.08,5.5-16.15,7.98-24.3c0.44-1.44,1.46-2.09,2.1-3.18
		C754.93,421.75,767.53,421.88,780.12,422.01z"/>
	<path class="st0" d="M616.57,545.86c-1.49,16.54-4.15,32.96-10.71,48.23c-9.19,21.4-22.17,40.11-40.35,55.38
		c-18.03,15.14-38.45,24.98-61.01,29.97c-18.12,4.01-36.65,4.65-55.25,1.19c-21.08-3.92-40.28-12.17-57.53-24.46
		c-20.88-14.87-36.53-34.37-47.04-57.85c-4.4-9.82-7.01-20.13-9.31-30.65c-2.46-11.21-3.07-22.45-2.62-33.72
		c0.63-16,4.17-31.43,9.86-46.49c4.13-10.92,10.29-20.59,16.52-30.22c3.84-5.94,9.34-10.8,13.71-16.38
		c6.1-7.81,14.1-13.19,22.07-18.27c13.88-8.85,28.63-16.08,45.01-19.76c6.5-1.46,13.21-1.76,19.55-3.9
		c10.33-1.23,20.66-0.74,30.99,0c12.56,2.06,24.7,5.51,36.67,9.91c14.4,5.29,27.14,13.21,38.83,22.84
		c14.12,11.64,25.28,25.87,33.89,41.98c3.32,6.21,5.82,12.87,8.69,19.32c-0.28,4.01,1.81,7.31,3.21,10.82
		c-0.16,0.95-0.5,1.82-0.09,2.88c3.25,8.44,3.04,17.54,4.89,26.25C616.54,537.24,616.56,541.55,616.57,545.86z M338.63,540.7
		c-0.89,70.83,58.72,141.6,147,135.64c36.21-2.44,67.47-18.63,91.07-46.06c25.93-30.14,37.37-66.02,32.58-106.02
		c-7.54-62.86-58.14-118.6-134.49-119.8C399.91,403.29,338.15,464.93,338.63,540.7z"/>
	<path class="st1" d="M1421.61,658.85c1.34-5.95,0.08-11.97,0.11-17.92c0.4-71.75,0.27-143.51,0.27-215.27
		c0-1.16-0.06-2.32-0.09-3.48c2.5,0.58,1.62,2.62,1.62,4.09c0.04,76.2,0.04,152.4-0.01,228.6
		C1423.52,656.34,1424.55,658.65,1421.61,658.85z"/>
	<path class="st1" d="M970.67,643.28c-1.02-0.93-0.64-2.17-0.64-3.28c-0.02-40.13-0.02-80.26-0.01-120.39
		c0-0.49,0.11-0.98,0.17-1.47c2.33-1.73,3.66-1.26,3.77,1.75c0.05,1.33,0.02,2.66,0.02,3.99c0,38.57-0.04,77.13,0.07,115.7
		c0.01,3.81-0.25,7.13-3.82,9.28c-0.23-1.84-0.69-3.7,0.32-5.47c0.26,0.14,0.15,1.03,0.79,0.39
		C971.12,643.62,970.89,643.45,970.67,643.28z"/>
	<path class="st1" d="M932.96,422.14c0.01,78.83,0.02,157.67,0.03,236.5c-1.66-1.47-0.95-3.42-0.95-5.16
		c-0.04-75.39-0.04-150.77,0-226.16C932.04,425.57,931.35,423.63,932.96,422.14z"/>
	<path class="st1" d="M1108.06,657.67c-0.05-4.65-0.15-9.31-0.15-13.96c-0.01-73.85,0-147.7,0-221.55c1.7,1.66,0.92,3.78,0.92,5.68
		c0.04,74.85,0.04,149.7,0.01,224.55C1108.84,654.16,1109.43,656.07,1108.06,657.67z"/>
	<path class="st1" d="M1292.56,426.11c0.1,3.64,0.28,7.28,0.28,10.93c0.02,68.57,0.02,137.13,0.01,205.7c0,1.65-0.18,3.3-0.28,4.95
		c-1.51-1.54-0.86-3.47-0.86-5.23c-0.03-70.37-0.03-140.74,0-211.11C1291.71,429.59,1291.07,427.66,1292.56,426.11z"/>
	<path class="st1" d="M1334.72,650.69c-0.11-18.37-0.28-36.74-0.3-55.1c-0.01-12.24,0.19-24.48,0.3-36.71
		c1.46,1.33,0.92,3.09,0.92,4.68c0.03,27.48,0.03,54.97,0,82.45C1335.63,647.6,1336.18,649.36,1334.72,650.69z"/>
	<path class="st1" d="M733.18,648.72c-0.14-2.98-0.38-5.95-0.39-8.93c-0.03-23.95-0.04-47.9,0.01-71.84
		c0.01-2.77-0.52-5.69,1.38-8.17c0.01,28.1,0.03,56.19,0.01,84.29C734.19,645.66,734.76,647.45,733.18,648.72z"/>
	<path class="st1" d="M1107.8,421.96c-20.44-0.03-40.87-0.05-61.31-0.09c-1.82,0-3.64-0.14-5.46-0.22c0.62-0.19,1.24-0.55,1.86-0.55
		c20.73-0.03,41.46-0.03,62.19-0.03C1106.09,421.07,1107.09,421.07,1107.8,421.96z"/>
	<path class="st1" d="M1334.71,499.95c-0.52-21.95-0.53-43.91,0-65.86c1.35,1.16,0.92,2.74,0.92,4.18c0.02,19.17,0.02,38.34,0,57.51
		C1335.64,497.21,1336.06,498.79,1334.71,499.95z"/>
	<path class="st1" d="M997.9,422.19c-19.12-0.11-38.24-0.23-57.37-0.32c-2.49-0.01-4.99,0.1-7.48,0.15
		c0.98-1.25,2.39-0.94,3.67-0.94c19.2-0.01,38.4-0.01,57.61,0C995.62,421.08,997.05,420.77,997.9,422.19z"/>
	<path class="st1" d="M874.07,422.09c-19.96-0.07-39.92-0.14-59.88-0.22c-1.33-0.01-2.66-0.06-3.99-0.09c1.13-1,2.51-0.7,3.82-0.7
		c18.63-0.01,37.27-0.02,55.9,0.01C871.35,421.09,872.96,420.63,874.07,422.09z"/>
	<path class="st1" d="M1548.36,421.97c-21.3-0.06-42.59-0.12-63.89-0.18c0.98-0.83,2.16-0.72,3.32-0.72
		c18.95,0,37.9-0.01,56.85,0.01C1545.93,421.08,1547.35,420.74,1548.36,421.97z"/>
	<path class="st1" d="M1233.62,421.67c-19.26,0.06-38.52,0.11-57.78,0.2c-1.98,0.01-3.96,0.24-5.94,0.36
		c0.67-1.29,1.89-1.16,3.04-1.16c19.61,0,39.21,0,58.82,0.03C1232.38,421.11,1233,421.48,1233.62,421.67z"/>
	<path class="st1" d="M1174.03,606.79c-0.33-1.6-0.46-3.01,1.87-3c15.11,0.08,30.22,0.13,45.33,0.23c0.2,0,0.39,0.48,0.58,0.74
		c-13.47,0.01-26.95,0.1-40.42-0.02C1178.63,604.71,1176.22,605.17,1174.03,606.79z"/>
	<path class="st1" d="M814.01,606.73c0.03-1.89,0.6-3.02,2.88-3c14.71,0.1,29.42,0.09,44.13,0.16c0.29,0,0.57,0.59,0.86,0.91
		c-12.82,0-25.63,0.04-38.45-0.02C820.12,604.75,816.85,604.63,814.01,606.73z"/>
	<path class="st1" d="M1488.44,604.75c1.23-1.7,3.05-0.94,4.57-0.95c13.09-0.08,26.19-0.07,39.28-0.02c1.94,0.01,4.8-0.86,4,2.98
		c-1.34-2.28-3.56-1.97-5.7-1.97C1516.55,604.79,1502.49,604.77,1488.44,604.75z"/>
	<path class="st1" d="M686.41,658.23c7.08,1.3,14.23,0.37,21.34,0.56c7.46,0.21,14.93,0.17,22.4,0.25
		c-3.84,1.46-7.82,0.49-11.73,0.64c-10.05,0.39-20.12-0.59-30.15,0.54C686.46,660.41,686.36,659.51,686.41,658.23z"/>
	<path class="st1" d="M970,658.68c0.07-2.94,0.13-5.88,0.2-8.82c0.42-0.26,0.81-0.6,1.26-0.76c1.06-0.38,2.65,0.24,2.24,0.94
		c-2,3.35,2.96,6.15,0.52,9.3C972.48,661.59,971.51,658.24,970,658.68z"/>
	<path class="st1" d="M1064.95,658.94c14.3-0.08,28.59-0.16,42.89-0.24c-0.79,1.14-2,1.01-3.16,1.01c-12.32,0-24.63,0-36.95,0
		C1066.74,659.71,1065.73,659.74,1064.95,658.94z"/>
	<path class="st1" d="M1421.52,421.75c-13.96,0.12-27.91,0.24-41.87,0.36c0.77-1.17,1.98-1.03,3.14-1.03
		c12.13-0.01,24.27-0.02,36.4,0.03C1419.96,421.1,1420.74,421.53,1421.52,421.75z"/>
	<path class="st1" d="M490.45,398.92c-10.33-0.74-20.66-1.23-30.99,0c0.31-1.79,1.67-1.78,3.04-1.78c8.3,0.01,16.6,0.01,24.91,0
		C488.78,397.14,490.14,397.13,490.45,398.92z"/>
	<path class="st1" d="M682.24,422.14c-13.62-0.11-27.25-0.22-40.87-0.33c3.51-1.53,7.2-0.61,10.8-0.68
		c8.48-0.16,16.97-0.08,25.45-0.03C679.2,421.11,681,420.48,682.24,422.14z"/>
	<path class="st1" d="M1333.53,421.66c-13.24,0.35-26.48,0.42-39.73-0.03C1307.05,420.73,1320.29,420.67,1333.53,421.66z"/>
	<path class="st1" d="M1379.36,511.93c-0.31,0.29-0.63,0.84-0.94,0.84c-12.9-0.03-25.81-0.1-38.71-0.17
		c5.04-1.44,10.18-0.51,15.27-0.62C1363.1,511.8,1371.23,511.93,1379.36,511.93z"/>
	<path class="st1" d="M1547.51,659.01c13.29-0.13,26.58-0.27,39.87-0.4c-0.73,1.21-1.94,1.1-3.1,1.1c-11.48,0-22.97,0.02-34.45-0.03
		C1549.06,659.68,1548.28,659.24,1547.51,659.01z"/>
	<path class="st1" d="M1292.73,658.6c12.95,0.15,25.91,0.3,38.86,0.44c-9.4,1.48-18.86,0.46-28.29,0.56
		C1299.81,659.65,1296.05,660.99,1292.73,658.6z"/>
	<path class="st1" d="M1230.74,658.76c12.96,0.1,25.93,0.2,38.89,0.3c-9.55,1.45-19.15,0.41-28.73,0.57
		C1237.54,659.69,1233.98,660.7,1230.74,658.76z"/>
	<path class="st1" d="M780.12,422.01c-12.6-0.13-25.19-0.26-37.79-0.38C754.94,420.94,767.54,420.24,780.12,422.01z"/>
	<path class="st1" d="M874.15,659.06c12.61-0.4,25.22-0.44,37.83,0.02c-10.66,1.43-21.36,0.27-32.04,0.58
		C878.02,659.73,875.97,660.25,874.15,659.06z"/>
	<path class="st1" d="M1381.66,659.06c12.62,0,25.23,0,37.85,0c-6.18,1.49-12.46,0.55-18.68,0.57
		C1394.45,659.65,1388.01,660.47,1381.66,659.06z"/>
	<path class="st1" d="M1001.98,635.83c11.28-0.1,22.55-0.2,33.83-0.3c-0.09,0.14-0.17,0.39-0.27,0.4
		C1024.35,637.17,1013.16,637.42,1001.98,635.83z"/>
	<path class="st1" d="M611.73,503.79c-1.4-3.51-3.49-6.81-3.21-10.82C612.68,495.66,612.94,499.51,611.73,503.79z"/>
	<path class="st1" d="M1451.6,659.05c8.62,0,17.23,0,25.85,0C1468.83,660.15,1460.21,660.14,1451.6,659.05z"/>
	<path class="st1" d="M1129.91,659.05c8.61,0,17.23-0.01,25.84-0.01C1147.13,660.15,1138.52,660.14,1129.91,659.05z"/>
	<path class="st1" d="M944.07,659.05c7.95-0.36,15.89-0.43,23.84,0.01C959.97,660.12,952.02,660.14,944.07,659.05z"/>
	<path class="st1" d="M782.23,659.04c7.28,0,14.56,0,21.85,0C796.8,660.13,789.51,660.14,782.23,659.04z"/>
	<path class="st1" d="M972.99,497.97c1.32,2.15,2.07,4.44,1.71,7C969.95,503.65,972.02,500.68,972.99,497.97z"/>
	<path class="st1" d="M970.18,493.99c0-2.78,0-5.55,0-8.59c1.64,2.84,2.24,5.6,1.68,8.59C971.3,493.99,970.74,493.99,970.18,493.99z
		"/>
	<path class="st1" d="M616.57,545.86c-0.01-4.31-0.03-8.62-0.04-12.93C617.85,537.23,617.81,541.54,616.57,545.86z"/>
	<path class="st1" d="M733.01,658.47c-0.21-2.6-0.56-5.2,0.16-7.79c2.11,1.75,0.45,4.7,2.31,6.84
		C736.34,658.51,734.04,658.45,733.01,658.47z"/>
	<path class="st1" d="M1271.77,658.89c0.06-1.4,0.12-2.8,0.19-4.2c2.11,0.34,1.83,1.96,1.7,3.37
		C1273.56,659.28,1272.93,659.82,1271.77,658.89z"/>
	<path class="st1" d="M980.94,536.91c1.81,1.27,0.84,3.27,1.29,4.89C979.69,540.73,979.2,539.11,980.94,536.91z"/>
	<path class="st1" d="M1292.53,650.73c0.08,2.63,0.17,5.26,0.25,7.89C1290.99,656.05,1291.34,653.4,1292.53,650.73z"/>
	<path class="st1" d="M1334.75,509.93c-0.58-2.65-0.48-5.3-0.02-7.96C1336.17,504.62,1336.15,507.28,1334.75,509.93z"/>
	<path class="st1" d="M1441.61,658.98c2.62,0.02,5.24,0.04,7.86,0.06C1446.85,660.08,1444.23,660.18,1441.61,658.98z"/>
	<path class="st1" d="M1157.88,659.04c2.3-0.04,4.59-0.08,6.89-0.11C1162.49,660.17,1160.19,660.02,1157.88,659.04z"/>
	<path class="st1" d="M768.24,659.08c1.96-0.01,3.91-0.03,5.87-0.04C772.16,660.09,770.21,660.04,768.24,659.08z"/>
	<path class="st1" d="M936.09,659.05c1.96,0,3.91,0.01,5.87,0.01C940,660.06,938.04,660.08,936.09,659.05z"/>
	<path class="st1" d="M1334.49,658.59c0.08-1.62,0.15-3.25,0.23-4.87C1336,655.4,1336.31,657.05,1334.49,658.59z"/>
	<path class="st1" d="M970.26,517.1c-0.03-1.38-0.05-2.76-0.08-4.14C971.36,514.32,971.16,515.7,970.26,517.1z"/>
	<path class="st1" d="M776.23,659.04c1.29,0,2.58,0,3.87,0.01C778.82,660,777.52,660.01,776.23,659.04z"/>
	<path class="st1" d="M974.93,506.97c0.94,0.39,0.94,1.17,0.82,1.99C974.47,508.71,973.48,508.34,974.93,506.97z"/>
	<path class="st1" d="M1484.1,422.06c-0.2,0.67-0.4,1.34-0.6,2.01C1483.7,423.4,1483.9,422.73,1484.1,422.06z"/>
	<path class="st1" d="M1334.71,429.08c0.01-0.66,0.01-1.32,0.02-1.99C1335.7,427.77,1335.69,428.43,1334.71,429.08z"/>
	<path class="st1" d="M1336.6,512.59c-0.7,0.15-1.51,0.56-1.68-0.66C1335.48,512.15,1336.04,512.37,1336.6,512.59z"/>
	<path class="st1" d="M1334.72,555.87c-0.25-0.9,0.33-0.85,0.91-0.8C1335.33,555.34,1335.02,555.6,1334.72,555.87z"/>
	<path class="st1" d="M732.24,658.9c0.13-0.37,0.38-0.51,0.75-0.4C733,659.11,732.82,659.39,732.24,658.9z"/>
	<path class="st1" d="M871.1,658.9c0.31,0.05,0.63,0.1,0.94,0.15C871.65,659.48,871.35,659.36,871.1,658.9z"/>
	<path class="st1" d="M933.07,658.72c0.35-0.04,0.65,0.07,0.9,0.31C933.48,659.46,933.22,659.25,933.07,658.72z"/>
	<path class="st1" d="M1292.6,423.1c0,0.33,0,0.66-0.01,0.99c-0.12-0.24-0.27-0.47-0.35-0.72
		C1292.23,423.32,1292.48,423.19,1292.6,423.1z"/>
	<path class="st1" d="M1126.85,658.7c0.31,0.11,0.63,0.22,0.94,0.33C1127.29,659.46,1127.02,659.21,1126.85,658.7z"/>
	<path class="st1" d="M980.02,532.82c0.45,0.21,0.97,0.37,0.66,1.06C980.46,533.53,980.24,533.17,980.02,532.82z"/>
	<path class="st1" d="M1333.69,658.94c0.16-0.35,0.43-0.48,0.8-0.38C1334.44,659.15,1334.24,659.42,1333.69,658.94z"/>
	<path class="st1" d="M1496.75,553.91c0.25,0.6,0.57,1.18,0.72,1.8c0.72,2.95-2.65,8,5.52,6.4c3.95-0.77,9.61,0.17,14.46,0.73
		c4.05,0.47,7.9-0.03,11.05-2.99c2.1,3.2,1.41,4.52-2.58,4.46c-8.57-0.13-17.14-0.15-25.7,0.15c-3.91,0.14-5.27-1.03-4.65-4.96
		C1495.86,557.6,1495.37,555.58,1496.75,553.91z"/>
	<path class="st1" d="M1528.14,554.84c-0.08-0.23-0.19-0.46-0.22-0.69c-0.01-0.07,0.2-0.17,0.32-0.25
		C1528.37,554.22,1528.34,554.54,1528.14,554.84z"/>
	<path class="st1" d="M473.08,661.05c67.94-0.04,121.02-51.52,121.7-119.3c0.7-69.15-52.32-121.01-119.55-122
		c-65.51-0.96-120.41,51.16-121.2,119.87C353.29,605.23,406.61,661.13,473.08,661.05z"/>
	<path class="st2" d="M970.67,643.28c0.23,0.17,0.45,0.34,0.68,0.51c-0.64,0.64-0.53-0.25-0.79-0.39
		C970.55,643.39,970.67,643.28,970.67,643.28z"/>
	<path class="st0" d="M473.08,661.05c-66.47,0.08-119.79-55.82-119.04-121.42c0.78-68.71,55.69-120.83,121.2-119.87
		c67.23,0.99,120.24,52.85,119.55,122C594.1,609.53,541.02,661.01,473.08,661.05z M455.07,506.51c-4.76-2.16-9-4.69-13.28-7.25
		c-10.93-6.52-22.12-12.62-33.04-19.15c-3.97-2.37-5.12,0-6.64,2.77c-1.5,2.74-4.53,5.22-0.08,8.1c3.63,2.35,7.41,4.59,11.13,6.61
		c13.16,7.13,25.9,14.98,38.97,22.24c4.34,2.41,2.64,6.15,1.83,9.07c-0.96,3.45-5.84,4.86-8.69,3.17
		c-5.64-3.35-11.19-6.86-16.84-10.2c-10.8-6.36-21.61-12.71-32.5-18.92c-5.17-2.95-6.22,2.01-8.42,4.72
		c-2.58,3.18-0.15,5.23,2.01,6.31c2.77,1.38,5.1,3.39,7.82,4.72c11.38,5.57,21.96,12.56,33.03,18.67c4.04,2.23,3.97,3.96-0.07,6.2
		c-7.31,4.05-13.11,9.39-15.59,17.69c-2.81,9.39-4.68,10.83-14.57,10.55c-2.89-0.08-4.93,0.56-6.85,2.9
		c-5.16,6.33-10.62,12.41-15.93,18.61c-1.02,1.19-2.81,2.26-1.59,4.19c1.21,1.92,3.54,1.58,5,1.07c7.32-2.55,14.9-3.19,22.52-4
		c3.15-0.34,6.38-1.49,7.34-5.65c1.5-6.49,6.52-9.51,12.91-8.04c9.68,2.22,18.84,1.61,26.98-4.69c1.29-1,2.61-1.78,4.04-1.14
		c1.74,0.79,0.85,2.63,0.85,3.98c0.05,16.3,0.01,32.61,0.05,48.91c0,1.44-0.7,3.72,0.64,4.18c3.11,1.07,6.34,0.62,9.63-0.33
		c3.17-0.91,1.96-3.12,1.97-4.78c0.1-18.47,0.08-36.93,0.08-55.4c0-5.74,1.77-7.75,6.99-7.8c4.48-0.05,6.62,2.41,6.62,7.59
		c0.01,18.63,0,37.27,0.04,55.9c0,1.43-0.67,3.84,0.8,4.08c3.4,0.55,7.05,0.79,10.37,0.06c2.11-0.46,1.16-3.47,1.16-5.34
		c0.05-15.81,0-31.61,0-47.42c0-2.71-0.71-5.94,3.85-2.43c8.16,6.3,17.51,6.82,27.35,4.65c7.61-1.68,11.65,1.22,13.46,9.09
		c0.34,1.49,1.25,2.03,2.34,2.86c4.68,3.56,10.52,1.96,15.71,3.44c3.78,1.08,7.91,3.04,12.31,2.51c1.7-0.21,3.6-0.43,4.29-1.72
		c0.65-1.21-0.71-2.68-1.67-3.82c-4.95-5.89-10.1-11.63-14.76-17.75c-2.89-3.8-6.48-4.21-10.55-3.56
		c-5.09,0.81-10.74-2.67-11.51-7.62c-1.25-8-5.66-13.66-12.19-18.13c-2.68-1.83-5.98-2.92-7.94-6c1.89-1.45,3.63-3.14,5.67-4.29
		c13.78-7.82,27.61-15.53,41.46-23.23c1.17-0.65,1.79-1.08,0.85-2.46c-1.44-2.1-2.75-4.29-4.03-6.49c-1.28-2.2-3.07-2.35-5.06-1.29
		c-9.5,5.06-18.45,11.03-28.07,15.97c-7.64,3.93-14.81,8.91-22.44,13.05c-4.57,2.48-7.33,0.05-8.79-2.85
		c-1.31-2.61-2.24-6.6,2.07-8.84c4.75-2.47,9.32-5.31,13.97-8c10.83-6.27,21.75-12.38,32.44-18.87c7.34-4.45,7.03-4.6,3.04-12.38
		c-1.15-2.25-2.05-2.52-3.81-1.28c-6.27,4.41-13.46,7.17-19.82,11.48c-7.72,5.23-16.57,8.61-24.21,14.07
		c-2.67,1.91-4.72,1.69-4.23-2.4c1.27-10.74-2.17-19.55-9.93-27.19c-4.72-4.65-4.26-9.18,0.48-14.04c1.59-1.63,3.13-3.09,2.39-5.32
		c-2.86-8.62-5.85-17.21-8.98-25.73c-0.46-1.27-0.67-3.33-3.12-3.1c-2.22,0.21-2.45,1.91-2.95,3.37
		c-2.79,8.04-6.24,15.83-8.26,24.16c-0.51,2.1-0.33,3.16,0.96,4.74c5.31,6.46,4.95,14.39-1.47,19.52c-3.39,2.71-4.51,6.21-5.97,9.76
		C454.26,494.25,456.01,500.32,455.07,506.51z"/>
	<path class="st0" d="M481.37,503.44c0,2.16,0.02,4.31,0,6.47c-0.04,4.31-3.43,7.99-7.33,8.01c-3.15,0.01-6.21-3.89-6.23-8.02
		c-0.03-4.81-0.14-9.63,0.05-14.43c0.16-4.12,1.75-6.74,6.7-6.64c4.76,0.1,6.55,2.45,6.77,6.65
		C481.47,498.12,481.35,500.78,481.37,503.44z"/>
	<path class="st0" d="M455.47,556.36c0.45,2.48-0.59,3.87-3.58,4.92c-5.04,1.77-9.04,5.65-13.97,7.91
		c-3.82,1.75-6.14,0.24-7.98-2.44c-1.87-2.73-2.21-5.36,0.92-8.16c4.37-3.91,9.56-6.48,14.47-9.31
		C450.09,546.52,455.48,550.6,455.47,556.36z"/>
	<path class="st0" d="M493.39,555.61c0.05-5.54,5-8.6,9.9-6.19c4.89,2.4,9.64,5.13,14.23,8.08c2.07,1.33,3.54,3.82,2.77,6.36
		c-0.77,2.55-1.99,4.8-5.59,5.22c-3.12,0.36-5.33-0.06-7.84-1.91c-2.86-2.11-6.27-3.48-9.4-5.24
		C494.86,560.45,492.28,558.9,493.39,555.61z"/>
	<path class="st0" d="M482.44,540.58c-0.01,3.76-4.61,8.51-8.1,8.37c-4.13-0.17-7.92-4.39-7.86-8.77c0.07-5.3,2.18-7.22,7.97-7.27
		C479.9,532.87,482.45,535.31,482.44,540.58z"/>
</g>
</svg>
