<svg xmlns="http://www.w3.org/2000/svg" xmlns:xlink="http://www.w3.org/1999/xlink" width="40" zoomAndPan="magnify" viewBox="0 0 30 30.000001" height="40" preserveAspectRatio="xMidYMid meet" version="1.0"><defs><clipPath id="881a10fc9e"><path d="M 7 0 L 23 0 L 23 29.03125 L 7 29.03125 Z M 7 0 " clip-rule="nonzero"/></clipPath><clipPath id="ee3578e4c9"><path d="M 2.726562 9 L 7 9 L 7 21 L 2.726562 21 Z M 2.726562 9 " clip-rule="nonzero"/></clipPath><clipPath id="83d5e22f95"><path d="M 23 9 L 27.40625 9 L 27.40625 21 L 23 21 Z M 23 9 " clip-rule="nonzero"/></clipPath></defs><g clip-path="url(#881a10fc9e)"><path fill="#5eaaed" d="M 10.0625 0.300781 L 11.375 2.625 C 8.941406 3.835938 7.257812 6.148438 7.257812 8.855469 L 22.964844 8.855469 C 22.964844 6.160156 21.28125 3.835938 18.851562 2.625 L 20.160156 0.300781 C 20.160156 0.300781 20.253906 0.207031 20.066406 0.117188 C 19.972656 0.0234375 19.878906 0.207031 19.878906 0.207031 L 18.476562 2.535156 C 17.375 2.042969 16.222656 1.792969 15.015625 1.789062 C 13.8125 1.792969 12.65625 2.042969 11.558594 2.535156 L 10.15625 0.210938 C 10.15625 0.210938 10.0625 0.117188 9.96875 0.117188 C 9.980469 0.191406 10.011719 0.253906 10.0625 0.304688 Z M 11.382812 4.855469 C 11.746094 4.855469 12.128906 5.21875 12.128906 5.601562 C 12.128906 5.980469 11.765625 6.34375 11.382812 6.34375 C 11.175781 6.347656 10.996094 6.273438 10.851562 6.128906 C 10.703125 5.984375 10.632812 5.808594 10.636719 5.601562 C 10.632812 5.394531 10.703125 5.21875 10.851562 5.070312 C 10.996094 4.925781 11.175781 4.855469 11.382812 4.855469 Z M 18.863281 4.855469 C 19.226562 4.855469 19.609375 5.21875 19.609375 5.601562 C 19.609375 5.980469 19.246094 6.34375 18.863281 6.34375 C 18.65625 6.347656 18.476562 6.273438 18.332031 6.128906 C 18.183594 5.984375 18.113281 5.808594 18.113281 5.601562 C 18.113281 5.394531 18.183594 5.21875 18.332031 5.070312 C 18.476562 4.925781 18.65625 4.855469 18.863281 4.855469 Z M 7.164062 9.785156 L 7.164062 21.6875 C 7.164062 22.246094 7.914062 23.082031 8.472656 23.082031 L 10.34375 23.082031 L 10.34375 27.171875 C 10.34375 28.195312 11.089844 29.03125 12.027344 29.03125 C 12.960938 29.03125 13.710938 28.195312 13.710938 27.171875 L 13.710938 23.082031 L 16.417969 23.082031 L 16.417969 27.171875 C 16.417969 28.195312 17.167969 29.03125 18.101562 29.03125 C 19.035156 29.03125 19.785156 28.195312 19.785156 27.171875 L 19.785156 23.082031 L 21.652344 23.082031 C 22.214844 23.082031 22.964844 22.335938 22.964844 21.6875 L 22.964844 9.785156 Z M 7.164062 9.785156 " fill-opacity="1" fill-rule="nonzero"/></g><g clip-path="url(#ee3578e4c9)"><path fill="#5eaaed" d="M 4.546875 9.507812 C 5.480469 9.507812 6.230469 10.34375 6.230469 11.367188 L 6.230469 18.433594 C 6.230469 19.457031 5.480469 20.292969 4.546875 20.292969 C 3.613281 20.292969 2.863281 19.457031 2.863281 18.433594 L 2.863281 11.367188 C 2.863281 10.34375 3.613281 9.507812 4.546875 9.507812 Z M 4.546875 9.507812 " fill-opacity="1" fill-rule="nonzero"/></g><g clip-path="url(#83d5e22f95)"><path fill="#5eaaed" d="M 25.675781 9.507812 C 26.613281 9.507812 27.359375 10.34375 27.359375 11.367188 L 27.359375 18.433594 C 27.359375 19.457031 26.613281 20.292969 25.675781 20.292969 C 24.742188 20.292969 23.992188 19.457031 23.992188 18.433594 L 23.992188 11.367188 C 23.992188 10.34375 24.742188 9.507812 25.675781 9.507812 Z M 25.675781 9.507812 " fill-opacity="1" fill-rule="nonzero"/></g></svg>