<svg xmlns="http://www.w3.org/2000/svg" xmlns:xlink="http://www.w3.org/1999/xlink" width="40" zoomAndPan="magnify" viewBox="0 0 30 30.000001" height="40" preserveAspectRatio="xMidYMid meet" version="1.0"><defs><clipPath id="6234e7ef9d"><path d="M 6.289062 0 L 23.710938 0 L 23.710938 29 L 6.289062 29 Z M 6.289062 0 " clip-rule="nonzero"/></clipPath></defs><g clip-path="url(#6234e7ef9d)"><path fill="#ffffff" d="M 16.148438 14.515625 L 22.976562 9.960938 C 23.386719 9.699219 23.601562 9.324219 23.625 8.839844 C 23.648438 8.359375 23.476562 7.96875 23.105469 7.660156 L 14.484375 0.472656 C 14.269531 0.296875 14.023438 0.1875 13.746094 0.152344 C 13.46875 0.117188 13.203125 0.160156 12.953125 0.277344 C 12.699219 0.394531 12.5 0.574219 12.347656 0.808594 C 12.199219 1.042969 12.125 1.300781 12.125 1.582031 L 12.125 11.84375 L 6.375 8.003906 L 6.375 11.441406 L 10.976562 14.515625 L 6.375 17.578125 L 6.375 21.027344 L 12.125 17.203125 L 12.125 27.453125 C 12.117188 27.746094 12.195312 28.015625 12.355469 28.265625 C 12.515625 28.511719 12.730469 28.691406 13.003906 28.804688 C 13.277344 28.917969 13.558594 28.945312 13.84375 28.882812 C 14.132812 28.824219 14.378906 28.683594 14.582031 28.472656 L 23.105469 21.371094 C 23.476562 21.066406 23.648438 20.671875 23.625 20.191406 C 23.601562 19.707031 23.386719 19.335938 22.976562 19.070312 Z M 15 4.65625 L 19.785156 8.636719 L 15 11.828125 Z M 15 24.375 L 15 17.203125 L 19.785156 20.394531 Z M 15 24.375 " fill-opacity="1" fill-rule="nonzero"/></g></svg>