<svg xmlns="http://www.w3.org/2000/svg" xmlns:xlink="http://www.w3.org/1999/xlink" width="30" zoomAndPan="magnify" viewBox="0 0 30 30.000001" height="40" preserveAspectRatio="xMidYMid meet" version="1.0"><defs><clipPath id="32cd686928"><path d="M 0.484375 0 L 29.515625 0 L 29.515625 29.03125 L 0.484375 29.03125 Z M 0.484375 0 " clip-rule="nonzero"/></clipPath></defs><g clip-path="url(#32cd686928)"><path fill="#ffffff" d="M 15 29.03125 C 6.976562 29.03125 0.484375 22.539062 0.484375 14.515625 C 0.484375 6.492188 6.976562 0 15 0 C 23.023438 0 29.515625 6.492188 29.515625 14.515625 C 29.515625 22.539062 23.023438 29.03125 15 29.03125 Z M 15 29.03125 " fill-opacity="1" fill-rule="nonzero"/></g><path fill="#00a64b" d="M 18.285156 19.507812 L 20.4375 19.894531 L 20.730469 21.953125 C 19.144531 23.179688 17.15625 23.910156 15 23.910156 C 12.265625 23.910156 9.800781 22.734375 8.085938 20.867188 L 8.398438 18.84375 L 10.503906 18.449219 C 11.597656 19.699219 13.207031 20.492188 15 20.492188 C 16.210938 20.492188 17.339844 20.128906 18.285156 19.507812 Z M 18.285156 19.507812 " fill-opacity="1" fill-rule="nonzero"/><path fill="#ff2e17" d="M 23.824219 12.808594 C 24.136719 12.808594 24.394531 13.0625 24.394531 13.378906 L 24.394531 14.515625 C 24.394531 17.539062 22.957031 20.234375 20.730469 21.953125 L 18.285156 19.507812 C 19.207031 18.898438 19.953125 18.042969 20.421875 17.03125 C 20.597656 16.65625 20.320312 16.222656 19.902344 16.222656 L 16.667969 16.222656 C 16.351562 16.222656 16.097656 15.96875 16.097656 15.65625 L 16.097656 13.378906 C 16.097656 13.0625 16.351562 12.808594 16.667969 12.808594 Z M 23.824219 12.808594 " fill-opacity="1" fill-rule="nonzero"/><path fill="#0056d1" d="M 10.503906 18.449219 L 8.085938 20.867188 C 6.546875 19.191406 5.605469 16.960938 5.605469 14.515625 C 5.605469 12.144531 6.492188 9.972656 7.949219 8.316406 L 9.761719 8.746094 L 10.371094 10.742188 C 9.527344 11.769531 9.023438 13.085938 9.023438 14.515625 C 9.023438 16.019531 9.582031 17.398438 10.503906 18.449219 Z M 10.503906 18.449219 " fill-opacity="1" fill-rule="nonzero"/><path fill="#ffc933" d="M 20.03125 7.289062 L 18.726562 9.164062 C 18.558594 9.40625 18.230469 9.476562 17.976562 9.332031 C 17.074219 8.8125 16.054688 8.539062 15 8.539062 C 13.136719 8.539062 11.464844 9.398438 10.371094 10.742188 L 7.949219 8.316406 C 9.671875 6.359375 12.195312 5.125 15 5.125 C 16.726562 5.125 18.394531 5.589844 19.859375 6.476562 C 20.140625 6.648438 20.222656 7.019531 20.03125 7.289062 Z M 20.03125 7.289062 " fill-opacity="1" fill-rule="nonzero"/></svg>