<svg xmlns="http://www.w3.org/2000/svg" xmlns:xlink="http://www.w3.org/1999/xlink" width="30" zoomAndPan="magnify" viewBox="0 0 30 30.000001" height="40" preserveAspectRatio="xMidYMid meet" version="1.0"><defs><clipPath id="9fb4a39f1a"><path d="M 0.484375 0 L 29.515625 0 L 29.515625 29.03125 L 0.484375 29.03125 Z M 0.484375 0 " clip-rule="nonzero"/></clipPath></defs><g clip-path="url(#9fb4a39f1a)"><path fill="#00ec6a" d="M 15 0 C 22.984375 0 29.515625 6.53125 29.515625 14.515625 C 29.515625 22.5 22.984375 29.03125 15 29.03125 C 7.015625 29.03125 0.484375 22.5 0.484375 14.515625 C 0.484375 6.53125 7.015625 0 15 0 " fill-opacity="1" fill-rule="evenodd"/></g><path fill="#fffffe" d="M 13.570312 21.746094 C 13.570312 22.269531 13.277344 22.605469 12.90625 22.753906 C 12.761719 22.8125 12.613281 22.839844 12.464844 22.839844 C 12.316406 22.839844 12.164062 22.8125 12.023438 22.753906 C 11.648438 22.605469 11.355469 22.269531 11.355469 21.746094 C 11.355469 21.542969 11.351562 21.34375 11.347656 21.128906 C 11.332031 20.679688 11.320312 20.160156 11.339844 19.769531 L 9.710938 19.769531 C 9.558594 19.769531 9.4375 19.644531 9.4375 19.496094 L 9.4375 11.808594 C 9.4375 11.660156 9.558594 11.535156 9.710938 11.535156 L 19.34375 11.535156 C 19.496094 11.535156 19.621094 11.660156 19.621094 11.808594 L 19.621094 19.496094 C 19.621094 19.644531 19.496094 19.769531 19.34375 19.769531 L 17.984375 19.769531 L 17.984375 21.746094 C 17.984375 22.269531 17.695312 22.609375 17.320312 22.761719 C 17.179688 22.816406 17.027344 22.84375 16.878906 22.84375 C 16.730469 22.84375 16.578125 22.816406 16.4375 22.761719 C 16.0625 22.609375 15.773438 22.269531 15.773438 21.746094 C 15.773438 21.285156 15.78125 20.722656 15.789062 20.160156 C 15.792969 20.027344 15.792969 19.898438 15.796875 19.769531 L 13.542969 19.769531 C 13.546875 19.898438 13.550781 20.03125 13.550781 20.160156 C 13.5625 20.71875 13.570312 21.277344 13.570312 21.746094 Z M 12.703125 22.246094 C 12.882812 22.175781 13.019531 22.007812 13.019531 21.746094 C 13.019531 21.164062 13.011719 20.664062 13.003906 20.167969 C 13 19.957031 12.996094 19.742188 12.992188 19.523438 C 12.992188 19.511719 12.992188 19.503906 12.992188 19.496094 C 12.992188 19.34375 13.113281 19.21875 13.265625 19.21875 L 16.078125 19.21875 C 16.230469 19.222656 16.351562 19.347656 16.347656 19.496094 C 16.34375 19.71875 16.339844 19.941406 16.339844 20.164062 C 16.332031 20.65625 16.324219 21.152344 16.324219 21.746094 C 16.324219 22.011719 16.460938 22.179688 16.640625 22.25 C 16.714844 22.28125 16.796875 22.292969 16.878906 22.292969 C 16.960938 22.292969 17.042969 22.28125 17.117188 22.25 C 17.296875 22.179688 17.433594 22.011719 17.433594 21.746094 L 17.433594 19.625 C 17.433594 19.609375 17.433594 19.597656 17.433594 19.589844 C 17.433594 19.585938 17.433594 19.582031 17.433594 19.582031 L 17.4375 19.578125 L 17.433594 19.578125 C 17.433594 19.570312 17.433594 19.5625 17.433594 19.554688 C 17.425781 19.535156 17.425781 19.515625 17.425781 19.496094 C 17.425781 19.34375 17.546875 19.21875 17.699219 19.21875 L 19.070312 19.21875 L 19.070312 12.085938 L 9.988281 12.085938 L 9.988281 19.21875 L 11.636719 19.21875 C 11.652344 19.21875 11.667969 19.21875 11.683594 19.222656 C 11.835938 19.246094 11.9375 19.386719 11.914062 19.539062 L 11.914062 19.535156 C 11.859375 19.878906 11.878906 20.550781 11.894531 21.113281 C 11.902344 21.371094 11.90625 21.605469 11.90625 21.746094 C 11.90625 22.007812 12.046875 22.175781 12.226562 22.246094 C 12.296875 22.273438 12.378906 22.289062 12.464844 22.289062 C 12.546875 22.289062 12.628906 22.273438 12.703125 22.246094 " fill-opacity="1" fill-rule="nonzero"/><path fill="#fffffe" d="M 14.527344 6.03125 C 14.839844 6.03125 15.144531 6.058594 15.449219 6.113281 C 16.636719 6.332031 17.699219 6.964844 18.460938 7.835938 C 19.226562 8.710938 19.691406 9.832031 19.691406 11.027344 C 19.691406 11.296875 19.667969 11.578125 19.613281 11.859375 L 19.574219 12.085938 L 9.484375 12.085938 L 9.441406 11.859375 C 9.390625 11.578125 9.363281 11.296875 9.363281 11.027344 C 9.363281 9.832031 9.832031 8.710938 10.597656 7.835938 C 11.359375 6.964844 12.417969 6.332031 13.609375 6.113281 C 13.910156 6.058594 14.21875 6.03125 14.527344 6.03125 Z M 15.351562 6.65625 C 15.085938 6.605469 14.8125 6.582031 14.527344 6.582031 C 14.246094 6.582031 13.972656 6.605469 13.707031 6.65625 C 12.640625 6.851562 11.691406 7.414062 11.007812 8.195312 C 10.328125 8.976562 9.914062 9.96875 9.914062 11.027344 C 9.914062 11.195312 9.925781 11.367188 9.945312 11.535156 L 19.109375 11.535156 C 19.132812 11.367188 19.140625 11.195312 19.140625 11.027344 C 19.140625 9.96875 18.726562 8.976562 18.046875 8.195312 C 17.363281 7.414062 16.414062 6.851562 15.351562 6.65625 " fill-opacity="1" fill-rule="nonzero"/><path fill="#fffffe" d="M 11.535156 5.773438 C 11.429688 5.667969 11.253906 5.667969 11.148438 5.773438 C 11.039062 5.882812 11.039062 6.054688 11.148438 6.164062 L 12.039062 7.058594 C 12.148438 7.164062 12.320312 7.164062 12.429688 7.058594 C 12.535156 6.949219 12.535156 6.773438 12.429688 6.667969 L 11.535156 5.773438 " fill-opacity="1" fill-rule="nonzero"/><path fill="#fffffe" d="M 17.910156 6.164062 C 18.015625 6.054688 18.015625 5.882812 17.910156 5.773438 C 17.800781 5.667969 17.628906 5.667969 17.519531 5.773438 L 16.628906 6.667969 C 16.519531 6.773438 16.519531 6.949219 16.628906 7.058594 C 16.734375 7.164062 16.910156 7.164062 17.015625 7.058594 L 17.910156 6.164062 " fill-opacity="1" fill-rule="nonzero"/><path fill="#fffffe" d="M 12.273438 9.726562 C 12.566406 9.726562 12.808594 9.488281 12.808594 9.195312 C 12.808594 8.902344 12.566406 8.664062 12.273438 8.664062 C 11.980469 8.664062 11.742188 8.902344 11.742188 9.195312 C 11.742188 9.488281 11.980469 9.726562 12.273438 9.726562 " fill-opacity="1" fill-rule="evenodd"/><path fill="#fffffe" d="M 16.78125 9.726562 C 17.074219 9.726562 17.3125 9.488281 17.3125 9.195312 C 17.3125 8.902344 17.074219 8.664062 16.78125 8.664062 C 16.488281 8.664062 16.25 8.902344 16.25 9.195312 C 16.25 9.488281 16.488281 9.726562 16.78125 9.726562 " fill-opacity="1" fill-rule="evenodd"/><path fill="#fffffe" d="M 20.792969 11.566406 C 21.042969 11.566406 21.269531 11.667969 21.433594 11.832031 C 21.597656 11.996094 21.699219 12.222656 21.699219 12.472656 L 21.699219 16.203125 C 21.699219 16.453125 21.597656 16.679688 21.433594 16.84375 C 21.269531 17.011719 21.042969 17.113281 20.792969 17.113281 C 20.542969 17.113281 20.316406 17.011719 20.152344 16.84375 C 19.988281 16.679688 19.886719 16.453125 19.886719 16.203125 L 19.886719 12.472656 C 19.886719 12.222656 19.988281 11.996094 20.152344 11.832031 C 20.316406 11.667969 20.542969 11.566406 20.792969 11.566406 Z M 20.792969 12.117188 C 20.695312 12.117188 20.605469 12.15625 20.539062 12.222656 C 20.476562 12.289062 20.4375 12.375 20.4375 12.472656 L 20.4375 16.203125 C 20.4375 16.300781 20.476562 16.390625 20.539062 16.457031 C 20.605469 16.519531 20.695312 16.5625 20.792969 16.5625 C 20.890625 16.5625 20.980469 16.519531 21.042969 16.457031 C 21.109375 16.390625 21.148438 16.300781 21.148438 16.203125 L 21.148438 12.472656 C 21.148438 12.375 21.109375 12.289062 21.042969 12.222656 C 20.980469 12.15625 20.890625 12.117188 20.792969 12.117188 " fill-opacity="1" fill-rule="nonzero"/><path fill="#fffffe" d="M 8.265625 11.566406 C 8.511719 11.566406 8.742188 11.667969 8.90625 11.832031 C 9.070312 11.996094 9.171875 12.222656 9.171875 12.472656 L 9.171875 16.203125 C 9.171875 16.453125 9.070312 16.679688 8.90625 16.84375 C 8.742188 17.011719 8.511719 17.113281 8.265625 17.113281 C 8.015625 17.113281 7.785156 17.011719 7.621094 16.84375 C 7.457031 16.679688 7.355469 16.453125 7.355469 16.203125 L 7.355469 12.472656 C 7.355469 12.222656 7.457031 11.996094 7.621094 11.832031 C 7.785156 11.667969 8.015625 11.566406 8.265625 11.566406 Z M 8.265625 12.117188 C 8.164062 12.117188 8.078125 12.15625 8.011719 12.222656 C 7.945312 12.289062 7.90625 12.375 7.90625 12.472656 L 7.90625 16.203125 C 7.90625 16.300781 7.945312 16.390625 8.011719 16.457031 C 8.078125 16.519531 8.164062 16.5625 8.265625 16.5625 C 8.363281 16.5625 8.449219 16.519531 8.515625 16.457031 C 8.582031 16.390625 8.621094 16.300781 8.621094 16.203125 L 8.621094 12.472656 C 8.621094 12.375 8.582031 12.289062 8.515625 12.222656 C 8.449219 12.15625 8.363281 12.117188 8.265625 12.117188 " fill-opacity="1" fill-rule="nonzero"/></svg>