<svg xmlns="http://www.w3.org/2000/svg" xmlns:xlink="http://www.w3.org/1999/xlink" width="30" zoomAndPan="magnify" viewBox="0 0 30 30.000001" height="40" preserveAspectRatio="xMidYMid meet" version="1.0"><defs><clipPath id="6bc7c701e1"><path d="M 11 22 L 27 22 L 27 29.03125 L 11 29.03125 Z M 11 22 " clip-rule="nonzero"/></clipPath><clipPath id="5a57d9fbf5"><path d="M 0.484375 0 L 11 0 L 11 10 L 0.484375 10 Z M 0.484375 0 " clip-rule="nonzero"/></clipPath><clipPath id="0b3efba89a"><path d="M 19 0 L 29.515625 0 L 29.515625 10 L 19 10 Z M 19 0 " clip-rule="nonzero"/></clipPath><clipPath id="96740bb77a"><path d="M 0.484375 19 L 11 19 L 11 29.03125 L 0.484375 29.03125 Z M 0.484375 19 " clip-rule="nonzero"/></clipPath><clipPath id="70b4e21b05"><path d="M 23 11 L 29.515625 11 L 29.515625 21 L 23 21 Z M 23 11 " clip-rule="nonzero"/></clipPath><clipPath id="6bd9ed3c86"><path d="M 0.484375 11 L 5 11 L 5 14 L 0.484375 14 Z M 0.484375 11 " clip-rule="nonzero"/></clipPath><clipPath id="28e3501a12"><path d="M 28 19 L 29.515625 19 L 29.515625 24 L 28 24 Z M 28 19 " clip-rule="nonzero"/></clipPath><clipPath id="198b7ea7e0"><path d="M 0.484375 13 L 4 13 L 4 17 L 0.484375 17 Z M 0.484375 13 " clip-rule="nonzero"/></clipPath><clipPath id="57ede481fa"><path d="M 28 24 L 29.515625 24 L 29.515625 27 L 28 27 Z M 28 24 " clip-rule="nonzero"/></clipPath><clipPath id="d516890bd9"><path d="M 28 27 L 29.515625 27 L 29.515625 29.03125 L 28 29.03125 Z M 28 27 " clip-rule="nonzero"/></clipPath></defs><path fill="#000000" d="M 7.386719 13.832031 C 7.386719 13.398438 7.386719 12.960938 7.386719 12.453125 C 6.914062 12.453125 6.492188 12.453125 6.03125 12.453125 C 6.03125 11.976562 6.03125 11.570312 6.03125 11.09375 C 7.820312 11.09375 9.625 11.09375 11.503906 11.09375 C 11.503906 10.140625 11.503906 9.253906 11.503906 8.292969 C 12.027344 8.292969 12.476562 8.292969 12.929688 8.292969 L 12.910156 8.269531 C 12.910156 9.640625 12.910156 11.011719 12.910156 12.453125 C 12.421875 12.453125 11.996094 12.453125 11.582031 12.453125 C 11.582031 13.871094 11.582031 15.214844 11.582031 16.582031 C 12.058594 16.582031 12.492188 16.582031 12.925781 16.582031 C 12.925781 17.03125 12.925781 17.480469 12.925781 17.933594 C 13.421875 17.933594 13.84375 17.933594 14.257812 17.933594 C 14.257812 17.464844 14.257812 17.042969 14.257812 16.601562 C 13.773438 16.601562 13.339844 16.601562 12.90625 16.601562 C 12.90625 16.148438 12.90625 15.695312 12.90625 15.171875 C 13.433594 15.171875 13.859375 15.171875 14.332031 15.171875 C 14.332031 14.691406 14.332031 14.285156 14.332031 13.804688 C 14.804688 13.804688 15.226562 13.804688 15.699219 13.804688 C 15.699219 13.296875 15.699219 12.863281 15.699219 12.425781 L 15.683594 12.449219 C 16.148438 12.441406 16.617188 12.433594 17.085938 12.425781 C 17.085938 13.335938 17.085938 14.246094 17.085938 15.160156 C 17.578125 15.160156 18 15.160156 18.414062 15.160156 C 18.414062 14.230469 18.414062 13.351562 18.414062 12.445312 C 17.933594 12.445312 17.5 12.445312 17.0625 12.445312 C 17.0625 12.011719 17.0625 11.578125 17.0625 11.097656 C 18.457031 11.097656 19.800781 11.097656 21.242188 11.097656 C 21.242188 11.542969 21.242188 11.992188 21.242188 12.445312 C 20.792969 12.445312 20.34375 12.445312 19.890625 12.445312 C 19.890625 12.941406 19.890625 13.363281 19.890625 13.773438 C 20.359375 13.773438 20.78125 13.773438 21.222656 13.773438 C 21.222656 13.292969 21.222656 12.859375 21.222656 12.425781 C 21.65625 12.425781 22.09375 12.425781 22.597656 12.425781 C 22.597656 13.359375 22.597656 14.246094 22.597656 15.175781 C 23.089844 15.195312 23.515625 15.214844 23.96875 15.234375 C 23.96875 15.679688 23.96875 16.085938 23.96875 16.566406 C 23.550781 16.566406 23.128906 16.566406 22.605469 16.566406 C 22.605469 17.546875 22.605469 18.460938 22.605469 19.375 L 22.628906 19.355469 C 21.714844 19.355469 20.804688 19.355469 19.820312 19.355469 C 19.820312 18.855469 19.820312 18.433594 19.820312 17.9375 C 19.324219 17.9375 18.902344 17.9375 18.433594 17.9375 C 18.433594 17.460938 18.433594 17.054688 18.433594 16.640625 C 17.960938 16.640625 17.539062 16.640625 17.046875 16.640625 C 17.046875 17.109375 17.046875 17.53125 17.046875 18 C 16.566406 18 16.160156 18 15.683594 18 C 15.683594 18.929688 15.683594 19.816406 15.683594 20.769531 C 15.1875 20.769531 14.765625 20.769531 14.296875 20.769531 C 14.296875 21.277344 14.296875 21.710938 14.296875 22.144531 L 14.316406 22.125 C 13.863281 22.125 13.410156 22.125 12.910156 22.125 C 12.910156 22.660156 12.910156 23.09375 12.910156 23.53125 L 12.929688 23.507812 C 12.496094 23.507812 12.0625 23.507812 11.5625 23.507812 C 11.5625 21.679688 11.5625 19.875 11.5625 18.003906 C 10.152344 18.003906 8.808594 18.003906 7.390625 18.003906 C 7.390625 17.484375 7.390625 17.035156 7.390625 16.582031 L 7.371094 16.601562 C 8.277344 16.601562 9.1875 16.601562 10.105469 16.601562 C 10.105469 16.09375 10.105469 15.671875 10.105469 15.183594 C 9.640625 15.183594 9.21875 15.183594 8.753906 15.183594 C 8.753906 14.679688 8.753906 14.246094 8.753906 13.8125 C 9.203125 13.8125 9.652344 13.8125 10.105469 13.8125 C 10.105469 13.316406 10.105469 12.898438 10.105469 12.484375 C 9.636719 12.484375 9.214844 12.484375 8.773438 12.484375 C 8.773438 12.96875 8.773438 13.402344 8.773438 13.832031 C 8.304688 13.828125 7.835938 13.820312 7.371094 13.8125 Z M 19.886719 15.222656 C 19.886719 15.699219 19.886719 16.121094 19.886719 16.546875 C 20.351562 16.546875 20.773438 16.546875 21.179688 16.546875 C 21.179688 16.078125 21.179688 15.65625 21.179688 15.222656 C 20.738281 15.222656 20.347656 15.222656 19.886719 15.222656 Z M 19.886719 15.222656 " fill-opacity="1" fill-rule="nonzero"/><g clip-path="url(#6bc7c701e1)"><path fill="#000000" d="M 12.90625 24.914062 C 12.914062 24.445312 12.921875 23.976562 12.929688 23.511719 C 12.929688 23.511719 12.910156 23.53125 12.910156 23.53125 C 13.363281 23.53125 13.816406 23.53125 14.316406 23.53125 C 14.316406 22.996094 14.316406 22.5625 14.316406 22.125 L 14.296875 22.144531 C 14.746094 22.144531 15.195312 22.144531 15.714844 22.144531 C 15.714844 22.644531 15.714844 23.066406 15.714844 23.511719 C 16.21875 23.511719 16.652344 23.511719 17.085938 23.511719 C 17.085938 24.421875 17.085938 25.335938 17.085938 26.242188 C 17.582031 26.242188 18.003906 26.242188 18.453125 26.242188 C 18.453125 25.300781 18.453125 24.40625 18.453125 23.511719 C 18.917969 23.511719 19.386719 23.511719 19.855469 23.511719 C 19.855469 23.964844 19.855469 24.417969 19.855469 24.917969 C 20.371094 24.917969 20.804688 24.917969 21.242188 24.917969 L 21.21875 24.898438 C 21.21875 25.332031 21.21875 25.769531 21.21875 26.277344 C 20.765625 26.277344 20.34375 26.277344 19.882812 26.277344 C 19.882812 26.757812 19.882812 27.164062 19.882812 27.625 C 20.753906 27.625 21.640625 27.625 22.601562 27.625 C 22.601562 27.210938 22.601562 26.789062 22.601562 26.328125 C 23.078125 26.328125 23.488281 26.328125 23.96875 26.328125 C 23.96875 26.738281 23.96875 27.164062 23.96875 27.664062 C 24.925781 27.664062 25.8125 27.664062 26.734375 27.664062 C 26.734375 28.144531 26.734375 28.550781 26.734375 29.011719 C 24.015625 29.011719 21.285156 29.011719 18.476562 29.011719 C 18.476562 28.601562 18.476562 28.175781 18.476562 27.71875 C 18 27.71875 17.589844 27.71875 17.109375 27.71875 C 17.109375 28.125 17.109375 28.546875 17.109375 29.019531 C 16.613281 29.019531 16.1875 29.019531 15.714844 29.019531 C 15.714844 28.601562 15.714844 28.195312 15.714844 27.734375 C 15.246094 27.734375 14.820312 27.734375 14.324219 27.734375 C 14.324219 28.140625 14.324219 28.566406 14.324219 29.027344 C 13.382812 29.027344 12.511719 29.027344 11.589844 29.027344 C 11.589844 27.695312 11.589844 26.347656 11.589844 24.898438 C 12.023438 24.898438 12.476562 24.898438 12.925781 24.898438 C 12.925781 25.347656 12.925781 25.796875 12.925781 26.25 C 13.886719 26.25 14.769531 26.25 15.636719 26.25 C 15.636719 25.78125 15.636719 25.359375 15.636719 24.917969 C 14.695312 24.914062 13.800781 24.914062 12.90625 24.914062 Z M 12.90625 24.914062 " fill-opacity="1" fill-rule="nonzero"/></g><g clip-path="url(#5a57d9fbf5)"><path fill="#000000" d="M 0.5 0 C 3.726562 0 6.902344 0 10.113281 0 C 10.113281 3.207031 10.113281 6.382812 10.113281 9.613281 C 6.933594 9.613281 3.742188 9.613281 0.5 9.613281 C 0.5 6.4375 0.5 3.246094 0.5 0 Z M 1.886719 1.386719 C 1.886719 3.710938 1.886719 5.976562 1.886719 8.226562 C 4.203125 8.226562 6.472656 8.226562 8.726562 8.226562 C 8.726562 5.917969 8.726562 3.667969 8.726562 1.386719 C 6.4375 1.386719 4.1875 1.386719 1.886719 1.386719 Z M 1.886719 1.386719 " fill-opacity="1" fill-rule="nonzero"/></g><g clip-path="url(#0b3efba89a)"><path fill="#000000" d="M 29.496094 9.636719 C 26.269531 9.636719 23.09375 9.636719 19.882812 9.636719 C 19.882812 6.429688 19.882812 3.253906 19.882812 0.0234375 C 23.0625 0.0234375 26.253906 0.0234375 29.496094 0.0234375 C 29.496094 3.199219 29.496094 6.390625 29.496094 9.636719 Z M 21.261719 8.246094 C 23.59375 8.246094 25.84375 8.246094 28.117188 8.246094 C 28.117188 5.941406 28.117188 3.671875 28.117188 1.402344 C 25.804688 1.402344 23.535156 1.402344 21.261719 1.402344 C 21.261719 3.703125 21.261719 5.957031 21.261719 8.246094 Z M 21.261719 8.246094 " fill-opacity="1" fill-rule="nonzero"/></g><g clip-path="url(#96740bb77a)"><path fill="#000000" d="M 0.5 19.394531 C 3.722656 19.394531 6.898438 19.394531 10.109375 19.394531 C 10.109375 22.601562 10.109375 25.773438 10.109375 29.007812 C 6.933594 29.007812 3.742188 29.007812 0.5 29.007812 C 0.5 25.835938 0.5 22.640625 0.5 19.394531 Z M 8.722656 27.640625 C 8.722656 25.339844 8.722656 23.070312 8.722656 20.796875 C 6.414062 20.796875 4.144531 20.796875 1.890625 20.796875 C 1.890625 23.109375 1.890625 25.378906 1.890625 27.640625 C 4.195312 27.640625 6.445312 27.640625 8.722656 27.640625 Z M 8.722656 27.640625 " fill-opacity="1" fill-rule="nonzero"/></g><g clip-path="url(#70b4e21b05)"><path fill="#000000" d="M 24.011719 19.375 C 24.011719 18.9375 24.011719 18.503906 24.011719 17.996094 C 24.464844 17.996094 24.890625 17.996094 25.351562 17.996094 C 25.351562 16.578125 25.351562 15.230469 25.351562 13.835938 C 24.910156 13.835938 24.503906 13.835938 24.050781 13.835938 C 24.050781 13.367188 24.050781 12.941406 24.050781 12.445312 C 24.476562 12.445312 24.902344 12.445312 25.371094 12.445312 C 25.371094 11.964844 25.371094 11.558594 25.371094 11.101562 C 25.84375 11.101562 26.265625 11.101562 26.761719 11.101562 C 26.761719 11.519531 26.761719 11.945312 26.761719 12.417969 C 27.703125 12.417969 28.574219 12.417969 29.492188 12.417969 C 29.492188 14.273438 29.492188 16.078125 29.492188 17.988281 C 29.054688 17.988281 28.601562 17.988281 28.152344 17.988281 C 28.152344 17.078125 28.152344 16.167969 28.152344 15.253906 C 27.65625 15.253906 27.238281 15.253906 26.820312 15.253906 C 26.820312 16.183594 26.820312 17.0625 26.820312 17.96875 C 27.304688 17.96875 27.738281 17.96875 28.171875 17.96875 C 28.164062 18.4375 28.15625 18.90625 28.148438 19.375 L 28.171875 19.355469 C 27.71875 19.355469 27.269531 19.355469 26.75 19.355469 C 26.75 19.871094 26.75 20.292969 26.75 20.761719 C 26.246094 20.761719 25.8125 20.761719 25.378906 20.761719 C 25.378906 20.308594 25.378906 19.855469 25.378906 19.355469 C 24.867188 19.355469 24.429688 19.355469 23.996094 19.355469 Z M 24.011719 19.375 " fill-opacity="1" fill-rule="nonzero"/></g><path fill="#000000" d="M 12.929688 8.292969 C 12.929688 7.394531 12.929688 6.5 12.929688 5.558594 C 13.382812 5.558594 13.804688 5.558594 14.28125 5.558594 C 14.28125 5.972656 14.28125 6.382812 14.28125 6.84375 C 14.75 6.84375 15.171875 6.84375 15.671875 6.84375 C 15.671875 6.433594 15.671875 6.007812 15.671875 5.535156 C 16.152344 5.535156 16.558594 5.535156 17.039062 5.535156 C 17.039062 5.066406 17.039062 4.640625 17.039062 4.171875 C 17.535156 4.171875 17.960938 4.171875 18.421875 4.171875 C 18.421875 5.050781 18.421875 5.917969 18.421875 6.859375 C 18.011719 6.859375 17.589844 6.859375 17.0625 6.859375 C 17.0625 7.386719 17.0625 7.835938 17.0625 8.289062 L 17.082031 8.269531 C 16.648438 8.269531 16.210938 8.269531 15.679688 8.269531 C 15.679688 9.699219 15.679688 11.074219 15.679688 12.449219 C 15.679688 12.449219 15.699219 12.429688 15.699219 12.429688 C 15.246094 12.429688 14.796875 12.429688 14.28125 12.429688 C 14.28125 11.003906 14.28125 9.660156 14.28125 8.273438 C 13.777344 8.273438 13.34375 8.273438 12.90625 8.273438 Z M 12.929688 8.292969 " fill-opacity="1" fill-rule="nonzero"/><g clip-path="url(#6bd9ed3c86)"><path fill="#000000" d="M 3.234375 13.832031 C 3.234375 13.398438 3.234375 12.960938 3.234375 12.453125 C 2.296875 12.453125 1.414062 12.453125 0.492188 12.453125 C 0.492188 11.960938 0.492188 11.539062 0.492188 11.085938 C 1.847656 11.085938 3.175781 11.085938 4.554688 11.085938 C 4.554688 11.964844 4.554688 12.847656 4.554688 13.808594 C 4.117188 13.808594 3.664062 13.808594 3.214844 13.808594 Z M 3.234375 13.832031 " fill-opacity="1" fill-rule="nonzero"/></g><g clip-path="url(#28e3501a12)"><path fill="#000000" d="M 28.148438 19.375 C 28.582031 19.375 29.015625 19.375 29.496094 19.375 C 29.496094 20.746094 29.496094 22.085938 29.496094 23.511719 C 29.050781 23.511719 28.601562 23.511719 28.148438 23.511719 L 28.167969 23.53125 C 28.167969 22.140625 28.167969 20.746094 28.167969 19.355469 Z M 28.148438 19.375 " fill-opacity="1" fill-rule="nonzero"/></g><g clip-path="url(#198b7ea7e0)"><path fill="#000000" d="M 3.214844 13.808594 C 3.214844 14.707031 3.214844 15.601562 3.214844 16.542969 C 2.761719 16.542969 2.339844 16.542969 1.84375 16.542969 C 1.84375 16.121094 1.84375 15.695312 1.84375 15.226562 C 1.363281 15.226562 0.960938 15.226562 0.5 15.226562 C 0.5 14.753906 0.5 14.332031 0.5 13.828125 C 1.40625 13.828125 2.320312 13.828125 3.234375 13.828125 C 3.234375 13.832031 3.214844 13.808594 3.214844 13.808594 Z M 3.214844 13.808594 " fill-opacity="1" fill-rule="nonzero"/></g><path fill="#000000" d="M 17.105469 2.707031 C 17.105469 1.796875 17.105469 0.929688 17.105469 0.015625 C 17.535156 0.015625 17.957031 0.015625 18.421875 0.015625 C 18.421875 0.902344 18.421875 1.785156 18.421875 2.707031 C 17.992188 2.707031 17.585938 2.707031 17.105469 2.707031 Z M 17.105469 2.707031 " fill-opacity="1" fill-rule="nonzero"/><path fill="#000000" d="M 7.386719 16.585938 C 6.921875 16.582031 6.453125 16.582031 5.984375 16.582031 L 6.003906 16.601562 C 6.003906 15.707031 6.003906 14.808594 6.003906 13.832031 C 6.484375 13.832031 6.9375 13.832031 7.386719 13.832031 C 7.386719 13.832031 7.367188 13.8125 7.367188 13.8125 C 7.367188 14.742188 7.367188 15.675781 7.367188 16.605469 Z M 7.386719 16.585938 " fill-opacity="1" fill-rule="nonzero"/><path fill="#000000" d="M 15.664062 2.796875 C 15.664062 3.226562 15.664062 3.632812 15.664062 4.082031 C 15.226562 4.082031 14.804688 4.082031 14.34375 4.082031 C 14.34375 3.664062 14.34375 3.257812 14.34375 2.796875 C 14.746094 2.796875 15.167969 2.796875 15.664062 2.796875 Z M 15.664062 2.796875 " fill-opacity="1" fill-rule="nonzero"/><path fill="#000000" d="M 17.0625 8.289062 C 17.496094 8.289062 17.929688 8.289062 18.410156 8.289062 C 18.410156 8.734375 18.410156 9.152344 18.410156 9.621094 C 18 9.621094 17.578125 9.621094 17.082031 9.621094 C 17.082031 9.167969 17.082031 8.71875 17.082031 8.269531 C 17.082031 8.269531 17.0625 8.289062 17.0625 8.289062 Z M 17.0625 8.289062 " fill-opacity="1" fill-rule="nonzero"/><path fill="#000000" d="M 22.605469 19.375 C 23.074219 19.375 23.542969 19.375 24.011719 19.375 C 24.011719 19.375 23.992188 19.355469 23.992188 19.355469 C 24 19.824219 24.007812 20.292969 24.011719 20.757812 C 23.542969 20.757812 23.074219 20.757812 22.605469 20.757812 C 22.613281 20.292969 22.621094 19.824219 22.625 19.355469 Z M 22.605469 19.375 " fill-opacity="1" fill-rule="nonzero"/><path fill="#000000" d="M 5.984375 16.582031 C 5.984375 17.015625 5.984375 17.449219 5.984375 17.929688 C 5.539062 17.929688 5.121094 17.929688 4.652344 17.929688 C 4.652344 17.519531 4.652344 17.097656 4.652344 16.601562 C 5.105469 16.601562 5.554688 16.601562 6.003906 16.601562 C 6.003906 16.601562 5.984375 16.582031 5.984375 16.582031 Z M 5.984375 16.582031 " fill-opacity="1" fill-rule="nonzero"/><path fill="#000000" d="M 24.011719 23.507812 C 23.542969 23.507812 23.074219 23.507812 22.609375 23.507812 L 22.625 23.53125 C 22.621094 23.0625 22.613281 22.59375 22.609375 22.125 C 23.074219 22.125 23.542969 22.125 24.011719 22.125 C 24.003906 22.59375 24 23.0625 23.992188 23.53125 Z M 24.011719 23.507812 " fill-opacity="1" fill-rule="nonzero"/><path fill="#000000" d="M 15.632812 1.339844 C 15.1875 1.339844 14.800781 1.339844 14.359375 1.339844 C 14.359375 0.90625 14.359375 0.484375 14.359375 0.015625 C 14.765625 0.015625 15.1875 0.015625 15.632812 0.015625 C 15.632812 0.460938 15.632812 0.898438 15.632812 1.339844 Z M 15.632812 1.339844 " fill-opacity="1" fill-rule="nonzero"/><path fill="#000000" d="M 22.609375 23.507812 C 22.609375 23.945312 22.609375 24.378906 22.609375 24.894531 C 22.125 24.894531 21.671875 24.894531 21.222656 24.894531 C 21.222656 24.894531 21.242188 24.914062 21.242188 24.914062 C 21.234375 24.445312 21.226562 23.976562 21.222656 23.511719 C 21.691406 23.515625 22.160156 23.523438 22.628906 23.527344 Z M 22.609375 23.507812 " fill-opacity="1" fill-rule="nonzero"/><path fill="#000000" d="M 25.398438 24.894531 C 24.960938 24.894531 24.527344 24.894531 24.011719 24.894531 C 24.011719 24.414062 24.011719 23.960938 24.011719 23.507812 C 24.011719 23.507812 23.992188 23.53125 23.992188 23.53125 C 24.460938 23.523438 24.929688 23.515625 25.398438 23.507812 C 25.390625 23.976562 25.382812 24.445312 25.378906 24.914062 Z M 25.398438 24.894531 " fill-opacity="1" fill-rule="nonzero"/><path fill="#000000" d="M 28.148438 23.507812 C 28.148438 23.976562 28.148438 24.445312 28.148438 24.914062 L 28.167969 24.894531 C 27.699219 24.894531 27.230469 24.894531 26.765625 24.894531 L 26.78125 24.914062 C 26.777344 24.445312 26.769531 23.976562 26.765625 23.507812 C 27.230469 23.515625 27.699219 23.523438 28.167969 23.53125 Z M 28.148438 23.507812 " fill-opacity="1" fill-rule="nonzero"/><path fill="#000000" d="M 11.546875 4.085938 C 11.546875 3.625 11.546875 3.234375 11.546875 2.792969 C 11.980469 2.792969 12.402344 2.792969 12.875 2.792969 C 12.875 3.199219 12.875 3.621094 12.875 4.085938 C 12.445312 4.085938 12.023438 4.085938 11.546875 4.085938 Z M 11.546875 4.085938 " fill-opacity="1" fill-rule="nonzero"/><path fill="#000000" d="M 26.765625 24.894531 C 26.765625 25.328125 26.765625 25.761719 26.765625 26.242188 C 26.316406 26.242188 25.894531 26.242188 25.398438 26.242188 C 25.398438 25.796875 25.398438 25.34375 25.398438 24.894531 C 25.398438 24.894531 25.378906 24.914062 25.378906 24.914062 C 25.847656 24.914062 26.316406 24.914062 26.785156 24.914062 Z M 26.765625 24.894531 " fill-opacity="1" fill-rule="nonzero"/><g clip-path="url(#57ede481fa)"><path fill="#000000" d="M 28.148438 24.914062 C 28.578125 24.914062 29.011719 24.914062 29.496094 24.914062 C 29.496094 25.359375 29.496094 25.777344 29.496094 26.246094 C 29.082031 26.246094 28.664062 26.246094 28.167969 26.246094 C 28.167969 25.792969 28.167969 25.34375 28.167969 24.894531 C 28.167969 24.894531 28.148438 24.914062 28.148438 24.914062 Z M 28.148438 24.914062 " fill-opacity="1" fill-rule="nonzero"/></g><g clip-path="url(#d516890bd9)"><path fill="#000000" d="M 29.511719 27.722656 C 29.511719 28.183594 29.511719 28.589844 29.511719 29.027344 C 29.078125 29.027344 28.671875 29.027344 28.210938 29.027344 C 28.210938 28.617188 28.210938 28.195312 28.210938 27.722656 C 28.617188 27.722656 29.039062 27.722656 29.511719 27.722656 Z M 29.511719 27.722656 " fill-opacity="1" fill-rule="nonzero"/></g><path fill="#000000" d="M 22.625 22.144531 C 22.191406 22.144531 21.757812 22.144531 21.242188 22.144531 C 21.242188 22.625 21.242188 23.078125 21.242188 23.53125 C 20.773438 23.53125 20.304688 23.53125 19.835938 23.53125 C 19.835938 22.632812 19.835938 21.738281 19.835938 20.738281 C 20.800781 20.738281 21.714844 20.738281 22.625 20.738281 C 22.625 21.207031 22.625 21.675781 22.625 22.144531 Z M 22.625 22.144531 " fill-opacity="1" fill-rule="nonzero"/><path fill="#000000" d="M 18.429688 19.398438 C 18.429688 19.84375 18.429688 20.25 18.429688 20.703125 C 18.003906 20.703125 17.582031 20.703125 17.117188 20.703125 C 17.117188 20.277344 17.117188 19.855469 17.117188 19.398438 C 17.542969 19.398438 17.945312 19.398438 18.429688 19.398438 Z M 18.429688 19.398438 " fill-opacity="1" fill-rule="nonzero"/><path fill="#000000" d="M 18.472656 23.53125 C 18.003906 23.53125 17.535156 23.53125 17.066406 23.53125 C 17.066406 23.097656 17.066406 22.664062 17.066406 22.183594 C 17.53125 22.183594 17.953125 22.183594 18.472656 22.183594 C 18.472656 22.628906 18.472656 23.082031 18.472656 23.53125 Z M 18.472656 23.53125 " fill-opacity="1" fill-rule="nonzero"/><path fill="#000000" d="M 3.269531 2.769531 C 4.648438 2.769531 5.976562 2.769531 7.339844 2.769531 C 7.339844 4.128906 7.339844 5.457031 7.339844 6.839844 C 6.011719 6.839844 4.667969 6.839844 3.269531 6.839844 C 3.269531 5.515625 3.269531 4.171875 3.269531 2.769531 Z M 3.269531 2.769531 " fill-opacity="1" fill-rule="nonzero"/><path fill="#000000" d="M 22.664062 2.773438 C 24.046875 2.773438 25.375 2.773438 26.738281 2.773438 C 26.738281 4.132812 26.738281 5.460938 26.738281 6.84375 C 25.402344 6.84375 24.058594 6.84375 22.664062 6.84375 C 22.664062 5.511719 22.664062 4.167969 22.664062 2.773438 Z M 22.664062 2.773438 " fill-opacity="1" fill-rule="nonzero"/><path fill="#000000" d="M 3.277344 22.160156 C 4.636719 22.160156 5.964844 22.160156 7.335938 22.160156 C 7.335938 23.53125 7.335938 24.875 7.335938 26.253906 C 5.988281 26.253906 4.660156 26.253906 3.277344 26.253906 C 3.277344 24.921875 3.277344 23.578125 3.277344 22.160156 Z M 3.277344 22.160156 " fill-opacity="1" fill-rule="nonzero"/><path fill="#000000" d="M 25.398438 22.144531 C 24.929688 22.144531 24.460938 22.144531 23.992188 22.144531 C 23.992188 21.675781 23.992188 21.207031 23.992188 20.738281 C 24.460938 20.738281 24.929688 20.738281 25.398438 20.738281 C 25.398438 21.207031 25.398438 21.675781 25.398438 22.144531 Z M 25.398438 22.144531 " fill-opacity="1" fill-rule="nonzero"/><path fill="#000000" d="M 26.78125 23.53125 C 26.3125 23.53125 25.847656 23.53125 25.378906 23.53125 C 25.378906 23.0625 25.378906 22.59375 25.378906 22.125 C 25.8125 22.125 26.246094 22.125 26.78125 22.125 C 26.78125 22.625 26.78125 23.078125 26.78125 23.53125 Z M 26.78125 23.53125 " fill-opacity="1" fill-rule="nonzero"/></svg>