<svg xmlns="http://www.w3.org/2000/svg" xmlns:xlink="http://www.w3.org/1999/xlink" width="40" zoomAndPan="magnify" viewBox="0 0 30 30.000001" height="40" preserveAspectRatio="xMidYMid meet" version="1.0"><defs><clipPath id="cf4e704d11"><path d="M 2.914062 0 L 26.867188 0 L 26.867188 29.03125 L 2.914062 29.03125 Z M 2.914062 0 " clip-rule="nonzero"/></clipPath></defs><g clip-path="url(#cf4e704d11)"><path fill="#5eaaed" d="M 11.164062 29.03125 C 6.621094 29.03125 2.921875 25.375 2.921875 20.878906 C 2.921875 19.046875 4.238281 15.804688 6.824219 11.246094 C 8.726562 7.898438 10.652344 5.023438 10.671875 4.992188 C 10.78125 4.832031 10.964844 4.730469 11.15625 4.730469 C 11.351562 4.730469 11.539062 4.832031 11.644531 4.992188 C 11.664062 5.023438 13.59375 7.898438 15.496094 11.246094 C 18.085938 15.804688 19.398438 19.046875 19.398438 20.878906 C 19.398438 25.375 15.707031 29.03125 11.164062 29.03125 Z M 11.164062 6.382812 C 10.476562 7.445312 9.15625 9.515625 7.847656 11.820312 C 4.746094 17.28125 4.101562 19.757812 4.101562 20.878906 C 4.09375 24.734375 7.265625 27.871094 11.164062 27.871094 C 15.0625 27.871094 18.230469 24.734375 18.230469 20.878906 C 18.230469 19.757812 17.578125 17.273438 14.484375 11.820312 C 13.171875 9.515625 11.851562 7.4375 11.164062 6.382812 Z M 12.089844 24.992188 C 13.675781 24.121094 14.945312 22.738281 15.660156 21.101562 C 15.789062 20.804688 15.652344 20.460938 15.355469 20.335938 C 15.054688 20.207031 14.710938 20.339844 14.578125 20.636719 C 13.964844 22.042969 12.878906 23.230469 11.515625 23.976562 C 11.234375 24.132812 11.128906 24.484375 11.285156 24.765625 C 11.390625 24.957031 11.59375 25.0625 11.804688 25.0625 C 11.902344 25.0625 11.996094 25.039062 12.089844 24.992188 Z M 22 14.074219 C 19.324219 14.074219 17.140625 11.921875 17.140625 9.265625 C 17.140625 6.828125 21.0625 0.921875 21.507812 0.253906 C 21.617188 0.09375 21.800781 -0.00390625 21.996094 -0.00390625 C 22.1875 -0.00390625 22.375 0.09375 22.480469 0.253906 C 22.925781 0.921875 26.847656 6.828125 26.847656 9.265625 C 26.859375 11.921875 24.683594 14.074219 22 14.074219 Z M 22 1.648438 C 20.648438 3.75 18.3125 7.710938 18.3125 9.273438 C 18.3125 11.28125 19.96875 12.917969 22 12.917969 C 24.03125 12.917969 25.6875 11.28125 25.6875 9.273438 C 25.6875 7.710938 23.351562 3.75 22 1.648438 Z M 22.292969 11.210938 C 23.039062 10.804688 23.667969 10.203125 24.109375 9.480469 C 24.273438 9.210938 24.183594 8.847656 23.90625 8.6875 C 23.632812 8.523438 23.269531 8.609375 23.105469 8.882812 C 22.769531 9.433594 22.292969 9.886719 21.730469 10.195312 C 21.449219 10.351562 21.34375 10.707031 21.5 10.984375 C 21.605469 11.175781 21.804688 11.28125 22.019531 11.28125 C 22.105469 11.28125 22.199219 11.257812 22.292969 11.210938 Z M 22.292969 11.210938 " fill-opacity="1" fill-rule="nonzero"/></g></svg>