<svg xmlns="http://www.w3.org/2000/svg" xmlns:xlink="http://www.w3.org/1999/xlink" width="40" zoomAndPan="magnify" viewBox="0 0 30 30.000001" height="40" preserveAspectRatio="xMidYMid meet" version="1.0"><defs><clipPath id="b34ad10100"><path d="M 1 4 L 28 4 L 28 24.929688 L 1 24.929688 Z M 1 4 " clip-rule="nonzero"/></clipPath><clipPath id="59838c0da1"><path d="M 0.484375 3.882812 L 29.515625 3.882812 L 29.515625 24.929688 L 0.484375 24.929688 Z M 0.484375 3.882812 " clip-rule="nonzero"/></clipPath></defs><g clip-path="url(#b34ad10100)"><path fill="#a4d4ff" d="M 22.339844 22.859375 C 23.011719 22.859375 23.558594 22.316406 23.558594 21.652344 C 23.558594 20.984375 23.011719 20.445312 22.339844 20.445312 C 21.664062 20.445312 21.117188 20.984375 21.117188 21.652344 C 21.117188 22.316406 21.664062 22.859375 22.339844 22.859375 Z M 7.40625 20.445312 C 6.734375 20.445312 6.1875 20.984375 6.1875 21.652344 C 6.1875 22.316406 6.734375 22.859375 7.40625 22.859375 C 8.078125 22.859375 8.625 22.316406 8.625 21.652344 C 8.625 20.984375 8.078125 20.445312 7.40625 20.445312 Z M 22.339844 19.007812 C 23.808594 19.007812 25.007812 20.195312 25.007812 21.652344 C 25.007812 23.109375 23.808594 24.292969 22.339844 24.292969 C 20.867188 24.292969 19.667969 23.109375 19.667969 21.652344 C 19.667969 20.195312 20.867188 19.007812 22.339844 19.007812 Z M 1.789062 16.964844 L 1.789062 4.519531 L 17.71875 4.519531 L 17.71875 16.964844 Z M 19.90625 13.738281 L 19.90625 10.902344 L 23.746094 10.902344 L 25.601562 13.738281 Z M 27.722656 17.546875 L 27.953125 17.546875 L 27.953125 18.875 L 27.722656 18.875 C 27.351562 18.875 27.050781 18.574219 27.050781 18.210938 C 27.050781 17.84375 27.351562 17.546875 27.722656 17.546875 Z M 10.074219 21.652344 C 10.074219 23.109375 8.878906 24.292969 7.40625 24.292969 C 5.933594 24.292969 4.738281 23.109375 4.738281 21.652344 C 4.738281 20.195312 5.933594 19.007812 7.40625 19.007812 C 8.878906 19.007812 10.074219 20.195312 10.074219 21.652344 Z M 10.074219 21.652344 " fill-opacity="1" fill-rule="evenodd"/></g><g clip-path="url(#59838c0da1)"><path fill="#1f4571" d="M 21.4375 15.546875 C 21.4375 15.769531 21.253906 15.953125 21.027344 15.953125 L 19.667969 15.953125 C 19.441406 15.953125 19.257812 15.769531 19.257812 15.546875 C 19.257812 15.320312 19.441406 15.140625 19.667969 15.140625 L 21.027344 15.140625 C 21.253906 15.140625 21.4375 15.320312 21.4375 15.546875 Z M 7.40625 22.21875 C 7.089844 22.21875 6.832031 21.964844 6.832031 21.652344 C 6.832031 21.335938 7.089844 21.082031 7.40625 21.082031 C 7.722656 21.082031 7.980469 21.335938 7.980469 21.652344 C 7.980469 21.964844 7.722656 22.21875 7.40625 22.21875 Z M 7.40625 20.269531 C 6.636719 20.269531 6.011719 20.890625 6.011719 21.652344 C 6.011719 22.414062 6.636719 23.03125 7.40625 23.03125 C 8.175781 23.03125 8.800781 22.414062 8.800781 21.652344 C 8.800781 20.890625 8.175781 20.269531 7.40625 20.269531 Z M 22.339844 22.21875 C 22.019531 22.21875 21.765625 21.964844 21.765625 21.652344 C 21.765625 21.335938 22.019531 21.082031 22.339844 21.082031 C 22.65625 21.082031 22.914062 21.335938 22.914062 21.652344 C 22.914062 21.964844 22.65625 22.21875 22.339844 22.21875 Z M 22.339844 20.269531 C 21.570312 20.269531 20.941406 20.890625 20.941406 21.652344 C 20.941406 22.414062 21.570312 23.03125 22.339844 23.03125 C 23.109375 23.03125 23.734375 22.414062 23.734375 21.652344 C 23.734375 20.890625 23.109375 20.269531 22.339844 20.269531 Z M 28.679688 22.144531 C 28.679688 22.269531 28.574219 22.375 28.445312 22.375 L 25.570312 22.375 C 25.625 22.140625 25.652344 21.898438 25.652344 21.652344 C 25.652344 21.402344 25.625 21.160156 25.570312 20.925781 L 28.445312 20.925781 C 28.574219 20.925781 28.679688 21.03125 28.679688 21.160156 Z M 22.339844 24.117188 C 23.714844 24.117188 24.832031 23.011719 24.832031 21.652344 C 24.832031 20.289062 23.714844 19.183594 22.339844 19.183594 C 20.964844 19.183594 19.84375 20.289062 19.84375 21.652344 C 19.84375 23.011719 20.964844 24.117188 22.339844 24.117188 Z M 10.640625 22.375 C 10.691406 22.140625 10.722656 21.898438 10.722656 21.652344 C 10.722656 21.402344 10.691406 21.160156 10.640625 20.925781 L 19.105469 20.925781 C 19.050781 21.160156 19.023438 21.402344 19.023438 21.652344 C 19.023438 21.898438 19.050781 22.140625 19.105469 22.375 Z M 7.40625 24.117188 C 8.78125 24.117188 9.898438 23.011719 9.898438 21.652344 C 9.898438 20.289062 8.78125 19.183594 7.40625 19.183594 C 6.03125 19.183594 4.914062 20.289062 4.914062 21.652344 C 4.914062 23.011719 6.03125 24.117188 7.40625 24.117188 Z M 1.554688 22.375 C 1.425781 22.375 1.320312 22.269531 1.320312 22.144531 L 1.320312 21.160156 C 1.320312 21.03125 1.425781 20.925781 1.554688 20.925781 L 4.171875 20.925781 C 4.121094 21.160156 4.089844 21.402344 4.089844 21.652344 C 4.089844 21.898438 4.121094 22.140625 4.171875 22.375 Z M 17.542969 4.695312 L 17.542969 16.792969 L 1.964844 16.792969 L 1.964844 4.695312 Z M 7.40625 18.371094 C 6.140625 18.371094 5.035156 19.078125 4.480469 20.113281 L 1.964844 20.113281 L 1.964844 17.605469 L 17.542969 17.605469 L 17.542969 20.113281 L 10.332031 20.113281 C 9.777344 19.078125 8.671875 18.371094 7.40625 18.371094 Z M 24.207031 9.367188 L 18.363281 9.367188 L 18.363281 20.113281 L 19.410156 20.113281 C 19.96875 19.078125 21.070312 18.371094 22.339844 18.371094 C 23.605469 18.371094 24.707031 19.078125 25.265625 20.113281 L 27.777344 20.113281 L 27.777344 19.511719 L 27.722656 19.511719 C 26.996094 19.511719 26.40625 18.929688 26.40625 18.210938 C 26.40625 17.492188 26.996094 16.90625 27.722656 16.90625 L 27.777344 16.90625 L 27.777344 14.351562 C 27.777344 14.171875 27.734375 14.027344 27.636719 13.878906 L 24.949219 9.765625 C 24.777344 9.503906 24.523438 9.367188 24.207031 9.367188 Z M 27.777344 18.699219 L 27.722656 18.699219 C 27.449219 18.699219 27.226562 18.480469 27.226562 18.210938 C 27.226562 17.941406 27.449219 17.71875 27.722656 17.71875 L 27.777344 17.71875 Z M 28.601562 20.125 L 28.601562 14.351562 C 28.601562 14.015625 28.511719 13.714844 28.328125 13.433594 L 25.636719 9.324219 C 25.316406 8.835938 24.796875 8.554688 24.207031 8.554688 L 18.363281 8.554688 L 18.363281 4.289062 C 18.363281 4.0625 18.179688 3.882812 17.953125 3.882812 L 1.554688 3.882812 C 1.328125 3.882812 1.144531 4.0625 1.144531 4.289062 L 1.144531 20.195312 C 0.765625 20.355469 0.5 20.726562 0.5 21.160156 L 0.5 22.144531 C 0.5 22.71875 0.972656 23.1875 1.554688 23.1875 L 4.480469 23.1875 C 5.035156 24.226562 6.140625 24.933594 7.40625 24.933594 C 8.671875 24.933594 9.777344 24.226562 10.335938 23.1875 L 19.410156 23.1875 C 19.96875 24.226562 21.070312 24.933594 22.339844 24.933594 C 23.605469 24.933594 24.707031 24.226562 25.265625 23.1875 L 28.445312 23.1875 C 29.027344 23.1875 29.5 22.71875 29.5 22.144531 L 29.5 21.160156 C 29.5 20.632812 29.109375 20.199219 28.601562 20.125 Z M 20.082031 11.078125 L 23.652344 11.078125 L 25.277344 13.566406 L 20.082031 13.566406 Z M 19.667969 14.378906 C 19.441406 14.378906 19.257812 14.195312 19.257812 13.972656 L 19.257812 10.671875 C 19.257812 10.445312 19.441406 10.265625 19.667969 10.265625 L 23.875 10.265625 C 24.015625 10.265625 24.144531 10.335938 24.21875 10.449219 L 26.378906 13.75 C 26.460938 13.875 26.46875 14.035156 26.394531 14.167969 C 26.324219 14.296875 26.183594 14.378906 26.035156 14.378906 Z M 19.667969 14.378906 " fill-opacity="1" fill-rule="evenodd"/></g></svg>