<svg xmlns="http://www.w3.org/2000/svg" xmlns:xlink="http://www.w3.org/1999/xlink" width="30" zoomAndPan="magnify" viewBox="0 0 30 30.000001" height="40" preserveAspectRatio="xMidYMid meet" version="1.0"><defs><clipPath id="587ebc009a"><path d="M 1.628906 0 L 28.484375 0 L 28.484375 29.03125 L 1.628906 29.03125 Z M 1.628906 0 " clip-rule="nonzero"/></clipPath></defs><g clip-path="url(#587ebc009a)"><path fill="#ffffff" d="M 3.082031 2.265625 L 3.082031 11.371094 C 3.082031 11.667969 3.324219 11.910156 3.621094 11.910156 L 12.722656 11.910156 C 13.019531 11.910156 13.261719 11.667969 13.261719 11.371094 L 13.261719 2.265625 C 13.261719 1.96875 13.019531 1.730469 12.722656 1.730469 L 3.621094 1.730469 C 3.324219 1.730469 3.082031 1.96875 3.082031 2.265625 Z M 4.160156 2.804688 L 12.183594 2.804688 L 12.183594 10.832031 L 4.160156 10.832031 Z M -1.277344 3.753906 L -1.277344 -2.09375 C -1.277344 -2.390625 -1.039062 -2.632812 -0.742188 -2.632812 L 5.105469 -2.632812 C 5.402344 -2.632812 5.644531 -2.390625 5.644531 -2.09375 C 5.644531 -1.796875 5.402344 -1.554688 5.105469 -1.554688 L -0.203125 -1.554688 L -0.203125 3.753906 C -0.203125 4.050781 -0.441406 4.292969 -0.742188 4.292969 C -1.039062 4.292969 -1.277344 4.050781 -1.277344 3.753906 Z M 25.183594 -2.09375 C 25.183594 -2.390625 25.425781 -2.632812 25.722656 -2.632812 L 31.570312 -2.632812 C 31.867188 -2.632812 32.109375 -2.390625 32.109375 -2.09375 L 32.109375 3.753906 C 32.109375 4.050781 31.867188 4.292969 31.570312 4.292969 C 31.273438 4.292969 31.03125 4.050781 31.03125 3.753906 L 31.03125 -1.554688 L 25.722656 -1.554688 C 25.425781 -1.554688 25.183594 -1.796875 25.183594 -2.09375 Z M 5.644531 30.214844 C 5.644531 30.511719 5.402344 30.753906 5.105469 30.753906 L -0.742188 30.753906 C -1.039062 30.753906 -1.277344 30.511719 -1.277344 30.214844 L -1.277344 24.371094 C -1.277344 24.074219 -1.039062 23.832031 -0.742188 23.832031 C -0.441406 23.832031 -0.203125 24.074219 -0.203125 24.371094 L -0.203125 29.679688 L 5.105469 29.679688 C 5.402344 29.679688 5.644531 29.917969 5.644531 30.214844 Z M 32.109375 24.371094 L 32.109375 30.214844 C 32.109375 30.511719 31.867188 30.753906 31.570312 30.753906 L 25.722656 30.753906 C 25.425781 30.753906 25.183594 30.511719 25.183594 30.214844 C 25.183594 29.917969 25.425781 29.679688 25.722656 29.679688 L 31.03125 29.679688 L 31.03125 24.371094 C 31.03125 24.074219 31.273438 23.832031 31.570312 23.832031 C 31.867188 23.832031 32.109375 24.074219 32.109375 24.371094 Z M 18.105469 11.910156 L 27.207031 11.910156 C 27.507812 11.910156 27.746094 11.667969 27.746094 11.371094 L 27.746094 2.265625 C 27.746094 1.96875 27.507812 1.730469 27.207031 1.730469 L 18.105469 1.730469 C 17.808594 1.730469 17.566406 1.96875 17.566406 2.265625 L 17.566406 11.371094 C 17.566406 11.667969 17.808594 11.910156 18.105469 11.910156 Z M 18.644531 2.804688 L 26.671875 2.804688 L 26.671875 10.832031 L 18.644531 10.832031 Z M 12.722656 16.214844 L 3.621094 16.214844 C 3.324219 16.214844 3.082031 16.457031 3.082031 16.753906 L 3.082031 25.855469 C 3.082031 26.152344 3.324219 26.394531 3.621094 26.394531 L 12.722656 26.394531 C 13.019531 26.394531 13.261719 26.152344 13.261719 25.855469 L 13.261719 16.753906 C 13.261719 16.457031 13.019531 16.214844 12.722656 16.214844 Z M 12.183594 25.316406 L 4.160156 25.316406 L 4.160156 17.292969 L 12.183594 17.292969 Z M 19.707031 23.714844 L 18.105469 23.714844 C 17.808594 23.714844 17.566406 23.957031 17.566406 24.253906 L 17.566406 25.855469 C 17.566406 26.152344 17.808594 26.394531 18.105469 26.394531 L 19.707031 26.394531 C 20.003906 26.394531 20.246094 26.152344 20.246094 25.855469 L 20.246094 24.253906 C 20.246094 23.957031 20.003906 23.714844 19.707031 23.714844 Z M 19.167969 25.316406 L 18.644531 25.316406 L 18.644531 24.792969 L 19.167969 24.792969 Z M 15.953125 2.265625 L 15.953125 2.273438 C 15.953125 2.570312 15.710938 2.8125 15.414062 2.8125 C 15.117188 2.8125 14.875 2.570312 14.875 2.273438 L 14.875 2.265625 C 14.875 1.96875 15.117188 1.730469 15.414062 1.730469 C 15.710938 1.730469 15.953125 1.96875 15.953125 2.265625 Z M 15.953125 4.1875 L 15.953125 11.371094 C 15.953125 11.667969 15.710938 11.910156 15.414062 11.910156 C 15.117188 11.910156 14.875 11.667969 14.875 11.371094 L 14.875 4.1875 C 14.875 3.890625 15.117188 3.648438 15.414062 3.648438 C 15.710938 3.648438 15.953125 3.890625 15.953125 4.1875 Z M 15.953125 14.058594 L 15.953125 14.0625 C 15.953125 14.359375 15.710938 14.601562 15.414062 14.601562 C 15.117188 14.601562 14.875 14.359375 14.875 14.0625 L 14.875 14.058594 C 14.875 13.761719 15.117188 13.519531 15.414062 13.519531 C 15.710938 13.519531 15.953125 13.761719 15.953125 14.058594 Z M 15.953125 25.847656 L 15.953125 25.855469 C 15.953125 26.152344 15.710938 26.394531 15.414062 26.394531 C 15.117188 26.394531 14.875 26.152344 14.875 25.855469 L 14.875 25.847656 C 14.875 25.550781 15.117188 25.3125 15.414062 25.3125 C 15.710938 25.3125 15.953125 25.550781 15.953125 25.847656 Z M 15.953125 16.753906 L 15.953125 23.933594 C 15.953125 24.230469 15.710938 24.472656 15.414062 24.472656 C 15.117188 24.472656 14.875 24.230469 14.875 23.933594 L 14.875 16.753906 C 14.875 16.457031 15.117188 16.214844 15.414062 16.214844 C 15.710938 16.214844 15.953125 16.457031 15.953125 16.753906 Z M 3.625 13.523438 C 3.921875 13.523438 4.164062 13.765625 4.164062 14.0625 C 4.164062 14.359375 3.921875 14.601562 3.625 14.601562 L 3.621094 14.601562 C 3.324219 14.601562 3.082031 14.359375 3.082031 14.0625 C 3.082031 13.765625 3.324219 13.523438 3.621094 13.523438 Z M 13.261719 14.0625 C 13.261719 14.359375 13.019531 14.601562 12.722656 14.601562 L 5.542969 14.601562 C 5.246094 14.601562 5.003906 14.359375 5.003906 14.0625 C 5.003906 13.765625 5.246094 13.523438 5.542969 13.523438 L 12.722656 13.523438 C 13.019531 13.523438 13.261719 13.765625 13.261719 14.0625 Z M 27.746094 14.0625 C 27.746094 14.359375 27.507812 14.601562 27.207031 14.601562 L 27.203125 14.601562 C 26.90625 14.601562 26.664062 14.359375 26.664062 14.0625 C 26.664062 13.765625 26.90625 13.523438 27.203125 13.523438 L 27.207031 13.523438 C 27.507812 13.523438 27.746094 13.765625 27.746094 14.0625 Z M 25.289062 14.601562 L 18.105469 14.601562 C 17.808594 14.601562 17.566406 14.359375 17.566406 14.0625 C 17.566406 13.765625 17.808594 13.523438 18.105469 13.523438 L 25.289062 13.523438 C 25.585938 13.523438 25.828125 13.765625 25.828125 14.0625 C 25.828125 14.359375 25.585938 14.601562 25.289062 14.601562 Z M 10.167969 5.359375 L 10.167969 8.277344 C 10.167969 8.574219 9.925781 8.816406 9.628906 8.816406 L 6.714844 8.816406 C 6.417969 8.816406 6.175781 8.574219 6.175781 8.277344 L 6.175781 5.359375 C 6.175781 5.0625 6.417969 4.820312 6.714844 4.820312 L 9.628906 4.820312 C 9.925781 4.820312 10.167969 5.0625 10.167969 5.359375 Z M 24.65625 5.359375 L 24.65625 8.277344 C 24.65625 8.574219 24.414062 8.816406 24.117188 8.816406 L 21.199219 8.816406 C 20.902344 8.816406 20.660156 8.574219 20.660156 8.277344 L 20.660156 5.359375 C 20.660156 5.0625 20.902344 4.820312 21.199219 4.820312 L 24.117188 4.820312 C 24.414062 4.820312 24.65625 5.0625 24.65625 5.359375 Z M 6.175781 22.761719 L 6.175781 19.84375 C 6.175781 19.546875 6.417969 19.308594 6.714844 19.308594 L 9.628906 19.308594 C 9.925781 19.308594 10.167969 19.546875 10.167969 19.84375 L 10.167969 22.761719 C 10.167969 23.058594 9.925781 23.300781 9.628906 23.300781 L 6.714844 23.300781 C 6.417969 23.300781 6.175781 23.058594 6.175781 22.761719 Z M 17.566406 18.378906 L 17.566406 16.753906 C 17.566406 16.457031 17.808594 16.214844 18.105469 16.214844 C 18.402344 16.214844 18.644531 16.457031 18.644531 16.753906 L 18.644531 18.378906 C 18.644531 18.675781 18.402344 18.914062 18.105469 18.914062 C 17.808594 18.914062 17.566406 18.675781 17.566406 18.378906 Z M 20.355469 17.289062 L 20.355469 18.378906 C 20.355469 18.671875 20.113281 18.914062 19.820312 18.914062 C 19.523438 18.914062 19.28125 18.671875 19.28125 18.378906 L 19.28125 16.753906 C 19.28125 16.457031 19.523438 16.214844 19.820312 16.214844 C 19.835938 16.214844 19.847656 16.21875 19.863281 16.21875 C 19.886719 16.214844 19.90625 16.214844 19.929688 16.214844 L 21.8125 16.214844 C 22.113281 16.214844 22.351562 16.457031 22.351562 16.753906 C 22.351562 17.050781 22.113281 17.292969 21.8125 17.292969 L 20.355469 17.292969 Z M 27.746094 16.753906 L 27.746094 25.855469 C 27.746094 26.152344 27.507812 26.394531 27.207031 26.394531 C 26.910156 26.394531 26.671875 26.152344 26.671875 25.855469 L 26.671875 16.753906 C 26.671875 16.457031 26.910156 16.214844 27.207031 16.214844 C 27.507812 16.214844 27.746094 16.457031 27.746094 16.753906 Z M 17.566406 19.921875 L 17.566406 19.914062 C 17.566406 19.617188 17.808594 19.375 18.105469 19.375 C 18.402344 19.375 18.644531 19.617188 18.644531 19.914062 L 18.644531 19.921875 C 18.644531 20.21875 18.402344 20.460938 18.105469 20.460938 C 17.808594 20.460938 17.566406 20.21875 17.566406 19.921875 Z M 22.351562 18.371094 L 22.351562 18.375 C 22.351562 18.671875 22.109375 18.914062 21.8125 18.914062 C 21.515625 18.914062 21.273438 18.671875 21.273438 18.375 L 21.273438 18.371094 C 21.273438 18.074219 21.515625 17.832031 21.8125 17.832031 C 22.109375 17.832031 22.351562 18.074219 22.351562 18.371094 Z M 26.046875 16.753906 C 26.046875 17.050781 25.804688 17.289062 25.507812 17.289062 L 23.640625 17.289062 C 23.339844 17.289062 23.101562 17.050781 23.101562 16.753906 C 23.101562 16.457031 23.339844 16.214844 23.640625 16.214844 L 25.507812 16.214844 C 25.804688 16.214844 26.046875 16.457031 26.046875 16.753906 Z M 17.566406 22.660156 L 17.566406 21.5625 C 17.566406 21.265625 17.808594 21.023438 18.105469 21.023438 C 18.402344 21.023438 18.644531 21.265625 18.644531 21.5625 L 18.644531 22.660156 C 18.644531 22.957031 18.402344 23.199219 18.105469 23.199219 C 17.808594 23.199219 17.566406 22.957031 17.566406 22.660156 Z M 25.507812 26.394531 L 23.640625 26.394531 C 23.339844 26.394531 23.101562 26.152344 23.101562 25.855469 C 23.101562 25.558594 23.339844 25.316406 23.640625 25.316406 L 25.507812 25.316406 C 25.804688 25.316406 26.046875 25.558594 26.046875 25.855469 C 26.046875 26.152344 25.804688 26.394531 25.507812 26.394531 Z M 23.101562 24.253906 C 23.101562 23.957031 23.339844 23.71875 23.640625 23.71875 L 25.507812 23.71875 C 25.804688 23.71875 26.046875 23.957031 26.046875 24.253906 C 26.046875 24.550781 25.804688 24.792969 25.507812 24.792969 L 23.640625 24.792969 C 23.339844 24.792969 23.101562 24.550781 23.101562 24.253906 Z M 22.976562 19.914062 C 22.976562 20.210938 22.738281 20.453125 22.4375 20.453125 L 21.207031 20.453125 C 20.910156 20.453125 20.667969 20.210938 20.667969 19.914062 C 20.667969 19.617188 20.910156 19.375 21.207031 19.375 L 22.4375 19.375 C 22.738281 19.375 22.976562 19.617188 22.976562 19.914062 Z M 22.019531 25.847656 L 22.019531 25.855469 C 22.019531 26.152344 21.78125 26.394531 21.484375 26.394531 C 21.1875 26.394531 20.945312 26.152344 20.945312 25.855469 L 20.945312 25.847656 C 20.945312 25.550781 21.1875 25.3125 21.484375 25.3125 C 21.78125 25.3125 22.019531 25.550781 22.019531 25.847656 Z M 22.019531 24.25 L 22.019531 24.257812 C 22.019531 24.554688 21.78125 24.796875 21.484375 24.796875 C 21.1875 24.796875 20.945312 24.554688 20.945312 24.257812 L 20.945312 24.25 C 20.945312 23.953125 21.1875 23.714844 21.484375 23.714844 C 21.78125 23.714844 22.019531 23.953125 22.019531 24.25 Z M 20.246094 22.652344 L 20.246094 22.660156 C 20.246094 22.957031 20.003906 23.199219 19.707031 23.199219 C 19.410156 23.199219 19.167969 22.957031 19.167969 22.660156 L 19.167969 22.652344 C 19.167969 22.355469 19.410156 22.113281 19.707031 22.113281 C 20.003906 22.113281 20.246094 22.355469 20.246094 22.652344 Z M 20.246094 21.28125 C 20.246094 21.578125 20.003906 21.820312 19.707031 21.820312 C 19.410156 21.820312 19.167969 21.578125 19.167969 21.28125 C 19.167969 20.984375 19.410156 20.742188 19.707031 20.742188 C 20.003906 20.742188 20.246094 20.984375 20.246094 21.28125 Z M 20.246094 19.921875 C 20.246094 20.21875 20.003906 20.460938 19.707031 20.460938 C 19.410156 20.460938 19.167969 20.21875 19.167969 19.921875 L 19.167969 19.914062 C 19.167969 19.617188 19.410156 19.375 19.707031 19.375 C 20.003906 19.375 20.246094 19.617188 20.246094 19.914062 Z M 25.507812 18.914062 C 25.210938 18.914062 24.96875 18.675781 24.96875 18.378906 L 24.96875 18.371094 C 24.96875 18.074219 25.210938 17.832031 25.507812 17.832031 C 25.804688 17.832031 26.046875 18.074219 26.046875 18.371094 L 26.046875 18.378906 C 26.046875 18.675781 25.804688 18.914062 25.507812 18.914062 Z M 22.667969 18.371094 C 22.667969 18.074219 22.910156 17.832031 23.207031 17.832031 L 23.972656 17.832031 C 24.269531 17.832031 24.507812 18.074219 24.507812 18.371094 C 24.507812 18.667969 24.269531 18.910156 23.972656 18.910156 L 23.207031 18.910156 C 22.910156 18.910156 22.667969 18.667969 22.667969 18.371094 Z M 26.046875 19.914062 C 26.046875 19.617188 25.804688 19.375 25.507812 19.375 L 23.90625 19.375 C 23.609375 19.375 23.371094 19.617188 23.371094 19.914062 L 23.371094 21.515625 C 23.371094 21.8125 23.609375 22.054688 23.90625 22.054688 L 25.507812 22.054688 C 25.804688 22.054688 26.046875 21.8125 26.046875 21.515625 Z M 24.96875 20.976562 L 24.445312 20.976562 L 24.445312 20.453125 L 24.96875 20.453125 Z M 22.976562 21.335938 C 22.976562 21.632812 22.738281 21.875 22.4375 21.875 L 21.207031 21.875 C 20.910156 21.875 20.667969 21.632812 20.667969 21.335938 C 20.667969 21.039062 20.910156 20.796875 21.207031 20.796875 L 22.4375 20.796875 C 22.738281 20.796875 22.976562 21.039062 22.976562 21.335938 Z M 22.976562 22.660156 C 22.976562 22.957031 22.738281 23.199219 22.4375 23.199219 L 21.207031 23.199219 C 20.910156 23.199219 20.667969 22.957031 20.667969 22.660156 C 20.667969 22.363281 20.910156 22.121094 21.207031 22.121094 L 22.4375 22.121094 C 22.738281 22.121094 22.976562 22.363281 22.976562 22.660156 Z M 23.90625 23.378906 C 23.609375 23.378906 23.371094 23.136719 23.371094 22.839844 L 23.371094 22.832031 C 23.371094 22.535156 23.609375 22.292969 23.90625 22.292969 C 24.203125 22.292969 24.445312 22.535156 24.445312 22.832031 L 24.445312 22.839844 C 24.445312 23.136719 24.203125 23.378906 23.90625 23.378906 Z M 25.507812 23.378906 C 25.210938 23.378906 24.96875 23.136719 24.96875 22.839844 L 24.96875 22.832031 C 24.96875 22.535156 25.210938 22.292969 25.507812 22.292969 C 25.804688 22.292969 26.046875 22.535156 26.046875 22.832031 L 26.046875 22.839844 C 26.046875 23.136719 25.804688 23.378906 25.507812 23.378906 Z M 25.507812 23.378906 " fill-opacity="1" fill-rule="nonzero"/></g></svg>