<svg xmlns="http://www.w3.org/2000/svg" xmlns:xlink="http://www.w3.org/1999/xlink" width="40" zoomAndPan="magnify" viewBox="0 0 30 30.000001" height="40" preserveAspectRatio="xMidYMid meet" version="1.0"><defs><clipPath id="8ce3d59b6c"><path d="M 0.484375 3.628906 L 29.515625 3.628906 L 29.515625 25.402344 L 0.484375 25.402344 Z M 0.484375 3.628906 " clip-rule="nonzero"/></clipPath></defs><g clip-path="url(#8ce3d59b6c)"><path fill="#000000" d="M 28.355469 5.496094 L 26.625 5.496094 L 26.625 3.628906 L 25.792969 3.628906 L 25.792969 5.496094 L 24.753906 5.496094 L 24.753906 3.628906 L 23.925781 3.628906 L 23.925781 5.496094 L 22.890625 5.496094 L 22.890625 3.628906 L 22.058594 3.628906 L 22.058594 5.496094 L 21.019531 5.496094 L 21.019531 3.628906 L 20.191406 3.628906 L 20.191406 5.496094 L 19.152344 5.496094 L 19.152344 3.628906 L 18.320312 3.628906 L 18.320312 5.496094 L 17.28125 5.496094 L 17.28125 3.628906 L 16.453125 3.628906 L 16.453125 5.496094 L 15.414062 5.496094 L 15.414062 3.628906 L 14.582031 3.628906 L 14.582031 5.496094 L 13.546875 5.496094 L 13.546875 3.628906 L 12.71875 3.628906 L 12.71875 5.496094 L 11.679688 5.496094 L 11.679688 3.628906 L 10.847656 3.628906 L 10.847656 5.496094 L 9.808594 5.496094 L 9.808594 3.628906 L 8.980469 3.628906 L 8.980469 5.496094 L 7.941406 5.496094 L 7.941406 3.628906 L 7.109375 3.628906 L 7.109375 5.496094 L 6.074219 5.496094 L 6.074219 3.628906 L 5.242188 3.628906 L 5.242188 5.496094 L 4.203125 5.496094 L 4.203125 3.628906 L 3.371094 3.628906 L 3.371094 5.496094 L 1.644531 5.496094 C 1.007812 5.496094 0.484375 6.015625 0.484375 6.660156 L 0.484375 22.335938 C 0.484375 22.976562 1.003906 23.496094 1.644531 23.496094 L 3.023438 23.496094 L 3.023438 25.367188 L 3.855469 25.367188 L 3.855469 23.496094 L 4.894531 23.496094 L 4.894531 25.367188 L 5.722656 25.367188 L 5.722656 23.496094 L 6.761719 23.496094 L 6.761719 25.367188 L 7.59375 25.367188 L 7.59375 23.496094 L 8.632812 23.496094 L 8.632812 25.367188 L 9.460938 25.367188 L 9.460938 23.496094 L 10.5 23.496094 L 10.5 25.367188 L 11.332031 25.367188 L 11.332031 23.496094 L 12.367188 23.496094 L 12.367188 25.367188 L 13.199219 25.367188 L 13.199219 23.496094 L 14.238281 23.496094 L 14.238281 25.367188 L 15.070312 25.367188 L 15.070312 23.496094 L 16.105469 23.496094 L 16.105469 25.367188 L 16.9375 25.367188 L 16.9375 23.496094 L 17.976562 23.496094 L 17.976562 25.367188 L 18.808594 25.367188 L 18.808594 23.496094 L 19.84375 23.496094 L 19.84375 25.367188 L 20.675781 25.367188 L 20.675781 23.496094 L 21.714844 23.496094 L 21.714844 25.367188 L 22.542969 25.367188 L 22.542969 23.496094 L 23.582031 23.496094 L 23.582031 25.367188 L 24.414062 25.367188 L 24.414062 23.496094 L 25.453125 23.496094 L 25.453125 25.367188 L 26.28125 25.367188 L 26.28125 23.496094 L 28.363281 23.496094 C 29 23.496094 29.523438 22.980469 29.523438 22.335938 L 29.523438 6.660156 C 29.515625 6.019531 28.996094 5.496094 28.355469 5.496094 Z M 28.683594 22.335938 C 28.683594 22.519531 28.535156 22.667969 28.355469 22.667969 L 1.644531 22.667969 C 1.464844 22.667969 1.316406 22.519531 1.316406 22.335938 L 1.316406 6.660156 C 1.316406 6.476562 1.464844 6.328125 1.644531 6.328125 L 28.355469 6.328125 C 28.535156 6.328125 28.683594 6.476562 28.683594 6.660156 Z M 28.683594 22.335938 " fill-opacity="1" fill-rule="nonzero"/></g><path fill="#000000" d="M 26.417969 8.050781 L 3.582031 8.050781 C 3.273438 8.050781 3.023438 8.300781 3.023438 8.609375 L 3.023438 20.390625 C 3.023438 20.699219 3.273438 20.949219 3.582031 20.949219 L 26.417969 20.949219 C 26.726562 20.949219 26.976562 20.699219 26.976562 20.390625 L 26.976562 8.609375 C 26.976562 8.300781 26.726562 8.050781 26.417969 8.050781 Z M 26.144531 20.117188 L 3.855469 20.117188 L 3.855469 8.878906 L 26.144531 8.878906 Z M 26.144531 20.117188 " fill-opacity="1" fill-rule="nonzero"/><path fill="#000000" d="M 9.824219 14.925781 L 10.351562 14.925781 C 10.378906 14.925781 10.410156 14.925781 10.433594 14.921875 L 10.996094 17.230469 L 11.992188 17.230469 L 11.308594 14.5625 C 11.636719 14.265625 11.800781 13.902344 11.800781 13.46875 L 11.800781 12.582031 C 11.800781 12.144531 11.695312 11.796875 11.480469 11.550781 C 11.242188 11.269531 10.867188 11.125 10.351562 11.125 L 8.902344 11.125 L 8.902344 17.230469 L 9.824219 17.230469 Z M 9.824219 12.0625 L 10.378906 12.0625 C 10.730469 12.0625 10.902344 12.242188 10.902344 12.597656 L 10.902344 13.484375 C 10.902344 13.628906 10.851562 13.753906 10.75 13.859375 C 10.648438 13.964844 10.527344 14.015625 10.375 14.015625 L 9.820312 14.015625 L 9.820312 12.0625 Z M 9.824219 12.0625 " fill-opacity="1" fill-rule="nonzero"/><path fill="#000000" d="M 13.910156 15.828125 L 14.871094 15.828125 L 15.089844 17.226562 L 16.054688 17.226562 L 15.03125 11.121094 L 13.761719 11.121094 L 12.726562 17.226562 L 13.6875 17.226562 Z M 14.394531 12.519531 L 14.734375 14.925781 L 14.054688 14.925781 Z M 14.394531 12.519531 " fill-opacity="1" fill-rule="nonzero"/><path fill="#000000" d="M 17.75 13.402344 L 18.644531 17.226562 L 19.378906 17.226562 L 20.175781 13.390625 L 20.175781 17.226562 L 21.097656 17.226562 L 21.097656 11.121094 L 19.828125 11.121094 L 19.007812 15.5 L 18.144531 11.121094 L 16.828125 11.121094 L 16.828125 17.226562 L 17.75 17.226562 Z M 17.75 13.402344 " fill-opacity="1" fill-rule="nonzero"/></svg>