<svg xmlns="http://www.w3.org/2000/svg" xmlns:xlink="http://www.w3.org/1999/xlink" width="40" zoomAndPan="magnify" viewBox="0 0 30 30.000001" height="40" preserveAspectRatio="xMidYMid meet" version="1.0"><defs><clipPath id="ad7242a459"><path d="M 0.484375 2 L 10 2 L 10 14 L 0.484375 14 Z M 0.484375 2 " clip-rule="nonzero"/></clipPath><clipPath id="3cd1d538c5"><path d="M 20 2 L 29.515625 2 L 29.515625 14 L 20 14 Z M 20 2 " clip-rule="nonzero"/></clipPath><clipPath id="5bb1c4970e"><path d="M 0.484375 11 L 29.515625 11 L 29.515625 27.582031 L 0.484375 27.582031 Z M 0.484375 11 " clip-rule="nonzero"/></clipPath><clipPath id="bdae9859f3"><path d="M 5 15 L 14 15 L 14 27.582031 L 5 27.582031 Z M 5 15 " clip-rule="nonzero"/></clipPath><clipPath id="9a3b83e867"><path d="M 16 24 L 25 24 L 25 27.582031 L 16 27.582031 Z M 16 24 " clip-rule="nonzero"/></clipPath></defs><path fill="#ffffff" d="M 4.382812 2.480469 C 3.8125 2.480469 3.296875 2.082031 3.175781 1.53125 C 3.019531 0.929688 3.371094 0.28125 3.960938 0.078125 C 3.964844 0.0742188 3.972656 0.0742188 3.976562 0.0742188 C 4.226562 0.00390625 4.476562 0.00390625 4.699219 0.0078125 C 4.769531 0.0078125 4.839844 0.0078125 4.910156 0.0078125 C 8.042969 0.0117188 11.164062 0.0117188 14.289062 0.0078125 C 18.011719 0.0078125 21.855469 0.0078125 25.640625 0.015625 C 25.976562 0.00390625 26.308594 0.152344 26.546875 0.421875 C 26.785156 0.695312 26.894531 1.050781 26.847656 1.390625 C 26.816406 1.699219 26.660156 1.984375 26.410156 2.191406 C 26.15625 2.398438 25.832031 2.503906 25.515625 2.472656 C 22.511719 2.472656 19.507812 2.472656 16.503906 2.472656 C 12.496094 2.472656 8.488281 2.472656 4.480469 2.476562 C 4.445312 2.476562 4.414062 2.480469 4.382812 2.480469 Z M 4.164062 0.71875 C 3.914062 0.808594 3.753906 1.109375 3.820312 1.363281 C 3.820312 1.367188 3.824219 1.375 3.824219 1.378906 C 3.878906 1.636719 4.160156 1.832031 4.433594 1.804688 C 4.445312 1.804688 4.453125 1.804688 4.464844 1.804688 C 8.476562 1.800781 12.492188 1.800781 16.503906 1.800781 C 19.511719 1.800781 22.523438 1.800781 25.53125 1.800781 C 25.542969 1.800781 25.554688 1.800781 25.566406 1.804688 C 25.714844 1.820312 25.867188 1.769531 25.992188 1.667969 C 26.105469 1.574219 26.171875 1.449219 26.1875 1.320312 C 26.1875 1.3125 26.1875 1.304688 26.1875 1.300781 C 26.210938 1.15625 26.160156 0.996094 26.050781 0.871094 C 25.941406 0.75 25.796875 0.679688 25.65625 0.6875 C 25.652344 0.6875 25.648438 0.6875 25.644531 0.6875 C 21.859375 0.679688 18.011719 0.679688 14.289062 0.683594 C 11.164062 0.683594 8.039062 0.683594 4.917969 0.679688 C 4.847656 0.683594 4.769531 0.679688 4.691406 0.679688 C 4.5 0.675781 4.320312 0.675781 4.164062 0.71875 Z M 4.164062 0.71875 " fill-opacity="1" fill-rule="nonzero"/><g clip-path="url(#ad7242a459)"><path fill="#ffffff" d="M 3.1875 13.222656 C 2.976562 13.222656 2.765625 13.207031 2.558594 13.175781 C 1.613281 13 0.832031 12.261719 0.5 11.246094 C 0.488281 11.210938 0.484375 11.175781 0.484375 11.140625 L 0.484375 10.488281 C 0.484375 10.4375 0.496094 10.390625 0.515625 10.34375 C 1.09375 9.105469 1.648438 7.828125 2.1875 6.589844 C 2.71875 5.375 3.269531 4.117188 3.839844 2.890625 C 3.894531 2.773438 4.011719 2.699219 4.140625 2.699219 C 5.148438 2.695312 6.15625 2.695312 7.164062 2.695312 L 8.679688 2.699219 C 8.777344 2.699219 8.871094 2.742188 8.9375 2.820312 C 9 2.898438 9.023438 3.003906 9.003906 3.101562 C 8.710938 4.484375 8.402344 5.882812 8.101562 7.238281 C 7.835938 8.433594 7.5625 9.667969 7.304688 10.882812 C 7.300781 10.894531 7.300781 10.902344 7.296875 10.910156 C 7.285156 10.941406 7.28125 10.976562 7.273438 11.007812 C 7.234375 11.167969 7.179688 11.402344 6.960938 11.558594 C 6.757812 11.714844 6.550781 11.859375 6.347656 12.003906 C 6.207031 12.105469 6.066406 12.203125 5.929688 12.304688 C 5.121094 12.902344 4.148438 13.222656 3.1875 13.222656 Z M 3.1875 13.222656 " fill-opacity="1" fill-rule="nonzero"/></g><path fill="#ffffff" d="M 11.050781 13.234375 C 10.542969 13.234375 10.035156 13.140625 9.566406 12.957031 C 9.050781 12.753906 8.683594 12.386719 8.328125 12.035156 C 8.101562 11.808594 7.886719 11.597656 7.644531 11.433594 C 7.53125 11.359375 7.472656 11.222656 7.5 11.085938 C 7.808594 9.542969 8.160156 7.980469 8.496094 6.46875 C 8.75 5.328125 9.015625 4.144531 9.261719 2.976562 C 9.292969 2.824219 9.425781 2.714844 9.578125 2.710938 C 10.734375 2.691406 11.910156 2.695312 13.046875 2.699219 C 13.550781 2.699219 14.050781 2.703125 14.554688 2.703125 C 14.640625 2.703125 14.726562 2.738281 14.789062 2.800781 C 14.851562 2.863281 14.886719 2.949219 14.886719 3.039062 C 14.882812 4 14.886719 4.976562 14.890625 5.925781 C 14.898438 7.644531 14.902344 9.425781 14.871094 11.179688 C 14.871094 11.304688 14.800781 11.417969 14.6875 11.476562 C 14.402344 11.621094 14.152344 11.84375 13.890625 12.078125 C 13.589844 12.347656 13.28125 12.628906 12.886719 12.816406 C 12.316406 13.09375 11.683594 13.234375 11.050781 13.234375 Z M 11.050781 13.234375 " fill-opacity="1" fill-rule="nonzero"/><path fill="#ffffff" d="M 18.957031 13.234375 C 18.394531 13.234375 17.816406 13.121094 17.277344 12.894531 C 16.8125 12.707031 16.460938 12.390625 16.121094 12.085938 C 15.855469 11.847656 15.601562 11.621094 15.3125 11.46875 C 15.207031 11.414062 15.136719 11.300781 15.132812 11.175781 C 15.101562 9.300781 15.105469 7.394531 15.109375 5.550781 C 15.113281 4.714844 15.113281 3.875 15.113281 3.039062 C 15.113281 2.949219 15.148438 2.863281 15.210938 2.800781 C 15.273438 2.738281 15.355469 2.703125 15.445312 2.703125 C 15.96875 2.703125 16.488281 2.699219 17.007812 2.699219 C 18.125 2.695312 19.28125 2.691406 20.417969 2.710938 C 20.574219 2.714844 20.707031 2.824219 20.738281 2.980469 C 20.988281 4.175781 21.257812 5.390625 21.519531 6.566406 C 21.847656 8.042969 22.1875 9.574219 22.496094 11.085938 C 22.523438 11.21875 22.464844 11.359375 22.351562 11.433594 C 22.109375 11.589844 21.902344 11.800781 21.679688 12.023438 C 21.363281 12.34375 21.035156 12.671875 20.585938 12.878906 C 20.09375 13.113281 19.535156 13.234375 18.957031 13.234375 Z M 18.957031 13.234375 " fill-opacity="1" fill-rule="nonzero"/><g clip-path="url(#3cd1d538c5)"><path fill="#ffffff" d="M 26.839844 13.226562 C 26.550781 13.226562 26.246094 13.191406 25.917969 13.125 C 24.75 12.917969 23.796875 12.144531 22.957031 11.460938 L 22.914062 11.425781 C 22.855469 11.378906 22.816406 11.316406 22.796875 11.242188 C 22.40625 9.59375 22.042969 7.914062 21.6875 6.285156 C 21.460938 5.246094 21.226562 4.171875 20.988281 3.117188 C 20.964844 3.019531 20.988281 2.914062 21.050781 2.835938 C 21.113281 2.757812 21.207031 2.710938 21.308594 2.707031 C 22.394531 2.691406 23.503906 2.695312 24.574219 2.699219 C 25 2.699219 25.429688 2.699219 25.859375 2.699219 C 25.988281 2.699219 26.105469 2.773438 26.160156 2.894531 C 26.710938 4.089844 27.25 5.320312 27.765625 6.507812 C 28.320312 7.773438 28.890625 9.082031 29.480469 10.355469 C 29.503906 10.398438 29.515625 10.449219 29.515625 10.496094 L 29.515625 11.148438 C 29.515625 11.195312 29.503906 11.238281 29.488281 11.277344 C 29.28125 11.800781 28.957031 12.445312 28.332031 12.816406 C 27.921875 13.089844 27.421875 13.226562 26.839844 13.226562 Z M 26.839844 13.226562 " fill-opacity="1" fill-rule="nonzero"/></g><g clip-path="url(#5bb1c4970e)"><path fill="#ffffff" d="M 1.398438 27.566406 C 1.121094 27.566406 0.847656 27.460938 0.601562 27.253906 C 0.527344 27.191406 0.484375 27.097656 0.484375 26.996094 L 0.484375 26.546875 C 0.484375 26.445312 0.53125 26.347656 0.613281 26.28125 C 1.050781 25.941406 1.5625 25.96875 2.007812 25.992188 C 2.09375 25.996094 2.175781 26.003906 2.253906 26.003906 C 2.257812 24.085938 2.257812 22.144531 2.257812 20.261719 C 2.253906 18.136719 2.253906 15.9375 2.261719 13.773438 C 2.261719 13.679688 2.300781 13.59375 2.367188 13.53125 C 2.433594 13.464844 2.523438 13.433594 2.617188 13.441406 C 3.769531 13.515625 4.875 13.257812 5.730469 12.710938 C 5.734375 12.710938 5.738281 12.707031 5.738281 12.707031 C 5.9375 12.589844 6.121094 12.445312 6.316406 12.296875 C 6.625 12.0625 6.941406 11.820312 7.320312 11.660156 C 7.4375 11.609375 7.570312 11.632812 7.664062 11.714844 C 7.84375 11.867188 8.011719 12.035156 8.171875 12.195312 C 8.460938 12.484375 8.734375 12.757812 9.0625 12.945312 C 9.863281 13.433594 10.929688 13.574219 12.074219 13.34375 C 12.78125 13.203125 13.476562 12.800781 14.09375 12.191406 C 14.101562 12.183594 14.105469 12.175781 14.113281 12.171875 C 14.148438 12.144531 14.183594 12.109375 14.222656 12.074219 C 14.453125 11.863281 14.933594 11.425781 15.449219 11.808594 C 15.640625 11.957031 15.820312 12.117188 15.996094 12.273438 C 16.351562 12.585938 16.6875 12.882812 17.09375 13.058594 C 18.308594 13.605469 19.726562 13.589844 20.800781 13.023438 C 21.199219 12.820312 21.515625 12.507812 21.851562 12.171875 C 22.003906 12.019531 22.164062 11.863281 22.332031 11.714844 C 22.425781 11.632812 22.5625 11.609375 22.675781 11.660156 C 23.035156 11.808594 23.332031 12.035156 23.617188 12.253906 C 23.707031 12.324219 23.792969 12.390625 23.882812 12.453125 C 24.835938 13.183594 26.078125 13.53125 27.382812 13.441406 C 27.472656 13.433594 27.5625 13.464844 27.632812 13.53125 C 27.699219 13.59375 27.738281 13.679688 27.738281 13.773438 C 27.746094 15.894531 27.746094 18.050781 27.742188 20.136719 C 27.742188 22.0625 27.742188 24.046875 27.746094 26.003906 C 27.828125 26.003906 27.914062 26 28.003906 25.992188 C 28.457031 25.96875 28.96875 25.9375 29.398438 26.308594 C 29.472656 26.371094 29.515625 26.464844 29.515625 26.5625 L 29.515625 27.011719 C 29.515625 27.132812 29.453125 27.242188 29.347656 27.300781 C 29.320312 27.316406 29.296875 27.335938 29.269531 27.351562 C 29.113281 27.445312 28.898438 27.578125 28.625 27.5625 L 28.105469 27.5625 C 27.007812 27.566406 25.871094 27.566406 24.753906 27.558594 C 24.570312 27.558594 24.425781 27.410156 24.421875 27.230469 C 24.414062 26.738281 24.414062 26.246094 24.417969 25.765625 C 24.421875 25.21875 24.425781 24.652344 24.410156 24.101562 C 24.410156 24.085938 24.410156 24.074219 24.414062 24.0625 C 24.414062 24.042969 24.410156 24.03125 24.398438 24.019531 C 24.371094 23.992188 24.308594 23.96875 24.246094 23.976562 C 24.230469 23.980469 24.214844 23.976562 24.203125 23.980469 C 22.988281 23.976562 21.777344 23.976562 20.5625 23.980469 C 19.222656 23.980469 17.882812 23.980469 16.542969 23.976562 C 16.539062 23.976562 16.535156 23.976562 16.53125 23.976562 C 16.355469 23.96875 16.265625 23.996094 16.242188 24.015625 C 16.207031 24.609375 16.214844 25.21875 16.21875 25.808594 C 16.222656 26.273438 16.226562 26.753906 16.214844 27.230469 C 16.210938 27.410156 16.066406 27.554688 15.890625 27.558594 C 15.371094 27.570312 14.824219 27.570312 14.113281 27.558594 C 13.933594 27.554688 13.785156 27.40625 13.785156 27.222656 C 13.777344 24.417969 13.78125 21.566406 13.78125 18.808594 C 13.78125 17.65625 13.78125 16.5 13.78125 15.347656 L 13.78125 15.320312 C 13.78125 15.246094 13.777344 15.097656 13.753906 15.042969 C 13.570312 15.007812 13.375 15.011719 13.164062 15.015625 C 13.074219 15.015625 12.980469 15.019531 12.886719 15.015625 C 10.820312 15.023438 8.710938 15.019531 6.671875 15.019531 L 5.90625 15.015625 L 5.890625 15.015625 C 5.816406 15.019531 5.660156 15.019531 5.609375 15.046875 C 5.570312 15.273438 5.574219 15.515625 5.578125 15.769531 C 5.582031 15.890625 5.585938 16.019531 5.582031 16.148438 C 5.582031 17.214844 5.582031 18.292969 5.582031 19.371094 C 5.585938 21.945312 5.585938 24.605469 5.578125 27.222656 C 5.578125 27.40625 5.429688 27.558594 5.25 27.558594 C 4.539062 27.566406 3.816406 27.5625 3.117188 27.5625 C 2.574219 27.5625 2.035156 27.5625 1.492188 27.566406 C 1.457031 27.566406 1.429688 27.566406 1.398438 27.566406 Z M 1.148438 26.824219 C 1.230469 26.871094 1.332031 26.90625 1.441406 26.894531 C 1.449219 26.894531 1.460938 26.890625 1.472656 26.890625 C 2.019531 26.890625 2.570312 26.890625 3.117188 26.890625 C 3.707031 26.890625 4.3125 26.890625 4.914062 26.886719 C 4.917969 24.378906 4.917969 21.835938 4.917969 19.371094 C 4.914062 18.292969 4.914062 17.214844 4.914062 16.136719 C 4.917969 16.015625 4.914062 15.902344 4.914062 15.78125 C 4.90625 15.488281 4.902344 15.1875 4.964844 14.878906 C 4.964844 14.867188 4.96875 14.859375 4.972656 14.847656 C 5.121094 14.359375 5.632812 14.347656 5.878906 14.34375 L 6.667969 14.34375 C 8.707031 14.347656 10.816406 14.347656 12.890625 14.34375 C 12.980469 14.347656 13.066406 14.34375 13.152344 14.34375 C 13.402344 14.339844 13.660156 14.335938 13.925781 14.394531 C 13.933594 14.398438 13.941406 14.398438 13.953125 14.402344 C 14.429688 14.550781 14.4375 15.0625 14.445312 15.304688 L 14.445312 15.335938 C 14.445312 16.5 14.445312 17.65625 14.445312 18.808594 C 14.441406 21.457031 14.441406 24.195312 14.449219 26.890625 C 14.863281 26.894531 15.21875 26.894531 15.554688 26.890625 C 15.558594 26.53125 15.554688 26.167969 15.550781 25.816406 C 15.546875 25.214844 15.539062 24.589844 15.574219 23.972656 C 15.585938 23.804688 15.6875 23.269531 16.550781 23.304688 C 17.886719 23.308594 19.222656 23.308594 20.558594 23.304688 C 21.765625 23.304688 22.976562 23.304688 24.183594 23.308594 C 24.433594 23.285156 24.683594 23.367188 24.855469 23.535156 C 25.007812 23.683594 25.085938 23.882812 25.074219 24.097656 C 25.089844 24.65625 25.085938 25.222656 25.082031 25.769531 C 25.078125 26.136719 25.078125 26.515625 25.078125 26.886719 C 26.089844 26.894531 27.113281 26.890625 28.101562 26.890625 L 28.632812 26.890625 C 28.640625 26.890625 28.652344 26.890625 28.660156 26.890625 C 28.710938 26.894531 28.777344 26.863281 28.847656 26.820312 L 28.847656 26.738281 C 28.632812 26.628906 28.351562 26.644531 28.039062 26.664062 C 27.820312 26.675781 27.59375 26.6875 27.371094 26.660156 C 27.203125 26.636719 27.082031 26.496094 27.082031 26.328125 C 27.074219 24.261719 27.074219 22.164062 27.074219 20.136719 C 27.078125 18.164062 27.078125 16.132812 27.070312 14.125 C 25.734375 14.144531 24.472656 13.75 23.488281 12.996094 C 23.402344 12.933594 23.308594 12.863281 23.214844 12.792969 C 23.011719 12.632812 22.8125 12.484375 22.605469 12.371094 C 22.507812 12.460938 22.414062 12.554688 22.316406 12.652344 C 21.957031 13.007812 21.585938 13.375 21.101562 13.621094 C 19.855469 14.277344 18.214844 14.296875 16.824219 13.671875 C 16.328125 13.460938 15.9375 13.113281 15.554688 12.777344 C 15.382812 12.625 15.21875 12.480469 15.046875 12.347656 C 14.992188 12.304688 14.902344 12.359375 14.664062 12.574219 C 14.625 12.613281 14.585938 12.648438 14.546875 12.679688 C 13.84375 13.378906 13.03125 13.835938 12.203125 14.003906 C 10.894531 14.265625 9.660156 14.097656 8.726562 13.527344 C 8.328125 13.300781 8.011719 12.980469 7.703125 12.675781 C 7.597656 12.566406 7.496094 12.464844 7.390625 12.367188 C 7.160156 12.496094 6.945312 12.660156 6.71875 12.832031 C 6.515625 12.988281 6.308594 13.144531 6.078125 13.28125 C 5.183594 13.851562 4.097656 14.140625 2.925781 14.125 C 2.917969 16.171875 2.917969 18.25 2.917969 20.261719 C 2.921875 22.25 2.921875 24.304688 2.914062 26.328125 C 2.914062 26.5 2.789062 26.644531 2.621094 26.660156 C 2.402344 26.6875 2.183594 26.675781 1.972656 26.664062 C 1.65625 26.648438 1.375 26.632812 1.148438 26.738281 Z M 25.164062 23.085938 C 25.132812 23.085938 25.101562 23.085938 25.070312 23.082031 C 23.808594 23.082031 22.542969 23.082031 21.28125 23.082031 C 19.375 23.082031 17.46875 23.082031 15.566406 23.082031 C 15.316406 23.105469 15.066406 23.023438 14.894531 22.855469 C 14.738281 22.707031 14.660156 22.507812 14.671875 22.289062 C 14.664062 21.046875 14.667969 19.78125 14.667969 18.554688 C 14.667969 17.503906 14.667969 16.417969 14.664062 15.347656 C 14.660156 15.167969 14.644531 14.585938 15.140625 14.40625 C 15.15625 14.398438 15.167969 14.394531 15.179688 14.394531 C 15.4375 14.332031 15.683594 14.339844 15.921875 14.34375 C 16.019531 14.347656 16.117188 14.347656 16.207031 14.34375 L 17.496094 14.347656 C 19.988281 14.347656 22.484375 14.347656 24.976562 14.34375 C 24.984375 14.34375 24.988281 14.34375 24.996094 14.34375 C 25.023438 14.347656 25.050781 14.347656 25.082031 14.347656 C 25.261719 14.351562 25.535156 14.355469 25.746094 14.570312 C 25.957031 14.777344 25.964844 15.054688 25.96875 15.238281 C 25.96875 15.265625 25.96875 15.296875 25.96875 15.328125 C 25.972656 15.335938 25.972656 15.339844 25.972656 15.347656 C 25.964844 16.417969 25.96875 17.503906 25.96875 18.554688 C 25.96875 19.78125 25.972656 21.046875 25.964844 22.292969 C 25.976562 22.507812 25.894531 22.710938 25.738281 22.859375 C 25.582031 23.007812 25.375 23.085938 25.164062 23.085938 Z M 23.632812 22.410156 C 24.117188 22.410156 24.605469 22.410156 25.089844 22.410156 C 25.105469 22.410156 25.121094 22.410156 25.136719 22.414062 C 25.1875 22.421875 25.25 22.402344 25.28125 22.371094 C 25.300781 22.355469 25.300781 22.34375 25.300781 22.328125 C 25.296875 22.320312 25.296875 22.308594 25.296875 22.300781 C 25.304688 21.050781 25.304688 19.785156 25.304688 18.558594 C 25.304688 17.507812 25.300781 16.425781 25.304688 15.355469 C 25.304688 15.324219 25.304688 15.289062 25.304688 15.253906 C 25.300781 15.195312 25.300781 15.074219 25.28125 15.050781 C 25.277344 15.050781 25.273438 15.046875 25.273438 15.042969 C 25.253906 15.023438 25.128906 15.019531 25.066406 15.019531 C 25.035156 15.019531 25 15.019531 24.96875 15.015625 C 22.476562 15.019531 19.988281 15.019531 17.496094 15.019531 L 16.21875 15.015625 C 16.117188 15.019531 16.011719 15.019531 15.90625 15.015625 C 15.710938 15.011719 15.527344 15.007812 15.363281 15.039062 C 15.351562 15.054688 15.324219 15.113281 15.328125 15.335938 C 15.332031 16.417969 15.332031 17.503906 15.332031 18.558594 C 15.332031 19.785156 15.328125 21.050781 15.335938 22.300781 C 15.335938 22.308594 15.335938 22.320312 15.335938 22.328125 C 15.335938 22.34375 15.335938 22.355469 15.351562 22.367188 C 15.378906 22.394531 15.441406 22.421875 15.503906 22.410156 C 15.519531 22.410156 15.53125 22.40625 15.546875 22.410156 C 17.457031 22.410156 19.371094 22.410156 21.28125 22.410156 C 22.066406 22.410156 22.847656 22.410156 23.632812 22.410156 Z M 23.632812 22.410156 " fill-opacity="1" fill-rule="nonzero"/></g><g clip-path="url(#bdae9859f3)"><path fill="#ffffff" d="M 9.949219 27.5625 C 8.78125 27.5625 7.523438 27.5625 6.136719 27.558594 C 5.953125 27.558594 5.804688 27.410156 5.804688 27.226562 C 5.800781 23.664062 5.800781 19.855469 5.804688 15.582031 C 5.804688 15.394531 5.953125 15.246094 6.136719 15.246094 C 8.488281 15.238281 10.875 15.238281 13.226562 15.246094 C 13.40625 15.246094 13.554688 15.394531 13.554688 15.582031 C 13.558594 20.121094 13.558594 23.820312 13.554688 27.226562 C 13.554688 27.410156 13.40625 27.558594 13.226562 27.558594 C 12.195312 27.5625 11.113281 27.5625 9.949219 27.5625 Z M 6.46875 26.886719 C 8.945312 26.890625 11.003906 26.890625 12.890625 26.886719 C 12.894531 23.660156 12.894531 20.15625 12.890625 15.917969 C 10.761719 15.910156 8.601562 15.910156 6.46875 15.917969 C 6.464844 19.921875 6.464844 23.519531 6.46875 26.886719 Z M 6.46875 26.886719 " fill-opacity="1" fill-rule="nonzero"/></g><path fill="#ffffff" d="M 20.558594 22.1875 C 18.964844 22.1875 17.398438 22.1875 15.890625 22.183594 C 15.707031 22.183594 15.558594 22.035156 15.558594 21.847656 C 15.550781 19.707031 15.554688 17.578125 15.554688 15.578125 C 15.554688 15.394531 15.703125 15.246094 15.886719 15.246094 C 19.355469 15.242188 22.167969 15.242188 24.746094 15.246094 C 24.929688 15.246094 25.078125 15.394531 25.078125 15.578125 C 25.085938 17.660156 25.085938 19.769531 25.078125 21.847656 C 25.078125 22.03125 24.929688 22.183594 24.746094 22.183594 C 23.34375 22.1875 21.941406 22.1875 20.558594 22.1875 Z M 20.558594 22.1875 " fill-opacity="1" fill-rule="nonzero"/><g clip-path="url(#9a3b83e867)"><path fill="#ffffff" d="M 20.15625 27.5625 C 18.984375 27.5625 17.859375 27.5625 16.773438 27.558594 C 16.59375 27.558594 16.445312 27.410156 16.441406 27.226562 C 16.4375 26.335938 16.4375 25.429688 16.441406 24.539062 C 16.445312 24.355469 16.59375 24.207031 16.773438 24.207031 C 19.371094 24.199219 21.691406 24.199219 23.859375 24.207031 C 24.042969 24.207031 24.191406 24.355469 24.191406 24.539062 C 24.203125 25.433594 24.195312 26.34375 24.191406 27.226562 C 24.191406 27.410156 24.042969 27.558594 23.859375 27.558594 C 22.5625 27.5625 21.332031 27.5625 20.15625 27.5625 Z M 17.105469 26.886719 C 19.085938 26.894531 21.195312 26.894531 23.53125 26.886719 C 23.53125 26.222656 23.535156 25.546875 23.53125 24.875 C 21.546875 24.871094 19.441406 24.871094 17.105469 24.875 C 17.101562 25.546875 17.101562 26.21875 17.105469 26.886719 Z M 17.105469 26.886719 " fill-opacity="1" fill-rule="nonzero"/></g></svg>