<!DOCTYPE svg PUBLIC "-//W3C//DTD SVG 1.1//EN" "http://www.w3.org/Graphics/SVG/1.1/DTD/svg11.dtd">

<!-- Uploaded to: SVG Repo, www.svgrepo.com, Transformed by: SVG Repo Mixer Tools -->
<svg width="45px" height="45px" viewBox="0 0 1024 1024" class="icon" version="1.1" xmlns="http://www.w3.org/2000/svg" fill="#000000">

<g id="SVGRepo_bgCarrier" stroke-width="0"/>

<g id="SVGRepo_tracerCarrier" stroke-linecap="round" stroke-linejoin="round"/>

<g id="SVGRepo_iconCarrier">

<path d="M170.666667 874.666667V149.333333c0-46.933333 38.4-85.333333 85.333333-85.333333h512c46.933333 0 85.333333 38.4 85.333333 85.333333v725.333334c0 46.933333-38.4 85.333333-85.333333 85.333333H256c-46.933333 0-85.333333-38.4-85.333333-85.333333z" fill="#37474F"/>

<path d="M768 128H256c-12.8 0-21.333333 8.533333-21.333333 21.333333v661.333334c0 12.8 8.533333 21.333333 21.333333 21.333333h512c12.8 0 21.333333-8.533333 21.333333-21.333333V149.333333c0-12.8-8.533333-21.333333-21.333333-21.333333z" fill="#BBDEFB"/>

<path d="M448 874.666667h128v42.666666h-128z" fill="#78909C"/>

</g>

</svg>