<?xml version="1.0" encoding="utf-8"?>
<!-- Generator: Adobe Illustrator 27.2.0, SVG Export Plug-In . SVG Version: 6.00 Build 0)  -->
<svg version="1.1" id="Capa_1" xmlns="http://www.w3.org/2000/svg" xmlns:xlink="http://www.w3.org/1999/xlink" x="0px" y="0px"
	 viewBox="0 0 1920 1080" style="enable-background:new 0 0 1920 1080;" xml:space="preserve">
<style type="text/css">
	.st0{fill:#AC172B;}
</style>
<g>
	<path class="st0" d="M457.52,579.29c10.45-16.15,20.45-31.61,30.45-47.06c57.01-88.06,114.04-176.1,170.96-264.21
		c2.03-3.15,4.07-4.36,7.9-4.35c54.45,0.15,108.91,0.13,163.36,0.05c3.52-0.01,5.13,0.05,4.16,4.59
		c-3.33,15.66-5.34,31.58-7.91,47.38c-1.83,11.19-3.64,22.44-5.33,33.68c-2.68,17.74-5.74,35.43-8.83,53.12
		c-4.87,27.92-8.75,56.01-13.26,83.99c-2.75,17.05-6.38,33.97-8.71,51.07c-1.73,12.71-4.32,25.29-5.66,38.05
		c-0.32,3.04-1.42,4.06-4.62,4.04c-34.64-0.13-69.27-0.12-103.91-0.01c-3.54,0.01-4.06-0.74-3.02-4.11
		c4.22-13.65,8.04-27.42,12.25-41.08c0.89-2.9,0.66-3.69-2.54-3.67c-21.65,0.13-43.3,0.15-64.94,0.04
		c-2.82-0.02-4.17,1.34-5.56,3.33c-9.95,14.15-19.99,28.23-29.88,42.42c-1.48,2.12-2.97,3.08-5.66,3.07
		c-38.8-0.09-77.6-0.06-116.4-0.07C459.74,579.55,459.1,579.44,457.52,579.29z M654.94,454.78c12.72,0,24.66-0.23,36.6,0.14
		c3.69,0.12,4.99-1.42,5.6-4.33c2.36-11.34,4.65-22.69,6.91-34.05c3.03-15.25,6.23-30.47,8.87-45.79c0.77-4.48,3.13-8.87,1.96-14.82
		C694.62,389.33,674.96,421.75,654.94,454.78z"/>
	<path class="st0" d="M1557.18,263.94c-3.79,14.91-5.05,30.06-7.52,45.02c-2.26,13.69-4.45,27.38-6.09,41.16
		c-0.44,3.7-2.97,2.89-5.16,2.89c-29.31,0.02-58.62-0.01-87.93,0.05c-2.78,0.01-6.23-1.24-8.19,0.83c-1.81,1.92-0.55,5.32-1.17,8.12
		c-1.32,6.03-1.36,12.32-2.38,18.43c-0.67,4,1.09,4.22,4.28,4.2c26.48-0.1,52.96,0.07,79.43-0.18c4.78-0.04,5.3,1.14,4.4,5.52
		c-2.33,11.31-4.08,22.74-6.06,34.12c-1.7,9.73-3.38,19.46-5.13,29.19c-0.47,2.59-2.66,1.47-4.06,1.48
		c-11.99,0.09-23.98,0.05-35.97,0.05c-13.82,0-27.64,0.1-41.46-0.08c-3.38-0.04-4.75,0.77-5.74,4.3
		c-2.06,7.29-2.53,14.95-5.46,22.04c-1.54,3.73,1.24,3.83,4.01,3.82c29.97-0.05,59.95,0.02,89.92-0.09c3.95-0.01,6.03-0.34,5.01,5.3
		c-2.65,14.62-5.07,29.32-6.9,44.05c-1.5,12.06-4.37,23.9-5.21,36.03c-0.17,2.46-1.51,4.71-1.11,7.29c0.22,1.4-0.69,2.09-2.12,2.07
		c-1.33-0.02-2.66,0-4,0c-68.61,0-137.22,0-205.83,0c-6.58,0-7.07-0.73-5.9-7.37c2.63-14.97,4.69-30.05,7.2-45.03
		c2.68-15.99,4.76-32.06,7.47-48.05c1.72-10.16,2.99-20.46,4.58-30.64c1.74-11.12,3.18-22.31,5.21-33.4
		c1.88-10.27,2.94-20.69,4.53-31.02c1.44-9.37,3.16-18.69,4.63-28.06c1.56-9.92,2.94-19.86,4.45-29.78
		c1.47-9.65,3.02-19.29,4.49-28.94c1.5-9.88,3.11-19.75,4.3-29.67c0.33-2.71,0.92-4.07,3.75-3.84c0.5,0.04,1,0.01,1.5,0.01
		c70.27,0,140.55,0,210.82,0.01C1554.91,263.78,1556.05,263.88,1557.18,263.94z"/>
	<path class="st0" d="M1295.79,463.41c-0.38,3.41-0.65,6.79-1.16,10.14c-3.23,21.06-6.52,42.11-9.79,63.17
		c-1.55,10.01-3.26,20.01-4.54,30.05c-0.42,3.24-1.85,4.42-4.79,5.15c-12.47,3.09-25.11,5.23-37.76,7.4
		c-18.17,3.11-36.49,5.32-54.87,2.95c-30.86-3.96-59.45-13.38-81.93-36.43c-16.44-16.85-30.16-35.34-37.44-58.14
		c-4.81-15.05-6.51-30.42-5.46-46c3.55-52.76,26.81-96.34,64.38-132.4c16.55-15.89,37.62-24.88,59.47-31.55
		c14.56-4.44,29.38-7.49,44.58-9.24c15.85-1.82,31.68-3.47,47.57-2.46c16.09,1.02,32.26,1.61,48.1,5.39c2.96,0.71,2.93,1.7,2.6,3.89
		c-2.02,13.44-3.7,26.94-6.05,40.32c-2.06,11.72-3.54,23.53-5.32,35.28c-1.62,10.63-3.85,21.19-4.72,32.88
		c-7.08-8.82-14.7-15.65-24.53-19.44c-16.06-6.19-32.66-6.44-49.35-3.51c-14.28,2.51-27.84,7.1-40,15.37
		c-12.43,8.44-21.16,19.96-23.59,34.47c-4.8,28.67,6.51,54.62,41.77,61.77c27.43,5.56,53.76,0.35,79.7-8.36
		c0.62-0.21,1.21-0.49,1.83-0.67C1294.79,463.34,1295.14,463.41,1295.79,463.41z"/>
	<path class="st0" d="M1061.67,383.62c-7.76-9.93-16.58-17.33-27.92-20.57c-12.88-3.68-25.95-4.78-39.55-2.78
		c-12.04,1.77-23.67,4.24-34.63,9.4c-18.09,8.51-30.67,21.52-35.24,41.77c-5.09,22.58,6.65,48.47,27.44,56.78
		c8.9,3.56,18.29,5.86,28.19,6.31c22.46,1.01,43.98-2.99,65.09-10.12c1.14-0.39,2.45-1.7,3.59-0.37c0.76,0.88,0.1,2.13-0.08,3.28
		c-1.57,9.86-2.96,19.75-4.44,29.62c-1.43,9.58-2.89,19.15-4.36,28.72c-1.54,10.02-3.1,20.04-4.65,30.06
		c-0.7,4.52-1.36,9.05-2.09,13.57c-0.36,2.23-2.41,2.04-3.91,2.42c-12.8,3.2-25.84,5.16-38.77,7.7c-18.34,3.6-36.85,5.09-55.28,2.79
		c-35.13-4.4-66.01-17.42-89.54-45.49c-15.25-18.2-26.9-37.79-31.9-61.19c-3.57-16.71-2.25-33.29-0.16-49.97
		c5.86-46.89,29.42-84.58,62.57-116.49c18.14-17.47,41.58-26.69,65.74-33.27c16.04-4.37,32.34-7.08,49.01-8.29
		c11.9-0.87,23.77-2.18,35.67-1.51c16.46,0.93,32.94,1.86,49.14,5.46c2.7,0.6,2.87,1.61,2.4,3.59c-2.81,11.78-3.83,23.88-5.67,35.81
		c-1.97,12.74-3.88,25.56-5.38,38.41C1065.61,360.46,1063.54,371.58,1061.67,383.62z"/>
	<path class="st0" d="M1627.09,579.56c-34.63,0-69.27-0.1-103.9,0.13c-4.4,0.03-4.99-1.77-4.46-5.1c2.6-16.29,5.4-32.55,7.89-48.86
		c2.83-18.63,5.28-37.31,8.12-55.94c2.61-17.12,5.65-34.18,8.29-51.3c2.69-17.5,5.01-35.05,7.69-52.55c2.54-16.6,5.44-33.14,8-49.73
		c2.45-15.89,4.68-31.82,6.94-47.73c0.44-3.12,1.41-4.8,5.2-4.78c33.13,0.16,66.27,0.14,99.4,0.02c3.43-0.01,4.16,0.82,3.46,4.16
		c-3.81,18.07-5.62,36.47-8.82,54.66c-2.15,12.23-3.24,24.72-5.35,36.98c-3.2,18.59-5.31,37.33-8.75,55.89
		c-3.03,16.32-4.78,32.87-7.13,49.32c-0.69,4.86-0.84,9.91-2.37,14.5c-1.77,5.31,0.19,5.75,4.69,5.74
		c32.97-0.12,65.94-0.04,98.9-0.02c6.09,0,5.86-0.03,4.92,5.8c-1.59,9.87-2.73,19.81-4.27,29.68c-1.79,11.45-4.2,22.82-5.59,34.32
		c-0.85,7.02-2.63,13.9-3.14,20.87c-0.31,4.15-1.96,3.98-4.81,3.97C1697.02,579.54,1662.05,579.56,1627.09,579.56z"/>
	<path class="st0" d="M931.08,633.58c266.13,0,532.27,0,798.4,0c1.17,0,2.33,0.03,3.5-0.01c2.29-0.08,3.33-0.06,2.75,3.21
		c-1.22,6.82-0.8,6.9-7.76,6.9c-531.93,0-1063.87,0-1595.8,0c-6.79,0-7.41-0.84-6.48-7.81c0.23-1.75,0.92-2.31,2.5-2.28
		c1.33,0.02,2.66,0,4,0C398.49,633.58,664.79,633.58,931.08,633.58z"/>
	<path class="st0" d="M1264.88,775.77c-12.77-8.25-9.84-20.95,8.13-27.53c-5.17-2.93-9.91-5.89-12.16-11.38
		c-3.81-9.31-0.67-20.89,7.96-27.31c8.68-6.45,18.6-8.69,29.23-6.53c10.93,2.22,21.96,2.52,33.05,2.12
		c-0.36,6.52-0.36,6.52-12.07,7.36c4.75,6.36,4.99,13.5,2.96,20.43c-3.11,10.63-11.59,15.19-21.82,17.29
		c-6.23,1.28-12.5,0.99-18.78,0.86c-4.46-0.09-8.39,2.86-8.49,6.61c-0.13,4.67,3.58,5.23,7.05,6.1c7.56,1.91,15.36,1.09,23.01,2.24
		c7.59,1.15,13.79,7.23,13.85,14.99c0.13,16.99-8.41,28.36-25.02,33.15c-11.95,3.44-23.75,2.99-35.23-1.93
		c-8.12-3.48-13.02-10.79-11.55-18.83c1.42-7.78,6.62-13.15,14.14-15.97C1260.84,776.8,1262.64,776.41,1264.88,775.77z
		 M1277.25,779.16c-1.44,0-2.1,0-2.77,0c-8.24,0-14.78,4.86-15.62,11.6c-1.09,8.79,3.09,15.28,11.5,17.84
		c1.1,0.33,2.21,0.63,3.31,0.97c9.2,2.84,22.75-3.02,26.17-11.31c3.67-8.9,0.07-16.92-8.62-17.86
		C1286.35,779.87,1281.49,778.33,1277.25,779.16z M1302.81,720.51c0-1.16,0-2.33,0-3.49c0.03-6.95-5.83-10.81-12.26-8.11
		c-2.58,1.08-4.27,3.11-5.75,5.35c-3.74,5.69-4.91,12.26-5.87,18.75c-0.8,5.43,2.37,10.8,6.04,11.98c5.02,1.61,9.71-0.35,13.17-5.62
		C1301.9,733.64,1302.76,727.17,1302.81,720.51z"/>
	<path class="st0" d="M523.04,438.39c0,0.84,0.05,1.02-0.01,1.15c-2.88,6.77-7.36,9.18-15.3,9.16
		c-108.58-0.36-217.15-0.24-325.73-0.3c-1.79,0-4.55,1.23-5.24-1.12c-0.72-2.45-0.22-5.27-0.09-7.93c0.02-0.33,0.97-0.8,1.54-0.89
		c0.98-0.15,1.99-0.06,2.99-0.06c112.74,0,225.48,0,338.22,0C520.57,438.39,521.72,438.39,523.04,438.39z"/>
	<path class="st0" d="M620.61,288.57c-0.04,0.81,0,0.98-0.06,1.12c-2.9,7.19-7.97,9.13-15.83,9.11
		c-107.03-0.31-214.06-0.21-321.1-0.21c-5.63,0-7.9-3.32-6.02-8.65c0.35-0.99,0.92-1.28,1.77-1.33c1-0.05,2-0.03,3-0.03
		c111.69,0,223.39,0,335.08,0C618.44,288.57,619.44,288.57,620.61,288.57z"/>
	<path class="st0" d="M492.53,485.64c-0.23,1.02-0.24,1.19-0.31,1.34c-2.81,6.99-7.64,8.97-15.4,8.94
		c-106.6-0.33-213.2-0.22-319.79-0.22c-5.01,0-7.74-4.49-5.52-8.99c0.47-0.94,1.16-1.04,1.99-1.06c1-0.02,2-0.01,3-0.01
		c110.43,0,220.86,0,331.29,0C489.23,485.64,490.67,485.64,492.53,485.64z"/>
	<path class="st0" d="M575.69,358.71c-2.1,3.25-3.78,5.68-5.27,8.22c-0.89,1.51-2.1,1.98-3.73,1.86c-0.83-0.06-1.66-0.01-2.5-0.01
		c-107.72,0-215.44,0-323.15,0c-4.92,0-7.71-4.65-5.47-9.06c0.34-0.68,0.81-0.97,1.52-0.98c1-0.02,2-0.03,3-0.03
		c110.71,0,221.43,0,332.14,0C573.05,358.71,573.87,358.71,575.69,358.71z"/>
	<path class="st0" d="M456.91,540.26c0.04,0.75,0.1,0.93,0.05,1.05c-2.95,7.07-7.85,9.21-15.8,9.19
		c-105.7-0.33-211.4-0.22-317.1-0.28c-1.79,0-4.56,1.22-5.25-1.12c-0.73-2.44-0.24-5.27-0.14-7.92c0.03-0.69,0.84-0.91,1.55-0.91
		c1,0.01,2-0.01,3-0.01c110.19,0,220.39,0,330.58,0C454.79,540.26,455.79,540.26,456.91,540.26z"/>
	<path class="st0" d="M590.56,335.79c-2.13,3.31-3.81,5.92-5.49,8.53c-0.68,1.06-1.6,1.61-2.9,1.53c-1.16-0.07-2.33-0.02-3.49-0.02
		c-99.38,0-198.75,0-298.13,0c-5.49,0-7.87-3.55-5.92-8.7c0.36-0.95,0.93-1.3,1.81-1.33c1-0.03,2-0.02,3-0.02
		c102.7,0,205.41,0,308.11,0C588.22,335.79,588.88,335.79,590.56,335.79z"/>
	<path class="st0" d="M559.02,383.76c-3.13,6.49-6.09,10.41-14.41,10.38c-98.09-0.41-196.19-0.26-294.28-0.26
		c-5.26,0-7.76-3.93-5.74-8.86c0.4-0.97,1.03-1.2,1.88-1.23c1-0.04,2-0.01,3-0.01c101.92,0,203.85,0,305.77,0
		C556.33,383.76,557.44,383.76,559.02,383.76z"/>
	<path class="st0" d="M508.14,462.66c-2.22,3.38-3.96,5.77-5.41,8.33c-1.33,2.34-3.43,1.66-5.31,1.66
		c-29.46,0.04-58.92,0.02-88.39,0.02c-69.08,0-138.16,0-207.23,0c-5.65,0-7.96-3.32-6.06-8.6c0.34-0.94,0.87-1.35,1.77-1.39
		c1-0.05,2-0.03,3-0.03c101.2,0,202.41,0,303.61,0C505.07,462.66,506.04,462.66,508.14,462.66z"/>
	<path class="st0" d="M1194.97,779.19c-25.87-0.47-37.34-21.28-33.16-39.71c4.21-18.57,14.78-30.96,33.42-35.58
		c6.59-1.64,13.65-1.51,20.29-0.17c13.81,2.8,20.75,12.02,22.36,27.69c1.95,18.93-6.14,32.49-22.05,41.86
		C1208.87,777.38,1201.07,778.81,1194.97,779.19z M1181.87,754.11c0,1.49-0.26,3.05,0.05,4.48c1.21,5.64,2.1,11.62,8.55,14.01
		c5.42,2.01,11.54-0.44,16.1-6.18c0.21-0.26,0.41-0.52,0.59-0.81c9.12-14.92,11.9-31.15,9.43-48.27c-0.78-5.38-4.85-7.78-10.29-8.17
		c-7.56-0.54-11.75,4-14.95,9.63C1185.16,729.7,1182.57,741.68,1181.87,754.11z"/>
	<path class="st0" d="M1661.66,718.81c0.02-9.54,0.05-9.47,7.81-12.59c10.06-4.05,20.46-4.27,30.72-1.75
		c8.13,2,11.27,7.41,11.4,15.81c0.15,9.96-2.46,19.41-4.49,29.03c-1.21,5.72-3.18,11.46-2.55,17.52c0.3,2.85,0.17,5.75,4.57,4.51
		c1.14-0.32,2.12,0.75,2.63,1.88c0.71,1.57-0.59,1.99-1.54,2.61c-8.48,5.54-19.59,2.32-24.82-7.56
		c-5.26,8.81-13.49,11.58-22.87,10.81c-13.29-1.08-20.72-14.59-17-24.79c4.78-13.11,11.82-18.14,26.43-19.15
		c4.89-0.34,9.79-1.19,14.58-2.29c5.45-1.25,5.2-5.83,4.91-10.04c-0.36-5.22-4.31-9.28-9.11-9.58
		C1675.1,712.77,1668.05,713.12,1661.66,718.81z M1665.57,759.78c0.43,3.26,1.79,7.76,6.13,9.14c4.33,1.39,8.33-0.92,10.94-4.85
		c0.81-1.23,1.67-2.55,2.01-3.95c1.55-6.34,2.89-12.74,4.39-19.09c0.34-1.46,0.2-1.99-1.52-2.12
		C1675.82,738.04,1665.6,747.17,1665.57,759.78z"/>
	<path class="st0" d="M604.93,312.81c-0.14,0.85-0.14,1.02-0.19,1.16c-2.82,7.3-7.95,9.17-15.81,9.14
		c-86.61-0.33-173.22-0.21-259.83-0.21c-5.11,0-7.73-4.22-5.63-8.93c0.43-0.97,1.11-1.11,1.94-1.14c0.83-0.04,1.67-0.02,2.5-0.02
		c91.44,0,182.88,0,274.32,0C603.02,312.81,603.82,312.81,604.93,312.81z"/>
	<path class="st0" d="M1141.93,766.64c-0.02,2.92-2.61,5.4-2.12,8.78c0.29,2.01-1.83,1.42-3.01,1.39
		c-17.81-0.5-35.61-0.58-53.42,0.04c-3.75,0.13-2.6-1.94-2.05-3.8c3.06-10.36,5.56-20.87,7.75-31.45
		c3.99-19.25,8.92-38.33,10.85-57.97c0.02-0.17-0.01-0.34,0.03-0.5c2.04-9.85,2.04-9.78,12.31-9.59c4.15,0.08,8.32-0.1,12.47-0.36
		c2.16-0.13,2.6,0.63,2.09,2.56c-2.04,7.66-4.09,15.31-6,23c-1.72,6.93-3.33,13.89-4.87,20.86c-1.84,8.34-3.47,16.72-5.36,25.04
		c-1.35,5.94-1.78,12.04-3.58,17.91c-0.9,2.93,0.49,4.26,3.9,4.18C1121.23,766.49,1131.53,766.64,1141.93,766.64z"/>
	<path class="st0" d="M473.12,515.72c-2.93,6.64-6.12,10.34-14.34,10.3c-84.57-0.41-169.14-0.24-253.71-0.3
		c-1.84,0-4.64,1.16-5.34-1.16c-0.73-2.43-0.22-5.27-0.03-7.91c0.07-0.98,1.21-0.91,2.03-0.93c1-0.02,2,0,3,0
		c87.9,0,175.8,0,263.7,0C469.87,515.72,471.31,515.72,473.12,515.72z"/>
	<path class="st0" d="M541.21,411.73c-1.68,2.59-3.33,5.02-4.86,7.53c-0.87,1.43-1.96,2.2-3.66,2c-0.33-0.04-0.67,0-1,0
		c-85.4,0-170.8-0.03-256.2,0.09c-4.43,0.01-3.77-2.47-3.72-5.1c0.05-2.52-0.87-5.31,3.64-5.19c10.65,0.27,21.31,0.09,31.96,0.09
		c75.91,0,151.82,0,227.73,0.03C537.02,411.17,539.01,410.69,541.21,411.73z"/>
	<path class="st0" d="M438.45,568.78c-2.69,7.21-6.45,10.44-14.45,10.4c-73.28-0.39-146.56-0.25-219.85-0.27
		c-4.89,0-7.39-4.16-5.4-8.78c0.49-1.15,1.36-1.29,2.4-1.29c1.83,0,3.66-0.05,5.5-0.05c75.95,0,151.89,0,227.84,0
		C435.64,568.78,436.78,568.78,438.45,568.78z"/>
	<path class="st0" d="M633.61,268.47c-2.65,7.37-6.48,10.38-14.41,10.34c-74.78-0.37-149.56-0.22-224.34-0.26
		c-1.73,0-4.47,1.01-5.01-0.85c-0.75-2.59-0.42-5.6-0.06-8.37c0.17-1.28,1.97-0.85,3.08-0.85c5.16-0.03,10.33-0.02,15.49-0.02
		c73.12,0,146.23,0,219.35,0C629.53,268.47,631.34,268.47,633.61,268.47z"/>
	<path class="st0" d="M1565.43,746.66c-0.38-26.75,20.26-45.75,47.27-44.04c8.58,0.54,16.7,2.69,24.33,6.72
		c2,1.05,2.76,1.81,1.17,3.99c-2.55,3.51-4.11,7.58-5.56,11.65c-0.61,1.73-1.68,2.25-3.39,2.17c-2.2-0.1-1.67-1.73-1.63-2.9
		c0.49-14.73-14.59-16.97-23.66-12.17c-8.89,4.7-12.37,13.64-14.65,22.81c-1.76,7.06-4.06,13.93-1.07,21.66
		c4.77,12.34,16.86,17.32,28.41,10.68c1.29-0.74,2.5-1.65,3.75-2.46c1.04-0.68,1.95-2.04,3.39-0.58c1.26,1.28-0.32,2.03-0.5,3.04
		c-1.61,8.84-8.35,10.02-15.67,11.29c-15.67,2.72-36.26-4.41-41.1-23.04C1565.71,752.34,1565.88,749.26,1565.43,746.66z"/>
	<path class="st0" d="M1494.52,772.24c-0.2,2.86-0.84,4.53-4.16,5.17c-4.98,0.96-9.69,2.62-14.9,0.9
		c-11.85-3.91-15.82-11.69-12.75-23.73c3.28-12.87,5.85-25.91,8.75-38.88c0.54-2.39,0.26-3.86-2.79-3.52
		c-2.12,0.24-4.3,0.05-6.57,0.05c-0.09-0.72-0.18-1.15-0.19-1.57c-0.22-6.38,3.6-7.23,8.68-6.28c2.67,0.5,3.43-1.02,3.81-3.27
		c0.5-2.92,0.66-5.88,1.06-8.8c0.51-3.7,1.95-5.48,5.48-6.52c6.34-1.88,12.25-4.94,18.73-8.17c-0.06,6.98-2.92,12.6-4.03,18.57
		c-0.51,2.73-3.28,5.89-1.07,8.03c2.36,2.27,6.22,1.41,9.39,0.36c3.04-1.01,3.09,0.02,2.7,2.73c-0.64,4.39-2.91,5.69-6.97,4.94
		c-0.8-0.15-1.7,0.14-2.49-0.05c-4.98-1.19-5.77,2.12-6.53,5.78c-2.42,11.7-4.99,23.36-7.43,35.05c-0.66,3.18-1.35,6.41-1.5,9.64
		c-0.33,7.13,2.24,9.63,9.28,9.56C1492.17,772.23,1493.3,772.24,1494.52,772.24z"/>
	<path class="st0" d="M1424.22,703.4c6.02-0.86,11.59,0.55,17.09,2.67c2.08,0.8,2.95,1.47,1.82,3.92c-1.42,3.08-2.18,6.45-3.27,9.68
		c-0.32,0.94,0.4,2.48-1.52,2.55c-1.49,0.06-2.04-0.79-2.41-1.99c-2.55-8.29-8.57-10.68-16.62-10.05c-4.66,0.37-9.64,3.3-10.49,7.01
		c-1.05,4.62,1.6,7.59,5.19,9.76c4.55,2.74,9.24,5.24,13.87,7.86c9.03,5.11,13.49,12.61,11.78,23.11c-1.51,9.29-7.44,15-15.89,18.22
		c-10.95,4.17-21.89,4.05-32.79-0.51c-2.43-1.02-3.44-1.84-2.24-4.63c1.24-2.87,1.78-6.03,2.68-9.05c0.34-1.16-0.15-2.92,1.81-3.07
		c1.89-0.14,1.84,1.55,2.34,2.7c3.08,7.09,9.36,11.02,16.94,10.6c5.33-0.3,10.13-3.57,11.14-7.74c1.29-5.35-1.77-8.45-5.9-10.89
		c-3.72-2.19-7.39-4.51-11.25-6.42c-15.2-7.55-15.59-26.51-3.87-37.09C1408.79,704.49,1416.05,702.28,1424.22,703.4z"/>
	<path class="st0" d="M1552.16,704.13c-2.38,8.98-4.91,17.3-6.74,25.76c-3.15,14.56-5.95,29.19-8.66,43.83
		c-0.4,2.19-0.51,3.09-3.1,2.98c-6.45-0.27-12.92-0.09-19.87-0.09c2.42-9.82,5.09-19.4,7.09-29.13c2.8-13.6,6.47-27.05,7.76-40.93
		c0.15-1.59,0.38-2.52,2.26-2.28C1537.81,705.18,1544.76,705.12,1552.16,704.13z"/>
	<path class="st0" d="M1376.87,704.16c-5.25,20.02-10.43,39.53-13.44,59.54c-0.32,2.1-1.78,4.26-1.46,6.19
		c1.24,7.33-3.04,7.08-8.09,6.67c-3.8-0.31-7.66-0.25-11.46,0.05c-3.2,0.26-3.91-0.26-3.02-3.69c4.35-16.87,8.6-33.78,11.76-50.92
		c0.95-5.14,1.86-10.29,2.63-15.47c0.24-1.63,0.74-2.42,2.48-2.19C1363.05,705.19,1369.84,705.01,1376.87,704.16z"/>
	<path class="st0" d="M1801.49,297.46c0.18,19.04-16.12,33.39-34.14,33.25c-16.47-0.13-33.58-15.35-32.85-35.25
		c0.61-16.81,16.21-32.36,34.1-31.85C1790.19,264.22,1802.84,282.62,1801.49,297.46z M1739.62,296.71
		c0.1,15.11,12.84,29.03,26.44,28.86c19.83-0.25,30.15-12.62,30.56-28.64c0.41-15.78-12.62-28.38-28.47-28.41
		C1753.39,268.48,1739.54,280.72,1739.62,296.71z"/>
	<path class="st0" d="M1556.64,675.6c1.35,7.16-5.57,12.07-10.9,11.97c-6.29-0.11-12.12-5.47-12.09-11.41
		c0.03-6.15,5.59-11.69,11.82-11.77C1552.01,664.32,1556.68,669,1556.64,675.6z"/>
	<path class="st0" d="M1357.74,693.64c8.35-8.77,15.96-17.02,23.9-24.94c2.89-2.88,9.04-1.98,11.2,0.94c2.42,3.29,1.43,7.42-2.87,10
		c-7.54,4.53-15.22,8.83-22.9,13.12C1364.6,694.15,1361.89,694.79,1357.74,693.64z"/>
	<path class="st0" d="M1782.19,312.34c-4.29,1.29-5.84-0.13-5.76-4.52c0.16-8.28-0.88-9.13-9.02-9.13c-1.33,0-2.68,0.14-3.99-0.03
		c-2.9-0.37-4.35,0.43-3.96,3.72c0.29,2.46,0.05,4.99,0.06,7.48c0.01,1.51,0.24,3.02-2.16,2.93c-1.99-0.07-2.01-1.24-2.01-2.64
		c0.01-9.49,0.04-18.98-0.03-28.46c-0.02-2.14,0.71-2.94,2.88-2.88c4.83,0.14,9.67-0.09,14.48,0.16c3.68,0.19,6.89,1.66,8.2,5.46
		c1.35,3.91,0.75,7.49-2.37,10.51c-0.5,0.48-2.57,0.88-1.16,1.87c3.9,2.75,2.93,6.68,3.24,10.41
		C1780.73,308.94,1781.62,310.6,1782.19,312.34z M1766.77,282.76c-7.05-0.05-7.05-0.05-7.03,6.99c0,0.82,0.03,1.65-0.01,2.47
		c-0.08,1.37,0.42,2.3,1.9,2.26c3.62-0.08,7.28,0.05,10.85-0.43c3.8-0.5,4.26-3.49,4.09-6.73c-0.17-3.14-2.15-4.27-4.85-4.55
		C1770.09,282.63,1768.43,282.76,1766.77,282.76z"/>
</g>
</svg>
