<?xml version="1.0" encoding="utf-8"?>
<!-- Generator: Adobe Illustrator 27.2.0, SVG Export Plug-In . SVG Version: 6.00 Build 0)  -->
<svg version="1.1" id="Capa_1" xmlns="http://www.w3.org/2000/svg" xmlns:xlink="http://www.w3.org/1999/xlink" x="0px" y="0px"
	 viewBox="0 0 1920 1080" style="enable-background:new 0 0 1920 1080;" xml:space="preserve">
<g>
	<path d="M1854.31,426.87c-13.53,24.8-25.66,50.49-40.88,74.2c-28.38,44.21-42.86,91.19-35.88,143.91
		c0.46,3.47,0.06,7.06,0.06,11.82c-17.22,0-33.66,0-51.97,0c0-24.48,0.52-48.76-0.29-72.99c-0.27-8.22-2.38-17.12-6.19-24.37
		c-21.52-40.88-43.83-81.34-65.82-121.97c-2.1-3.88-3.86-7.93-6.52-13.45c17.4,0,33.07-0.67,48.62,0.46
		c4.02,0.29,9.06,5.54,11.19,9.74c15.14,29.87,29.65,60.05,45.54,92.55c14.82-31.34,29.03-60.4,42.25-89.89
		c4.28-9.55,9.26-14.03,20.25-13.14c13.13,1.06,26.42,0.14,39.64,0.07C1854.31,424.83,1854.31,425.85,1854.31,426.87z"/>
	<path d="M276.73,628.17c2.97,10.39,5.39,18.87,8.39,29.36c-16.26,0-30.92,0.47-45.5-0.38c-3.06-0.18-7.03-4.73-8.49-8.16
		c-3.58-8.36-6.74-17.08-8.59-25.97c-2.1-10.08-6.41-14.18-17.39-13.66c-20.83,1-41.76,0.66-62.62,0.11
		c-8.48-0.22-13.7,2.04-14.94,10.84c-0.07,0.5-0.28,0.98-0.45,1.46c-14.32,40.72-14.46,40.81-61.45,34.1
		c1.28-4.76,2.21-9.42,3.78-13.86c24.48-68.85,49.13-137.65,73.46-206.55c2.85-8.06,6.24-12.53,15.92-11.89
		c14.66,0.96,29.44,0.25,44.54,0.25c19.54,55.17,38.82,109.63,58.17,164.28c15.34-0.95,29.5-1.82,43.42-2.68
		c14.12,35.41,53.78,50.19,87.46,31.47c7.44-4.14,14.78-15.32,15.03-23.48c0.22-7.07-8.18-18.04-15.37-21.01
		c-18.15-7.51-37.78-11.38-56.76-16.91c-9.24-2.69-18.59-5.21-27.47-8.84c-30.25-12.39-42.14-30.92-40.82-62.45
		c1.23-29.27,17.21-51.16,45.42-60.3c27.81-9.01,56.16-10.1,83.82,0.21c28.58,10.66,44.81,31.87,49.6,64.3
		c-15.27,1.31-29.73,2.55-45.37,3.89c-7.39-30.32-29.44-36.66-56.11-34.63c-5.47,0.42-11.1,1.82-16.16,3.94
		c-10.93,4.58-16.65,13.31-16.25,25.19c0.42,12.4,7.98,19.32,19.45,22.32c24.55,6.42,49.36,11.94,73.64,19.23
		c28.04,8.43,50.11,23.3,50.38,59.04c10.41-0.53,20.3-0.86,30.15-1.58c7.76-0.57,13.17,0.12,15.34,9.9
		c2.99,13.49,13.24,23.38,26.28,24.72c16.29,1.67,33.35,0.58,49.46-2.5c11.56-2.21,18.37-12.4,18.21-25.21
		c-0.15-12.05-8-18.75-18.19-21.86c-25.21-7.7-51.09-13.33-76-21.85c-44.83-15.35-58.87-65.24-29.6-102.77
		c12.95-16.61,31.41-23.56,51.49-26.73c27.76-4.38,54.89-3.37,79.66,11.91c20.66,12.75,32.25,31.5,36.02,57.87
		c-14.36,0.82-27.84,2.12-41.3,1.91c-2.72-0.04-6.8-5.38-7.8-8.96c-8.8-31.38-66.59-30.42-81.28-12.73
		c-11.05,13.3-6.13,33.98,11.07,39.71c18.26,6.09,37.19,10.15,55.83,15.1c2.94,0.78,5.89,1.5,8.82,2.33
		c44.27,12.57,54.64,24.82,58.83,72.68c14.42-40.11,27.74-77.16,41.05-114.2c6.01-16.72,12.46-33.3,17.8-50.23
		c2.52-7.97,5.86-11.71,14.81-11.07c14.66,1.04,32.98-4.36,43.1,2.61c9.94,6.86,11.93,25.62,16.82,39.37
		c20.78,58.33,41.34,116.74,61.96,175.12c1.8,5.09,3.45,10.23,5.84,17.32c-16.82,0-31.48,0.59-46.02-0.44
		c-3.42-0.24-7.84-5.39-9.41-9.25c-4.93-12.14-5.21-30.28-13.84-35.72c-10.33-6.52-27.4-2.65-41.56-2.73
		c-14.21-0.08-31.51-4.31-41.73,2.23c-9.2,5.89-10,24.22-15.87,36.4c-2.03,4.21-7.96,8.7-12.48,9.13
		c-12.96,1.22-26.11,0.43-40.92,0.43c3.35-10.25,6.11-18.71,10.13-31.04c-26.87,31.36-59.35,37.22-94.42,35.3
		c-36.34-1.99-65.76-16.19-84.49-49.08C429.9,673.21,323.07,680.07,276.73,628.17z M204.51,569.14
		c-9.66-30.74-18.93-60.24-28.2-89.75c-0.99,0.05-1.97,0.1-2.96,0.16c-9.56,29.54-19.11,59.08-28.98,89.59
		C165.62,569.14,184.19,569.14,204.51,569.14z M762.35,569.33c-9.64-30.65-18.88-60.04-28.13-89.43c-1.04,0.14-2.08,0.27-3.11,0.41
		c-9.54,29.48-19.07,58.95-28.8,89.02C723.13,569.33,741.78,569.33,762.35,569.33z"/>
	<path d="M1390.78,425.1c0,63.94,0,126.45,0,190.1c27.08,0,53.12,0,80.21,0c-18.01-38.6-21.5-78.33-11.28-119.1
		c12.91-51.47,55.23-81.32,110.49-78.39c50.75,2.69,91.14,38.2,97.15,88.94c2.83,23.9,3.68,49.21-0.95,72.62
		c-17.8,90.01-112.12,97.92-161.12,69.02c-4.28-2.53-8.44-5.27-13.78-8.62c-0.6,6.56-1.09,11.86-1.63,17.73
		c-49.27,0-97.99,0-147.87,0c0-77.45,0-154.45,0-232.3C1357.59,425.1,1373.09,425.1,1390.78,425.1z M1625.09,541.88
		c-3.63-17.21-5.07-33.18-10.49-47.67c-8.63-23.08-27.03-35.72-51.82-35.83c-24.06-0.11-42.4,11.59-51.52,33.99
		c-12.99,31.89-13.12,64.6,0.18,96.5c9.05,21.71,26.35,33.15,50.09,33.48c24.32,0.34,42.8-10.45,51.59-33.11
		C1619.07,573.9,1621.36,557.15,1625.09,541.88z"/>
	<path d="M1285.89,531.28c35.23,24.12,45.42,55.86,28.76,88.46c-9.86,19.3-25.26,34.19-46.75,35.11
		c-45.05,1.95-90.24,0.59-136.36,0.59c0-75.79,0-152.82,0-229.85c41.33,0,81.91-1.18,122.38,0.43c25.36,1.01,45.01,14.6,51.71,40.19
		C1312.14,491.05,1310.36,515,1285.89,531.28z M1179.97,555.57c0,22.15,0,42.17,0,61.25c23.89,0,46.72,1.63,69.2-0.51
		c18.42-1.76,26.08-14.37,25.18-33.49c-0.72-15.22-10.42-26.08-27.4-26.97C1224.83,554.7,1202.59,555.57,1179.97,555.57z
		 M1179.6,464.28c0,17.92,0,33.93,0,51.12c18.97,0,37.12,0.5,55.24-0.14c17.28-0.61,28.27-11.13,28.4-25.62
		c0.13-14.42-8.75-23.9-26.68-25.08C1217.99,463.33,1199.28,464.28,1179.6,464.28z"/>
	<path d="M901.82,658c8.33-23.26,15.66-43.62,22.92-64c18.71-52.52,37.57-104.99,55.89-157.65c3.13-8.99,7.24-13.11,17.26-12.32
		c14.12,1.12,31.83-4.27,41.56,2.46c9.66,6.68,11.71,24.78,16.44,38.1c22.55,63.49,44.88,127.06,68.24,193.32
		c-16.81,0-32.24,0.48-47.59-0.43c-2.84-0.17-6.41-5.5-7.83-9.15c-4.78-12.25-5.24-30.4-13.91-35.84
		c-10.36-6.5-27.47-2.48-41.65-2.54c-14.21-0.06-31.47-4.34-41.72,2.17c-9.18,5.83-10.1,24.07-15.79,36.32
		c-1.87,4.02-7.03,8.77-11.05,9.13C931.52,658.72,918.29,658,901.82,658z M982.59,568.7c20.59,0,39.37,0,59.79,0
		c-9.72-30.87-18.94-60.15-29.45-93.52C1002,508.89,992.42,538.4,982.59,568.7z"/>
</g>
</svg>
