<?xml version="1.0" encoding="utf-8"?>
<!-- Generator: Adobe Illustrator 27.2.0, SVG Export Plug-In . SVG Version: 6.00 Build 0)  -->
<svg version="1.1" id="Capa_1" xmlns="http://www.w3.org/2000/svg" xmlns:xlink="http://www.w3.org/1999/xlink" x="0px" y="0px"
	 viewBox="0 0 1920 1080" style="enable-background:new 0 0 1920 1080;" xml:space="preserve">
<style type="text/css">
	.st0{fill:#002370;}
	.st1{fill:#0083D6;}
</style>
<g>
	<path class="st0" d="M533.56,647.13c-1.97-1.32-3.81-3.49-5.93-3.8c-8.82-1.29-16.32-5.45-23.23-10.5
		c-9.92-7.26-13.03-18.35-13.26-29.71c-0.66-32.66-0.53-65.34-0.71-98.01c-0.02-3.12,0-6.25,0-10.34c2.52,0,5.41,0,8.3,0
		c7.66,0,15.33,0.2,22.98-0.09c3.77-0.14,4.79,1,4.77,4.73c-0.15,31.18-0.12,62.37-0.04,93.55c0.01,3.78,0.02,7.76,1.14,11.31
		c2.39,7.6,8.36,11.65,16.06,12.11c9.11,0.54,18.35,0.9,27.39-0.06c9.92-1.05,17.14-7.37,17.16-18.28
		c0.06-32.18,0.05-64.36,0.06-96.54c0-6.75,0.01-6.74,6.86-6.74c8.16,0,16.32,0.09,24.48-0.05c3.25-0.06,4.79,0.68,4.76,4.4
		c-0.27,34.83-0.12,69.66-0.68,104.49c-0.18,10.96-4.14,21.23-12.59,28.76c-6.61,5.89-14.65,9.34-23.58,10.78
		c-3.12,0.51-5.98,2.61-8.96,3.98C563.54,647.13,548.55,647.13,533.56,647.13z"/>
	<path class="st1" d="M1044.28,583.9c0-17.25-0.27-34.51,0.08-51.75c0.34-16.77,11.59-29.93,25.68-35.71
		c11.15-4.57,23.43-5.78,35.54-4.79c8.97,0.73,18.05,1.95,26.69,4.34c5.13,1.42,9.62,5.4,14.19,8.53c3.52,2.41,6.61,2.13,9.32-0.82
		c5.44-5.91,12.72-7.6,20.02-9.84c12.23-3.75,24.56-3.31,36.88-1.88c13.88,1.61,26.97,5.86,35.65,17.65
		c3.29,4.46,5.36,10.15,6.7,15.59c1.53,6.18,2.21,12.7,2.26,19.09c0.22,30.36,0.02,60.71,0.19,91.07c0.03,4.54-1.23,6.15-5.94,5.94
		c-8.14-0.36-16.33-0.33-24.47,0.01c-4.4,0.19-5.33-1.55-5.32-5.5c0.1-32.85-0.1-65.69,0.12-98.54c0.04-6.44-1.94-11.59-7.22-14.77
		c-3.38-2.03-7.64-3.46-11.56-3.59c-9.32-0.31-18.69-1.14-27.6,3.73c-4.32,2.37-5.93,5.61-6.68,9.64
		c-0.75,4.04-1.02,8.23-1.03,12.35c-0.08,30.03-0.04,60.05-0.04,90.08c0,6.48,0,6.48-6.69,6.47c-7.83,0-15.66-0.19-23.48,0.07
		c-4.38,0.14-5.7-1.43-5.68-5.77c0.15-32.85,0.09-65.69,0.06-98.54c-0.01-10.11-4.37-14.42-14.22-16.83
		c-10.17-2.48-20.04-1.7-29.79,0.92c-2.76,0.74-6.11,3.62-6.95,6.23c-1.8,5.57-2.88,11.59-2.94,17.45
		c-0.28,30.02-0.24,60.05-0.03,90.08c0.03,4.91-1.14,6.82-6.37,6.52c-7.47-0.44-14.99-0.29-22.47-0.04
		c-3.95,0.13-5.22-1.23-5.19-5.13c0.16-17.42,0.07-34.84,0.07-52.25C1044.15,583.9,1044.21,583.9,1044.28,583.9z"/>
	<path class="st0" d="M310.13,440.25c10.6,0,21.05-0.14,31.48,0.2c1.1,0.04,2.97,2.89,3.02,4.48c0.29,9.44,0.14,18.9,0.14,28.35
		c0,14.93-0.02,29.85,0.01,44.78c0.01,5.85,1.13,6.59,6.9,5.17c1.75-0.43,3.6-0.59,5.41-0.59c23.31-0.04,46.62-0.03,69.92-0.01
		c1.65,0,3.35,0.05,4.94,0.42c5.38,1.25,6.59,0.47,6.6-5.08c0.04-24.21,0.12-48.43-0.08-72.64c-0.03-3.91,0.93-5.32,4.92-5.22
		c8.65,0.21,17.32,0.24,25.97,0c4.51-0.13,5.64,1.79,5.62,5.94c-0.12,30.02-0.07,60.03-0.07,90.05c0,32.84,0,65.67,0,98.51
		c0,7.69,0,7.69-7.95,7.69c-7.49,0-14.99-0.23-22.47,0.09c-4.52,0.19-6.06-1.16-6.02-5.86c0.22-25.21,0.01-50.42,0.19-75.62
		c0.03-4.49-1.14-6.09-5.88-6.06c-27.64,0.19-55.27,0.17-82.91-0.02c-4.47-0.03-5.19,1.74-5.17,5.61
		c0.14,25.21-0.06,50.42,0.19,75.62c0.05,5.06-1.4,6.58-6.48,6.35c-9.28-0.41-18.59-0.12-28.27-0.12
		C310.13,574.87,310.13,507.82,310.13,440.25z"/>
	<path class="st0" d="M675.97,500.78c6.81-2.63,12.96-5.28,19.29-7.39c11.37-3.8,22.93-4.39,34.82-2.19
		c8.98,1.66,17.88,3.28,25.74,8.13c8.44,5.21,14.21,12.33,16.7,22.29c2.9,11.6,2.48,23.3,2.5,35.03
		c0.03,26.54-0.09,53.08,0.11,79.61c0.03,4.71-1.17,6.43-6.14,6.16c-7.97-0.43-15.99-0.36-23.97-0.02
		c-4.46,0.19-5.69-1.31-5.67-5.64c0.16-30.68,0.27-61.37-0.08-92.05c-0.06-5.39-1.79-10.98-3.8-16.07
		c-1.99-5.02-6.9-7.82-12.09-8.09c-9.94-0.51-19.96-0.61-29.88,0.09c-6.5,0.46-15.6,7.16-15.94,15.48
		c-0.33,7.88-1.67,15.74-1.74,23.61c-0.23,25.37-0.08,50.75-0.09,76.13c0,6.44-0.02,6.44-6.66,6.44c-7.66,0-15.34-0.32-22.97,0.11
		c-5.04,0.28-6.14-1.63-6.12-6.25c0.14-39.64,0.08-79.28,0.08-118.92c0-23.55-0.01-47.1,0-70.66c0-6.13,0.26-6.37,6.54-6.4
		c7.83-0.03,15.66,0.18,23.47-0.08c4.4-0.15,5.78,1.51,5.74,5.79c-0.18,16.92-0.08,33.84-0.07,50.75
		C675.71,497.94,675.87,499.23,675.97,500.78z"/>
	<path class="st0" d="M1027.55,580.01c0,11.94-0.21,23.89,0.08,35.82c0.16,6.56-1.03,12.94-5.12,17.67
		c-2.86,3.31-7.81,5.63-12.22,6.63c-6.73,1.53-13.8,1.93-20.74,2.09c-13.15,0.3-26.3,0.09-39.46,0.08
		c-12.29-0.01-24.21-2.26-35.32-7.4c-8.64-4-13.74-11.28-16.97-20.28c-3.72-10.38-3.1-21.01-2-31.4
		c1.47-13.95,8.27-25.14,22.67-29.48c7.85-2.37,15.99-4.25,24.13-5.09c12.78-1.32,25.57,0.02,38.14,2.69
		c2.52,0.54,4.88,1.92,7.22,3.11c3.23,1.65,5.22,1.33,4.95-2.82c-0.3-4.62-0.08-9.4-1.25-13.81c-2.37-8.99-9.07-13.19-19.79-13.24
		c-20.47-0.1-40.95-0.24-61.42-0.1c-4.55,0.03-6.48-0.75-5.18-5.81c1.73-6.71,2.9-13.56,4.15-20.38c0.47-2.56,1.55-3.65,4.3-3.57
		c22.43,0.72,44.91,0.65,67.27,2.26c11.97,0.87,23.64,4.51,33.13,13.08c9.52,8.59,12.58,19.79,13.25,31.65
		C1028.11,554.44,1027.55,567.24,1027.55,580.01z M969.19,617.1c0.01-0.2,0.03-0.4,0.04-0.6c6.49,0,12.97-0.08,19.46,0.04
		c2.72,0.05,4.02-0.92,3.99-3.7c-0.08-7.79,0.15-15.58-0.19-23.35c-0.43-9.96-4.56-13.84-15.64-15.01
		c-10.15-1.07-20.52-0.53-30.78-0.15c-10.19,0.37-16.03,6.92-16.03,17.01c0,2.49-0.01,4.97,0,7.46c0.05,8.85,4.11,14.78,12.91,16.24
		C951.57,616.48,960.43,616.47,969.19,617.1z"/>
	<path class="st1" d="M1455.09,551.37c2.36-1.31,4.8-2.07,6.42-3.67c16.46-16.19,32.71-32.59,49.27-48.69
		c1.99-1.93,5.37-3.31,8.15-3.4c11.61-0.37,23.24-0.16,33.06-0.16c-10.49,10.94-21.71,23.05-33.4,34.69
		c-8.52,8.48-17.69,16.31-26.48,24.53c-4.32,4.03-4.15,6.94-0.02,11.34c12.09,12.87,24.15,25.77,36.16,38.71
		c8.52,9.18,17,18.4,25.37,27.71c1.92,2.13,3.29,4.74,5.49,7.97c-2.31,0.35-3.8,0.77-5.29,0.78c-9.99,0.06-19.98,0.15-29.96-0.08
		c-1.88-0.04-4.14-1.06-5.51-2.36c-5.9-5.6-11.66-11.36-17.23-17.29c-8.68-9.23-17.22-18.6-25.71-28
		c-4.84-5.35-9.35-11.01-14.31-16.24c-1.26-1.33-3.64-1.6-5.51-2.35c-0.44,1.64-1.24,3.29-1.25,4.93
		c-0.09,18.57-0.16,37.14,0.03,55.71c0.04,4.22-1.04,5.98-5.58,5.79c-7.64-0.32-15.33-0.4-22.96,0.03
		c-5.06,0.29-5.66-1.98-5.66-6.17c0.1-56.71,0.07-113.41,0.07-170.12c0-6.47,0.06-12.93-0.03-19.4c-0.05-3.78,1.71-5.47,5.43-5.46
		c8.32,0.03,16.65,0.04,24.97-0.01c2.82-0.02,3.88,0.66,3.85,4.01c-0.24,34.82-0.22,69.64-0.25,104.45
		C1454.22,549.09,1454.5,549.56,1455.09,551.37z"/>
	<path class="st1" d="M1287.13,496.32c20.29,0,40.55-0.13,60.81,0.05c12.72,0.11,24.69,3.65,35.92,9.47
		c9.81,5.08,15.21,13.84,17.74,24.11c1.6,6.49,2.19,13.36,2.29,20.08c0.28,20.57-0.04,41.14,0.18,61.71
		c0.08,7.09-0.96,13.91-4.46,19.92c-3.57,6.14-10.38,8.56-16.82,8.79c-19.79,0.72-39.61,0.29-59.41,0.71
		c-10.14,0.22-19.81-2.14-28.98-5.55c-5.64-2.1-10.42-6.41-14.56-11.75c-6.91-8.91-7.33-19.32-7.59-28.99
		c-0.38-14.02,2.8-28.26,16.04-36.71c5.63-3.59,12.44-6.12,19.03-7.24c9.84-1.68,20.03-2.71,29.95-2.09
		c8.59,0.54,17.14,3.35,25.45,5.95c5.5,1.72,8.13,0.74,7.62-4.9c-0.47-5.21-1.19-10.46-2.53-15.5c-1.57-5.89-9.62-10.47-17.15-10.54
		c-21.13-0.21-42.26-0.43-63.4-0.69c-1.59-0.02-3.18-0.31-5.4-0.54C1283.72,513.27,1285.48,504.55,1287.13,496.32z M1344.99,617.08
		c0.01-0.14,0.01-0.28,0.02-0.42c6.65,0,13.3-0.08,19.95,0.03c3.04,0.05,4.58-0.79,4.48-4.22c-0.25-8.59-0.11-17.2-0.31-25.79
		c-0.13-5.42-3.3-9.21-8.38-10.9c-13.15-4.39-26.64-3.69-39.97-1.85c-10.22,1.41-15.55,7.78-14.82,17.63
		c0.2,2.63,0.01,5.3,0.03,7.95c0.07,8.45,5.26,15.08,13.68,16.09C1328.04,616.6,1336.54,616.63,1344.99,617.08z"/>
	<path class="st0" d="M834.01,432.87c0,19.39,0.29,37.78-0.19,56.14c-0.13,5.01,1.3,5.92,5.7,5.82c10.15-0.22,20.3-0.07,30.46-0.07
		c6.66,0,7.76,1.43,6.13,7.88c-1.77,7.01-3.49,14.04-5.4,21.74c-8.78,0-18.03,0.01-27.27,0c-9.37-0.01-9.34-0.01-9.32,9.34
		c0.04,19.89-0.02,39.79,0.11,59.68c0.04,6.25,0.79,12.68,6.95,16.04c3.3,1.81,7.42,2.78,11.22,2.91
		c10.92,0.38,21.87,0.13,32.93,0.13c-1.56,9.06-2.83,17.66-4.71,26.13c-0.34,1.52-3.18,3.47-4.92,3.53
		c-17.79,0.59-35.63,0.72-52.94-4.26c-8.75-2.52-15.8-7.67-19.32-16.43c-3.16-7.87-4.98-16.03-4.94-24.62
		c0.09-22.38-0.15-44.76,0.01-67.14c0.03-4.2-1.27-5.51-5.41-5.41c-8.73,0.2-8.73,0.02-8.73-8.71c0-5.47,0.07-10.94-0.03-16.41
		c-0.06-3.01,0.77-4.45,4.23-4.49c9.85-0.11,9.85-0.26,9.84-10.32c0-11.77,0-23.54,0-35.31c0-8.75,1.58-10.33,10.62-10.83
		c3.32-0.18,6.71-0.16,9.91-0.91c2.89-0.68,5.5-2.47,8.35-3.41C829.23,433.25,831.38,433.24,834.01,432.87z"/>
	<path class="st1" d="M1609.5,495.46c0,48.73,0,96.77,0,145.76c-4.34,0-8.58,0-12.83,0c-5.99,0-11.99-0.21-17.97,0.07
		c-4.02,0.19-5.15-1.36-5.13-5.19c0.13-22.05,0.07-44.11,0.07-66.16c0-22.88,0.11-45.77-0.09-68.65c-0.04-4.59,1.37-6.07,5.97-5.93
		C1589.32,495.67,1599.14,495.46,1609.5,495.46z"/>
	<path class="st1" d="M1609.73,456.6c1.12,7.57-4.42,10.83-9.66,13.55c-6.16,3.19-13.07,3.35-19.12-0.27
		c-5.87-3.51-7.8-9.44-7.26-16.18c0.35-4.34,5.25-10.54,9.72-11.38c6.05-1.15,12.2-1.94,17.9,1.55
		C1606.09,446.8,1610.69,449.89,1609.73,456.6z"/>
</g>
</svg>
