<?xml version="1.0" encoding="utf-8"?>
<!-- Generator: Adobe Illustrator 27.2.0, SVG Export Plug-In . SVG Version: 6.00 Build 0)  -->
<svg version="1.1" id="Capa_1" xmlns="http://www.w3.org/2000/svg" xmlns:xlink="http://www.w3.org/1999/xlink" x="0px" y="0px"
	 viewBox="0 0 1920 1080" style="enable-background:new 0 0 1920 1080;" xml:space="preserve">
<style type="text/css">
	.st0{fill:#980330;}
	.st1{fill:#040404;}
</style>
<g>
	<path class="st0" d="M1303.95,600.87c0-46.36,0-92.73,0-139.09c0-7.22-0.02-7.11,7.36-5.13c6.87,1.84,13.74,4.03,20.76,4.88
		c5.42,0.66,7.56,2.07,7.22,7.92c-0.33,5.54-0.04,9.96-7.6,6.54c-2.11-0.96-2.98,0.4-2.88,2.54c0.08,1.67,0,3.36,0,5.03
		c0,84.54-0.08,169.09,0.19,253.63c0.02,6.17-1.99,8.57-7.54,9.1c-0.21,0.02-0.42,0-0.63,0.03c-16.86,2.48-16.86,2.48-16.86-14.55
		C1303.95,688.14,1303.95,644.5,1303.95,600.87z"/>
	<path class="st0" d="M1397.52,606.58c0,40.89-0.06,81.77,0.1,122.66c0.02,4-0.58,6.2-5.06,6.47c-3.69,0.22-7.33,1.18-11,1.78
		c-4.68,0.77-6.76-0.25-6.72-5.98c0.3-40.88,0.16-81.77,0.16-122.66c0-38.58-0.15-77.16,0.16-115.74c0.04-5.66-1.65-7.97-7-8.87
		c-7.28-1.23-9.92-6.27-7.65-13.24c0.91-2.79,3.02-1.98,4.6-1.61c10.2,2.37,20.34,4.98,30.52,7.41c2.48,0.59,1.86,2.48,1.87,3.99
		c0.08,6.92,0.03,13.84,0.03,20.75C1397.53,536.55,1397.53,571.57,1397.52,606.58z"/>
	<path class="st1" d="M859.51,883.93c-5.1,16.05-10.21,32.1-15.28,48.16c-4.23,13.39-8.42,26.79-12.59,40.2
		c-0.26,0.83-0.38,1.8-1.32,1.84c-3.14,0.12-6.29,0.05-9.44,0.11c-4.82,0.1-3.72-3.75-4.59-6.5c-5.89-18.75-11.99-37.43-17.85-56.18
		c-3.03-9.69-5.71-19.49-9.56-29.12c0,9.66,0,19.31,0,28.97c0,19.52-0.22,39.04,0.14,58.55c0.1,5.43-2.98,4.54-5.94,4.29
		c-2.79-0.23-6.9,2.07-6.86-4.06c0.2-32.53,0.15-65.06,0.05-97.58c-0.01-3.22,0.75-4.62,4.17-4.31c2.91,0.26,5.93,0.45,8.8-0.01
		c6.41-1.03,9.65,0.88,11.53,7.68c6.07,21.97,12.95,43.72,19.52,65.56c1.35,4.49,2.75,8.96,4.58,14.89
		c2.92-9.25,5.5-17.19,7.94-25.18c5.92-19.37,11.88-38.73,17.55-58.17c1.08-3.71,2.76-5.01,6.5-4.77c4.39,0.28,8.84,0.37,13.21-0.03
		c4.15-0.38,4.75,1.34,4.73,4.99c-0.14,32.11-0.21,64.22,0.03,96.32c0.04,4.75-2.09,5.42-5.53,4.66c-3.09-0.69-8.5,3.15-8.44-4.42
		c0.22-28.53,0.19-57.07,0.25-85.59c0.98-0.89,0.9-2.22-0.1-2.49C860.17,881.5,859.31,882.68,859.51,883.93z"/>
	<path class="st1" d="M367.22,956.02c0-9.59,0-19.18,0-28.76c0-18.24,0.15-36.49-0.08-54.73c-0.08-6.21,4.18-3.66,6.92-3.97
		c2.79-0.32,5.53-0.92,5.49,4.02c-0.24,32.5-0.17,65-0.05,97.5c0.01,3.29-0.99,3.86-4.18,4.32c-10.5,1.52-16.3-1.96-20.61-12.37
		c-10.83-26.12-23.2-51.61-35.83-77.3c0,2.16,0,4.32,0,6.47c0,26-0.2,52,0.16,78c0.08,5.81-2.94,5.05-6.53,5.16
		c-3.66,0.11-6.12,0.21-6.07-5.01c0.27-32.08,0.22-64.16,0.05-96.24c-0.02-3.99,1.31-4.47,4.94-4.93
		c10.16-1.28,15.95,1.51,20.21,12.02c10.43,25.72,22.64,50.73,34.13,76.03C366.25,956.15,366.73,956.09,367.22,956.02z"/>
	<path class="st0" d="M937.93,724.91c0,23.28-0.18,46.55,0.13,69.83c0.08,5.72-2.05,7.54-7.28,7.18c-4.4-0.3-8.78,0.19-13.24-0.16
		c-3.76-0.3-4.53-1.17-4.52-4.57c0.06-47.39,0.05-94.78-0.02-142.17c0-2.95,0.32-4.61,3.98-4.47c4.97,0.19,10-0.03,14.94-0.61
		c5.3-0.62,6.15,1.71,6.11,6.41C937.81,679.19,937.93,702.05,937.93,724.91z"/>
	<path class="st0" d="M937.98,278.56c0,21.41-0.12,42.81,0.1,64.22c0.05,4.48-0.65,6.16-5.39,4.44c-4.95-1.8-10.25-2.02-15.1,0.02
		c-4.86,2.05-4.55-0.6-4.55-3.85c0.04-30.01,0.02-60.02,0.02-90.03c0-12.38,0-24.76,0-37.15c0.01-7.71,7.05-13.04,14.67-11.02
		c1.77,0.47,3.39,1.76,5.15,1.93c4.71,0.46,5.32,2.93,5.26,7.23c-0.28,21.4-0.13,42.81-0.13,64.22
		C938.01,278.56,938,278.56,937.98,278.56z"/>
	<path class="st0" d="M887.94,722.85c0,21.61,0,43.22,0,64.84c0,7.91,0,7.91-8.12,7.55c-0.82-0.04-1.67,0.05-2.45-0.14
		c-11.73-2.73-11.72-2.74-11.73-15.48c-0.01-34.83-0.05-69.66,0.01-104.49c0.01-3.43,0.15-6.42-4.74-5.62
		c-2.74,0.45-2.97-1.43-2.92-3.53c0.08-3.57,0.48-7.2-0.06-10.68c-1.04-6.64,2.19-8.25,7.71-7c5.58,1.26,11.19,1.34,16.78,0.99
		c4.46-0.28,5.65,1.26,5.61,5.59C887.85,677.53,887.95,700.19,887.94,722.85z"/>
	<path class="st0" d="M832.65,717.43c0,21.16-0.08,42.32,0.07,63.47c0.03,4.1-0.25,6.02-5.37,4.82c-5.56-1.3-12.93,0.16-16.48-3.72
		c-3.45-3.78-1.06-10.82-1.08-16.41c-0.11-31-0.08-62.01-0.02-93.01c0.01-3.41,0.15-6.51-4.73-5.58c-0.2,0.04-0.47,0.08-0.62-0.02
		c-6.6-4.3-1.37-10.79-2.9-16.06c-0.76-2.6,0.24-4.25,3.55-4.12c7.53,0.29,15.08,0.42,22.62,0.26c4.27-0.09,5.07,1.78,5.04,5.64
		C832.57,674.28,832.65,695.86,832.65,717.43z"/>
	<path class="st0" d="M964.81,723.46c0-22.87,0.1-45.74-0.09-68.6c-0.03-4.03,0.85-5.59,5.16-5.37c6.7,0.34,13.44,0.29,20.13-0.06
		c3.81-0.2,4.73,1.25,4.52,4.67c-0.22,3.55-0.1,7.13,0.01,10.7c0.12,3.59-0.57,6.22-5.05,6.05c-4.48-0.17-2.78,3.39-2.79,5.45
		c-0.1,31.05-0.07,62.1-0.07,93.15c0,6.29-0.42,12.63,0.14,18.87c0.42,4.7-1.66,6.25-5.62,6.8c-4.29,0.6-8.64,0.22-12.92,1.51
		c-4.21,1.27-3.42-2.21-3.42-4.56C964.79,769.2,964.8,746.33,964.81,723.46z"/>
	<path class="st0" d="M1021.44,718.87c0-21.39,0.12-42.78-0.1-64.17c-0.05-4.42,1.22-5.8,5.62-5.58c6.9,0.35,13.84,0.08,20.76,0.14
		c1.21,0.01,3.34,0.02,3.49,0.51c1.7,5.47,0.7,11.13,0.73,16.72c0.02,3.23-2.8,3.06-5.13,3.08c-4.02,0.03-2.59,3.1-2.6,5.04
		c-0.08,33.76-0.07,67.53-0.08,101.29c0,10.75-0.01,10.75-10.45,11.97c-12.22,1.43-12.22,1.43-12.22-11.12c0-19.29,0-38.59,0-57.88
		C1021.46,718.87,1021.45,718.87,1021.44,718.87z"/>
	<path class="st0" d="M777.19,711.88c0,19.9-0.09,39.81,0.08,59.71c0.03,3.7-0.61,5.1-4.76,4.85c-5.76-0.36-11.07-2.93-17.01-2.61
		c-3.44,0.19-1.99-3.57-1.99-5.5c-0.1-32.06-0.12-64.12,0-96.18c0.02-4.69,0.54-9.08-6.44-7.67c-1.93,0.39-2.53-0.91-2.43-2.64
		c0.04-0.63,0.02-1.26,0.01-1.89c-0.36-14.34-0.36-14.35,13.95-14.34c4.61,0,9.23,0.37,13.82,0.11c4.05-0.23,4.88,1.51,4.86,5.17
		C777.14,671.23,777.21,691.55,777.19,711.88z"/>
	<path class="st0" d="M858.01,251.11c0-6.16,0.15-12.01-0.07-17.85c-0.1-2.46,1.3-3.48,2.99-4.17c7.57-3.08,15.22-5.94,22.79-9.02
		c3.33-1.36,4.27-0.5,4.26,3.08c-0.1,42.57-0.06,85.15-0.09,127.72c0,1.18-0.16,3.24-0.69,3.4c-6.65,1.99-13.32,4.21-20.15,5.24
		c-2.49,0.38-1.33-3.41-1.34-5.24c-0.09-32.51-0.24-65.02,0.09-97.52C865.87,250.42,863.92,249.03,858.01,251.11z"/>
	<path class="st0" d="M913.08,430.91c0-19.08,0-38.16,0-57.24c0-8.03,4.67-11.85,12.94-10.62c11.9,1.78,11.91,1.78,11.91,14
		c0,37.74,0,75.48,0,113.22c0,7.28-0.75,8.2-7.77,6.62c-4.17-0.94-8.01-1.51-12.17-0.12c-3.51,1.17-5.08,0.05-5.03-4.21
		C913.2,472.01,913.07,451.46,913.08,430.91z"/>
	<path class="st0" d="M1077.84,714.65c0-19.91,0.17-39.83-0.12-59.74c-0.07-5.08,1.42-6.43,6.38-6.15
		c6.89,0.4,13.83,0.09,20.73-0.28c3.73-0.2,5.56,0.76,5.1,4.79c-0.24,2.07-0.18,4.2-0.03,6.28c0.35,4.95,0.21,9.12-6.73,8.86
		c-3.84-0.14-2.1,3.45-2.11,5.29c-0.12,31.86-0.27,63.72,0.06,95.58c0.06,5.94-0.95,8.42-7.43,9.61
		c-15.92,2.93-15.83,3.41-15.83-12.69c0-17.19,0-34.38,0-51.56C1077.85,714.65,1077.85,714.65,1077.84,714.65z"/>
	<path class="st0" d="M722,706.1c0,18.44-0.1,36.89,0.08,55.33c0.04,3.95-0.69,5.33-5.12,5.16c-5.84-0.22-11.29-2.17-17.02-2.68
		c-3.64-0.32-2.14-3.59-2.15-5.5c-0.13-23.47-0.09-46.95-0.09-70.42c0-6.08-0.24-12.17,0.08-18.23c0.27-5.11,0.13-9.24-6.82-8.19
		c-1.6,0.24-2.85-0.55-2.85-2.48c0.01-4.19-0.07-8.38,0.02-12.57c0.07-3.13,2.6-2.12,4.22-2.14c8.17-0.1,16.35,0.15,24.51-0.13
		c4.09-0.14,5.3,1.11,5.25,5.26c-0.22,18.86-0.1,37.72-0.1,56.59C722.01,706.1,722.01,706.1,722,706.1z"/>
	<path class="st0" d="M832.66,240.25c0,31.31,0,61.89,0,92.47c0,10.27-0.17,20.54,0.09,30.8c0.1,3.83-1.09,5.67-4.91,6.33
		c-4.24,0.73-8.53,1.6-12.53,3.12c-4.78,1.81-5.66,0.13-5.64-4.32c0.12-31.01,0.06-62.01,0.07-93.02c0-3.36,0.89-7.4-4.95-4.22
		c-1.79,0.97-3.75,0.1-3.35-2.71c0.06-0.41,0.01-0.84,0-1.26c-0.55-15.79-0.53-15.75,14.69-21.02
		C821.52,244.56,826.83,242.44,832.66,240.25z"/>
	<path class="st0" d="M1044.13,270.51c0,21.9,0,43.08,0,64.25c0,11.75-0.23,23.51,0.11,35.25c0.15,5.09-1.94,5.64-5.96,4.48
		c-2.73-0.78-5.49-1.53-8.27-2.13c-5.71-1.23-8.85-3.38-8.76-10.53c0.46-37.77,0.21-75.54,0.21-113.32c0-2.29,0-4.58,0-7.52
		c9.49,3.58,18.33,7.11,27.32,10.18c2.85,0.97,3.43,2.42,3.3,5.01c-0.15,3.14-0.03,6.29-0.04,9.44
		C1052.02,272.6,1052.02,272.6,1044.13,270.51z"/>
	<path class="st0" d="M986.64,249.66c0,11.55,0,23.06,0,34.56c-0.01,23.7-0.07,47.39,0.04,71.09c0.02,3.54-0.17,5.46-4.66,4.49
		c-17.2-3.71-17.22-3.59-17.22-21.13c0-37.75,0.11-75.49-0.12-113.24c-0.03-5.49,1.28-6.25,6.06-4.17
		c6.73,2.93,13.68,5.37,20.53,8.02c2.02,0.78,3.5,1.79,3.26,4.45c-0.26,2.91,0.01,5.87-0.01,8.8
		C994.46,250.82,994.45,250.82,986.64,249.66z"/>
	<path class="st0" d="M887.93,436.22c0,19.31-0.16,38.61,0.1,57.91c0.07,5.35-1.94,7.27-6.96,6.69c-3.38-0.39-6.64,0.35-9.89,1.11
		c-4.22,0.99-5.72-0.21-5.69-4.92c0.22-31.26,0.07-62.53,0.18-93.8c0.01-3.81,0.01-6.78-5.13-5.68c-1.9,0.41-2.56-0.79-2.55-2.57
		c0.03-4.41,0.12-8.82-0.05-13.22c-0.08-2.12,0.96-3.14,2.7-3.58c7.82-1.97,15.65-3.95,23.52-5.73c3.92-0.89,3.77,1.93,3.76,4.6
		C887.91,396.77,887.92,416.5,887.93,436.22z"/>
	<path class="st0" d="M777.19,323.06c0,18.23-0.11,36.45,0.09,54.68c0.04,3.63-1.01,5.28-4.58,5.93c-4.4,0.8-8.81,1.8-13.04,3.22
		c-5.22,1.75-6.34,0-6.3-5.14c0.22-28.07,0.07-56.15,0.14-84.22c0.01-3.97,0.22-7.57-5.51-5.09c-2.64,1.14-3.27-0.14-3.22-2.57
		c0.09-4.19,0.22-8.39-0.06-12.56c-0.16-2.43,1.15-3.46,2.87-4.16c8.54-3.47,17.07-6.97,25.72-10.14c3.58-1.31,3.96,1.17,3.95,4.12
		C777.16,285.77,777.2,304.41,777.19,323.06z"/>
	<path class="st0" d="M666.52,700.61c0,17.41-0.11,34.82,0.08,52.23c0.05,4.36-1.19,5.44-5.42,4.26c-4.73-1.32-9.61-2.39-14.49-2.79
		c-4.61-0.37-5.22-2.63-5.2-6.56c0.13-27.48-0.04-54.96,0.17-82.43c0.03-4.44-0.76-6.73-5.69-6.05c-3.07,0.42-4.51-0.89-4.39-4.3
		c0.54-15.85-2.9-12.78,12.51-12.73c5.87,0.02,11.74,0.65,17.6,0.48c3.94-0.12,4.94,1.24,4.9,5.03
		C666.4,665.37,666.5,682.99,666.52,700.61z"/>
	<path class="st0" d="M1134.5,710.43c0-18.87,0.13-37.75-0.1-56.62c-0.06-4.5,1.44-5.8,5.75-5.65c7.54,0.26,15.11,0.25,22.65-0.07
		c4.07-0.17,5.16,1.39,4.77,5.11c-0.26,2.49-0.23,5.05,0.01,7.54c0.4,4.06-0.61,6.44-5.32,5.86c-4.18-0.52-4.47,2.07-4.46,5.44
		c0.1,30.2-0.09,60.4,0.19,90.6c0.05,5.38-1.95,7.26-6.81,7.66c-3.73,0.31-7.51,0.69-11.11,1.65c-4.71,1.26-5.7-0.48-5.65-4.88
		C1134.6,748.18,1134.5,729.3,1134.5,710.43z"/>
	<path class="st0" d="M1190.96,706.38c0-17.41,0.21-34.82-0.13-52.21c-0.1-5.12,1.51-6.41,6.36-6.16
		c7.32,0.38,14.69,0.36,22.01-0.07c4.63-0.28,5.9,1.41,5.33,5.64c-0.28,2.06-0.13,4.19-0.01,6.28c0.21,3.56-0.3,6.59-4.91,5.87
		c-4.84-0.76-4.81,2.08-4.8,5.55c0.07,27.68-0.06,55.36,0.14,83.04c0.04,4.95-0.37,7.98-6.51,7.35c-2.25-0.23-4.81,0.84-7.28,1.17
		c-10.22,1.35-10.2,1.46-10.19-8.65C1190.97,738.26,1190.96,722.32,1190.96,706.38z"/>
	<path class="st0" d="M1101.03,389.48c-2.6-0.29-4.68-0.41-6.73-0.76c-16.45-2.78-16.44-2.79-16.44-19.16
		c0-33.72,0.07-67.44-0.07-101.16c-0.02-4.7,0.25-6.19,5.61-3.96c7.95,3.31,16.09,6.18,24.07,9.48c2.06,0.85,2.44,1.58,2.43,3.37
		c-0.04,5.18-0.02,10.35-0.02,15.98c-3.16-0.87-5.72-1.58-8.85-2.45C1101.03,323.86,1101.03,356.64,1101.03,389.48z"/>
	<path class="st0" d="M801.57,411.24c0-6.32-1.81-13.06,0.51-17.78c2.33-4.77,10.04-2.98,15.27-4.59
		c4.81-1.48,11.11-5.45,14.43-2.59c2.56,2.2,0.86,9.47,0.87,14.49c0.03,33.15-0.09,66.31,0.13,99.46c0.03,5.15-1.39,7.19-6.66,7
		c-3.67-0.14-7.43,0.51-11.06,1.22c-4.76,0.93-5.43-1.18-5.41-5.37c0.17-28.54,0.08-57.07,0.09-85.61
		C809.74,409.02,809.77,409.02,801.57,411.24z"/>
	<path class="st1" d="M1280.97,920.74c0-15.95-0.01-31.89,0.02-47.84c0-2.14-0.86-4.8,3.07-4.59c12.89,0.71,25.89-1.44,38.69,1.35
		c10.75,2.35,16.53,10.27,17.88,19.93c1.09,7.79,1.51,15.31-1.43,22.42c-4.55,10.99-14.54,14.27-25.29,15.49
		c-4.56,0.52-9.24,0.36-13.83,0.02c-4.22-0.31-5.78,0.75-5.63,5.38c0.37,11.53-0.09,23.08,0.23,34.61c0.13,4.73-0.3,7.11-6.14,6.93
		c-5.42-0.16-8.01-0.49-7.75-7.15C1281.38,951.81,1280.97,936.27,1280.97,920.74z M1305.15,915.1c2.09,0,4.18,0,6.28,0
		c7.64,0,14.88-5.41,16.06-12.67c1.09-6.75-0.86-17.62-8.44-20.74c-6.77-2.79-13.59-0.97-20.34-1.71c-3.37-0.37-4.31,1.06-4.21,4.28
		c0.2,6.69,0.06,13.39,0.06,20.08C1294.57,915.06,1294.57,915.06,1305.15,915.1z"/>
	<path class="st0" d="M964.79,435.95c0-19.3,0.09-38.61-0.07-57.91c-0.04-4.36,0.15-6.62,5.66-4.73c6.17,2.12,12.49,4.07,19.12,4.56
		c3.7,0.27,5.52,2.25,5.04,6.24c-0.3,2.48,0.01,5.03-0.03,7.55c-0.05,3.54,1.29,7.78-5.46,6.1c-3.82-0.95-2.3,3.13-2.3,4.96
		c-0.11,30.84-0.09,61.69-0.11,92.53c0,1.47,0.02,2.94-0.01,4.41c-0.06,3.07-2.07,4.29-4.59,3.55c-3.69-1.09-7.41-0.93-11.12-1.32
		c-4.16-0.44-6.49-1.98-6.35-7.4C965.1,474.98,964.79,455.46,964.79,435.95z"/>
	<path class="st0" d="M1021.47,386.06c9.26,2.28,17.71,4.68,26.31,6.31c3.64,0.69,4.43,2.24,4.31,5.4
		c-0.14,3.56-0.13,7.13,0.01,10.69c0.1,2.54-0.95,3.72-3.3,2.77c-5.48-2.23-4.65,1.58-4.65,4.64c-0.01,29.14,0,58.29,0,87.43
		c0,1.68,0.21,3.4-0.11,5.01c-0.33,1.65-0.92,2.71-3.45,2.1c-4.79-1.15-9.79-1.88-14.71-1.91c-3.83-0.03-4.49-1.45-4.45-4.78
		c0.15-11.95,0.06-23.9,0.06-35.85C1021.47,440.84,1021.47,413.81,1021.47,386.06z"/>
	<path class="st0" d="M744.79,423.53c0-4.85,0.02-9.63-0.01-14.41c-0.01-2.49,1.05-3.57,3.62-4.11c8.02-1.7,16-3.66,23.94-5.74
		c3.42-0.89,4.94-0.48,4.93,3.59c-0.11,35.2-0.08,70.41,0.01,105.61c0.01,3.14-1.2,4.83-4.21,4.86c-5.42,0.05-10.63,1-15.86,2.4
		c-4.57,1.22-3.74-2.43-3.74-4.98c-0.02-24.1-0.02-48.2-0.02-72.29c0-2.51,0-5.03,0-7.54C753.45,422.34,753.45,422.34,744.79,423.53
		z"/>
	<path class="st0" d="M688.1,314.01c0-4.89,0.17-9.69-0.07-14.47c-0.13-2.71,1.35-3.66,3.41-4.45c8.83-3.42,17.69-6.75,26.45-10.32
		c3.67-1.49,4.16-0.1,4.16,3.22c-0.08,34.62-0.1,69.25,0.05,103.87c0.01,3.37-1.28,4.92-4.21,5.64c-5.19,1.28-10.53,2.11-15.55,3.88
		c-4.53,1.59-4.69-0.38-4.68-3.89c0.08-25.18,0.03-50.36,0.03-75.54C697.71,311.64,697.71,311.64,688.1,314.01z"/>
	<path class="st0" d="M1247.35,702.04c0-16.36,0.12-32.71-0.09-49.07c-0.05-4.07,1.03-5.43,5.25-5.31c8.59,0.24,17.19,0,25.78-0.29
		c3.27-0.11,4.55,0.91,4.25,4.23c-0.24,2.7-0.16,5.45-0.02,8.17c0.18,3.56-1.49,5.24-4.89,4.68c-5.58-0.93-5.87,2.12-5.84,6.48
		c0.15,25.37-0.08,50.75,0.2,76.12c0.06,5.02-2.09,6.5-6.34,6.92c-3.48,0.34-6.98,0.67-10.4,1.34c-7.96,1.55-7.93,1.63-7.92-6.08
		C1247.35,733.49,1247.34,717.77,1247.35,702.04z"/>
	<path class="st0" d="M937.94,573.78c0,18.01-0.13,36.02,0.09,54.02c0.05,4.15-1.2,5.62-5.28,5.21c-6.38-0.65-14.57,2.68-18.71-1.47
		c-3.55-3.56-0.93-11.58-0.95-17.62c-0.09-30.99,0.07-61.98-0.15-92.97c-0.03-4.86,1.17-6.84,6.22-6.41
		c4.36,0.38,8.8,0.28,13.18,0.04c4.34-0.23,5.72,1.44,5.66,5.8C937.8,538.18,937.93,555.98,937.94,573.78z"/>
	<path class="st0" d="M611.29,695.43c0,15.95-0.09,31.89,0.07,47.84c0.04,3.91-0.61,5.58-5.07,4.43
		c-5.36-1.37-10.91-1.96-16.36-2.96c-3-0.55-4.07-2.13-4.04-5.5c0.2-25.39,0.01-50.77,0.2-76.16c0.03-4.55-0.65-7.24-5.96-6.41
		c-4.4,0.69-5.06-1.74-5.02-5.59c0.12-10.57-0.05-10.7,10.59-10.44c7.5,0.18,14.99,0.95,22.49,1.06c3.85,0.06,3.1,2.45,3.1,4.64
		C611.3,662.7,611.29,679.07,611.29,695.43z"/>
	<path class="st0" d="M666.5,304.82c0,22.4,0,43.73,0,65.07c0,11.94-0.09,23.88,0.06,35.81c0.05,3.77-0.94,5.55-5.11,6.06
		c-5.1,0.63-10.17,2.05-15.05,3.73c-4.24,1.46-4.93,0.09-4.91-3.85c0.13-23.87-0.06-47.75,0.15-71.62c0.05-5.56-0.52-8.79-7.02-5.53
		c-2.12,1.06-3.03-0.07-2.99-2.31c0.06-3.77,0.04-7.54-0.04-11.31c-0.04-1.74,0.83-2.74,2.3-3.32
		C644.54,313.38,655.19,309.23,666.5,304.82z"/>
	<path class="st1" d="M1473.76,905.6c0-10.98,0.29-22.01-0.13-33.01c-0.19-4.99,2.73-4.41,5.49-4c2.64,0.39,7.08-2.56,7.05,3.76
		c-0.13,32.7-0.14,65.4,0.03,98.1c0.02,4.46-2.62,4.4-5.2,3.74c-2.51-0.65-7.41,3.13-7.25-3.35c0.03-1.17,0-2.35,0-4.66
		c-5.2,5.03-9.37,9.09-16.29,9.5c-13.94,0.84-19.46-5.79-22.3-15.84c-4.29-15.17-4.75-30.74-0.18-45.82
		c4.88-16.11,22.64-20.61,35.87-9.9C1471.6,904.72,1472.01,905.91,1473.76,905.6z M1445.04,939.49c1.05,5.6,0.14,11.09,2.1,16.33
		c2.08,5.56,5.05,9.53,11.7,9.68c6.74,0.16,10.99-2.71,12.58-9.19c3.04-12.39,3.34-24.95,0.56-37.36
		c-1.31-5.83-4.88-10.22-11.92-10.22c-8.18,0-9.12,1.31-12.97,9.4C1443.64,925.39,1446.9,932.68,1445.04,939.49z"/>
	<path class="st1" d="M1599.26,966.32c-5.12,6.73-10.98,9.4-18.3,9.2c-9.1-0.25-15.51-4.41-18.76-13.1
		c-4.5-12.04-5.21-24.44-2.95-37.07c0.68-3.82,0.2-7.65,1.85-11.53c7.25-17.12,24.28-20.95,38.84-6.95c0-9.53,0-17.94,0-26.34
		c0-1.47,0-2.94,0-4.41c0-7.43,3.5-9.93,10.65-7.77c3.2,0.97,1.73,3.46,1.74,5.19c0.1,27.27,0.07,54.54,0.07,81.81
		c0,4.61-0.29,9.25,0.08,13.84c0.34,4.17-1.03,5.82-5.18,5.13c-3.29-0.55-8.75,2.21-7.53-5.06
		C1599.84,968.73,1599.58,968.14,1599.26,966.32z M1571.71,935.25c0.56,7.22-0.71,14.15,1.67,20.84c1.85,5.2,4.84,8.84,10.81,9.37
		c6.35,0.56,11.33-1.32,13.05-7.84c3.58-13.53,3.98-27.19,0.14-40.78c-2.04-7.21-7.78-8.33-14.15-8.04
		c-5.76,0.27-8.12,4.18-9.99,9.02C1570.97,923.7,1572.66,929.75,1571.71,935.25z"/>
	<path class="st0" d="M1134.5,284.09c10.68,4.02,20.6,7.86,30.62,11.42c2.14,0.76,2.42,1.99,2.43,3.73c0.02,2.94-0.09,5.87,0,8.81
		c0.15,4.99,0.16,8.77-6.6,4.52c-3.85-2.41-3.03,1.85-3.03,3.69c-0.08,23.49-0.05,46.98-0.05,70.47c0,2.31,0,4.61,0,6.92
		c-0.01,11.28-0.01,11.28-10.75,8.73c-12.61-2.99-12.61-2.99-12.61-16.56C1134.5,352.28,1134.5,318.74,1134.5,284.09z"/>
	<path class="st0" d="M1109.89,424.97c-8.94-1.82-8.94-1.82-8.94,6.78c0,25.97,0,51.94,0,77.91c0,7.89,0,7.91-7.69,7.41
		c-1-0.07-1.98-0.45-2.95-0.77c-4-1.33-9.91,1.61-11.95-3.02c-1.63-3.7-0.5-8.64-0.5-13.04c-0.02-31.41,0.11-62.83-0.13-94.24
		c-0.04-5.08,1.18-6.13,5.96-4.75c7,2.01,14.14,3.59,21.28,5.07c3.62,0.75,5.32,2.29,4.98,6.22
		C1109.63,416.44,1109.89,420.42,1109.89,424.97z"/>
	<path class="st1" d="M1167.75,967.19c-10.61,9.25-19.77,10.96-28.75,5.91c-7.19-4.04-9.67-11.34-11.04-18.35
		c-2.66-13.63-2.78-27.56,1.41-41.01c5.15-16.57,24.32-20.45,38.86-6.91c0-7.88,0-14.78,0-21.68c0-3.36,0.36-6.76-0.07-10.06
		c-0.73-5.52,1.14-7.25,6.79-6.94c4.27,0.24,5.6,1.07,5.57,5.56c-0.21,31.04-0.03,62.07-0.28,93.11c-0.02,2.43,3.17,7.42-3.12,7.44
		C1172.49,974.27,1165.84,976.85,1167.75,967.19z M1168.21,935.49c0.2-5.88,0.12-12.8-2.9-19.46c-2.77-6.1-7.42-7.51-13.56-7.3
		c-5.92,0.2-7.74,4.53-10.17,8.54c-2.25,3.73-1.45,8.02-2.02,11.98c-1.51,10.61-1.46,21.26,4.12,31.06
		c2.96,5.19,7.85,5.73,12.87,5.02c4.22-0.6,7.22-2.83,8.88-7.41C1167.97,950.93,1168.28,943.86,1168.21,935.49z"/>
	<path class="st0" d="M887.92,574.81c0,17.41-0.14,34.82,0.09,52.22c0.06,4.46-1.32,5.61-5.71,5.53
		c-16.66-0.28-16.66-0.12-16.66-16.79c0-23.49-0.05-46.98,0.02-70.47c0.01-3.47,0.08-6.49-4.79-5.41c-0.2,0.04-0.5,0.1-0.62-0.01
		c-4.77-4.37-1.14-10-2.19-14.94c-0.43-2.03-0.47-3.76,2.84-4.12c7.4-0.81,14.78-1.91,22.19-2.73c4.24-0.47,4.91,0.69,4.87,4.5
		C887.81,539.99,887.9,557.4,887.92,574.81z"/>
	<path class="st0" d="M722.02,465.86c0,15.72-0.14,31.43,0.09,47.15c0.06,4.35-1.22,6.18-5.69,6.81
		c-18.74,2.64-18.72,2.77-18.72-15.98c0.01-21.16-0.11-42.33,0.12-63.49c0.05-4.68-1.56-6.35-5.69-4.62
		c-4.01,1.68-3.99-0.3-4.08-3.27c-0.35-11.88-0.42-11.91,10.75-15.14c5.52-1.6,11.05-3.21,16.66-4.47c4.02-0.91,6.9-0.74,6.72,5.24
		C721.7,434,722.02,449.93,722.02,465.86z"/>
	<path class="st0" d="M1190.95,359.09c0-16.13,0.2-32.27-0.12-48.4c-0.1-4.86,1.86-5.1,5.18-3.51c7.5,3.59,15.33,6.3,23.17,9
		c4.16,1.43,6.63,3.68,5.67,8.56c-0.4,2.02-0.19,4.19-0.05,6.27c0.23,3.53-0.99,4.76-4.32,2.99c-4.88-2.59-5.72-0.6-5.68,4.21
		c0.19,24.51,0.08,49.03,0.06,73.54c-0.01,7.23-0.33,7.47-7.37,5.69c-0.2-0.05-0.39-0.13-0.58-0.21
		c-4.97-2.18-12.12-0.66-15.08-5.03c-2.87-4.22-0.75-10.6-0.81-16.02C1190.87,383.82,1190.96,371.46,1190.95,359.09z"/>
	<path class="st0" d="M1271.87,354.01c0,12.23,0,24.35,0,36.48c0,12.78-0.07,25.56,0.07,38.34c0.03,3.19-0.47,4.96-4.12,3.61
		c-5.62-2.07-11.7-2.2-17.36-4.36c-2.55-0.97-3.14-1.98-3.13-4.35c0.04-32.05,0.03-64.09,0.03-96.91
		c11.47,4.4,22.42,8.68,33.44,12.75c1.69,0.62,1.59,1.63,1.66,2.82c0.07,1.04,0.03,2.09,0.03,3.14
		C1282.57,356.32,1282.57,356.32,1271.87,354.01z"/>
	<path class="st0" d="M666.51,475.65c0,14.67-0.15,29.34,0.09,44.01c0.08,4.65-1.75,6.21-6.12,6.4c-4.93,0.21-10.05,0.25-14.68,1.7
		c-4,1.25-4.29,0.02-4.26-3.14c0.06-6.5,0.02-12.99,0.02-19.49c0-17.6-0.03-35.21,0.03-52.81c0.01-3.57-0.02-5.85-4.77-3.51
		c-3.19,1.57-6.24,0.64-5.53-4.16c0.06-0.41,0.01-0.84,0.01-1.26c-0.07-9.55-0.1-9.64,9.27-12.04c7.19-1.84,14.61-2.91,21.64-5.23
		c4.6-1.52,4.34,0.56,4.33,3.63C666.5,445.05,666.52,460.35,666.51,475.65z"/>
	<path class="st0" d="M1303.97,348.33c11.33,4.46,21.88,8.29,32.14,12.75c6.38,2.77,2.65,8.89,2.62,13.21
		c-0.03,3.84-3.98,1.83-6.24,0.98c-2.96-1.12-3.71,0.04-3.7,2.79c0.04,16.97,0,33.94,0.04,50.92c0,1.78-0.35,3.84,2.74,3.76
		c6.28-0.16,8.32,3.31,7.58,9.21c-0.33,2.66-0.06,5.39-0.06,8.13c-11.15-0.95-21.1-5.26-31.54-7.48c-2.49-0.53-3.67-1.91-3.66-4.8
		C1304.01,408.25,1303.97,378.71,1303.97,348.33z"/>
	<path class="st0" d="M611.29,376.16c0,14.24-0.06,28.48,0.04,42.72c0.03,3.71-0.35,5.79-5.05,6.72c-4.69,0.93-9.59,1.96-14.14,4.07
		c-3.75,1.74-6.36,1.07-6.29-4.45c0.29-21.98-0.09-43.97,0.28-65.95c0.1-5.93-1.75-7.07-6.42-4.47c-4.35,2.42-5.32,1.13-5.15-3.34
		c0.47-12.66-2.29-10.11,10.15-14.8c6.7-2.53,13.35-5.19,20.03-7.76c4.38-1.69,6.79-1.28,6.65,4.55
		C611.07,347.67,611.3,361.92,611.29,376.16z"/>
	<path class="st0" d="M832.65,578c0,16.15-0.12,32.3,0.09,48.45c0.05,4.08-1,5.7-5.26,5.23c-5.59-0.61-12.77,1.98-16.44-1.31
		c-3.81-3.42-1.18-10.69-1.23-16.25c-0.18-21.39-0.12-42.79-0.03-64.18c0.02-3.63-0.21-6.45-5.01-5.19
		c-0.39,0.1-0.98,0.16-1.23-0.05c-4.66-3.97-1.1-9.21-1.99-13.79c-0.37-1.92-1.12-4.68,2.75-4.98c8.06-0.62,16.1-1.52,24.12-2.46
		c3.99-0.47,4.31,1.65,4.28,4.82C832.61,544.86,832.66,561.43,832.65,578z"/>
	<path class="st0" d="M964.8,575.97c0-17.2,0.13-34.4-0.1-51.59c-0.05-3.93,0.98-5.12,4.87-4.76c7.23,0.66,14.5,0.92,21.75,1.34
		c0.21,0.01,0.48-0.06,0.62,0.04c5.57,4.37,1.36,10.37,2.51,15.5c0.49,2.21,0.45,4.96-3.22,4.47c-4.89-0.65-4.62,2.45-4.62,5.81
		c0.06,26.85-0.1,53.69,0.13,80.54c0.04,4.66-1.04,6-5.82,5.96c-16.13-0.15-16.13,0.06-16.13-15.77
		C964.79,603.65,964.79,589.81,964.8,575.97z"/>
	<path class="st0" d="M777.21,579.5c0,15.28-0.11,30.57,0.08,45.85c0.05,3.86-0.65,5.77-5.06,5.39c-6-0.51-13.9,1.77-17.57-1.27
		c-3.87-3.21-1.1-11.38-1.15-17.37c-0.17-19.05-0.13-38.1-0.01-57.16c0.02-3.4-0.21-5.67-4.54-5.1c-3.68,0.49-4.24-1.75-4.27-5.02
		c-0.13-13.73-0.24-13.61,13.37-13.92c4.73-0.11,9.64-0.32,14.1-1.69c5.1-1.58,5.08,0.7,5.05,4.42
		c-0.11,15.28-0.04,30.57-0.04,45.85C777.19,579.5,777.2,579.5,777.21,579.5z"/>
	<path class="st0" d="M1134.5,467.45c0-16.16,0.06-32.32-0.04-48.48c-0.02-3.64-0.13-5.59,4.87-4.03c7.74,2.42,15.9,3.48,23.82,5.37
		c2.14,0.51,4,1.68,3.5,4.8c-0.46,2.86-0.34,5.89-0.03,8.79c0.4,3.69-1.59,4.82-4.3,3.59c-5.13-2.31-4.47,0.91-4.47,3.96
		c0.01,25.39-0.08,50.78,0.07,76.18c0.03,5.51-0.68,8.58-7.33,6.04c-3.17-1.21-7-0.94-10.41-1.1c-5.62-0.26-5.77-3.1-5.73-7.29
		C1134.58,499.35,1134.5,483.4,1134.5,467.45z"/>
	<path class="st0" d="M1021.47,578.56c0-16.34,0.18-32.69-0.11-49.03c-0.09-5.08,1.91-5.27,5.95-4.52
		c5.24,0.97,10.42,2.37,15.88,2.21c7.85-0.24,8.87,0.89,8.86,8.52c0,2.3-0.14,4.62,0.04,6.91c0.21,2.7-0.72,4.04-3.53,3.46
		c-4.6-0.96-4.46,1.9-4.45,5.1c0.07,25.35-0.1,50.71,0.16,76.06c0.05,5.04-1.41,6.78-6.36,6.14c-5.32-0.68-12.46,2.35-15.54-1.32
		c-2.62-3.11-0.85-9.98-0.87-15.18C1021.43,604.13,1021.47,591.34,1021.47,578.56z"/>
	<path class="st0" d="M1214.85,449.74c0,18.31,0,36.54,0,54.76c0,7.55-0.07,15.1,0.04,22.65c0.04,2.81-0.6,3.78-3.83,3.98
		c-5.91,0.37-11.49-1.56-17.33-1.56c-3.54,0-2.74-3.53-2.75-5.86c-0.06-15.1-0.04-30.2-0.03-45.31c0.01-15.31,0.1-30.62-0.01-45.94
		c-0.03-4.05,0.18-5.58,5.19-3.92c7.73,2.56,15.91,3.76,23.92,5.46c3.23,0.68,5.36,2.07,4.72,5.82c-0.1,0.61-0.02,1.26-0.01,1.89
		C1224.8,451.68,1224.8,451.68,1214.85,449.74z"/>
	<path class="st0" d="M555.71,689.61c0,14.47-0.09,28.93,0.07,43.4c0.04,3.37-0.56,4.81-4.41,4.63c-6.4-0.29-12.56-1.91-18.85-2.71
		c-3.63-0.46-2.07-3.66-2.08-5.59c-0.13-22.85-0.08-45.71-0.1-68.56c0-3.19,1.03-6.5-4.6-6.61c-4.08-0.08-2.25-4.55-2.76-7.2
		c-1.23-6.37,1.37-8.3,7.68-7.78c7.24,0.6,14.54,0.43,21.82,1.21c3.64,0.39,3.29,2.24,3.29,4.55c-0.01,14.89,0,29.77,0,44.66
		C555.74,689.61,555.72,689.61,555.71,689.61z"/>
	<path class="st0" d="M1247.35,488.44c0-14.05,0.22-28.1-0.12-42.14c-0.12-4.82,2.03-5.61,5.6-4.42c8.17,2.73,16.58,4.39,24.97,6.23
		c3.87,0.85,7.05,12.41,4.3,15.52c-1.44,1.62-3.89,0.87-5.19,0.21c-5.18-2.63-5.06,0.46-5.06,4.04c0.04,20.97-0.26,41.94,0.19,62.89
		c0.13,5.92-1.25,8.89-7.17,7.33c-4.4-1.16-8.86-0.42-13.3-1.59c-3.79-1-4.32-2.66-4.29-5.94
		C1247.42,516.53,1247.35,502.48,1247.35,488.44z"/>
	<path class="st0" d="M611.3,484.42c0,13.42-0.22,26.85,0.11,40.26c0.13,5.47-1.01,8.14-7.18,7.69c-4.24-0.31-8.62-0.41-12.92,1.13
		c-3.53,1.26-5.49,0.13-5.43-4.53c0.28-20.76-0.01-41.52,0.21-62.28c0.05-5.09-0.68-7.7-6.43-5.36c-3.51,1.43-5.28,0.6-5.1-3.81
		c0.46-11.64-1.72-9.79,9.71-12.64c7.02-1.75,14-3.66,21-5.47c4.07-1.06,6.33-0.71,6.15,4.76c-0.44,13.41-0.14,26.84-0.14,40.26
		C611.28,484.42,611.29,484.42,611.3,484.42z"/>
	<path class="st0" d="M1077.85,581.92c0-15.29,0.1-30.59-0.06-45.88c-0.05-4.56,0.95-5.42,5.78-4.44c7.61,1.54,15.52,1.5,23.22,3.04
		c2.38,0.48,3.22,1.07,3.12,3.41c-0.13,3.35-0.06,6.7-0.02,10.05c0.04,2.72-0.9,4.75-3.94,4.27c-5.13-0.81-5.07,2.14-5.05,5.85
		c0.11,22.42,0.05,44.83,0.05,67.25c0,7.89-0.57,8.48-8.57,8.73c-0.41,0.01-0.82-0.13-1.24-0.15c-13.29-0.81-13.29-0.81-13.29-14.43
		C1077.86,607.06,1077.86,594.49,1077.85,581.92z"/>
	<path class="st0" d="M722.02,582.5c0,14.03-0.09,28.05,0.06,42.08c0.04,3.71-0.41,5.91-5,5.37c-6.18-0.72-14.15,2.02-18.17-1.64
		c-3.86-3.51-1.08-11.47-1.14-17.47c-0.17-17.37-0.11-34.75-0.02-52.13c0.02-3.82-0.23-6.36-5.12-4.17
		c-3.07,1.38-4.39,0.01-4.59-3.45c-0.78-13.27-0.2-14.05,12.78-14.97c5.58-0.39,11.17-0.79,16.74-1.37c3.48-0.36,4.61,0.8,4.55,4.42
		C721.9,553.61,722.02,568.06,722.02,582.5z"/>
	<path class="st1" d="M1224.86,941c-5.66,0-11.33,0.14-16.99-0.06c-2.7-0.09-3.73,0.61-3.6,3.45c0.22,4.72-0.11,9.39,2.28,13.86
		c2.85,5.32,6.65,8.06,12.87,7.25c5.17-0.68,8.75-2.72,10.35-8.16c1.49-5.08,8.47-7.84,13.42-5.65c2.79,1.24,1.64,4.09,1.32,6
		c-1.61,9.53-7,14.41-17.68,16.62c-9.02,1.87-17.85,2.82-25.84-3.48c-4.79-3.78-6.59-8.93-8.16-14.53
		c-3.95-14.16-3.48-28.54,0.79-42.08c4.57-14.5,15.64-17.65,31.71-14.82c14.83,2.61,19.36,9.89,20.51,27.82
		c0.88,13.79,0.88,13.79-12.81,13.79C1230.31,941.01,1227.58,941.01,1224.86,941z M1218.13,931.76c3.56,0,7.13,0.06,10.69-0.03
		c1.26-0.03,3.3,0.77,3.22-1.67c-0.17-5.56,0.8-11.28-2.07-16.5c-3.61-6.56-9.99-4.48-15.54-4.86c-6.28-0.42-6.71,5.21-8.83,8.92
		c-2.4,4.21-2.04,9.24-0.62,13.21c0.92,2.56,5.71,0.5,8.74,0.89C1215.18,931.91,1216.67,931.76,1218.13,931.76z"/>
	<path class="st0" d="M666.5,584.53c0,13.22-0.12,26.43,0.08,39.65c0.06,3.73-0.79,5.29-4.85,4.97c-5.01-0.4-10.08-0.4-15.09-0.11
		c-4.29,0.25-5.2-1.49-5.17-5.48c0.19-19.72,0.04-39.44,0.11-59.16c0.01-4.07,0.11-7.44-5.66-4.82c-3.34,1.52-4.84,0.11-4.68-3.72
		c0.59-13.98-3.2-13.46,13.19-13.51c5.82-0.02,11.69-0.8,17.29-1.77c5.1-0.88,4.8,1.13,4.8,4.31c0.01,13.22,0,26.43,0,39.65
		C666.52,584.53,666.51,584.53,666.5,584.53z"/>
	<path class="st1" d="M1096.89,941.04c-12.15,0-24.26,0.13-36.36-0.08c-3.68-0.07-5.01,0.63-4.99,4.73
		c0.02,4.61,0.63,9.09,2.08,13.26c1.66,4.79,8.68,7.6,14.79,6.39c5.31-1.05,8.82-4.39,9.72-9.86c1.3-7.85,7.16-2.67,10.75-3.71
		c4.27-1.23,3.37,2.81,3.2,4.84c-0.59,6.78-3.89,12.49-9.94,15.39c-9.17,4.4-19.16,5.31-28.79,1.81
		c-9.91-3.6-12.91-12.66-14.1-22.01c-1.33-10.4-1.16-20.95,0.14-31.34c1.15-9.25,5.96-19.05,18.07-20.8
		c11.05-1.6,21.97-2.66,29.89,7.53c3.16,4.07,4.59,8.94,4.71,14.19C1096.2,927.74,1095.43,934.15,1096.89,941.04z M1069.55,931.76
		c3.55,0,7.11-0.19,10.64,0.06c2.88,0.21,3.56-0.86,3.3-3.53c-0.25-2.47,0.27-5.03-0.07-7.48c-0.76-5.44-2.28-11.08-8.58-12
		c-11.58-1.68-13.16-0.44-16.98,6.13c-2.82,4.85-3.47,10.75-1.66,15.38c1.45,3.69,7.13,0.71,10.86,1.42
		C1067.85,931.89,1068.71,931.76,1069.55,931.76z"/>
	<path class="st0" d="M500.56,684.18c0,13.22-0.23,26.45,0.12,39.66c0.14,5.2-2.23,5.48-6.07,4.62c-3.59-0.79-7.14-1.87-10.77-2.32
		c-9.15-1.15-9.2-1.03-9.22-9.93c-0.03-19.73-0.11-39.45,0.07-59.18c0.03-3.62-0.5-5.75-4.64-5.15c-3.13,0.45-4.02-1.14-3.82-4.01
		c0.17-2.51,0.09-5.04,0.02-7.55c-0.05-1.84,0.67-2.5,2.56-2.58c10.04-0.47,19.88,2.23,29.94,1.7c2.89-0.15,1.76,2.83,1.77,4.45
		C500.61,657.32,500.57,670.75,500.56,684.18z"/>
	<path class="st1" d="M1424.22,952.8c-2.16,19.3-11.56,21.62-25.53,22.52c-17.54,1.13-26.85-7.94-27.98-25.83
		c-0.71-11.25-0.8-22.5,1.24-33.69c1.38-7.57,10.69-15.84,19.57-16.99c6.28-0.81,12.55,0.11,18.49,1.53
		c8.59,2.05,12.3,9.35,13.45,17.33c0.91,6.29,1.65,12.69,1.41,19.17c-0.13,3.41-1.07,4.26-4.29,4.21
		c-10.69-0.16-21.4,0.19-32.08-0.18c-4.64-0.16-5.55,1.46-5.46,5.68c0.1,4.24,1.26,8.01,2.79,11.83c2.4,6.02,7.11,7.8,12.98,7.02
		c5.48-0.73,9.84-3.38,10.83-9.29c0.47-2.78,1.89-3.35,4.21-3.33C1417.2,952.82,1420.54,952.8,1424.22,952.8z M1397.45,931.76
		c3.96,0,7.93,0.04,11.89-0.02c1.37-0.02,3.55,0.03,2.45-2.18c-1.51-3.05-0.48-6.17-0.98-9.19c-0.9-5.36-2.43-10.52-8.78-11.53
		c-10.58-1.67-14.21,0.02-17.02,7.54c-0.84,2.25-1.44,4.63-1.79,7.01c-1.15,7.85-0.62,8.38,7.35,8.36
		C1392.86,931.74,1395.16,931.75,1397.45,931.76z"/>
	<path class="st1" d="M1535.44,965.71c-7.33,12.4-27.79,13.25-34.47,3.54c-6.09-8.86-6.15-19.05-2.58-28.36
		c3.13-8.17,11.28-11.61,19.95-11.93c4.97-0.19,9.74-2.19,14.79-1.34c0.96,0.16,2.56,0.02,2.33-1.34
		c-0.81-4.97,0.21-10.48-3.13-14.74c-3.1-3.96-7.98-4.87-12.42-3.64c-4.56,1.27-8.46,4.11-8.28,9.96c0.12,3.76-2.94,2.13-4.6,2.19
		c-10.52,0.34-11.38-1.11-6.59-10.62c4.23-8.4,16.28-13.34,26.91-10.32c4.43,1.26,9.25,0.22,13.43,3.94
		c6.98,6.21,6.68,14.35,7.17,22.11c0.99,15.64-0.83,31.37,1,47.01c0.16,1.4-0.1,1.89-1.33,2c-1.04,0.09-2.1,0.05-3.14,0.1
		C1538.95,974.52,1532.92,975.4,1535.44,965.71z M1527.72,937.77c-3.07,0.02-6.03,0.25-9.08,1.14c-6.46,1.9-9.41,5.41-9.69,12.78
		c-0.27,6.9,2.53,12.18,7.18,13.55c6.11,1.8,11.26-0.62,15.37-6.33c2.56-3.56,2.44-7.62,3.47-11.46
		C1537.24,938.95,1536.28,937.73,1527.72,937.77z"/>
	<path class="st0" d="M555.76,393.72c0,13.21-0.21,26.43,0.12,39.63c0.11,4.27-1.3,5.81-5.3,6.52c-5.21,0.93-10.37,2.31-15.42,3.91
		c-4.13,1.31-4.93-0.1-4.9-4c0.15-20.13,0.11-40.26,0.03-60.39c-0.01-2.6,1.56-7.32-4.37-4.57c-0.31,0.14-0.89,0.02-1.19-0.19
		c-1.94-1.34-0.34-14.29,2.03-15.25c8.57-3.48,17.23-6.76,25.83-10.18c4.66-1.86,3.1,1.95,3.12,3.63
		c0.13,13.63,0.07,27.26,0.07,40.89C555.78,393.72,555.77,393.72,555.76,393.72z"/>
	<path class="st1" d="M392.3,920.12c1.21-10.2,4.39-18.57,15.58-20.37c10.46-1.69,21.01-2.81,29.42,5.87
		c4.63,4.78,4.82,11.22,4.99,17.19c0.41,14.67,0.26,29.36-0.02,44.03c-0.05,2.48,2.51,6.13,0.14,7.02
		c-3.31,1.24-7.57,1.01-11.15,0.2c-3.34-0.76-0.25-4.8-2.34-7.23c-7.06,9.22-16.54,10.69-26.86,7.39
		c-10.11-3.23-12.97-17.95-10.79-27.55c2.42-10.65,9.27-15.91,20.85-17.86c4.72-0.8,9.39-1.35,14.14-1.1
		c2.67,0.14,3.88-0.66,3.57-3.5c-0.65-6,0.11-12.5-7.23-15.48c-5.64-2.3-13.87-1.64-15.88,6.46c-1.3,5.25-3.69,5.23-7.51,4.97
		C396.93,920,394.64,920.12,392.3,920.12z M420.77,937.71c-2.88,0.24-6.12-0.16-9.33,1.22c-6.71,2.89-10.43,11.41-8,19.13
		c1.69,5.35,10.15,9.14,16,6.82c7.89-3.12,9.38-10.38,10.26-17.58C430.87,937.71,430.66,937.68,420.77,937.71z"/>
	<path class="st0" d="M1134.48,585.12c0-14.03,0.08-28.06-0.05-42.09c-0.04-4.19-0.23-5.99,5.64-4.91
		c7.81,1.44,15.97,1.47,23.93,2.79c2.29,0.38,2.69,1.1,2.59,3.08c-0.14,2.72-0.25,5.46,0.02,8.16c0.37,3.82-0.57,6.02-4.95,5.34
		c-4.47-0.69-3.79,2.46-3.79,5.16c0.01,21.78-0.14,43.56,0.1,65.34c0.05,4.84-1.11,6.84-6.2,6.25c-3.72-0.43-7.57-0.45-11.29,0
		c-5.29,0.63-6.17-1.73-6.08-6.41C1134.67,613.61,1134.5,599.36,1134.48,585.12z"/>
	<path class="st0" d="M1360.49,440.43c14.46,3.93,14.46,3.93,14.46-10.19c0-10.68-0.53-21.4,0.19-32.03
		c0.48-7.08-3.23-9.46-8.76-10.66c-2.24-0.48-5.32-0.48-5.62-2.68c-0.59-4.29-0.24-8.76,0.2-13.1c0.12-1.14,2.04-0.64,3.23-0.18
		c10.25,3.96,20.47,8.02,30.82,11.72c2.47,0.88,2.52,2.28,2.52,4.21c-0.01,24.5-0.04,49.01,0.02,73.51c0.01,2.79-0.36,4.36-3.8,3.47
		c-10.47-2.72-20.96-5.34-31.5-7.78c-2.31-0.54-1.72-2-1.75-3.29C1360.44,449.27,1360.49,445.1,1360.49,440.43z"/>
	<path class="st1" d="M703.88,966.58c-10.36,10.48-21.48,12.59-30.68,5.16c-7.52-6.07-9.12-15.28-7.56-24.16
		c1.47-8.37,6.38-15.1,15.53-17.35c6.48-1.59,13.05-2.46,19.71-2.2c3.29,0.13,4.27-0.95,4.25-4.26
		c-0.08-14.54-7.51-16.61-17.62-14.94c-4.3,0.71-5.65,4.47-6.72,7.94c-2.19,7.1-7.77,2.94-11.35,2.91
		c-3.31-0.03-1.88-4.59-1.17-6.69c2.76-8.21,8.84-13.28,17.38-14.11c7.75-0.75,15.69-0.53,22.86,3.45
		c7.06,3.92,8.24,10.96,8.45,17.93c0.43,14.67,0.29,29.35,0.37,44.03c0,0.62-0.3,1.25-0.26,1.86c0.6,8.07,0.61,8.07-7.43,8.09
		C704.54,974.24,704.54,974.24,703.88,966.58z M696.12,937.79c-1.89,0-3.78-0.13-5.65,0.02c-7.92,0.66-13.92,9.03-12.52,17.36
		c1.23,7.35,8.09,11.92,15.13,10.07c6.82-1.79,11.34-9.57,11.28-19.42C704.31,937.6,704.31,937.6,696.12,937.79z"/>
	<path class="st0" d="M1190.96,588.49c0-13.41,0.03-26.83-0.02-40.24c-0.01-3.5,0.1-5.15,4.91-3.99c8.15,1.97,16.75,1.59,25.11,2.92
		c3.55,0.57,4.02,1.92,3.87,4.74c-0.11,2.09-0.28,4.22-0.01,6.28c0.51,3.99-0.97,5.44-4.89,4.47c-4.36-1.08-5.18,1.03-5.15,5.01
		c0.18,20.12-0.11,40.25,0.26,60.36c0.1,5.4-1.53,6.86-6.61,6.33c-4.15-0.44-8.39-0.33-12.56-0.02c-3.92,0.29-5.01-1.18-4.96-4.99
		C1191.1,615.74,1190.98,602.11,1190.96,588.49z"/>
	<path class="st0" d="M1247.35,591.7c0-12.38,0.15-24.76-0.09-37.14c-0.07-3.89,1.04-5.79,4.89-4.59c8.59,2.68,17.6,2.04,26.35,3.46
		c3.36,0.55,4.29,1.27,4.01,4.32c-0.15,1.66-0.28,3.4,0.02,5.02c0.96,5.23-1.83,7.05-6.15,5.86c-5.37-1.48-4.54,1.77-4.53,4.79
		c0.01,17.41,0,34.83,0.02,52.24c0.01,8.77,0.03,8.77-9.05,8.75c-3.57,0-7.15-0.24-10.7,0.05c-3.92,0.32-4.97-1.15-4.89-5
		c0.24-12.58,0.09-25.18,0.09-37.76C1247.34,591.7,1247.34,591.7,1247.35,591.7z"/>
	<path class="st1" d="M941.16,937.09c0.22,6.85-0.73,13.47-2.27,20.22c-2.3,10.14-8.18,16.07-17.94,17.47
		c-13.47,1.93-24.23,2.54-31.62-10.34c-3.15-5.5-4.05-11.83-4.15-18.46c-0.11-7.52-0.12-14.99,0.34-22.49
		c1.37-22.48,16.91-27.21,33.87-24.06c15.44,2.87,20.64,10.44,21.74,27.6C941.35,930.37,941.16,933.73,941.16,937.09z
		 M928.39,934.49c0-2.31,0.67-4.9-0.17-6.85c-1.08-2.51-0.51-4.92-0.92-7.32c-1.03-5.95-6.33-10.76-12.42-11.53
		c-7.32-0.93-12.08,1.09-14.62,7.61c-5.46,14.01-4.12,28.22,0.51,42.14c1.88,5.67,6.79,7.49,12.52,6.9
		c5.29-0.55,9.36-1.98,11.81-7.93C928.21,949.91,926.9,942.07,928.39,934.49z"/>
	<path class="st0" d="M1417.09,732.28c0-6.06,0-12.11,0-18.16c0-20.75,0.08-41.51-0.07-62.26c-0.03-3.82,0.59-5.57,5.02-5.44
		c8.79,0.27,17.6-0.02,26.4-0.31c3-0.1,4.72,0.9,3.89,3.84c-1.02,3.65,3.46,10.42-3.72,10.46c-6.86,0.04-6.53,3.11-6.48,7.9
		c0.18,18.45-0.03,36.9,0.17,55.34c0.04,3.62-0.94,5.22-4.58,5.65C1430.98,730.09,1424.28,731.22,1417.09,732.28z"/>
	<path class="st0" d="M445.12,678.01c0,11.95-0.2,23.9,0.11,35.84c0.11,4.3-1.26,5.48-5.26,4.76c-5.85-1.06-11.76-1.85-17.61-2.9
		c-3.24-0.58-3.86-2.76-3.83-5.91c0.16-18.23-0.06-36.47,0.14-54.71c0.05-4.14-0.74-5.94-5.36-5.91c-6.77,0.04-2.71-5.47-3.57-8.4
		c-0.98-3.35,1.03-4.13,4.15-4.07c8.8,0.17,17.6,0.21,26.39-0.06c3.82-0.12,5.03,0.94,4.94,4.88
		C444.96,653.69,445.13,665.85,445.12,678.01z"/>
	<path class="st0" d="M555.76,495.77c0,12.36-0.12,24.71,0.08,37.06c0.05,3.29-1.05,5.28-4.13,5.64
		c-5.54,0.65-11.14,0.79-16.68,1.42c-4.04,0.46-4.81-1.23-4.77-4.95c0.18-18.84,0.07-37.69,0.09-56.54c0-2.96,0.51-6.17-4.26-5.35
		c-2.55,0.44-2.98-1.03-3.16-3.29c-0.76-9.57-0.63-9.89,8.67-12.28c5.96-1.53,11.9-3.21,17.92-4.41c3.59-0.71,6.64-0.74,6.4,5.01
		C555.4,470.62,555.76,483.2,555.76,495.77z"/>
	<path class="st0" d="M611.3,587.12c0,11.93-0.13,23.87,0.08,35.8c0.07,3.85-0.6,5.84-5.05,5.24c-3.29-0.44-6.69-0.12-10.04-0.17
		c-10.3-0.15-10.3-0.15-10.3-10.75c0-16.12-0.13-32.24,0.09-48.36c0.05-4.04-0.98-5.73-5.19-5.12c-8.59,1.25-5.61-5.25-6.3-9.44
		c-0.82-5,1.56-5.95,5.94-5.77c8.48,0.35,16.64-2.66,25.2-2.63c4.96,0.02,5.8,1.57,5.68,6.02C611.1,563.67,611.3,575.4,611.3,587.12
		z"/>
	<path class="st1" d="M538.6,934.02c0.95-7.46,0.35-14.11,2.79-20.46c5.45-14.16,17.1-16.6,31.1-14.36
		c15.77,2.53,18.27,7.3,21.29,23.76c2,10.9,1.62,21.53-0.38,32c-2.76,14.43-8.57,18.81-23.38,20.39c-4.27,0.45-8.76,0.8-13.03-0.42
		c-10.22-2.91-17.16-12.25-17.49-23.05C539.32,945.62,538.88,939.36,538.6,934.02z M551.76,934.3c-0.01,7.68-0.4,14.42,1.6,20.83
		c1.61,5.15,3.92,10.01,10.68,10.28c7.45,0.3,13.79-2.09,15.29-7.14c3.94-13.32,4.58-26.9,1.02-40.39
		c-1.48-5.61-5.82-8.59-11.77-9.11c-6.56-0.57-11.59,1.21-14.79,7.55C550.66,922.51,552.48,929.01,551.76,934.3z"/>
	<path class="st0" d="M466.68,396.01c-0.08-0.18-0.23-0.35-0.24-0.53c-0.88-12.08-0.95-12.25,9.85-16.79
		c7.72-3.24,15.66-5.97,24.27-9.22c0,9.95,0,19.12,0,28.29c0,16.76-0.05,33.52,0.03,50.27c0.02,3.05-0.44,4.3-4.07,5.34
		c-5.32,1.52-10.85,2.34-16.04,4.37c-4.59,1.8-6.08,0.21-5.99-4.81c0.31-16.75,0.12-33.51,0.14-50.27
		C474.65,394.05,474.66,394.05,466.68,396.01z"/>
	<path class="st1" d="M962.26,908.67c10-12.58,18.82-11.13,29.84-8.32c6.84,1.74,8.63,8.15,9.53,14.49
		c2.2,15.42,0.55,30.94,1.05,46.4c0.05,1.68,0.01,3.36,0.01,5.03c0.01,8.02-2.46,9.84-10.38,8.09c-3.43-0.76-2.01-3.24-2.03-4.95
		c-0.12-15.52-0.01-31.04-0.11-46.56c-0.06-9.65-4.08-13.98-12.7-14.07c-8.87-0.09-14.73,5.43-14.82,14.36
		c-0.16,15.31-0.43,30.63,0,45.93c0.16,5.63-2.58,5.37-6.39,5.31c-3.63-0.06-6.59,0.61-6.45-5.17c0.45-18.03,0.17-36.07,0.15-54.11
		c0-2.1,0.2-4.25-0.19-6.28c-1.73-8.96-1.76-8.4,6.77-8.97C964.55,899.31,959.76,905.69,962.26,908.67z"/>
	<path class="st1" d="M616.07,909.03c8.94-12.82,21.58-12.41,31.88-7.47c6.63,3.18,8.02,10.48,8.23,16.91
		c0.57,17.39,0.18,34.82,0.33,52.23c0.05,5.85-4.18,3.21-6.7,3.52c-2.72,0.33-5.85,1.09-5.77-3.89c0.24-15.52,0.01-31.05,0.1-46.57
		c0.07-11.38-6.03-15.75-16.3-14.88c-6.59,0.56-11.27,6.54-11.47,15.81c-0.32,14.89-0.47,29.79-0.11,44.67
		c0.13,5.26-2.4,5.23-6.05,4.96c-3.08-0.23-6.6,1.36-6.53-4.5c0.26-22.02,0.05-44.05-0.09-66.07c-0.02-2.47,0.22-4.31,3.23-3.69
		c2.86,0.59,7.12-2.2,8.12,3.17C615.26,904.96,614.29,906.91,616.07,909.03z"/>
	<path class="st0" d="M390.3,673.07c0,10.25-0.1,20.51,0.05,30.76c0.06,3.89,0.08,5.82-5.29,5.1c-6.12-0.82-12.07-2.8-18.28-2.87
		c-4.33-0.05-3.68-3.15-3.69-5.78c-0.03-16.11,0-32.23,0-48.34c0-2.64,0.5-4.7-3.74-5.45c-4.84-0.85-1.56-5.86-2.29-8.94
		c-0.58-2.46,1.09-3.24,3.37-3.13c8.97,0.4,17.93,0.81,26.91,1.08c3.82,0.11,2.91,2.82,2.92,4.92
		C390.34,651.31,390.3,662.19,390.3,673.07z"/>
	<path class="st0" d="M1442.21,415.5c0,19.05-0.11,37.5,0.08,55.94c0.04,4.19-0.85,5.54-5.2,4.29c-5.67-1.63-11.51-2.66-17.28-3.94
		c-2.74-0.61-2.75-2.72-2.75-4.88c0.01-23.7,0.05-47.39-0.02-71.09c-0.01-3.47,1-3.77,4.08-2.56c9.5,3.74,19.13,7.12,28.69,10.68
		c2.24,0.83,4.05,9.09,2.48,12.33c-1.61,3.32-3.84,0.62-5.8,0.23C1445.27,416.26,1444.07,415.94,1442.21,415.5z"/>
	<path class="st0" d="M466.65,486.64c-1.11-13.5-1.1-13.41,11.27-16.2c5.41-1.22,10.76-2.77,16.08-4.35
		c4.37-1.3,6.76-1.21,6.68,4.69c-0.31,22.65-0.22,45.32-0.02,67.97c0.03,3.33-0.79,4.89-4.04,5.5c-6.32,1.19-12.62,2.1-19.09,2
		c-4.08-0.07-2.86-2.85-2.87-4.81c-0.08-16.15-0.03-32.31-0.04-48.46C474.62,484.83,474.61,484.83,466.65,486.64z"/>
	<path class="st0" d="M410.25,417.41c-0.23-0.52-0.38-0.71-0.4-0.91c-0.9-11.32-0.94-11.42,9.59-15.7
		c7.42-3.02,15.07-5.52,22.41-8.71c3.02-1.31,3.26-0.19,3.26,2.13c0.01,23.06-0.02,46.12,0.04,69.18c0.01,2.3-0.87,3.31-3.08,3.85
		c-6.79,1.66-13.54,3.48-20.28,5.32c-4.31,1.18-3.16-2.05-3.17-4.01c-0.06-15.09-0.02-30.19-0.02-45.28
		C418.61,414.96,418.6,414.96,410.25,417.41z"/>
	<path class="st0" d="M1473.76,684.05c0-11.09,0.15-22.19-0.08-33.28c-0.08-3.79,0.9-5.13,4.88-4.98
		c7.94,0.29,15.91,0.01,23.86,0.02c2.4,0,5.6-0.74,5.1,3.35c-0.45,3.68,2.46,9.58-3.91,10.02c-5.24,0.36-4.81,2.86-4.79,6.36
		c0.08,16.12-0.15,32.24,0.11,48.35c0.08,4.75-0.67,7.35-6.16,7.53c-4.68,0.15-9.32,1.51-13.99,2.25c-3.4,0.54-5.24-0.12-5.11-4.46
		C1474.01,707.5,1473.77,695.77,1473.76,684.05z"/>
	<path class="st0" d="M555.76,588.92c0,10.89-0.29,21.8,0.13,32.67c0.2,5.03-1.69,6.32-6.11,5.69c-1.03-0.15-2.09-0.11-3.13-0.21
		c-5.34-0.54-12.66,2.36-15.51-1.46c-2.63-3.53-0.77-10.45-0.79-15.88c-0.04-12.15-0.09-24.3,0.01-36.45
		c0.02-2.85-0.06-4.97-3.86-4.53c-2.28,0.26-3.45-1.22-3.47-3.46c-0.02-3.35-0.86-7.07,0.31-9.95c1.42-3.48,5.66-0.69,8.36-1.74
		c5.97-2.31,12.37-0.12,18.4-2.22c3.82-1.33,5.98-0.05,5.8,4.86C555.5,567.12,555.77,578.03,555.76,588.92z"/>
	<path class="st0" d="M445.12,514.06c0,10.05-0.39,20.12,0.16,30.14c0.29,5.2-2.17,6.62-6.26,6.9c-5.97,0.41-11.85,1.21-17.71,2.41
		c-3.56,0.73-2.7-2.3-2.7-4.15c-0.05-15.28-0.1-30.57,0.03-45.85c0.04-4.06-0.2-6.7-5.36-4.38c-2.48,1.11-3.54-0.28-3.72-3.08
		c-0.58-8.75-0.61-9.04,8.06-11.21c7.8-1.96,15.78-3.27,23.47-5.56c4.09-1.22,4.08,0.47,4.06,3.38
		C445.1,493.13,445.13,503.6,445.12,514.06z"/>
	<path class="st0" d="M1452.01,503.12c-9.81-1.65-9.81-1.65-9.81,8.24c0,14.03-0.05,28.06,0.03,42.1c0.02,4.58,0.01,8-6.51,5.57
		c-3.93-1.46-8.53-1.31-12.85-1.48c-4-0.15-5.93-1.28-5.88-5.86c0.21-21.78,0.2-43.56,0-65.34c-0.04-4.08,1.09-4.19,4.51-3.23
		c7.62,2.14,15.3,4.36,23.1,5.5c6.99,1.02,8.92,4.51,7.82,10.81C1452.22,500.65,1452.15,501.89,1452.01,503.12z"/>
	<path class="st0" d="M390.24,412.31c0,22.23-0.09,43.4,0.1,64.56c0.03,3.11-1.69,4.07-3.82,4.67c-6.72,1.89-13.52,3.52-20.28,5.28
		c-4.32,1.13-3.08-2.15-3.09-4.08c-0.08-14.05-0.02-28.1-0.08-42.15c-0.01-2.6,1.06-6.62-4.19-4.1c-0.68,0.32-1.49,0.05-2-0.89
		c-1.93-3.55,0.75-10.6,4.54-12.05C370.69,419.97,379.95,416.32,390.24,412.31z"/>
	<path class="st0" d="M1473.76,413.67c10.54,3.73,20.17,6.98,29.68,10.58c5.91,2.24,2.81,7.58,2.94,11.43
		c0.13,3.86-3.08,1.78-5.06,1.44c-3.95-0.69-2.42,2.42-2.43,3.9c-0.12,14.25-0.08,28.5-0.07,42.75c0.01,7.65,0.02,7.66-7.29,5.82
		c-1.77-0.44-3.56-0.86-5.31-1.35c-4.08-1.15-9.89-0.57-11.8-3.78c-1.95-3.28-0.64-8.53-0.65-12.92
		C1473.75,452.47,1473.76,433.42,1473.76,413.67z"/>
	<path class="st0" d="M466.73,573.44c-0.37-14.35-4.25-13.3,12.24-14.79c5.74-0.52,11.47-1.31,17.18-2.16
		c3.1-0.46,4.51,0.1,4.49,3.72c-0.14,20.76-0.12,41.52-0.01,62.28c0.02,3.22-0.78,4.43-4.22,4.22c-5.64-0.35-11.33-0.43-16.98-0.13
		c-4.06,0.21-4.91-1.43-4.86-5.11c0.17-13.63,0.05-27.26,0.05-40.89C474.61,572.12,474.61,572.12,466.73,573.44z"/>
	<path class="st0" d="M334.87,667.65c0,9.22-0.17,18.44,0.09,27.65c0.1,3.55-0.89,5.11-4.46,4.45c-6.22-1.15-12.4-2.64-18.66-3.47
		c-3.92-0.53-4.53-2.46-4.49-5.9c0.17-13.61,0.05-27.23,0.1-40.85c0.01-2.86,0.2-4.9-3.98-5.34c-4.22-0.45-1.58-4.66-2.06-7.14
		c-0.46-2.38,0.68-4.08,3.43-4.06c9.36,0.07,18.62,1.92,28.04,1.4c3-0.17,1.92,2.74,1.94,4.35
		C334.92,648.37,334.87,658.01,334.87,667.65z"/>
	<path class="st0" d="M1530.39,681.14c0-10.04,0.23-20.1-0.1-30.13c-0.15-4.55,1.41-5.66,5.71-5.5c7.94,0.3,15.91,0.14,23.85-0.09
		c3.32-0.1,4.91,1.11,4.1,4.29c-0.72,2.81,2.89,7.99-3.7,7.84c-3.88-0.08-4.74,1.42-4.68,5.14c0.24,14.85-0.03,29.72,0.18,44.57
		c0.05,3.58-0.89,4.99-4.53,5.64c-6.03,1.09-12.22,1.18-18.15,3.07c-2.94,0.93-2.65-1.55-2.64-3.45
		c0.02-10.46,0.01-20.93,0.01-31.39C1530.42,681.14,1530.41,681.14,1530.39,681.14z"/>
	<path class="st0" d="M390.29,524.4c0,9.02-0.27,18.05,0.11,27.06c0.19,4.65-2.31,5.94-5.86,5.92c-6.27-0.04-12.39,0.41-18.4,2.36
		c-3.52,1.14-3.03-1.58-3.03-3.62c-0.01-13.01,0.02-26.02-0.02-39.02c-0.01-3.03,1.45-7.14-4.43-6.27
		c-2.21,0.33-2.14-1.77-1.83-3.09c0.66-2.78-2.13-7.03,1.75-8.21c9.66-2.94,19.54-5.24,29.41-7.43c3.1-0.69,2.24,2.39,2.26,3.98
		C390.34,505.51,390.29,514.96,390.29,524.4z"/>
	<path class="st1" d="M455.71,937.11c0.8-6.68,0.15-13.29,1.65-19.91c3.86-17,17.5-20.41,31.25-17.92
		c13.23,2.4,16.36,7.73,18.03,20.32c0.39,2.96-0.29,4.31-3.89,4.41c-5.98,0.17-9.58-0.12-10.17-8.01
		c-0.55-7.33-10.35-9.72-17.47-5.2c-3.36,2.14-5.81,6.01-6,9.68c-0.61,11.59-1.71,23.29,1.1,34.79c1.71,6.98,6.15,10.48,12.6,10.19
		c6.28-0.28,10.31-3.81,11.12-11.1c0.9-8.05,6.56-3.07,9.87-3.85c4.52-1.06,2.81,3.18,2.8,5.08c-0.05,9.55-10.41,19.14-20.76,19.95
		c-19.96,1.55-27.97-7.69-29.52-26.62C455.98,944.97,455.9,940.98,455.71,937.11z"/>
	<path class="st0" d="M1417.08,569.1c7.39,0.78,14.13,2.03,20.87,1.99c4.24-0.03,8.18,1.18,12.25,1.62c4.44,0.48,1.5,5.09,2.13,7.79
		c0.56,2.37,0.08,5.2-3.19,4.57c-7.8-1.52-7.05,3.36-6.99,8.33c0.15,12.35-0.03,24.7,0.13,37.05c0.04,3.39-0.72,4.96-4.52,4.75
		c-5.43-0.31-10.89-0.19-16.32,0c-3.16,0.11-4.45-0.8-4.43-4.21C1417.15,610.49,1417.08,590,1417.08,569.1z"/>
	<path class="st0" d="M445.11,593.98c0,9.01-0.17,18.03,0.08,27.03c0.1,3.62-1.07,4.68-4.59,4.49c-5.64-0.29-11.33-0.37-16.97-0.06
		c-4.34,0.24-5.2-1.58-5.13-5.51c0.23-11.94,0-23.89,0.14-35.83c0.04-3.56-0.19-5.55-4.85-5.43c-6.97,0.17-3.32-5.71-4.08-8.96
		c-0.77-3.27,0.53-4.67,4.29-4.86c8.66-0.45,17.31-1.35,25.9-2.55c4.17-0.58,5.46,0.34,5.31,4.65
		C444.91,575.95,445.13,584.97,445.11,593.98z"/>
	<path class="st0" d="M1473.77,495.97c9.71,2.4,18.68,5.36,27.89,6.69c7.92,1.14,4.86,6.52,4.71,10.13
		c-0.23,5.36-4.49,1.97-7.55,2.03c0,15.42-0.16,30.68,0.1,45.92c0.07,4.26-0.83,6.22-5.39,5.58c-4.69-0.66-9.43-1.02-14.14-1.58
		c-4.33-0.52-5.84-2.66-5.77-7.34C1473.95,537.11,1473.77,516.82,1473.77,495.97z"/>
	<path class="st0" d="M334.9,434.29c0,19.25-0.06,37.89,0.07,56.52c0.02,2.86-1.15,4.21-3.63,4.87c-6.52,1.73-13.05,3.42-19.57,5.16
		c-3.11,0.83-4.51,0.2-4.43-3.52c0.23-11.51,0.24-23.04-0.06-34.55c-0.05-1.99,3.1-8.18-4.18-5.14c-0.7,0.29-1.86-1.44-1.72-2.9
		c0.29-2.97-1.4-6.91,2.31-8.42C313.89,442.18,323.87,437.4,334.9,434.29z"/>
	<path class="st0" d="M1530.43,467.44c0-9.23,0.14-18.46-0.07-27.68c-0.09-4.09,0.65-5.06,4.9-3.48c8.22,3.07,15.88,7.53,24.59,9.41
		c5.49,1.18,2.92,6.01,3.37,9.36c0.55,4.03-2.57,3.04-4.6,2.9c-4.14-0.29-2.92,2.73-2.93,4.67c-0.09,12.79-0.11,25.58,0.02,38.37
		c0.04,4.09-0.4,5.52-5.26,3.83c-6.27-2.18-14.82-1.22-18.78-5.96c-3.96-4.75-0.92-12.85-1.25-19.47c-0.2-3.97-0.04-7.97-0.04-11.95
		C1530.4,467.44,1530.42,467.44,1530.43,467.44z"/>
	<path class="st0" d="M390.22,596.22c0,8.18-0.15,16.37,0.07,24.54c0.09,3.44-1.17,4.35-4.4,4.16c-5.86-0.34-11.75-0.65-17.61-0.4
		c-4.16,0.18-5.39-1.07-5.28-5.25c0.29-10.9,0.08-21.81,0.12-32.72c0.01-2.41,0.27-4.54-3.42-4.17c-4.03,0.4-2.79-3.02-2.61-4.9
		c0.24-2.52-2.1-6.56,2.54-7.17c9.02-1.18,18.12-1.85,27.16-2.86c3.59-0.4,3.55,1.7,3.53,4.22c-0.06,8.18-0.02,16.36-0.02,24.54
		C390.28,596.22,390.25,596.22,390.22,596.22z"/>
	<path class="st0" d="M334.9,534.17c0,7.96-0.23,15.94,0.1,23.88c0.16,3.86-1.8,5.72-4.84,5.55c-6.32-0.35-12.32,1.8-18.61,1.62
		c-3.3-0.09-4.24-0.86-4.19-4.15c0.19-10.89,0.03-21.79,0.08-32.68c0.01-2.82,0.42-5.31-3.99-5.05c-3.47,0.2-1.85-3.11-1.94-4.81
		c-0.13-2.51-1-5.58,3-6.49c8.59-1.96,17.14-4.09,25.69-6.19c3.31-0.81,4.89-0.1,4.77,3.82C334.72,517.82,334.9,526,334.9,534.17z"
		/>
	<path class="st0" d="M1586.9,675.95c0-8.81,0.15-17.62-0.08-26.42c-0.09-3.39,1.1-4.28,4.29-4.23c7.76,0.12,15.52-0.11,23.28-0.12
		c1.94,0,4.9-0.6,4.16,2.78c-0.58,2.64,2.92,7.13-2.92,7.72c-3.67,0.37-3.41,2.97-3.41,5.52c0.01,12.58-0.14,25.17,0.09,37.75
		c0.07,3.85-0.74,5.66-4.98,5.94c-5.54,0.36-11.04,1.42-16.52,2.37c-3.12,0.54-3.99-0.58-3.94-3.62
		C1587.01,694.41,1586.91,685.18,1586.9,675.95z"/>
	<path class="st0" d="M1530.4,540.87c0-8.58,0.3-17.17-0.12-25.73c-0.23-4.55,2.01-4.92,5.18-4.22c8.19,1.79,16.29,3.98,24.5,5.68
		c5.82,1.2,2.53,5.53,3.25,8.43c0.88,3.56-1.7,3.69-4.08,3.41c-3.5-0.41-3.51,1.66-3.49,4.18c0.07,11.71-0.03,23.43,0.06,35.14
		c0.03,4.53-0.28,7.33-6.33,5.18c-4.35-1.55-9.41-1.9-14.08-1.6c-4.74,0.31-5.02-1.75-4.94-5.39
		C1530.52,557.61,1530.4,549.24,1530.4,540.87z"/>
	<path class="st0" d="M1473.76,604.06c0-8.39-0.01-16.77,0.01-25.16c0-2.04-0.5-4.4,3.01-3.88c8.96,1.34,17.92,2.73,26.91,3.8
		c5.77,0.69,2.04,4.8,2.8,7.22c0.77,2.44,0.01,4.73-3.39,4.19c-3.92-0.63-4.35,1.41-4.3,4.67c0.16,11.95-0.04,23.9,0.12,35.85
		c0.05,3.42-0.78,4.96-4.53,4.73c-5.22-0.32-10.49-0.42-15.71-0.13c-3.85,0.21-5.11-0.95-4.99-4.88
		C1473.96,621.68,1473.77,612.87,1473.76,604.06z"/>
	<path class="st1" d="M1014.38,938.94c0-7.76-0.36-15.55,0.13-23.29c0.32-4.94-1.35-6.11-5.91-5.71c-2.99,0.26-6.92,1.5-7.16-4.21
		c-0.19-4.54,0.8-6.82,5.72-5.85c5.82,1.15,7.49-1.31,7.1-7.01c-0.5-7.5,2.23-10.31,9.64-11.69c2.24-0.42,2.94,0.49,2.87,2.68
		c-0.12,3.98,0.19,7.99-0.09,11.95c-0.24,3.46,1.16,4.47,4.36,4.13c1.87-0.2,3.78,0.05,5.66-0.06c3.12-0.17,5.47-0.31,5.35,4.32
		c-0.1,4.06-1.39,4.72-5.05,4.68c-10.28-0.12-10.28,0.05-10.27,10.55c0.01,11.96-0.03,23.92,0.03,35.89
		c0.04,7.34,2.54,9.7,10.08,10.18c2.04,0.13,5.46-1.63,5.08,3.05c-0.24,3.01,0.91,5.73-4.38,6.03c-4.69,0.27-9.16,1.5-13.85-0.23
		c-6.01-2.22-9.66-5.79-9.4-12.74C1014.6,954.06,1014.38,946.5,1014.38,938.94z"/>
	<path class="st0" d="M1587.57,456.82c9.42,3.38,18.94,6.42,28.13,10.25c6.01,2.5,1.87,7.95,3.04,13.13c-6.94-5-6.61-0.83-6.56,3.49
		c0.11,10.48-0.25,20.98,0.17,31.44c0.2,4.97-2.14,5.46-5.57,4.24c-3.51-1.24-7.07-1.98-10.67-2.79c-9.24-2.09-9.2-2.25-9.21-12.02
		c0-13.84-0.04-27.67-0.01-41.51C1586.9,461.02,1586.44,458.91,1587.57,456.82z"/>
	<path class="st0" d="M334.9,598.29c0,7.11-0.17,14.23,0.07,21.34c0.12,3.65-1.14,4.69-4.7,4.46c-5.84-0.38-11.72-0.5-17.56-0.32
		c-3.96,0.12-5.54-0.88-5.37-5.23c0.35-9.19,0.12-18.41,0.04-27.61c-0.01-1.48,0.79-4.16-1.67-3.93c-6.92,0.64-3.63-4.43-4.21-7.15
		c-0.87-4.06,2.2-3.3,4.65-3.59c8.39-0.97,16.78-2.02,25.14-3.3c3.69-0.57,3.62,1.5,3.61,3.99c-0.04,7.11-0.01,14.23-0.01,21.34
		C334.88,598.29,334.89,598.29,334.9,598.29z"/>
	<path class="st0" d="M1530.41,607.97c0-7.11,0.09-14.22-0.03-21.33c-0.07-3.89-0.25-5.41,5.28-4.44c8.03,1.42,16.4,1.41,24.56,2.89
		c6.17,1.12,2.36,5.59,2.87,8.38c0.59,3.28-1.91,2.49-4.05,1.9c-3.66-1.02-3.4,1.56-3.39,3.95c0.04,10.46-0.14,20.92,0.11,31.36
		c0.09,3.81-0.89,5.21-4.86,4.94c-5.42-0.36-10.88-0.32-16.3-0.12c-3.33,0.12-4.33-1.11-4.26-4.33
		C1530.51,623.45,1530.39,615.71,1530.41,607.97z"/>
	<path class="st0" d="M1586.9,550.34c0-7.53,0.01-15.06-0.01-22.59c-0.01-2.62-0.66-4.74,3.83-3.28c7.71,2.51,15.76,4.04,23.75,5.58
		c4.18,0.8,4.2,3.3,4.32,6.61c0.12,3.44-0.74,4.86-4.38,4.51c-3.32-0.32-2.09,2.49-2.11,4.03c-0.11,9.83-0.25,19.66,0.01,29.48
		c0.11,4.14-0.54,5.96-5.37,5.58c-5.13-0.4-10.08-2.1-15.38-1.57c-2.83,0.28-4.8-1.6-4.71-5.14
		C1587.04,565.82,1586.9,558.08,1586.9,550.34z"/>
	<path class="st1" d="M742.09,921.75c0,15.91-0.2,31.83,0.12,47.74c0.09,4.6-1.79,5.29-5.47,4.83c-3.1-0.39-7.09,1.72-7.04-4.65
		c0.28-32.24,0.27-64.49,0.01-96.73c-0.05-5.9,3.49-4.36,6.53-4.42c2.92-0.05,6.1-1.19,5.98,4.23
		C741.85,889.08,742.08,905.41,742.09,921.75z"/>
	<path class="st0" d="M1586.92,611.28c0-6.71,0.12-13.42-0.06-20.13c-0.08-2.84,0.87-3.7,3.62-3.35c7.19,0.9,14.39,1.66,21.59,2.43
		c5.79,0.62,7.61,2.96,6.65,8.25c-0.26,1.43-1.35,3.05-1.97,2.83c-7.18-2.49-4.32,3.24-4.41,5.67c-0.3,8.17-0.28,16.36-0.06,24.53
		c0.09,3.34-0.95,4.35-4.24,4.2c-5.65-0.25-11.33-0.24-16.98,0c-3.34,0.14-4.33-1.02-4.22-4.29c0.23-6.7,0.07-13.42,0.07-20.13
		C1586.9,611.28,1586.91,611.28,1586.92,611.28z"/>
	<path class="st0" d="M925.67,104.3c1.82,14.09,3.64,28.17,5.47,42.26c0.08,0.59,0.17,1.31,0.53,1.72
		c10.95,12.21,4.84,27.08,6.77,40.4c-1.7,1.43-2.82,0.38-3.82-0.12c-5.95-2.99-11.83-3.66-17.78-0.04
		c-2.86,1.74-3.91,1.02-3.83-2.45c0.2-8.16,0.07-16.34,0.06-24.51c0-1.91,0.2-3.69,1.33-5.36c5.42-7.95,6.27-16.95,6.77-26.31
		c0.47-8.73,2.55-17.37,3.92-26.06C925.28,104,925.48,104.15,925.67,104.3z"/>
	<path class="st1" d="M530.43,937.64c0,10.48-0.38,20.99,0.15,31.44c0.29,5.66-2.61,5.3-6.41,5.27c-3.56-0.02-6.24,0.4-6.16-4.94
		c0.33-21.38,0.44-42.78-0.02-64.15c-0.14-6.45,3.49-4.98,7.07-5.36c4.55-0.48,5.59,1.37,5.47,5.66
		C530.24,916.25,530.44,926.95,530.43,937.64z"/>
	<path class="st1" d="M1348.92,937.11c0-10.9,0.35-21.82-0.14-32.69c-0.26-5.86,3.3-4.41,6.37-4.52c3.13-0.11,5.98-0.76,5.91,4.45
		c-0.32,21.8-0.35,43.6-0.03,65.4c0.09,5.78-3.3,4.46-6.42,4.56c-3.16,0.1-6.04,0.73-5.82-4.5
		C1349.25,958.93,1348.93,948.02,1348.92,937.11z"/>
	<path class="st0" d="M872.41,169.86c2.28,3.13,4.81,5.76,6.32,8.88c1.9,3.94,3.92,6.22,9.15,2.79c0,6.05-0.09,11.15,0.04,16.24
		c0.07,2.48-1.5,3.1-3.32,3.8c-7.49,2.86-15.07,5.5-22.37,8.78c-3.46,1.56-4.42,1.27-4.25-2.52c0.16-3.55-0.01-7.11,0.04-10.67
		c0.01-1.03,0.01-2.79,0.48-2.97c8.11-2.99,6.75-11.73,10.44-17.39C870.22,174.85,871.02,172.25,872.41,169.86z"/>
	<path class="st0" d="M1095.08,216.68c2.18,5.47,4.06,10.15,5.91,14.84c1.42,3.61,2.38,7.34,6.77,8.96
		c2.43,0.9,3.15,14.5,1.24,16.28c-1.63,1.52-3.51,0.02-4.38-0.45c-7.76-4.28-16.32-6.49-24.47-9.72c-2.42-0.96-3.14-2.36-3.06-4.69
		c0.08-2.3-0.02-4.6,0.02-6.9c0.06-3.52-1.33-8.45,5.45-5.02c2.09,1.06,3.85-0.56,5.11-2.52
		C1089.81,224.15,1092.12,220.96,1095.08,216.68z"/>
	<path class="st0" d="M980.5,170.3c4.38,6.11,3.73,14.73,9.01,19.43c6.07,5.4,4.75,11.54,5.03,17.88c0.16,3.6-0.99,4.39-4.39,3.02
		c-6.34-2.56-12.82-4.77-19.24-7.15c-4.46-1.65-7.12-4.31-6.23-9.63c0.48-2.85,0.07-5.84,0.13-8.77c0.02-1.17,0.06-3.36,1.55-2.63
		c6.31,3.07,6.42-2.89,8.74-5.6C976.86,174.8,978.54,172.69,980.5,170.3z"/>
	<path class="st0" d="M817.36,193.8c2.46,3.37,4.78,6.55,7.1,9.73c0.49,0.68,0.92,1.4,1.47,2.04c1.48,1.72,5.25-1.14,5.55,2.35
		c0.38,4.58,0.08,9.21,0.07,13.82c0,1.22-0.69,1.57-1.81,2.01c-8.27,3.27-16.48,6.69-24.7,10.09c-2.68,1.11-3.79,0.42-3.62-2.61
		c0.19-3.34,0.01-6.7,0.05-10.06c0.01-1.04-0.09-2.82,0.36-3C812.86,213.77,809.92,200.75,817.36,193.8z"/>
	<path class="st0" d="M761.5,216.58c2.77,3.87,5.11,6.79,7.05,9.96c1.51,2.45,2.6,4.92,6.1,2.69c0.52-0.33,1.79-0.23,2.23,0.18
		c1.92,1.79-0.2,15.75-2.55,16.7c-8.18,3.31-16.44,6.43-24.6,9.8c-3.81,1.58-5.4,0.85-5.13-3.51c0.33-5.47-1.61-11.12,6.45-13.87
		c4.03-1.38,3.77-8.25,6.03-12.4C758.61,223.31,759.79,220.31,761.5,216.58z"/>
	<path class="st0" d="M1038.7,193.45c1.93,7.33,6.24,12.8,7.31,19.56c0.15,0.93,0.82,2.3,1.56,2.55c5.74,1.89,4.45,6.57,4.46,10.73
		c0.03,8.87-0.18,9.3-8.1,5.97c-6.22-2.62-12.51-4.96-18.81-7.32c-2.36-0.88-4.06-2.6-3.72-5.73c0.31-2.89-0.06-5.85,0.04-8.77
		c0.09-2.75-0.88-6.83,4.41-3.43c2.15,1.38,3.69-0.45,4.95-2.38C1033.15,201.01,1035.76,197.57,1038.7,193.45z"/>
	<path class="st0" d="M705.99,240.13c2.52,3.54,4.87,6.63,6.95,9.89c0.96,1.49,1.84,2.5,3.75,2.77c1.99,0.28,6.07-1.77,5.16,2.7
		c-0.87,4.29,3.75,10.1-3.48,12.83c-8.54,3.23-16.99,6.71-25.39,10.29c-4.11,1.75-5,0.33-5.07-3.66
		c-0.11-5.51-0.52-10.46,6.68-12.32c3.91-1.01,4.39-5.88,5.57-9.16C701.77,248.99,704.36,245.04,705.99,240.13z"/>
	<path class="st0" d="M1190.47,281.51c-0.57-3.82-0.67-8.09,6.5-4.92c1.78,0.79,3.59-0.22,4.75-2.11c1.41-2.3,3.06-4.45,4.6-6.66
		c0.64-0.92,0.4-2.74,2.24-2.43c1.43,0.24,1.72,1.46,2.15,2.72c1.58,4.61,3.25,9.21,5.11,13.71c0.61,1.48,1.7,3.47,2.98,3.85
		c8.27,2.46,5.24,9.14,5.58,14.46c0.1,1.6-0.38,3.01-3.13,1.83c-8.06-3.46-16.39-6.28-24.56-9.51
		C1190.39,289.94,1190.44,289.84,1190.47,281.51z"/>
	<path class="st0" d="M650.93,264.04c2.43,3.4,4.68,6.61,7,9.77c0.73,0.99,1.48,2.08,2.48,2.72c1.8,1.15,5.92-1.45,5.72,1.37
		c-0.27,3.83-0.57,7.75-1.07,11.61c-0.08,0.62-1.51,1.18-2.41,1.55c-7.97,3.24-15.96,6.4-23.93,9.65c-2.47,1.01-6.17,2.73-7.01,0.03
		c-1.06-3.4-2.17-10.2,0.55-10.97c13.02-3.69,12.21-16.37,17.77-24.78C650.17,264.82,650.33,264.68,650.93,264.04z"/>
	<path class="st0" d="M610.6,304.61c1.99,6.07-0.86,8.09-5,9.65c-9.03,3.4-18.03,6.89-26.89,10.72c-3.22,1.39-3.91,0.84-4.16-2.47
		c-0.43-5.7-0.31-10.74,6.89-12.01c5.17-0.91,6.7-5.35,7.76-9.41c1.01-3.83,3.15-7.11,4.23-10.79c1.17-4,2.43-2.42,3.91-0.44
		c1.61,2.16,3.33,4.29,4.6,6.64c1.45,2.68,2.57,3.83,6.29,3.11C613.78,298.52,609.78,303.75,610.6,304.61z"/>
	<path class="st0" d="M1167.35,279.79c-11.42-3.6-21.24-7.28-30.76-11.7c-1.93-0.9-3.17-13.78-1.6-15.26
		c0.37-0.34,1.27-0.63,1.61-0.42c6.85,4.22,8.39-2.12,11.29-5.65c1.31-1.6,2.46-3.32,3.87-5.25c4.02,5.79,4.87,12.61,8.27,18.26
		c0.51,0.84,0.53,2.52,1.11,2.7C1171.25,265.48,1164.46,273.45,1167.35,279.79z"/>
	<path class="st0" d="M1266.45,288.91c4.81,5.25,5.35,11.79,8.09,17.29c1.19,2.38,1.5,4.45,4.68,4.65c2.42,0.16,3.38,1.8,3.32,4.35
		c-0.27,10.47,1.52,11.32-9.55,6.75c-7.42-3.07-15-5.76-22.5-8.62c-2.77-1.06-4.95-8.46-3.25-12.37c1.43-3.3,4.05-1.4,6.28-0.79
		c2.85,0.78,5.24,0.73,6.55-2.71c0.55-1.46,2.09-2.53,3.09-3.84C1264.16,292.32,1265.05,290.92,1266.45,288.91z"/>
	<path class="st0" d="M1303.88,328.53c-1.11-5.86,0.74-8.12,6.26-5.07c3.3,1.82,4.92,0.45,6.47-2.25c1.02-1.79,2.5-3.33,3.4-5.17
		c0.7-1.43,1.55-2.77,3.03-2.74c1.66,0.03,1.83,1.75,2.35,3.13c1.52,3.99,3.5,7.8,4.99,11.8c1.09,2.92,2.61,5.05,5.72,5.99
		c1.82,0.55,2.95,1.55,3.11,3.98c0.6,9.08,0.42,9.44-8.02,6.55c-8.31-2.84-16.5-6.01-24.78-8.95
		C1302.33,334.38,1304.4,330.95,1303.88,328.53z"/>
	<path class="st0" d="M1397.06,371.07c-11.04-4.34-21.46-8.44-31.88-12.52c-3.96-1.55-6.62-8.43-4.5-11.73
		c0.91-1.42,2.15-0.98,3.25-0.43c5.65,2.83,9.36,1.36,11.91-4.52c0.8-1.84,2.35-4.76,4.66-4.54c2.42,0.23,1.89,3.64,3.02,5.29
		c2.32,3.36,2.94,7.3,4.54,10.88c0.6,1.35,0.75,3.22,2.26,3.44C1399.8,358.34,1396.49,365.25,1397.06,371.07z"/>
	<path class="st0" d="M540.13,311.32c2.17,2.94,4.31,5.75,6.33,8.64c1.59,2.27,2.79,4.7,6.32,2.36c1.71-1.14,2.96-0.15,3.04,2.22
		c0.19,5.6,0.63,10.71-6.86,12.64c-6.68,1.73-12.99,4.92-19.47,7.44c-2.01,0.78-5.16,2.81-5.92,0.5c-1.06-3.18-2.54-9.07,0.77-10.21
		c10.46-3.61,9.41-13.82,13.67-20.88C538.51,313.21,538.35,311.99,540.13,311.32z"/>
	<path class="st0" d="M484.26,334.61c5.15,4.3,5.67,14.32,15.57,10.51c0.18,0.47,0.43,0.85,0.44,1.23c0.35,9.9,0.31,9.81-9.75,13.84
		c-7.77,3.11-15.44,6.48-24.11,10.14c0.21-5.97-2.49-11.34,5.95-14.04c6.43-2.06,5.61-10.34,8.87-15.4
		C482.39,339.08,482.7,336.64,484.26,334.61z"/>
	<path class="st0" d="M1451.75,392.18c-10.2-2.33-19.27-7.64-29.1-10.98c-3.19-1.08-5.78-2.2-5.74-6.71
		c0.04-5.41,0.94-7.7,6.33-4.19c2.73,1.77,4.52,0.85,6.11-1.78c1.99-3.3,3.98-6.65,7.25-9.57c2.47,6.34,4.83,12.29,7.1,18.27
		c0.48,1.27,1.23,1.99,2.46,2.55C1453.3,383.03,1453.32,383.13,1451.75,392.18z"/>
	<path class="st0" d="M410.18,392.35c-1.87-6.57-0.45-10.67,6.5-12.8c5.24-1.6,5.37-7.78,7.82-11.87c1.75-2.92,2.74-6.29,4.35-10.12
		c2.23,3.08,4.07,5.35,5.59,7.81c1.82,2.93,3.32,5.94,7.64,3.48c0.93-0.53,2.86-0.54,2.7,1.32c-0.29,3.3,2.12,7.92-2.14,9.57
		C431.82,383.9,421.46,389.31,410.18,392.35z"/>
	<path class="st0" d="M372.9,382.21c6.44,2.2,5.17,14.94,16.07,9.28c1.63,6.34,0.99,10.61-6.26,12.68
		c-6.97,1.99-13.5,5.5-20.34,8.04c-1.65,0.61-4.61,1.99-5.36-0.75c-0.63-2.31-1.71-6.52,1.5-7.25c9.49-2.15,8.56-11.09,11.99-17.11
		C371.46,385.4,371.92,383.37,372.9,382.21z"/>
	<path class="st0" d="M1506.43,414.34c-8.53-3.94-16.4-6.86-24.37-9.56c-8.86-3-8.8-3.26-7.92-13.17c0.37-0.11,0.91-0.43,1.1-0.28
		c6.11,4.51,9.55,1.1,12.58-4.05c1-1.7,2.43-4.45,3.62-4.43c2.26,0.04,2.08,2.89,2.74,4.82c1.39,4.03,3.34,7.87,5.1,11.77
		c0.42,0.92,0.89,2.43,1.54,2.55C1508.26,403.37,1506.5,408.84,1506.43,414.34z"/>
	<path class="st0" d="M1562.82,436.2c-10.99-4.35-21.03-8.46-31.17-12.27c-4.25-1.6-2.5-5.06-2.1-7.3c0.51-2.86,3.16-1.63,4.93-0.57
		c3.47,2.08,5.71,0.6,7.53-2.38c0.98-1.6,1.88-3.25,2.99-4.75c2.02-2.72,3.98-3.79,5.42,0.54c0.78,2.34,1.72,4.63,2.67,6.91
		c1.77,4.22,2.49,8.8,8.2,10.57C1564.83,428.04,1563.11,432.29,1562.82,436.2z"/>
	<path class="st0" d="M333.63,415.02c1.53,6.17,0.15,9.41-5.86,11.18c-7.21,2.13-14.05,5.53-21.03,8.46
		c-1.8,0.75-4.31,1.52-4.95-0.21c-0.72-1.94-1.86-5.67,0.95-6.58c11.2-3.63,9.39-15.17,14.97-22.53
		C323.69,406.82,322.7,420.67,333.63,415.02z"/>
	<path class="st0" d="M1603.03,427.5c2.11,5.22,4.07,9.44,5.52,13.83c1.2,3.63,2.5,6.54,6.71,7.77c3.95,1.15,3.98,4.63,2.99,8.27
		c-7.39-0.66-13.79-4.4-20.34-7.3c-2.99-1.32-6.2-1.84-9.16-3.4c-3.68-1.94-3.26-4.82-2.63-7.36c0.86-3.47,3.26-0.87,4.96-0.39
		c2.75,0.77,4.32-0.72,5.72-2.68C1598.72,433.56,1600.62,430.88,1603.03,427.5z"/>
	<path class="st1" d="M1354.42,880.91c-5.44,1.42-6.98-0.82-6.67-6.02c0.24-4.05-0.17-7.43,5.7-6.49c4.05,0.65,8.87-1.84,8.63,6.19
		C1361.88,881.14,1359.39,881.89,1354.42,880.91z"/>
	<path class="st1" d="M523.3,880.89c-5.93,1.87-6.48-1.33-6.83-6.73c-0.5-7.87,4.66-5.08,8.39-5.74c6.32-1.12,5.38,2.91,5.84,6.94
		C531.43,881.64,527.91,881.52,523.3,880.89z"/>
	<path class="st0" d="M859.51,883.93c-0.2-1.25,0.66-2.44,1.5-2.21c1,0.27,1.07,1.6,0.1,2.49
		C860.57,884.11,860.04,884.02,859.51,883.93z"/>
</g>
</svg>
