<?xml version="1.0" encoding="utf-8"?>
<!-- Generator: Adobe Illustrator 27.2.0, SVG Export Plug-In . SVG Version: 6.00 Build 0)  -->
<svg version="1.1" id="Capa_1" xmlns="http://www.w3.org/2000/svg" xmlns:xlink="http://www.w3.org/1999/xlink" x="0px" y="0px"
	 viewBox="0 0 1920 1080" style="enable-background:new 0 0 1920 1080;" xml:space="preserve">
<g>
	<path d="M1395.74,578.74c-7.63,0-15.26,0-23.19,0c0-55.37,0-110.56,0-166.12c0.94-0.12,1.99-0.35,3.04-0.36
		c5.44-0.04,10.89,0.1,16.33-0.07c2.5-0.08,4.05,0.71,5.44,2.86c6.1,9.51,12.38,18.9,18.59,28.33
		c10.98,16.65,21.96,33.3,32.95,49.95c0.68,1.03,1.45,2,2.43,3.33c1.98-2.93,3.8-5.54,5.55-8.2c16.13-24.44,32.29-48.87,48.32-73.38
		c1.42-2.17,2.91-2.95,5.4-2.88c5.3,0.15,10.61,0.03,15.91,0.06c1.08,0,2.17,0.14,3.48,0.23c0,55.4,0,110.58,0,166.18
		c-7.96,0.53-15.83,0.21-24.17,0.22c0-40.74,0-81.13,0-121.53c-0.31-0.11-0.61-0.21-0.92-0.32c-3.98,5.02-7.16,10.62-10.76,15.92
		c-3.6,5.31-7.08,10.7-10.61,16.06c-3.6,5.48-7.18,10.97-10.77,16.45c-3.52,5.36-7.04,10.73-10.57,16.08
		c-3.58,5.43-7.18,10.84-11.17,16.86c-18.15-27.51-35.93-54.44-53.64-81.28c-0.52,0.17-0.67,0.18-0.77,0.27
		c-0.09,0.08-0.15,0.23-0.17,0.35c-0.06,0.41-0.13,0.83-0.13,1.24c-0.04,39.62-0.08,79.25-0.13,118.87
		C1396.18,577.98,1396.07,578.1,1395.74,578.74z"/>
	<path d="M465.6,516.72c0,20.81,0,41.12,0,62.02c-8.22,0.05-16.07,0.08-24.17-0.03c0-55.58,0-110.77,0-166.26
		c1.08-0.11,2.15-0.3,3.22-0.3c23.31-0.01,46.61-0.07,69.92,0.06c10.13,0.05,19.97,1.93,29.29,6.08
		c19.56,8.7,30.25,25.94,29.21,47.33c-0.98,20.24-11.27,34.21-29.37,42.7c-3.38,1.58-6.99,2.68-11.11,4.24
		c16.1,22.01,32.4,43.61,48.84,65.96c-1.71,0.12-2.75,0.25-3.79,0.26c-7.68,0.02-15.35-0.13-23.03,0.08
		c-2.98,0.08-4.79-0.9-6.52-3.32c-13.3-18.61-26.79-37.09-40.08-55.7c-1.65-2.31-3.35-3.21-6.16-3.17
		c-10.6,0.16-21.21,0.06-31.82,0.06C468.77,516.72,467.53,516.72,465.6,516.72z M465.73,493.38c1.11,0.12,1.79,0.26,2.47,0.26
		c14.93,0.01,29.87,0.09,44.8-0.03c7.35-0.06,14.37-1.72,20.88-5.29c18.64-10.22,18.2-37.03,2.73-46.53
		c-7.03-4.31-14.72-6.02-22.73-6.15c-14.93-0.23-29.87-0.08-44.8-0.06c-1.07,0-2.14,0.21-3.34,0.34
		C465.73,455.12,465.73,474.05,465.73,493.38z"/>
	<path d="M224.48,458.97c6.99-17.6,17.7-32.26,34.37-41.75c16.47-9.38,34.1-11.29,52.16-5.81c26.18,7.96,44.42,24.63,52.6,51.1
		c5.39,17.44,4.61,35.13-1.16,52.3c-11.91,35.44-36.25,57.78-72.98,65.2c-37.57,7.59-75.91-9.54-96.58-41.84
		c-24.51-38.31-19.31-88.04,12.61-120.58c13.26-13.51,32.45-23.52,50.93-26.2c-1.83,0.98-2.83,1.59-3.88,2.08
		c-27.52,12.94-43.77,34.76-49.86,64.19c-3.74,18.1-3.04,36.18,4.03,53.48c10.53,25.77,29.72,41.09,57.38,44.78
		c36.39,4.85,71.12-21.63,76.88-58.02c3.11-19.65-0.94-37.42-13.95-52.81c-17.2-20.36-47.29-26.61-71.26-14.92
		c-11.44,5.58-20.54,13.8-27.97,24.01C226.66,455.77,225.59,457.38,224.48,458.97z"/>
	<path d="M1621.14,578.51c0-55.46,0-110.65,0-166.05c40.12,0,79.98,0,120.46,0c0.01,3.79,0.03,7.49,0.03,11.2
		c0.01,3.75,0,7.5,0,11.77c-32.15,0-64.02,0-96.14,0c0,16.09,0,31.65,0,47.81c4.63,0.24,9.32,0.08,14,0.11
		c4.75,0.03,9.49,0.01,14.24,0.01c4.89,0,9.77,0,14.66,0c4.75,0,9.49,0,14.24,0s9.49,0,14.24,0c4.71,0,9.43,0,14.4,0
		c0,7.84,0,15.29,0,23.16c-28.58,0-56.99,0-85.71,0c0,16.52,0,32.62,0,49.34c10.74,0.09,21.44,0.03,32.14,0.04
		c10.75,0.01,21.5,0,32.25,0c10.71,0,21.42,0,32.41,0c0,7.79,0,15.1,0,22.39C1739.17,579.08,1626.68,579.31,1621.14,578.51z"/>
	<path d="M1308.81,578.74c-9.5,0-18.12,0-26.9,0c-3.68-8.55-7.32-16.99-10.95-25.43c-2.15-5-4.33-9.98-6.38-15.01
		c-0.74-1.81-1.81-2.5-3.78-2.5c-25.54,0.06-51.09,0.05-76.63,0.08c-0.4,0-0.81,0.15-1.6,0.3c-6.08,14-12.23,28.17-18.46,42.52
		c-8.48,0-16.91,0-25.99,0c25.03-56,49.85-111.56,74.73-167.23c7.12,0,14.04,0,21.22,0C1258.9,467.04,1283.73,522.61,1308.81,578.74
		z M1192.54,513.05c4.42,1.07,57.67,0.94,61.06-0.13c-9.99-23.27-19.97-46.52-30.38-70.77
		C1212.75,466.36,1202.66,489.67,1192.54,513.05z"/>
	<path d="M802.25,509.21c0,23.54,0,46.37,0,69.46c-8.14,0-15.88,0-23.61,0c-0.88-3.24-1.02-161.82-0.12-166.19
		c39.54,0,79.13,0,118.95,0c0.95,3.68,0.35,7.43,0.45,11.13c0.1,3.76,0.02,7.52,0.02,11.84c-4.55,0.39-8.97,0.15-13.36,0.19
		c-4.61,0.04-9.21,0.01-13.82,0.01c-4.47,0-8.93,0-13.4,0c-4.61,0-9.21,0-13.82,0c-4.47,0-8.93,0-13.4,0c-4.61,0-9.21,0-13.82,0
		c-4.44,0-8.88,0-13.2,0c-0.96,3.41-1.16,44.89-0.28,50.38c28.04,0,56.16,0,84.61,0c0,7.9,0,15.32,0,23.18
		C859.21,509.21,831.08,509.21,802.25,509.21z"/>
	<path d="M976.1,412.46c7.96,0,15.71,0,24,0c0,47.6,0,95.08,0,143.14c29.89,0,59.24,0,88.78,0c0,7.94,0,15.3,0,22.61
		c-3.11,0.87-106.85,1.15-112.78,0.3C976.1,523.27,976.1,467.98,976.1,412.46z"/>
	<path d="M682.91,578.78c-7.85,0-15.5,0-23.05,0c-0.2-0.2-0.3-0.29-0.4-0.4c-0.09-0.1-0.23-0.2-0.25-0.32
		c-0.09-0.55-0.2-1.1-0.2-1.65c-0.01-53.99,0-107.98,0.01-161.97c0-0.54,0.17-1.08,0.31-1.9c7.79,0,15.54,0,23.32,0
		C683.54,415.33,683.87,572.02,682.91,578.78z"/>
	<path d="M567.45,661.67c0.45,1.96,0.17,3.01-1.61,3.04c-0.98,0.02-1.95,0.03-2.93,0.03c-121.29,0-242.58,0-363.86,0
		c-1.5,0-3.01,0-4.67,0c-0.06-1.24-0.09-2.01-0.14-3.06C318.72,661.67,443.01,661.67,567.45,661.67z"/>
	<path d="M1395.77,661.63c115.53,0,230.91,0,346.43,0c0.48,1.68,0.59,2.93-1.51,3.07c-0.97,0.07-1.95,0.04-2.93,0.04
		c-112.51,0-225.03,0-337.54,0c-0.98,0-1.95,0-2.93-0.03C1395.52,664.65,1395.28,663.59,1395.77,661.63z"/>
	<path d="M808.13,688.01c-1.63,0-2.85,0-4.5,0c-4.22-12.55-8.46-25.16-12.69-37.76c-0.29-0.01-0.58-0.01-0.88-0.02
		c-4.23,12.56-8.46,25.12-12.64,37.51c-4.39,0.59-4.47,0.62-5.48-2.26c-5.04-14.33-10.04-28.67-15.04-43.01
		c-0.22-0.64-0.35-1.32-0.62-2.37c1.8,0,3.36,0,5.43,0c4.35,12.74,8.78,25.71,13.21,38.69c0.25,0,0.5,0,0.74,0
		c4.22-12.94,8.43-25.87,12.68-38.91c1.58,0,2.91,0,4.47,0c4.21,12.93,8.38,25.74,12.81,39.33c2.62-4.59,3.39-9.07,5-13.19
		c1.62-4.15,2.91-8.42,4.33-12.65c1.46-4.36,2.9-8.72,4.44-13.33c1.64,0,3.25,0,5.5,0C819.3,656.04,813.77,671.86,808.13,688.01z"/>
	<path d="M1303.69,687.14c-2.51,0.94-4.17,0.29-5.79-1.82c-8.39-10.97-16.92-21.83-25.41-32.72c-0.85-1.09-1.72-2.17-2.89-3.63
		c-1.29,3.45-0.57,6.61-0.7,9.68c-0.13,3.2-0.02,6.42-0.02,9.62c0,3.07,0,6.14,0,9.21c0,3.19,0,6.37,0,9.82
		c-1.66,0.11-2.99,0.2-4.28,0.28c-0.91-3.13-1.13-42.64-0.3-47.78c2.64-0.96,4.57-0.25,6.36,2.1c8.03,10.54,16.2,20.98,24.33,31.44
		c0.9,1.16,1.88,2.24,3.65,3.12c0-12.16,0-24.32,0-36.77c1.97,0,3.39,0,5.05,0C1303.69,655.7,1303.69,671.41,1303.69,687.14z"/>
	<path d="M1016.34,687.55c0-16.23,0-31.8,0-47.5c0.54-0.22,1.03-0.61,1.52-0.6c6.4,0.08,12.84-0.2,19.19,0.43
		c11.78,1.17,20.27,10.37,20.86,21.88c0.63,12.31-6.58,22.31-18.33,24.93c-3.35,0.75-6.9,0.72-10.36,0.83
		C1025.06,687.65,1020.9,687.55,1016.34,687.55z M1021.85,682.51c4.82,0,9.43,0.38,13.96-0.08c9.26-0.95,15.71-7.65,16.58-16.62
		c0.94-9.73-4.01-17.75-12.93-20.46c-5.69-1.73-11.54-1.11-17.61-0.9C1021.85,657.18,1021.85,669.56,1021.85,682.51z"/>
	<path d="M902.92,665.57c0,5.93,0,11.19,0,16.98c9.54,0,19.08,0,28.91,0c0.09,1.83,0.16,3.15,0.24,4.74c-11.55,0-22.8,0-34.07,0
		c-0.83-2.91-1-42.89-0.14-47.63c11.04,0,22.13,0,33.38,0c0.15,0.76,0.35,1.42,0.37,2.08c0.02,0.66-0.14,1.33-0.27,2.37
		c-9.43,0-18.73,0-28.33,0c0,5.63,0,10.87,0,16.61c8.32,0,16.75,0,25.43,0c0,1.81,0,3.13,0,4.84
		C920.07,665.57,911.76,665.57,902.92,665.57z"/>
	<path d="M1146.26,644.22c0,5.72,0,10.94,0,16.55c8.54,0,16.86,0,25.52,0c0.12,1.66,0.22,2.97,0.35,4.82c-8.72,0-17.14,0-25.83,0
		c0,5.87,0,11.22,0,16.98c9.61,0,19.03,0,28.8,0c0.14,1.68,0.25,2.99,0.36,4.25c-3.2,0.89-26.29,1.17-33.89,0.48
		c-0.81-2.94-1.02-42.54-0.21-47.67c11.05,0,22.14,0,33.48,0c0.12,1.37,0.22,2.58,0.37,4.36
		C1165.6,644.34,1156.18,643.98,1146.26,644.22z"/>
	<path d="M652.86,680.97c1.42-1.57,2.33-2.58,3.33-3.69c1.78,1.21,3.36,2.34,4.99,3.38c4.31,2.73,9.07,3.55,14.05,2.8
		c1.6-0.24,3.24-0.9,4.63-1.75c4.16-2.56,5.15-9.63-0.16-12.5c-2.29-1.24-4.9-1.9-7.41-2.73c-3.3-1.08-6.72-1.86-9.94-3.14
		c-4.7-1.86-7.28-5.4-7.39-10.61c-0.12-5.28,2.23-9.07,6.75-11.62c6.91-3.91,19.38-2.21,25.08,3.89c-0.38,0.62-0.76,1.34-1.23,1.99
		c-0.4,0.56-0.9,1.04-1.47,1.69c-1.23-0.75-2.37-1.47-3.53-2.16c-3.73-2.22-7.77-3.11-12.05-2.54c-1.61,0.22-3.3,0.74-4.68,1.58
		c-5.08,3.12-5.01,9.74,0.23,12.56c2.41,1.3,5.2,1.9,7.84,2.77c3.17,1.04,6.46,1.79,9.51,3.11c4.6,2,7.14,5.58,7.14,10.81
		c0,5.27-2.26,9.24-6.93,11.5c-7.46,3.62-14.93,2.64-22.13-0.9C657.28,684.33,655.36,682.67,652.86,680.97z"/>
</g>
</svg>
