<svg xmlns="http://www.w3.org/2000/svg" xmlns:xlink="http://www.w3.org/1999/xlink" width="40" zoomAndPan="magnify" viewBox="0 0 30 30.000001" height="40" preserveAspectRatio="xMidYMid meet" version="1.0"><defs><clipPath id="1d025ac92e"><path d="M 0.484375 0 L 29.515625 0 L 29.515625 29.03125 L 0.484375 29.03125 Z M 0.484375 0 " clip-rule="nonzero"/></clipPath></defs><g clip-path="url(#1d025ac92e)"><path fill="#ffffff" d="M 11.5 29.03125 L 11.5 28.03125 L 12.503906 28.03125 L 12.503906 29.03125 Z M 17.496094 26.027344 L 17.496094 27.027344 C 18.382812 27.027344 19.601562 27.027344 20.5 27.027344 L 20.5 28.03125 C 20.007812 28.03125 18.992188 28.03125 18.5 28.03125 L 18.5 29.03125 C 19.382812 29.03125 20.601562 29.03125 21.503906 29.03125 C 21.503906 28.148438 21.503906 26.925781 21.503906 26.027344 C 20.617188 26.027344 19.398438 26.027344 18.5 26.027344 L 18.5 25.027344 C 18.003906 25.027344 16.988281 25.027344 16.496094 25.027344 L 16.496094 26.027344 Z M 15.492188 25.027344 L 14.492188 25.027344 L 14.492188 24.023438 L 13.492188 24.023438 C 13.492188 24.519531 13.492188 25.535156 13.492188 26.027344 L 14.492188 26.027344 L 14.492188 27.027344 L 13.492188 27.027344 C 13.492188 27.523438 13.492188 28.539062 13.492188 29.03125 C 14.738281 29.03125 16.234375 29.03125 17.496094 29.03125 L 17.496094 28.03125 L 16.496094 28.03125 C 16.496094 27.535156 16.496094 26.519531 16.496094 26.027344 L 15.492188 26.027344 Z M 11.5 24.023438 C 11.007812 24.023438 9.992188 24.023438 9.5 24.023438 C 9.5 23.53125 9.5 22.515625 9.5 22.019531 L 8.496094 22.019531 C 8.496094 23.632812 8.496094 25.417969 8.496094 27.027344 L 9.5 27.027344 L 9.5 26.027344 L 10.5 26.027344 L 10.5 27.027344 L 9.5 27.027344 L 9.5 28.03125 C 9.992188 28.03125 11.007812 28.03125 11.5 28.03125 C 11.5 27.535156 11.5 26.519531 11.5 26.027344 L 12.503906 26.027344 L 12.503906 25.027344 L 11.5 25.027344 Z M 21.503906 23.023438 L 21.503906 22.019531 L 20.5 22.019531 L 20.5 23.023438 Z M 19.5 22.019531 L 18.5 22.019531 L 18.5 23.023438 L 17.496094 23.023438 L 17.496094 24.023438 C 17.992188 24.023438 19.007812 24.023438 19.5 24.023438 L 19.5 25.027344 C 19.992188 25.027344 21.007812 25.027344 21.503906 25.027344 L 21.503906 24.023438 L 20.5 24.023438 L 20.5 23.023438 L 19.5 23.023438 Z M 13.503906 22.019531 L 12.503906 22.019531 L 12.503906 23.023438 L 13.503906 23.023438 Z M 11.5 23.023438 L 11.5 22.019531 L 10.5 22.019531 L 10.5 23.023438 Z M 19.5 22.019531 L 20.5 22.019531 L 20.5 21.019531 L 19.5 21.019531 Z M 17.496094 21.019531 L 16.496094 21.019531 C 16.496094 21.511719 16.496094 22.527344 16.496094 23.023438 L 17.496094 23.023438 C 17.496094 22.527344 17.496094 21.527344 17.496094 21.019531 Z M 10.5 21.019531 L 9.5 21.019531 L 9.5 22.019531 L 10.5 22.019531 Z M 8.496094 20.019531 L 7.496094 20.019531 L 7.496094 21.019531 L 8.496094 21.019531 Z M 1.484375 21.019531 C 1.980469 21.019531 2.996094 21.019531 3.488281 21.019531 C 3.488281 20.132812 3.488281 18.914062 3.488281 18.015625 L 2.488281 18.015625 L 2.488281 19.015625 L 1.484375 19.015625 L 1.484375 20.019531 L 0.484375 20.019531 L 0.484375 21.019531 Z M 17.496094 19.015625 L 17.496094 20.019531 L 18.5 20.019531 L 18.5 21.019531 L 19.5 21.019531 C 19.5 20.132812 19.5 18.914062 19.5 18.015625 L 18.5 18.015625 L 18.5 19.015625 Z M 12.503906 19.015625 C 12.503906 18.523438 12.503906 17.507812 12.503906 17.011719 L 11.5 17.011719 L 11.5 18.015625 L 10.5 18.015625 L 10.5 19.015625 L 9.5 19.015625 L 9.5 20.019531 C 9.992188 20.019531 11.007812 20.019531 11.5 20.019531 L 11.5 19.015625 Z M 5.492188 19.015625 L 4.492188 19.015625 C 4.492188 19.507812 4.492188 20.527344 4.492188 21.019531 L 5.492188 21.019531 L 5.492188 20.019531 L 6.492188 20.019531 C 6.492188 19.523438 6.492188 18.507812 6.492188 18.015625 L 5.492188 18.015625 Z M 9.5 17.011719 L 9.5 16.011719 L 8.496094 16.011719 L 8.496094 17.011719 L 7.496094 17.011719 C 7.496094 17.507812 7.496094 18.523438 7.496094 19.015625 L 8.496094 19.015625 L 8.496094 18.015625 C 8.992188 18.015625 10.007812 18.015625 10.5 18.015625 L 10.5 17.011719 Z M 4.492188 17.011719 L 3.488281 17.011719 L 3.488281 18.015625 L 4.492188 18.015625 Z M 1.484375 17.011719 L 1.484375 16.011719 C 2.734375 16.011719 4.230469 16.011719 5.492188 16.011719 L 5.492188 15.007812 C 5 15.007812 3.980469 15.007812 3.488281 15.007812 C 3.488281 14.515625 3.488281 13.5 3.488281 13.007812 L 2.488281 13.007812 C 2.488281 13.5 2.488281 14.515625 2.488281 15.007812 L 1.484375 15.007812 C 1.484375 14.515625 1.484375 13.5 1.484375 13.007812 L 0.484375 13.007812 C 0.484375 14.617188 0.484375 16.402344 0.484375 18.015625 L 1.484375 18.015625 Z M 12.503906 16.011719 L 12.503906 17.011719 L 13.503906 17.011719 L 13.503906 16.011719 Z M 28.515625 16.011719 C 28.515625 16.503906 28.515625 17.519531 28.515625 18.015625 L 27.511719 18.015625 C 27.511719 18.507812 27.511719 19.523438 27.511719 20.019531 L 28.515625 20.019531 L 28.515625 21.019531 L 29.515625 21.019531 C 29.515625 16.707031 29.515625 12.324219 29.515625 8 C 29.023438 8 28.007812 8 27.511719 8 C 27.511719 9.246094 27.511719 10.742188 27.511719 12.003906 L 28.515625 12.003906 C 28.515625 12.890625 28.515625 14.109375 28.515625 15.007812 L 27.511719 15.007812 L 27.511719 16.011719 Z M 27.511719 14.023438 L 26.511719 14.023438 L 26.511719 15.023438 L 27.511719 15.023438 Z M 25.507812 13.019531 L 26.511719 13.019531 C 26.511719 12.527344 26.511719 11.511719 26.511719 11.019531 L 25.507812 11.019531 C 25.507812 11.511719 25.507812 12.511719 25.507812 13.019531 Z M 24.507812 13.019531 L 25.507812 13.019531 L 25.507812 14.023438 L 24.507812 14.023438 C 24.507812 14.515625 24.507812 15.53125 24.507812 16.027344 L 25.507812 16.027344 L 25.507812 15.023438 L 26.511719 15.023438 L 26.511719 16.027344 L 27.511719 16.027344 L 27.511719 17.027344 L 26.511719 17.027344 L 26.511719 18.027344 L 25.507812 18.027344 L 25.507812 19.015625 L 26.511719 19.015625 C 26.511719 19.507812 26.511719 20.527344 26.511719 21.019531 C 24.566406 21.019531 22.460938 21.019531 20.5 21.019531 C 20.5 20.132812 20.5 18.914062 20.5 18.015625 C 21.75 18.015625 23.246094 18.015625 24.507812 18.015625 L 24.507812 17.011719 C 24.015625 17.011719 23 17.011719 22.503906 17.011719 L 22.503906 16.011719 L 23.507812 16.011719 L 23.507812 15.007812 L 22.503906 15.007812 L 22.503906 16.011719 C 22.011719 16.011719 20.996094 16.011719 20.5 16.011719 L 20.5 15.007812 L 19.5 15.007812 C 19.5 14.515625 19.5 13.5 19.5 13.007812 L 20.5 13.007812 L 20.5 12.003906 C 21.75 12.003906 23.246094 12.003906 24.507812 12.003906 Z M 23.507812 20.019531 L 23.507812 19.015625 L 22.503906 19.015625 L 22.503906 20.019531 Z M 23.507812 13.019531 C 23.011719 13.019531 21.996094 13.019531 21.503906 13.019531 L 21.503906 14.023438 C 21.996094 14.023438 23.011719 14.023438 23.507812 14.023438 Z M 4.492188 12.019531 L 3.488281 12.019531 L 3.488281 13.019531 L 4.492188 13.019531 Z M 19.5 11.019531 L 19.5 12.019531 L 20.5 12.019531 L 20.5 11.019531 Z M 5.492188 11.019531 L 4.492188 11.019531 L 4.492188 12.019531 L 5.492188 12.019531 Z M 2.488281 11.019531 L 1.484375 11.019531 L 1.484375 12.019531 C 1.980469 12.019531 2.996094 12.019531 3.488281 12.019531 L 3.488281 11.019531 Z M 11.5 11.019531 L 11.5 12.019531 L 12.503906 12.019531 C 12.503906 11.527344 12.503906 10.507812 12.503906 10.015625 L 11.5 10.015625 Z M 4.492188 11.019531 L 3.488281 11.019531 L 3.488281 10.015625 L 2.488281 10.015625 L 2.488281 9.015625 L 1.484375 9.015625 L 1.484375 8.011719 C 1.980469 8.011719 2.996094 8.011719 3.488281 8.011719 C 3.488281 7.519531 3.488281 6.503906 3.488281 6.007812 L 4.492188 6.007812 L 4.492188 5.007812 L 3.488281 5.007812 L 3.488281 4.007812 C 3.980469 4.007812 5 4.007812 5.492188 4.007812 L 5.492188 3.003906 L 4.492188 3.003906 L 4.492188 2.003906 L 5.492188 2.003906 L 5.492188 1 L 6.492188 1 L 6.492188 0 C 7.742188 0 9.238281 0 10.5 0 L 10.5 1 C 10.007812 1 8.992188 1 8.496094 1 L 8.496094 2.003906 C 8.003906 2.003906 6.988281 2.003906 6.492188 2.003906 C 6.492188 2.496094 6.492188 3.511719 6.492188 4.007812 L 7.496094 4.007812 L 7.496094 3.003906 C 7.988281 3.003906 9.003906 3.003906 9.5 3.003906 L 9.5 4.007812 L 10.5 4.007812 L 10.5 5.007812 L 9.5 5.007812 L 9.5 6.007812 L 10.5 6.007812 L 10.5 5.007812 C 10.992188 5.007812 12.007812 5.007812 12.503906 5.007812 C 12.503906 4.515625 12.503906 3.5 12.503906 3.003906 L 13.503906 3.003906 L 13.503906 2.003906 L 12.503906 2.003906 L 12.503906 1 L 13.503906 1 L 13.503906 0 C 14 0 15.015625 0 15.507812 0 L 15.507812 1 L 16.507812 1 L 16.507812 2.003906 L 15.507812 2.003906 L 15.507812 3.003906 L 16.507812 3.003906 L 16.507812 4.007812 L 17.511719 4.007812 L 17.511719 5.007812 L 18.511719 5.007812 L 18.511719 6.007812 C 18.019531 6.007812 17.003906 6.007812 16.507812 6.007812 C 16.507812 7.621094 16.507812 9.40625 16.507812 11.019531 C 16.015625 11.019531 15 11.019531 14.507812 11.019531 C 14.507812 11.511719 14.507812 12.527344 14.507812 13.019531 C 15 13.019531 16.015625 13.019531 16.507812 13.019531 C 16.507812 12.527344 16.507812 11.511719 16.507812 11.019531 C 17.003906 11.019531 18.019531 11.019531 18.511719 11.019531 L 18.511719 12.019531 L 17.511719 12.019531 L 17.511719 13.019531 L 18.511719 13.019531 L 18.511719 14.023438 L 17.511719 14.023438 C 17.511719 14.515625 17.511719 15.53125 17.511719 16.027344 C 18.398438 16.027344 19.617188 16.027344 20.515625 16.027344 C 20.515625 16.519531 20.515625 17.535156 20.515625 18.027344 L 19.5 18.027344 L 19.5 17.027344 L 18.5 17.027344 L 18.5 18.027344 L 17.496094 18.027344 L 17.496094 17.027344 C 17.003906 17.027344 15.988281 17.027344 15.492188 17.027344 C 15.492188 17.914062 15.492188 19.132812 15.492188 20.03125 L 16.496094 20.03125 L 16.496094 21.035156 L 15.492188 21.035156 C 15.492188 21.527344 15.492188 22.542969 15.492188 23.035156 L 16.496094 23.035156 C 16.496094 23.53125 16.496094 24.546875 16.496094 25.039062 L 15.492188 25.039062 L 15.492188 24.039062 L 14.492188 24.039062 C 14.492188 23.152344 14.492188 21.933594 14.492188 21.035156 C 13.605469 21.035156 12.386719 21.035156 11.488281 21.035156 L 11.488281 20.03125 C 12.371094 20.03125 13.59375 20.03125 14.492188 20.03125 C 14.492188 19.539062 14.492188 18.523438 14.492188 18.027344 L 13.492188 18.027344 L 13.492188 17.027344 L 14.492188 17.027344 L 14.492188 16.027344 C 14.984375 16.027344 16 16.027344 16.496094 16.027344 C 16.496094 15.53125 16.496094 14.515625 16.496094 14.023438 L 15.492188 14.023438 L 15.492188 15.023438 C 12.867188 15.023438 10.109375 15.023438 7.480469 15.023438 C 7.480469 15.519531 7.480469 16.535156 7.480469 17.027344 C 6.988281 17.027344 5.972656 17.027344 5.476562 17.027344 L 5.476562 16.027344 L 6.480469 16.027344 L 6.480469 15.023438 L 5.476562 15.023438 L 5.476562 14.023438 L 4.476562 14.023438 L 4.476562 13.019531 C 5.722656 13.019531 7.21875 13.019531 8.480469 13.019531 C 8.480469 12.136719 8.480469 10.917969 8.480469 10.015625 C 8.976562 10.015625 9.992188 10.015625 10.484375 10.015625 C 10.484375 10.507812 10.484375 11.527344 10.484375 12.019531 L 9.484375 12.019531 L 9.484375 13.019531 C 9.976562 13.019531 10.992188 13.019531 11.488281 13.019531 L 11.488281 14.023438 L 12.488281 14.023438 C 12.488281 13.527344 12.488281 12.511719 12.488281 12.019531 L 13.492188 12.019531 C 13.492188 11.527344 13.492188 10.507812 13.492188 10.015625 C 13.984375 10.015625 15 10.015625 15.492188 10.015625 C 15.492188 8.070312 15.492188 5.964844 15.492188 4.007812 C 15 4.007812 13.984375 4.007812 13.492188 4.007812 L 13.492188 5.007812 L 14.492188 5.007812 C 14.492188 6.257812 14.492188 7.75 14.492188 9.015625 L 13.492188 9.015625 L 13.492188 10.015625 L 12.488281 10.015625 L 12.488281 9.015625 L 11.488281 9.015625 L 11.488281 8.011719 C 11.980469 8.011719 12.996094 8.011719 13.492188 8.011719 L 13.492188 7.011719 C 12.242188 7.011719 10.746094 7.011719 9.484375 7.011719 C 9.484375 7.503906 9.484375 8.519531 9.484375 9.015625 C 8.992188 9.015625 7.972656 9.015625 7.480469 9.015625 L 7.480469 10.015625 C 6.59375 10.015625 5.375 10.015625 4.476562 10.015625 L 4.476562 11.019531 Z M 5.492188 8.011719 C 6.378906 8.011719 7.597656 8.011719 8.496094 8.011719 C 8.496094 7.128906 8.496094 5.90625 8.496094 5.007812 C 7.609375 5.007812 6.390625 5.007812 5.492188 5.007812 C 5.492188 5.894531 5.492188 7.113281 5.492188 8.011719 Z M 0.484375 10.015625 L 0.484375 11.019531 L 1.484375 11.019531 L 1.484375 10.015625 Z M 21.503906 10.015625 L 20.5 10.015625 L 20.5 11.019531 C 22.113281 11.019531 23.898438 11.019531 25.507812 11.019531 L 25.507812 10.015625 L 24.507812 10.015625 L 24.507812 9.015625 L 23.507812 9.015625 L 23.507812 10.015625 L 22.503906 10.015625 L 22.503906 9.015625 L 23.507812 9.015625 L 23.507812 8.011719 C 23.011719 8.011719 21.996094 8.011719 21.503906 8.011719 C 21.503906 8.507812 21.503906 9.507812 21.503906 10.015625 Z M 17.496094 9.015625 L 17.496094 10.015625 C 17.992188 10.015625 19.007812 10.015625 19.5 10.015625 L 19.5 9.015625 C 19.007812 9.015625 18.003906 9.015625 17.496094 9.015625 Z M 10.5 10.015625 L 11.5 10.015625 L 11.5 9.015625 L 10.5 9.015625 Z M 26.511719 8.011719 L 25.507812 8.011719 L 25.507812 9.015625 L 26.511719 9.015625 Z M 7.496094 6.007812 L 6.492188 6.007812 L 6.492188 7.011719 L 7.496094 7.011719 Z M 19.5 5.007812 L 20.5 5.007812 L 20.5 6.007812 C 20.007812 6.007812 18.992188 6.007812 18.5 6.007812 C 18.5 6.503906 18.5 7.519531 18.5 8.011719 L 19.5 8.011719 L 19.5 9.015625 L 20.5 9.015625 L 20.5 8.011719 L 21.503906 8.011719 C 21.503906 6.402344 21.503906 4.617188 21.503906 3.003906 C 21.007812 3.003906 19.992188 3.003906 19.5 3.003906 L 19.5 4.007812 L 18.5 4.007812 L 18.5 5.007812 Z M 18.5 4.007812 L 18.5 3.003906 L 17.496094 3.003906 L 17.496094 4.007812 Z M 10.5 4.007812 L 11.5 4.007812 C 11.5 3.511719 11.5 2.496094 11.5 2.003906 C 11.007812 2.003906 9.992188 2.003906 9.5 2.003906 L 9.5 3.003906 L 10.5 3.003906 Z M 17.496094 3.003906 L 17.496094 2.003906 L 16.496094 2.003906 L 16.496094 3.003906 Z M 19.5 2.003906 L 19.5 1 C 19.992188 1 21.007812 1 21.503906 1 L 21.503906 0 C 20.617188 0 19.398438 0 18.5 0 L 18.5 1 L 17.496094 1 L 17.496094 2.003906 C 18.003906 2.003906 19.007812 2.003906 19.5 2.003906 Z M 5.492188 1 L 5.492188 0 C 5 0 3.980469 0 3.488281 0 L 3.488281 1 L 2.488281 1 L 2.488281 2.003906 L 1.484375 2.003906 L 1.484375 1 L 0.484375 1 C 0.484375 2.613281 0.484375 4.398438 0.484375 6.007812 C 0.976562 6.007812 1.992188 6.007812 2.488281 6.007812 C 2.488281 5.515625 2.488281 4.5 2.488281 4.007812 L 1.484375 4.007812 L 1.484375 3.003906 C 1.980469 3.003906 2.996094 3.003906 3.488281 3.003906 L 3.488281 2.003906 L 4.492188 2.003906 L 4.492188 1 Z M 5.492188 24.023438 L 2.488281 24.023438 L 2.488281 27.027344 L 5.492188 27.027344 Z M 0.484375 29.03125 L 0.484375 22.019531 L 7.496094 22.019531 L 7.496094 29.03125 Z M 1.527344 27.988281 L 6.433594 27.988281 L 6.433594 23.082031 L 1.527344 23.082031 Z M 27.511719 24.023438 L 24.507812 24.023438 L 24.507812 27.027344 L 27.511719 27.027344 Z M 22.503906 29.03125 L 22.503906 22.019531 L 29.515625 22.019531 L 29.515625 29.03125 Z M 23.566406 27.988281 L 28.472656 27.988281 L 28.472656 23.082031 L 23.566406 23.082031 Z M 27.511719 2.003906 L 24.507812 2.003906 L 24.507812 5.007812 L 27.511719 5.007812 Z M 22.503906 7.011719 L 22.503906 0 L 29.515625 0 L 29.515625 7.011719 Z M 23.566406 5.953125 L 28.472656 5.953125 L 28.472656 1.046875 L 23.566406 1.046875 Z M 23.566406 5.953125 " fill-opacity="1" fill-rule="nonzero"/></g></svg>