<svg xmlns="http://www.w3.org/2000/svg" xmlns:xlink="http://www.w3.org/1999/xlink" width="40" zoomAndPan="magnify" viewBox="0 0 30 30.000001" height="40" preserveAspectRatio="xMidYMid meet" version="1.0"><defs><clipPath id="4d8d47ae72"><path d="M 6 23 L 12 23 L 12 26.800781 L 6 26.800781 Z M 6 23 " clip-rule="nonzero"/></clipPath><clipPath id="d38780e47d"><path d="M 18 23 L 24 23 L 24 26.800781 L 18 26.800781 Z M 18 23 " clip-rule="nonzero"/></clipPath><clipPath id="f33cd0fcbc"><path d="M 12 23 L 18 23 L 18 26.800781 L 12 26.800781 Z M 12 23 " clip-rule="nonzero"/></clipPath><clipPath id="902f8fdfd3"><path d="M 0.484375 2.121094 L 29.515625 2.121094 L 29.515625 26.800781 L 0.484375 26.800781 Z M 0.484375 2.121094 " clip-rule="nonzero"/></clipPath></defs><path fill="#5eaaed" d="M 10.644531 23.121094 L 7.449219 23.121094 L 7.449219 23.050781 C 7.449219 22.898438 7.574219 22.777344 7.726562 22.777344 L 10.367188 22.777344 C 10.519531 22.777344 10.644531 22.898438 10.644531 23.050781 Z M 10.367188 22.308594 L 7.726562 22.308594 C 7.316406 22.308594 6.980469 22.640625 6.980469 23.050781 L 6.980469 23.589844 L 11.113281 23.589844 L 11.113281 23.050781 C 11.113281 22.640625 10.777344 22.308594 10.367188 22.308594 " fill-opacity="1" fill-rule="nonzero"/><g clip-path="url(#4d8d47ae72)"><path fill="#5eaaed" d="M 7.449219 24.453125 L 10.644531 24.453125 L 10.644531 26.058594 C 10.644531 26.207031 10.519531 26.332031 10.367188 26.332031 L 9.667969 26.332031 L 9.667969 25.792969 C 9.667969 25.453125 9.390625 25.175781 9.046875 25.175781 C 8.703125 25.175781 8.425781 25.453125 8.425781 25.792969 L 8.425781 26.332031 L 7.726562 26.332031 C 7.574219 26.332031 7.449219 26.207031 7.449219 26.058594 Z M 6.980469 26.058594 C 6.980469 26.464844 7.316406 26.800781 7.726562 26.800781 L 8.894531 26.800781 L 8.894531 25.792969 C 8.894531 25.710938 8.964844 25.640625 9.046875 25.640625 C 9.132812 25.640625 9.199219 25.710938 9.199219 25.792969 L 9.199219 26.800781 L 10.367188 26.800781 C 10.777344 26.800781 11.113281 26.464844 11.113281 26.058594 L 11.113281 23.984375 L 6.980469 23.984375 L 6.980469 26.058594 " fill-opacity="1" fill-rule="nonzero"/></g><path fill="#5eaaed" d="M 22.550781 23.121094 L 19.355469 23.121094 L 19.355469 23.050781 C 19.355469 22.898438 19.480469 22.777344 19.632812 22.777344 L 22.273438 22.777344 C 22.425781 22.777344 22.550781 22.898438 22.550781 23.050781 Z M 22.273438 22.308594 L 19.632812 22.308594 C 19.21875 22.308594 18.886719 22.640625 18.886719 23.050781 L 18.886719 23.589844 L 23.019531 23.589844 L 23.019531 23.050781 C 23.019531 22.640625 22.683594 22.308594 22.273438 22.308594 " fill-opacity="1" fill-rule="nonzero"/><g clip-path="url(#d38780e47d)"><path fill="#5eaaed" d="M 19.355469 24.453125 L 22.550781 24.453125 L 22.550781 26.058594 C 22.550781 26.207031 22.425781 26.332031 22.273438 26.332031 L 21.574219 26.332031 L 21.574219 25.792969 C 21.574219 25.453125 21.296875 25.175781 20.953125 25.175781 C 20.609375 25.175781 20.332031 25.453125 20.332031 25.792969 L 20.332031 26.332031 L 19.632812 26.332031 C 19.480469 26.332031 19.355469 26.207031 19.355469 26.058594 Z M 18.886719 26.058594 C 18.886719 26.464844 19.21875 26.800781 19.632812 26.800781 L 20.800781 26.800781 L 20.800781 25.792969 C 20.800781 25.710938 20.871094 25.640625 20.953125 25.640625 C 21.039062 25.640625 21.105469 25.710938 21.105469 25.792969 L 21.105469 26.800781 L 22.273438 26.800781 C 22.683594 26.800781 23.019531 26.464844 23.019531 26.058594 L 23.019531 23.984375 L 18.886719 23.984375 L 18.886719 26.058594 " fill-opacity="1" fill-rule="nonzero"/></g><path fill="#5eaaed" d="M 16.605469 23.121094 L 13.414062 23.121094 L 13.414062 23.050781 C 13.414062 22.898438 13.535156 22.777344 13.6875 22.777344 L 16.332031 22.777344 C 16.484375 22.777344 16.605469 22.898438 16.605469 23.050781 Z M 16.332031 22.308594 L 13.6875 22.308594 C 13.277344 22.308594 12.941406 22.640625 12.941406 23.050781 L 12.941406 23.589844 L 17.078125 23.589844 L 17.078125 23.050781 C 17.078125 22.640625 16.742188 22.308594 16.332031 22.308594 " fill-opacity="1" fill-rule="nonzero"/><g clip-path="url(#f33cd0fcbc)"><path fill="#5eaaed" d="M 13.414062 24.453125 L 16.605469 24.453125 L 16.605469 26.058594 C 16.605469 26.207031 16.484375 26.332031 16.332031 26.332031 L 15.632812 26.332031 L 15.632812 25.792969 C 15.632812 25.453125 15.351562 25.175781 15.007812 25.175781 C 14.667969 25.175781 14.386719 25.453125 14.386719 25.792969 L 14.386719 26.332031 L 13.6875 26.332031 C 13.535156 26.332031 13.414062 26.207031 13.414062 26.058594 Z M 12.941406 26.058594 C 12.941406 26.464844 13.277344 26.800781 13.6875 26.800781 L 14.855469 26.800781 L 14.855469 25.792969 C 14.855469 25.710938 14.925781 25.640625 15.007812 25.640625 C 15.09375 25.640625 15.160156 25.710938 15.160156 25.792969 L 15.160156 26.800781 L 16.332031 26.800781 C 16.742188 26.800781 17.078125 26.464844 17.078125 26.058594 L 17.078125 23.984375 L 12.941406 23.984375 L 12.941406 26.058594 " fill-opacity="1" fill-rule="nonzero"/></g><path fill="#5eaaed" d="M 13.617188 17.546875 L 10.421875 17.546875 L 10.421875 17.480469 C 10.421875 17.328125 10.546875 17.207031 10.699219 17.207031 L 13.339844 17.207031 C 13.492188 17.207031 13.617188 17.328125 13.617188 17.480469 Z M 14.085938 17.480469 C 14.085938 17.070312 13.75 16.738281 13.339844 16.738281 L 10.699219 16.738281 C 10.285156 16.738281 9.953125 17.070312 9.953125 17.480469 L 9.953125 18.015625 L 14.085938 18.015625 L 14.085938 17.480469 " fill-opacity="1" fill-rule="nonzero"/><path fill="#5eaaed" d="M 12.019531 19.601562 C 11.675781 19.601562 11.394531 19.878906 11.394531 20.222656 L 11.394531 20.761719 L 10.699219 20.761719 C 10.546875 20.761719 10.421875 20.636719 10.421875 20.484375 L 10.421875 18.878906 L 13.617188 18.878906 L 13.617188 20.484375 C 13.617188 20.636719 13.492188 20.761719 13.339844 20.761719 L 12.640625 20.761719 L 12.640625 20.222656 C 12.640625 19.878906 12.363281 19.601562 12.019531 19.601562 Z M 13.339844 21.226562 C 13.75 21.226562 14.085938 20.894531 14.085938 20.484375 L 14.085938 18.410156 L 9.953125 18.410156 L 9.953125 20.484375 C 9.953125 20.894531 10.285156 21.226562 10.699219 21.226562 L 11.867188 21.226562 L 11.867188 20.222656 C 11.867188 20.140625 11.933594 20.070312 12.019531 20.070312 C 12.105469 20.070312 12.171875 20.140625 12.171875 20.222656 L 12.171875 21.226562 L 13.339844 21.226562 " fill-opacity="1" fill-rule="nonzero"/><path fill="#5eaaed" d="M 19.578125 17.546875 L 16.382812 17.546875 L 16.382812 17.480469 C 16.382812 17.328125 16.507812 17.207031 16.660156 17.207031 L 19.304688 17.207031 C 19.457031 17.207031 19.578125 17.328125 19.578125 17.480469 Z M 20.046875 17.480469 C 20.046875 17.070312 19.714844 16.738281 19.304688 16.738281 L 16.660156 16.738281 C 16.25 16.738281 15.914062 17.070312 15.914062 17.480469 L 15.914062 18.015625 L 20.046875 18.015625 L 20.046875 17.480469 " fill-opacity="1" fill-rule="nonzero"/><path fill="#5eaaed" d="M 17.980469 19.601562 C 17.636719 19.601562 17.359375 19.878906 17.359375 20.222656 L 17.359375 20.761719 L 16.660156 20.761719 C 16.507812 20.761719 16.382812 20.636719 16.382812 20.484375 L 16.382812 18.878906 L 19.578125 18.878906 L 19.578125 20.484375 C 19.578125 20.636719 19.457031 20.761719 19.304688 20.761719 L 18.605469 20.761719 L 18.605469 20.222656 C 18.605469 19.878906 18.324219 19.601562 17.980469 19.601562 Z M 19.304688 21.226562 C 19.714844 21.226562 20.046875 20.894531 20.046875 20.484375 L 20.046875 18.410156 L 15.914062 18.410156 L 15.914062 20.484375 C 15.914062 20.894531 16.25 21.226562 16.660156 21.226562 L 17.828125 21.226562 L 17.828125 20.222656 C 17.828125 20.140625 17.898438 20.070312 17.980469 20.070312 C 18.066406 20.070312 18.132812 20.140625 18.132812 20.222656 L 18.132812 21.226562 L 19.304688 21.226562 " fill-opacity="1" fill-rule="nonzero"/><g clip-path="url(#902f8fdfd3)"><path fill="#5eaaed" d="M 28.445312 9.792969 L 28.058594 9.703125 C 27.972656 9.679688 27.882812 9.699219 27.816406 9.753906 C 27.746094 9.808594 27.707031 9.890625 27.707031 9.976562 C 27.707031 10.097656 27.707031 21.878906 27.703125 25.511719 C 27.703125 25.964844 27.335938 26.332031 26.878906 26.332031 L 25.3125 26.332031 L 25.3125 25.789062 C 25.308594 23.433594 25.300781 17.175781 25.300781 14.289062 L 25.300781 14.054688 L 4.664062 14.054688 L 4.664062 14.289062 C 4.664062 17.503906 4.664062 24.851562 4.664062 26.332031 L 3.09375 26.332031 C 2.640625 26.332031 2.269531 25.964844 2.269531 25.511719 C 2.269531 21.832031 2.269531 9.9375 2.269531 9.9375 C 2.269531 9.839844 2.222656 9.753906 2.140625 9.699219 C 2.0625 9.644531 1.960938 9.632812 1.871094 9.667969 C 1.8125 9.691406 1.757812 9.714844 1.703125 9.738281 C 1.65625 9.757812 1.609375 9.773438 1.5625 9.792969 C 1.546875 9.800781 1.527344 9.792969 1.519531 9.773438 C 1.398438 9.503906 1.285156 9.238281 1.167969 8.96875 L 1.097656 8.804688 C 1.09375 8.789062 1.097656 8.769531 1.117188 8.761719 C 2.53125 8.128906 4.703125 7.160156 6.910156 6.171875 C 10.570312 4.539062 14.355469 2.847656 14.871094 2.617188 C 14.945312 2.585938 15.027344 2.585938 15.097656 2.613281 C 16.296875 3.152344 25.277344 7.164062 28.890625 8.777344 C 28.769531 9.050781 28.550781 9.554688 28.445312 9.792969 Z M 29.179688 8.394531 C 25.636719 6.8125 16.5 2.730469 15.289062 2.1875 C 15.191406 2.144531 15.089844 2.125 14.984375 2.125 C 14.882812 2.125 14.78125 2.144531 14.683594 2.1875 C 14.164062 2.421875 10.378906 4.109375 6.714844 5.746094 C 4.511719 6.730469 2.339844 7.703125 0.925781 8.335938 C 0.675781 8.445312 0.558594 8.742188 0.667969 8.992188 L 0.738281 9.152344 C 0.855469 9.421875 0.96875 9.6875 1.085938 9.960938 C 1.195312 10.210938 1.488281 10.328125 1.738281 10.226562 C 1.757812 10.21875 1.777344 10.210938 1.800781 10.203125 C 1.800781 11.976562 1.800781 22.15625 1.800781 25.511719 C 1.800781 26.222656 2.382812 26.800781 3.09375 26.800781 L 5.132812 26.800781 L 5.132812 26.566406 C 5.132812 26.023438 5.132812 18.109375 5.132812 14.523438 L 24.832031 14.523438 C 24.832031 17.5 24.839844 23.496094 24.839844 25.789062 L 24.84375 26.800781 L 26.878906 26.800781 C 27.59375 26.800781 28.175781 26.222656 28.175781 25.511719 C 28.175781 22.164062 28.175781 11.882812 28.175781 10.210938 L 28.453125 10.273438 C 28.574219 10.304688 28.703125 10.257812 28.785156 10.160156 L 28.847656 10.101562 L 28.847656 10.046875 C 28.941406 9.828125 29.253906 9.113281 29.363281 8.867188 C 29.441406 8.6875 29.359375 8.476562 29.179688 8.394531 " fill-opacity="1" fill-rule="nonzero"/></g><path fill="#5eaaed" d="M 21.886719 10.953125 L 24.292969 10.953125 C 24.609375 10.953125 24.867188 11.210938 24.867188 11.527344 C 24.867188 11.84375 24.609375 12.101562 24.292969 12.101562 L 21.886719 12.101562 C 21.566406 12.101562 21.308594 11.84375 21.308594 11.527344 C 21.308594 11.210938 21.566406 10.953125 21.886719 10.953125 Z M 21.886719 12.566406 L 24.292969 12.566406 C 24.867188 12.566406 25.335938 12.101562 25.335938 11.527344 C 25.335938 10.953125 24.867188 10.484375 24.292969 10.484375 L 21.886719 10.484375 C 21.308594 10.484375 20.839844 10.953125 20.839844 11.527344 C 20.839844 12.101562 21.308594 12.566406 21.886719 12.566406 " fill-opacity="1" fill-rule="nonzero"/><path fill="#5eaaed" d="M 8.132812 12.101562 L 5.726562 12.101562 C 5.410156 12.101562 5.152344 11.84375 5.152344 11.527344 C 5.152344 11.210938 5.410156 10.953125 5.726562 10.953125 L 8.132812 10.953125 C 8.449219 10.953125 8.707031 11.210938 8.707031 11.527344 C 8.707031 11.84375 8.449219 12.101562 8.132812 12.101562 Z M 8.132812 10.484375 L 5.726562 10.484375 C 5.152344 10.484375 4.683594 10.953125 4.683594 11.527344 C 4.683594 12.101562 5.152344 12.566406 5.726562 12.566406 L 8.132812 12.566406 C 8.710938 12.566406 9.179688 12.101562 9.179688 11.527344 C 9.179688 10.953125 8.710938 10.484375 8.132812 10.484375 " fill-opacity="1" fill-rule="nonzero"/><path fill="#5eaaed" d="M 16.210938 12.101562 L 13.804688 12.101562 C 13.488281 12.101562 13.230469 11.84375 13.230469 11.527344 C 13.230469 11.210938 13.488281 10.953125 13.804688 10.953125 L 16.210938 10.953125 C 16.53125 10.953125 16.789062 11.210938 16.789062 11.527344 C 16.789062 11.84375 16.53125 12.101562 16.210938 12.101562 Z M 16.210938 10.484375 L 13.804688 10.484375 C 13.230469 10.484375 12.761719 10.953125 12.761719 11.527344 C 12.761719 12.101562 13.230469 12.566406 13.804688 12.566406 L 16.210938 12.566406 C 16.789062 12.566406 17.257812 12.101562 17.257812 11.527344 C 17.257812 10.953125 16.789062 10.484375 16.210938 10.484375 " fill-opacity="1" fill-rule="nonzero"/><path fill="#5eaaed" d="M 19.308594 6.476562 L 10.707031 6.476562 L 15.007812 4.566406 Z M 14.871094 4.117188 L 9.957031 6.296875 C 9.808594 6.363281 9.730469 6.515625 9.765625 6.675781 C 9.796875 6.832031 9.933594 6.941406 10.097656 6.941406 L 19.921875 6.941406 C 20.085938 6.941406 20.222656 6.832031 20.253906 6.675781 C 20.289062 6.515625 20.207031 6.363281 20.0625 6.296875 L 15.148438 4.117188 C 15.058594 4.078125 14.960938 4.078125 14.871094 4.117188 " fill-opacity="1" fill-rule="nonzero"/></svg>