<svg xmlns="http://www.w3.org/2000/svg" xmlns:xlink="http://www.w3.org/1999/xlink" width="45" zoomAndPan="magnify" viewBox="0 0 33.75 33.749999" height="45" preserveAspectRatio="xMidYMid meet" version="1.0"><defs><clipPath id="0859799e7c"><path d="M 0 0 L 33.5 0 L 33.5 33.5 L 0 33.5 Z M 0 0 " clip-rule="nonzero"/></clipPath></defs><g clip-path="url(#0859799e7c)"><path fill="#000000" d="M 3.578125 0 C 1.609375 0 0 1.609375 0 3.578125 L 0 8.691406 C -0.00390625 8.835938 0.046875 8.957031 0.148438 9.058594 C 0.246094 9.160156 0.367188 9.210938 0.511719 9.210938 C 0.652344 9.210938 0.777344 9.160156 0.875 9.058594 C 0.976562 8.957031 1.023438 8.835938 1.023438 8.691406 L 1.023438 3.578125 C 1.023438 2.160156 2.160156 1.023438 3.578125 1.023438 L 8.691406 1.023438 C 8.835938 1.023438 8.957031 0.976562 9.058594 0.875 C 9.160156 0.777344 9.210938 0.652344 9.210938 0.511719 C 9.210938 0.367188 9.160156 0.246094 9.058594 0.148438 C 8.957031 0.046875 8.835938 -0.00390625 8.691406 0 Z M 25.058594 0 C 24.914062 -0.00390625 24.792969 0.046875 24.691406 0.148438 C 24.589844 0.246094 24.539062 0.367188 24.539062 0.511719 C 24.539062 0.652344 24.589844 0.777344 24.691406 0.875 C 24.792969 0.976562 24.914062 1.023438 25.058594 1.023438 L 30.171875 1.023438 C 31.589844 1.023438 32.726562 2.160156 32.726562 3.578125 L 32.726562 8.691406 C 32.726562 8.835938 32.773438 8.957031 32.875 9.058594 C 32.976562 9.160156 33.097656 9.210938 33.238281 9.210938 C 33.382812 9.210938 33.503906 9.160156 33.601562 9.058594 C 33.703125 8.957031 33.753906 8.835938 33.75 8.691406 L 33.75 3.578125 C 33.75 1.609375 32.140625 0 30.171875 0 Z M 5.878906 5.625 C 5.738281 5.625 5.625 5.738281 5.625 5.878906 L 5.625 21.476562 L 0.511719 21.476562 C 0.230469 21.476562 0 21.707031 0 21.988281 C 0 22.269531 0.230469 22.5 0.511719 22.5 L 33.238281 22.5 C 33.519531 22.5 33.75 22.269531 33.75 21.988281 C 33.75 21.707031 33.519531 21.476562 33.238281 21.476562 L 28.125 21.476562 L 28.125 5.878906 C 28.125 5.738281 28.011719 5.625 27.871094 5.625 L 27.359375 5.625 C 27.214844 5.625 27.101562 5.738281 27.101562 5.878906 L 27.101562 21.476562 L 26.078125 21.476562 L 26.078125 5.878906 C 26.078125 5.738281 25.96875 5.625 25.824219 5.625 L 23.777344 5.625 C 23.636719 5.625 23.523438 5.738281 23.523438 5.878906 L 23.523438 21.476562 L 22.5 21.476562 L 22.5 5.878906 C 22.5 5.738281 22.386719 5.625 22.246094 5.625 C 22.101562 5.625 21.988281 5.738281 21.988281 5.878906 L 21.988281 21.476562 L 20.964844 21.476562 L 20.964844 5.878906 C 20.964844 5.738281 20.851562 5.625 20.710938 5.625 L 20.199219 5.625 C 20.054688 5.625 19.941406 5.738281 19.941406 5.878906 L 19.941406 21.476562 L 18.921875 21.476562 L 18.921875 5.878906 C 18.921875 5.738281 18.808594 5.625 18.664062 5.625 L 18.152344 5.625 C 18.011719 5.625 17.898438 5.738281 17.898438 5.878906 L 17.898438 21.476562 L 16.363281 21.476562 L 16.363281 5.878906 C 16.363281 5.738281 16.25 5.625 16.109375 5.625 L 14.0625 5.625 C 13.917969 5.625 13.808594 5.738281 13.808594 5.878906 L 13.808594 21.476562 L 12.273438 21.476562 L 12.273438 5.878906 C 12.273438 5.738281 12.160156 5.625 12.015625 5.625 L 11.503906 5.625 C 11.363281 5.625 11.25 5.738281 11.25 5.878906 L 11.25 21.476562 L 10.226562 21.476562 L 10.226562 5.878906 C 10.226562 5.738281 10.113281 5.625 9.972656 5.625 C 9.828125 5.625 9.714844 5.738281 9.714844 5.878906 L 9.714844 21.476562 L 8.183594 21.476562 L 8.183594 5.878906 C 8.183594 5.738281 8.070312 5.625 7.925781 5.625 L 7.414062 5.625 C 7.273438 5.625 7.160156 5.738281 7.160156 5.878906 L 7.160156 21.476562 L 6.136719 21.476562 L 6.136719 5.878906 C 6.136719 5.738281 6.023438 5.625 5.878906 5.625 Z M 5.878906 23.523438 C 5.738281 23.523438 5.625 23.636719 5.625 23.777344 L 5.625 27.871094 C 5.625 28.011719 5.738281 28.125 5.878906 28.125 C 6.023438 28.125 6.136719 28.011719 6.136719 27.871094 L 6.136719 23.777344 C 6.136719 23.636719 6.023438 23.523438 5.878906 23.523438 Z M 7.414062 23.523438 C 7.273438 23.523438 7.160156 23.636719 7.160156 23.777344 L 7.160156 27.871094 C 7.160156 28.011719 7.273438 28.125 7.414062 28.125 L 7.925781 28.125 C 8.066406 28.125 8.183594 28.011719 8.183594 27.871094 L 8.183594 23.777344 C 8.183594 23.636719 8.066406 23.523438 7.925781 23.523438 Z M 9.972656 23.523438 C 9.832031 23.523438 9.714844 23.636719 9.714844 23.777344 L 9.714844 27.871094 C 9.714844 28.011719 9.828125 28.125 9.972656 28.125 C 10.113281 28.125 10.226562 28.011719 10.226562 27.871094 L 10.226562 23.777344 C 10.226562 23.636719 10.113281 23.523438 9.972656 23.523438 Z M 11.503906 23.523438 C 11.363281 23.523438 11.25 23.636719 11.25 23.777344 L 11.25 27.871094 C 11.25 28.011719 11.363281 28.125 11.503906 28.125 L 12.015625 28.125 C 12.15625 28.125 12.273438 28.011719 12.273438 27.871094 L 12.273438 23.777344 C 12.273438 23.636719 12.15625 23.523438 12.015625 23.523438 Z M 14.0625 23.523438 C 13.921875 23.523438 13.808594 23.636719 13.808594 23.777344 L 13.808594 27.871094 C 13.808594 28.011719 13.921875 28.125 14.0625 28.125 L 16.109375 28.125 C 16.25 28.125 16.363281 28.011719 16.363281 27.871094 L 16.363281 23.777344 C 16.363281 23.636719 16.25 23.523438 16.109375 23.523438 Z M 18.152344 23.523438 C 18.011719 23.523438 17.898438 23.636719 17.898438 23.777344 L 17.898438 27.871094 C 17.898438 28.011719 18.011719 28.125 18.152344 28.125 L 18.664062 28.125 C 18.804688 28.125 18.921875 28.011719 18.921875 27.871094 L 18.921875 23.777344 C 18.921875 23.636719 18.804688 23.523438 18.664062 23.523438 Z M 20.199219 23.523438 C 20.058594 23.523438 19.941406 23.636719 19.941406 23.777344 L 19.941406 27.871094 C 19.941406 28.011719 20.058594 28.125 20.199219 28.125 L 20.710938 28.125 C 20.851562 28.125 20.964844 28.011719 20.964844 27.871094 L 20.964844 23.777344 C 20.964844 23.636719 20.851562 23.523438 20.710938 23.523438 Z M 22.246094 23.523438 C 22.101562 23.523438 21.988281 23.636719 21.988281 23.777344 L 21.988281 27.871094 C 21.988281 28.011719 22.101562 28.125 22.246094 28.125 C 22.386719 28.125 22.5 28.011719 22.5 27.871094 L 22.5 23.777344 C 22.5 23.636719 22.386719 23.523438 22.246094 23.523438 Z M 23.777344 23.523438 C 23.636719 23.523438 23.523438 23.636719 23.523438 23.777344 L 23.523438 27.871094 C 23.523438 28.011719 23.636719 28.125 23.777344 28.125 L 25.824219 28.125 C 25.964844 28.125 26.078125 28.011719 26.078125 27.871094 L 26.078125 23.777344 C 26.078125 23.636719 25.964844 23.523438 25.824219 23.523438 Z M 27.359375 23.523438 C 27.21875 23.523438 27.101562 23.636719 27.101562 23.777344 L 27.101562 27.871094 C 27.101562 28.011719 27.21875 28.125 27.359375 28.125 L 27.871094 28.125 C 28.011719 28.125 28.125 28.011719 28.125 27.871094 L 28.125 23.777344 C 28.125 23.636719 28.011719 23.523438 27.871094 23.523438 Z M 0.503906 24.539062 C 0.363281 24.539062 0.242188 24.59375 0.144531 24.695312 C 0.046875 24.792969 0 24.914062 0 25.058594 L 0 30.171875 C 0 32.140625 1.609375 33.75 3.578125 33.75 L 8.691406 33.75 C 8.835938 33.753906 8.957031 33.703125 9.058594 33.601562 C 9.160156 33.503906 9.210938 33.382812 9.210938 33.238281 C 9.210938 33.097656 9.160156 32.976562 9.058594 32.875 C 8.957031 32.773438 8.835938 32.726562 8.691406 32.726562 L 3.578125 32.726562 C 2.160156 32.726562 1.023438 31.589844 1.023438 30.171875 L 1.023438 25.058594 C 1.023438 24.914062 0.976562 24.789062 0.871094 24.6875 C 0.769531 24.585938 0.648438 24.535156 0.503906 24.539062 Z M 33.230469 24.539062 C 33.089844 24.539062 32.96875 24.59375 32.871094 24.695312 C 32.773438 24.792969 32.726562 24.914062 32.726562 25.058594 L 32.726562 30.171875 C 32.726562 31.589844 31.589844 32.726562 30.171875 32.726562 L 25.058594 32.726562 C 24.914062 32.726562 24.792969 32.773438 24.691406 32.875 C 24.589844 32.976562 24.539062 33.097656 24.539062 33.238281 C 24.539062 33.382812 24.589844 33.503906 24.691406 33.601562 C 24.792969 33.703125 24.914062 33.753906 25.058594 33.75 L 30.171875 33.75 C 32.140625 33.75 33.75 32.140625 33.75 30.171875 L 33.75 25.058594 C 33.753906 24.914062 33.703125 24.789062 33.601562 24.6875 C 33.496094 24.585938 33.375 24.535156 33.230469 24.539062 Z M 33.230469 24.539062 " fill-opacity="1" fill-rule="nonzero"/></g></svg>