<svg xmlns="http://www.w3.org/2000/svg" xmlns:xlink="http://www.w3.org/1999/xlink" width="40" zoomAndPan="magnify" viewBox="0 0 30 30.000001" height="40" preserveAspectRatio="xMidYMid meet" version="1.0"><defs><clipPath id="be5d18946f"><path d="M 1.734375 0.015625 L 23.972656 0.015625 L 23.972656 29.019531 L 1.734375 29.019531 Z M 1.734375 0.015625 " clip-rule="nonzero"/></clipPath><clipPath id="b496023613"><path d="M 6.90625 2.464844 L 28.589844 2.464844 L 28.589844 19.832031 L 6.90625 19.832031 Z M 6.90625 2.464844 " clip-rule="nonzero"/></clipPath></defs><g clip-path="url(#be5d18946f)"><path fill="#ffffff" d="M 23.953125 3.988281 C 23.539062 3.773438 23.121094 3.566406 22.699219 3.386719 L 22.382812 3.246094 C 22.273438 3.199219 22.167969 3.160156 22.0625 3.117188 C 21.957031 3.074219 21.851562 3.027344 21.746094 2.988281 L 21.421875 2.871094 L 21.261719 2.8125 C 21.207031 2.792969 21.152344 2.773438 21.101562 2.757812 L 20.777344 2.648438 C 20.667969 2.609375 20.558594 2.578125 20.449219 2.546875 L 20.125 2.449219 C 19.90625 2.390625 19.6875 2.328125 19.46875 2.273438 C 19.246094 2.222656 19.027344 2.164062 18.808594 2.125 L 18.476562 2.058594 C 18.367188 2.035156 18.253906 2.019531 18.144531 2 C 18.03125 1.984375 17.921875 1.960938 17.8125 1.945312 L 17.476562 1.898438 L 17.3125 1.875 L 17.144531 1.855469 L 16.8125 1.820312 C 16.589844 1.796875 16.367188 1.785156 16.144531 1.765625 C 15.699219 1.742188 15.257812 1.726562 14.8125 1.734375 L 14.480469 1.742188 L 14.152344 1.753906 C 13.929688 1.761719 13.710938 1.78125 13.492188 1.796875 C 13.378906 1.804688 13.269531 1.820312 13.160156 1.832031 L 12.832031 1.863281 L 12.507812 1.910156 C 12.398438 1.925781 12.289062 1.9375 12.183594 1.957031 C 11.964844 1.996094 11.75 2.027344 11.535156 2.074219 L 11.214844 2.136719 C 11.105469 2.160156 11 2.1875 10.894531 2.210938 C 10.46875 2.308594 10.050781 2.429688 9.636719 2.554688 C 9.429688 2.621094 9.222656 2.691406 9.019531 2.761719 L 8.714844 2.875 C 8.613281 2.914062 8.511719 2.949219 8.410156 2.992188 C 8.210938 3.074219 8.011719 3.152344 7.8125 3.242188 L 7.519531 3.375 L 7.226562 3.515625 C 6.839844 3.703125 6.460938 3.910156 6.089844 4.125 C 5.996094 4.175781 5.90625 4.234375 5.816406 4.289062 L 5.542969 4.457031 C 5.441406 4.519531 5.363281 4.570312 5.269531 4.632812 C 5.183594 4.691406 5.09375 4.75 5.003906 4.8125 C 4.65625 5.054688 4.316406 5.308594 3.992188 5.574219 L 4.5 4.539062 C 4.511719 5.109375 4.527344 5.679688 4.535156 6.25 C 4.546875 6.816406 4.558594 7.386719 4.566406 7.957031 C 4.574219 8.527344 4.582031 9.097656 4.585938 9.664062 L 4.59375 10.09375 L 4.59375 10.308594 L 4.601562 10.496094 L 4.609375 10.921875 L 4.609375 10.976562 L 4.613281 11.023438 L 4.621094 11.121094 L 4.632812 11.308594 C 4.644531 11.558594 4.671875 11.828125 4.695312 12.089844 C 4.707031 12.222656 4.726562 12.351562 4.742188 12.484375 C 4.757812 12.613281 4.769531 12.746094 4.792969 12.875 L 4.851562 13.269531 C 4.863281 13.332031 4.871094 13.398438 4.886719 13.464844 L 4.921875 13.660156 L 5 14.046875 L 5.085938 14.433594 L 5.128906 14.628906 C 5.144531 14.691406 5.160156 14.757812 5.175781 14.820312 L 5.277344 15.203125 C 5.3125 15.332031 5.351562 15.457031 5.390625 15.585938 C 5.425781 15.710938 5.460938 15.839844 5.503906 15.964844 L 5.628906 16.34375 C 5.667969 16.46875 5.71875 16.589844 5.761719 16.714844 L 5.902344 17.089844 L 6.050781 17.457031 C 6.097656 17.582031 6.15625 17.699219 6.207031 17.820312 C 6.261719 17.941406 6.3125 18.066406 6.371094 18.183594 C 6.484375 18.425781 6.59375 18.664062 6.71875 18.898438 C 6.78125 19.015625 6.839844 19.136719 6.902344 19.253906 L 7.097656 19.601562 C 7.132812 19.660156 7.164062 19.71875 7.195312 19.773438 L 7.300781 19.945312 L 7.503906 20.285156 L 7.722656 20.621094 L 7.828125 20.789062 L 7.941406 20.953125 L 8.171875 21.28125 L 8.40625 21.605469 C 8.5625 21.820312 8.734375 22.027344 8.898438 22.238281 C 8.980469 22.34375 9.070312 22.441406 9.15625 22.542969 C 9.242188 22.644531 9.324219 22.75 9.417969 22.847656 L 9.683594 23.148438 C 9.726562 23.199219 9.773438 23.246094 9.820312 23.292969 L 9.960938 23.4375 L 10.101562 23.585938 C 10.144531 23.632812 10.191406 23.679688 10.242188 23.726562 L 10.527344 24.007812 C 10.625 24.105469 10.722656 24.191406 10.824219 24.285156 C 10.921875 24.375 11.019531 24.464844 11.121094 24.554688 L 11.429688 24.816406 C 11.480469 24.863281 11.527344 24.90625 11.582031 24.949219 L 11.738281 25.074219 L 12.054688 25.328125 L 12.378906 25.570312 L 12.539062 25.695312 C 12.59375 25.734375 12.648438 25.773438 12.703125 25.8125 L 13.039062 26.046875 C 13.148438 26.125 13.261719 26.195312 13.375 26.269531 C 13.492188 26.339844 13.601562 26.421875 13.71875 26.488281 L 14.066406 26.703125 L 14.152344 26.753906 L 14.175781 26.769531 L 14.179688 26.773438 C 14.183594 26.773438 14.175781 26.769531 14.179688 26.773438 L 14.191406 26.777344 L 14.425781 26.914062 L 13.449219 26.910156 L 13.640625 26.820312 L 13.691406 26.800781 L 13.695312 26.796875 C 13.6875 26.800781 13.71875 26.785156 13.679688 26.808594 L 13.683594 26.804688 L 13.695312 26.800781 L 13.71875 26.789062 L 13.816406 26.738281 L 14.214844 26.542969 C 14.488281 26.414062 14.710938 26.285156 14.957031 26.15625 C 15.195312 26.03125 15.433594 25.878906 15.675781 25.738281 C 15.921875 25.601562 16.152344 25.4375 16.386719 25.285156 L 16.5625 25.171875 C 16.621094 25.132812 16.679688 25.089844 16.734375 25.050781 L 17.078125 24.804688 L 17.253906 24.683594 C 17.308594 24.640625 17.363281 24.597656 17.417969 24.554688 L 17.753906 24.292969 L 17.921875 24.164062 C 17.976562 24.117188 18.027344 24.074219 18.082031 24.027344 L 18.40625 23.753906 L 18.570312 23.617188 L 18.726562 23.472656 L 19.042969 23.183594 C 19.09375 23.136719 19.148438 23.089844 19.199219 23.039062 L 19.652344 22.585938 C 19.703125 22.539062 19.753906 22.488281 19.800781 22.4375 L 19.949219 22.28125 L 20.242188 21.964844 C 20.339844 21.863281 20.429688 21.75 20.523438 21.644531 C 20.617188 21.535156 20.710938 21.425781 20.804688 21.316406 L 20.875 21.234375 C 20.898438 21.207031 20.921875 21.179688 20.941406 21.152344 L 21.078125 20.984375 L 21.34375 20.644531 C 21.390625 20.589844 21.433594 20.53125 21.476562 20.472656 L 21.601562 20.296875 L 21.859375 19.949219 C 21.945312 19.832031 22.023438 19.707031 22.105469 19.589844 L 22.351562 19.226562 C 22.507812 18.984375 22.65625 18.734375 22.816406 18.488281 C 22.960938 18.234375 23.105469 17.980469 23.257812 17.726562 C 23.175781 18.007812 23.089844 18.289062 23 18.570312 C 22.902344 18.847656 22.804688 19.125 22.699219 19.402344 C 22.585938 19.675781 22.472656 19.949219 22.351562 20.222656 L 22.160156 20.625 L 22.0625 20.824219 C 22.03125 20.894531 21.996094 20.960938 21.960938 21.023438 L 21.746094 21.417969 L 21.640625 21.617188 C 21.621094 21.648438 21.605469 21.683594 21.585938 21.714844 L 21.527344 21.808594 C 21.453125 21.9375 21.375 22.066406 21.296875 22.195312 C 21.21875 22.324219 21.140625 22.453125 21.054688 22.574219 L 20.679688 23.136719 C 20.636719 23.203125 20.589844 23.261719 20.546875 23.320312 L 20.273438 23.683594 L 20.140625 23.867188 C 20.09375 23.925781 20.042969 23.984375 19.996094 24.042969 L 19.5625 24.570312 L 19.410156 24.738281 L 19.105469 25.078125 C 19.054688 25.132812 19.003906 25.191406 18.953125 25.246094 L 18.792969 25.410156 L 18.46875 25.734375 C 18.414062 25.785156 18.363281 25.84375 18.304688 25.894531 L 18.136719 26.050781 L 17.800781 26.359375 C 17.742188 26.410156 17.6875 26.464844 17.628906 26.511719 L 17.449219 26.660156 C 17.214844 26.855469 16.984375 27.058594 16.734375 27.238281 C 16.488281 27.421875 16.25 27.613281 15.980469 27.785156 C 15.722656 27.960938 15.453125 28.152344 15.207031 28.296875 L 14.832031 28.527344 L 14.738281 28.585938 L 14.703125 28.609375 L 14.699219 28.609375 L 14.675781 28.621094 L 14.671875 28.625 L 14.621094 28.65625 L 14.421875 28.769531 L 13.988281 29.019531 L 13.445312 28.765625 L 13.25 28.675781 L 13.199219 28.652344 L 13.1875 28.648438 L 13.167969 28.640625 L 13.144531 28.625 L 13.042969 28.574219 L 12.632812 28.375 L 12.53125 28.324219 L 12.429688 28.269531 L 12.230469 28.160156 C 12.097656 28.089844 11.960938 28.019531 11.828125 27.941406 L 11.4375 27.710938 C 11.371094 27.671875 11.304688 27.632812 11.238281 27.59375 L 11.046875 27.472656 L 10.664062 27.222656 L 10.285156 26.964844 L 10.097656 26.835938 C 10.035156 26.789062 9.976562 26.742188 9.914062 26.699219 L 9.546875 26.425781 C 9.425781 26.332031 9.308594 26.234375 9.1875 26.140625 C 9.070312 26.042969 8.949219 25.949219 8.835938 25.847656 L 8.488281 25.550781 C 8.429688 25.5 8.375 25.449219 8.320312 25.394531 L 7.984375 25.082031 C 7.925781 25.03125 7.871094 24.980469 7.816406 24.925781 L 7.492188 24.601562 C 7.382812 24.496094 7.28125 24.382812 7.175781 24.269531 C 7.074219 24.15625 6.964844 24.046875 6.867188 23.933594 C 6.667969 23.703125 6.460938 23.476562 6.269531 23.234375 C 6.175781 23.117188 6.078125 23 5.984375 22.878906 L 5.707031 22.511719 L 5.570312 22.328125 L 5.4375 22.140625 L 5.175781 21.765625 L 4.925781 21.378906 L 4.800781 21.1875 C 4.761719 21.121094 4.722656 21.054688 4.683594 20.992188 L 4.445312 20.597656 C 4.371094 20.464844 4.296875 20.332031 4.222656 20.195312 C 4.070312 19.929688 3.9375 19.65625 3.800781 19.382812 C 3.730469 19.246094 3.667969 19.105469 3.605469 18.96875 C 3.539062 18.828125 3.472656 18.691406 3.414062 18.550781 C 3.292969 18.269531 3.175781 17.988281 3.070312 17.703125 C 3.015625 17.558594 2.957031 17.417969 2.910156 17.273438 L 2.761719 16.839844 C 2.707031 16.695312 2.664062 16.546875 2.621094 16.402344 C 2.578125 16.253906 2.53125 16.109375 2.492188 15.960938 L 2.375 15.519531 C 2.355469 15.445312 2.332031 15.371094 2.316406 15.296875 L 2.265625 15.074219 L 2.164062 14.625 L 2.078125 14.175781 L 2.035156 13.953125 C 2.019531 13.875 2.011719 13.800781 2 13.726562 L 1.929688 13.273438 C 1.90625 13.121094 1.890625 12.96875 1.871094 12.816406 C 1.855469 12.667969 1.832031 12.515625 1.824219 12.363281 C 1.800781 12.058594 1.769531 11.757812 1.761719 11.4375 L 1.75 11.203125 L 1.746094 11.085938 L 1.742188 11.023438 L 1.742188 10.972656 L 1.738281 10.542969 L 1.734375 10.308594 L 1.738281 10.09375 L 1.742188 9.664062 C 1.75 9.097656 1.753906 8.527344 1.765625 7.957031 C 1.773438 7.386719 1.78125 6.816406 1.792969 6.25 C 1.804688 5.679688 1.816406 5.109375 1.832031 4.539062 L 1.847656 3.871094 L 2.339844 3.507812 C 2.742188 3.203125 3.15625 2.921875 3.582031 2.664062 C 3.6875 2.597656 3.792969 2.535156 3.902344 2.472656 C 4.003906 2.414062 4.125 2.34375 4.222656 2.289062 L 4.550781 2.113281 C 4.664062 2.054688 4.769531 1.996094 4.882812 1.941406 C 5.328125 1.722656 5.773438 1.511719 6.234375 1.328125 L 6.578125 1.191406 L 6.929688 1.066406 C 7.160156 0.976562 7.394531 0.902344 7.632812 0.828125 C 7.75 0.789062 7.867188 0.757812 7.988281 0.722656 L 8.34375 0.621094 C 8.460938 0.589844 8.582031 0.5625 8.703125 0.53125 C 8.820312 0.503906 8.941406 0.46875 9.0625 0.445312 L 9.421875 0.371094 L 9.601562 0.332031 L 9.785156 0.300781 L 10.148438 0.238281 C 10.269531 0.214844 10.390625 0.203125 10.511719 0.183594 C 10.632812 0.167969 10.757812 0.148438 10.878906 0.136719 L 11.246094 0.0976562 C 11.488281 0.0703125 11.734375 0.0585938 11.976562 0.0429688 C 12.097656 0.03125 12.222656 0.03125 12.34375 0.0273438 L 12.710938 0.015625 L 13.078125 0.015625 C 13.199219 0.015625 13.320312 0.015625 13.441406 0.0195312 C 13.6875 0.03125 13.929688 0.0351562 14.171875 0.0546875 L 14.535156 0.0820312 L 14.898438 0.121094 C 15.382812 0.167969 15.859375 0.25 16.335938 0.335938 C 16.453125 0.359375 16.574219 0.386719 16.691406 0.410156 C 16.808594 0.4375 16.925781 0.460938 17.042969 0.488281 L 17.394531 0.578125 L 17.570312 0.625 L 17.742188 0.671875 L 18.089844 0.773438 C 18.203125 0.804688 18.316406 0.847656 18.429688 0.882812 C 18.542969 0.921875 18.660156 0.957031 18.769531 0.996094 L 19.109375 1.121094 C 19.332031 1.203125 19.550781 1.300781 19.773438 1.386719 C 19.882812 1.429688 19.992188 1.484375 20.097656 1.53125 L 20.421875 1.679688 L 20.742188 1.839844 C 20.847656 1.894531 20.953125 1.945312 21.058594 2.003906 L 21.367188 2.171875 C 21.421875 2.203125 21.472656 2.230469 21.523438 2.257812 L 21.675781 2.351562 L 21.980469 2.53125 C 22.078125 2.59375 22.179688 2.660156 22.277344 2.722656 C 22.375 2.789062 22.476562 2.851562 22.570312 2.917969 L 22.855469 3.121094 L 22.996094 3.21875 L 23.03125 3.246094 C 23.046875 3.257812 23.058594 3.261719 23.070312 3.273438 L 23.140625 3.324219 C 23.234375 3.394531 23.324219 3.46875 23.417969 3.539062 C 23.601562 3.683594 23.777344 3.832031 23.953125 3.988281 " fill-opacity="1" fill-rule="nonzero"/></g><g clip-path="url(#b496023613)"><path fill="#ffffff" d="M 14.558594 19.832031 L 6.917969 11.882812 L 9.019531 9.914062 L 14.5 15.617188 L 26.4375 2.480469 L 28.59375 4.390625 L 14.558594 19.832031 " fill-opacity="1" fill-rule="nonzero"/></g></svg>