<!DOCTYPE svg PUBLIC "-//W3C//DTD SVG 1.1//EN" "http://www.w3.org/Graphics/SVG/1.1/DTD/svg11.dtd">

<!-- Uploaded to: SVG Repo, www.svgrepo.com, Transformed by: SVG Repo Mixer Tools -->
<svg version="1.1" id="Layer_1" xmlns="http://www.w3.org/2000/svg" xmlns:xlink="http://www.w3.org/1999/xlink" viewBox="0 0 512 512" xml:space="preserve" width="45px" height="45px" fill="#000000">

<g id="SVGRepo_bgCarrier" stroke-width="0"/>

<g id="SVGRepo_tracerCarrier" stroke-linecap="round" stroke-linejoin="round"/>

<g id="SVGRepo_iconCarrier"> <path style="fill:#b0b0b0;" d="M313.469,133.224H198.531V28.735c0-11.542,9.356-20.898,20.898-20.898h73.143 c11.542,0,20.898,9.356,20.898,20.898V133.224z"/> <path style="fill:#161818;" d="M287.347,79.412h-62.694c-5.771,0-10.449-4.678-10.449-10.449V42.841 c0-5.771,4.678-10.449,10.449-10.449h62.694c5.771,0,10.449,4.678,10.449,10.449v26.122 C297.796,74.734,293.118,79.412,287.347,79.412z"/> <rect x="224.653" y="399.673" style="fill:#2f3132;" width="62.694" height="104.49"/> <path style="fill:#161818;" d="M188.082,133.224h135.837c5.771,0,10.449,4.678,10.449,10.449v245.551 c0,5.771-4.678,10.449-10.449,10.449H188.082c-5.771,0-10.449-4.678-10.449-10.449V143.673 C177.633,137.902,182.311,133.224,188.082,133.224z"/> <path d="M206.367,28.735c0-7.202,5.859-13.061,13.061-13.061h73.143c7.202,0,13.061,5.859,13.061,13.061v83.592h15.673V28.735 C321.306,12.89,308.416,0,292.571,0h-73.143c-15.845,0-28.735,12.89-28.735,28.735v83.592h15.673V28.735z"/> <path d="M323.918,125.388H188.082c-10.082,0-18.286,8.203-18.286,18.286v245.551c0,10.082,8.203,18.286,18.286,18.286h28.735V512 h78.367V407.51h28.735c10.082,0,18.286-8.204,18.286-18.286V143.673C342.204,133.591,334.001,125.388,323.918,125.388z M279.51,496.327h-47.02V407.51h47.02V496.327z M326.531,389.224c0,1.44-1.172,2.612-2.612,2.612H188.082 c-1.44,0-2.612-1.172-2.612-2.612V143.673c0-1.44,1.172-2.612,2.612-2.612h135.837c1.44,0,2.612,1.172,2.612,2.612V389.224z"/> <g> <rect x="224.131" y="48.065" style="fill:#999999;" width="15.673" height="15.673"/> <rect x="248.163" y="48.065" style="fill:#999999;" width="15.673" height="15.673"/> <rect x="272.196" y="48.065" style="fill:#999999;" width="15.673" height="15.673"/> </g> </g>

</svg>