<svg xmlns="http://www.w3.org/2000/svg" xmlns:xlink="http://www.w3.org/1999/xlink" width="40" zoomAndPan="magnify" viewBox="0 0 30 30.000001" height="40" preserveAspectRatio="xMidYMid meet" version="1.0"><defs><clipPath id="3bd5f047c0"><path d="M 24 13 L 29.515625 13 L 29.515625 15 L 24 15 Z M 24 13 " clip-rule="nonzero"/></clipPath><clipPath id="3131056b2a"><path d="M 28 13 L 29.515625 13 L 29.515625 15 L 28 15 Z M 28 13 " clip-rule="nonzero"/></clipPath><clipPath id="5ba5f93b7a"><path d="M 12 28 L 14 28 L 14 29.03125 L 12 29.03125 Z M 12 28 " clip-rule="nonzero"/></clipPath><clipPath id="7ed72092de"><path d="M 0.628906 9 L 2 9 L 2 11 L 0.628906 11 Z M 0.628906 9 " clip-rule="nonzero"/></clipPath></defs><path fill="#7e96a1" d="M 9.472656 11.191406 L 24.308594 11.191406 L 24.308594 18.484375 L 9.472656 18.484375 Z M 9.472656 11.191406 " fill-opacity="1" fill-rule="nonzero"/><path fill="#000000" d="M 22.511719 19.222656 L 21.613281 19.222656 L 21.613281 17.742188 L 22.511719 17.742188 Z M 20.714844 19.222656 L 19.820312 19.222656 L 19.820312 17.742188 L 20.714844 17.742188 Z M 18.921875 19.222656 L 18.023438 19.222656 L 18.023438 17.742188 L 18.921875 17.742188 Z M 17.125 19.222656 L 16.226562 19.222656 L 16.226562 17.742188 L 17.125 17.742188 Z M 15.339844 19.222656 L 14.441406 19.222656 L 14.441406 17.742188 L 15.339844 17.742188 Z M 13.542969 19.222656 L 12.644531 19.222656 L 12.644531 17.742188 L 13.542969 17.742188 Z M 11.75 19.222656 L 10.851562 19.222656 L 10.851562 17.742188 L 11.75 17.742188 Z M 10.214844 17.191406 L 8.722656 17.191406 L 8.722656 16.300781 L 10.214844 16.300781 Z M 25.050781 16.253906 L 23.554688 16.253906 L 23.554688 15.367188 L 25.050781 15.367188 Z M 10.214844 15.414062 L 8.722656 15.414062 L 8.722656 14.523438 L 10.214844 14.523438 Z M 25.050781 14.476562 L 23.554688 14.476562 L 23.554688 13.589844 L 25.050781 13.589844 Z M 10.214844 13.636719 L 8.722656 13.636719 L 8.722656 12.746094 L 10.214844 12.746094 Z M 22.25 11.925781 L 21.351562 11.925781 L 21.351562 10.449219 L 22.25 10.449219 Z M 20.453125 11.925781 L 19.554688 11.925781 L 19.554688 10.449219 L 20.453125 10.449219 Z M 18.65625 11.925781 L 17.761719 11.925781 L 17.761719 10.449219 L 18.65625 10.449219 Z M 16.863281 11.925781 L 15.964844 11.925781 L 15.964844 10.449219 L 16.863281 10.449219 Z M 15.074219 11.925781 L 14.179688 11.925781 L 14.179688 10.449219 L 15.074219 10.449219 Z M 13.28125 11.925781 L 12.382812 11.925781 L 12.382812 10.449219 L 13.28125 10.449219 Z M 11.484375 11.925781 L 10.585938 11.925781 L 10.585938 10.449219 L 11.484375 10.449219 Z M 11.484375 11.925781 " fill-opacity="1" fill-rule="nonzero"/><path fill="#000000" d="M 21.9375 6.027344 L 22.171875 6.027344 L 22.171875 10.46875 L 21.9375 10.46875 Z M 21.9375 6.027344 " fill-opacity="1" fill-rule="nonzero"/><path fill="#000000" d="M 21.9375 6.027344 L 26.660156 6.027344 L 26.660156 6.332031 L 21.9375 6.332031 Z M 21.9375 6.027344 " fill-opacity="1" fill-rule="nonzero"/><path fill="#000000" d="M 26.707031 6.660156 C 27.246094 6.660156 27.246094 5.835938 26.707031 5.835938 C 26.164062 5.835938 26.164062 6.660156 26.707031 6.660156 Z M 26.707031 6.660156 " fill-opacity="1" fill-rule="nonzero"/><path fill="#000000" d="M 19.925781 3.039062 L 20.238281 3.039062 L 20.238281 10.46875 L 19.925781 10.46875 Z M 19.925781 3.039062 " fill-opacity="1" fill-rule="nonzero"/><path fill="#000000" d="M 19.925781 3.039062 L 23.5625 3.039062 L 23.5625 3.265625 L 19.925781 3.265625 Z M 19.925781 3.039062 " fill-opacity="1" fill-rule="nonzero"/><path fill="#000000" d="M 23.332031 0.816406 L 23.5625 0.816406 L 23.5625 3.265625 L 23.332031 3.265625 Z M 23.332031 0.816406 " fill-opacity="1" fill-rule="nonzero"/><path fill="#000000" d="M 23.417969 1.246094 C 23.957031 1.246094 23.957031 0.417969 23.417969 0.417969 C 22.875 0.417969 22.875 1.246094 23.417969 1.246094 Z M 23.417969 1.246094 " fill-opacity="1" fill-rule="nonzero"/><path fill="#000000" d="M 17.992188 0.507812 L 18.300781 0.507812 L 18.300781 10.46875 L 17.992188 10.46875 Z M 17.992188 0.507812 " fill-opacity="1" fill-rule="nonzero"/><path fill="#000000" d="M 16.367188 4.953125 L 16.601562 4.953125 L 16.601562 10.46875 L 16.367188 10.46875 Z M 16.367188 4.953125 " fill-opacity="1" fill-rule="nonzero"/><path fill="#000000" d="M 14.433594 7.175781 L 14.664062 7.175781 L 14.664062 10.46875 L 14.433594 10.46875 Z M 14.433594 7.175781 " fill-opacity="1" fill-rule="nonzero"/><path fill="#000000" d="M 12.1875 7.175781 L 14.433594 7.175781 L 14.433594 7.40625 L 12.1875 7.40625 Z M 12.1875 7.175781 " fill-opacity="1" fill-rule="nonzero"/><path fill="#000000" d="M 11.878906 3.265625 L 12.1875 3.265625 L 12.1875 7.40625 L 11.878906 7.40625 Z M 11.878906 3.265625 " fill-opacity="1" fill-rule="nonzero"/><path fill="#000000" d="M 12.730469 8.554688 L 13.039062 8.554688 L 13.039062 10.46875 L 12.730469 10.46875 Z M 12.730469 8.554688 " fill-opacity="1" fill-rule="nonzero"/><path fill="#000000" d="M 9.945312 8.554688 L 12.730469 8.554688 L 12.730469 8.785156 L 9.945312 8.785156 Z M 9.945312 8.554688 " fill-opacity="1" fill-rule="nonzero"/><path fill="#000000" d="M 11.027344 9.628906 L 11.339844 9.628906 L 11.339844 10.46875 L 11.027344 10.46875 Z M 11.027344 9.628906 " fill-opacity="1" fill-rule="nonzero"/><path fill="#000000" d="M 6.078125 9.628906 L 11.027344 9.628906 L 11.027344 9.933594 L 6.078125 9.933594 Z M 6.078125 9.628906 " fill-opacity="1" fill-rule="nonzero"/><path fill="#000000" d="M 6.03125 10.339844 C 6.570312 10.339844 6.570312 9.511719 6.03125 9.511719 C 5.496094 9.511719 5.496094 10.339844 6.03125 10.339844 Z M 6.03125 10.339844 " fill-opacity="1" fill-rule="nonzero"/><path fill="#000000" d="M 9.789062 9.191406 C 10.332031 9.191406 10.332031 8.363281 9.789062 8.363281 C 9.25 8.363281 9.25 9.191406 9.789062 9.191406 Z M 9.789062 9.191406 " fill-opacity="1" fill-rule="nonzero"/><path fill="#000000" d="M 11.917969 3.820312 C 12.460938 3.820312 12.460938 2.992188 11.917969 2.992188 C 11.375 2.992188 11.382812 3.820312 11.917969 3.820312 Z M 11.917969 3.820312 " fill-opacity="1" fill-rule="nonzero"/><path fill="#000000" d="M 16.320312 5.429688 C 16.863281 5.429688 16.863281 4.601562 16.320312 4.601562 C 15.789062 4.601562 15.789062 5.429688 16.320312 5.429688 Z M 16.320312 5.429688 " fill-opacity="1" fill-rule="nonzero"/><path fill="#000000" d="M 18.039062 0.839844 C 18.582031 0.839844 18.582031 0.0117188 18.039062 0.0117188 C 17.496094 0.0117188 17.496094 0.839844 18.039062 0.839844 Z M 18.039062 0.839844 " fill-opacity="1" fill-rule="nonzero"/><g clip-path="url(#3bd5f047c0)"><path fill="#000000" d="M 24.957031 13.765625 L 29.136719 13.765625 L 29.136719 14.070312 L 24.957031 14.070312 Z M 24.957031 13.765625 " fill-opacity="1" fill-rule="nonzero"/></g><path fill="#000000" d="M 24.957031 15.679688 L 28.285156 15.679688 L 28.285156 15.988281 L 24.957031 15.988281 Z M 24.957031 15.679688 " fill-opacity="1" fill-rule="nonzero"/><path fill="#000000" d="M 28.050781 15.988281 L 28.285156 15.988281 L 28.285156 19.820312 L 28.050781 19.820312 Z M 28.050781 15.988281 " fill-opacity="1" fill-rule="nonzero"/><g clip-path="url(#3131056b2a)"><path fill="#000000" d="M 29.121094 14.378906 C 29.660156 14.378906 29.660156 13.550781 29.121094 13.550781 C 28.578125 13.550781 28.578125 14.378906 29.121094 14.378906 Z M 29.121094 14.378906 " fill-opacity="1" fill-rule="nonzero"/></g><path fill="#000000" d="M 28.191406 20.300781 C 28.734375 20.300781 28.734375 19.472656 28.191406 19.472656 C 27.648438 19.472656 27.648438 20.300781 28.191406 20.300781 Z M 28.191406 20.300781 " fill-opacity="1" fill-rule="nonzero"/><path fill="#000000" d="M 21.9375 19.28125 L 22.171875 19.28125 L 22.171875 23.957031 L 21.9375 23.957031 Z M 21.9375 19.28125 " fill-opacity="1" fill-rule="nonzero"/><path fill="#000000" d="M 21.9375 23.957031 L 26.660156 23.957031 L 26.660156 24.1875 L 21.9375 24.1875 Z M 21.9375 23.957031 " fill-opacity="1" fill-rule="nonzero"/><path fill="#000000" d="M 20.238281 19.28125 L 20.546875 19.28125 L 20.546875 25.871094 L 20.238281 25.871094 Z M 20.238281 19.28125 " fill-opacity="1" fill-rule="nonzero"/><path fill="#000000" d="M 20.238281 25.871094 L 24.722656 25.871094 L 24.722656 26.179688 L 20.238281 26.179688 Z M 20.238281 25.871094 " fill-opacity="1" fill-rule="nonzero"/><path fill="#000000" d="M 18.300781 19.28125 L 18.535156 19.28125 L 18.535156 25.871094 L 18.300781 25.871094 Z M 18.300781 19.28125 " fill-opacity="1" fill-rule="nonzero"/><path fill="#000000" d="M 16.617188 28.628906 L 13.273438 28.628906 L 13.273438 28.324219 L 16.5 28.324219 L 16.601562 28.269531 L 16.601562 18.976562 L 16.910156 18.976562 L 16.910156 28.386719 Z M 16.617188 28.628906 " fill-opacity="1" fill-rule="nonzero"/><path fill="#000000" d="M 14.664062 18.976562 L 14.976562 18.976562 L 14.976562 26.410156 L 14.664062 26.410156 Z M 14.664062 18.976562 " fill-opacity="1" fill-rule="nonzero"/><path fill="#000000" d="M 12.714844 27.789062 L 9.945312 27.789062 L 9.945312 27.558594 L 12.597656 27.558594 L 12.730469 27.449219 L 12.730469 18.746094 L 13.039062 18.746094 L 13.039062 27.558594 Z M 12.714844 27.789062 " fill-opacity="1" fill-rule="nonzero"/><path fill="#000000" d="M 11.050781 23.113281 L 7.703125 23.113281 L 7.703125 22.882812 L 10.9375 22.882812 L 11.027344 22.769531 L 11.027344 18.746094 L 11.339844 18.746094 L 11.339844 22.875 Z M 11.050781 23.113281 " fill-opacity="1" fill-rule="nonzero"/><path fill="#000000" d="M 26.613281 24.523438 C 27.152344 24.523438 27.152344 23.695312 26.613281 23.695312 C 26.070312 23.695312 26.070312 24.523438 26.613281 24.523438 Z M 26.613281 24.523438 " fill-opacity="1" fill-rule="nonzero"/><path fill="#000000" d="M 24.617188 26.492188 C 25.15625 26.492188 25.15625 25.664062 24.617188 25.664062 C 24.074219 25.664062 24.082031 26.492188 24.617188 26.492188 Z M 24.617188 26.492188 " fill-opacity="1" fill-rule="nonzero"/><path fill="#000000" d="M 18.316406 26.355469 C 18.859375 26.355469 18.859375 25.527344 18.316406 25.527344 C 17.777344 25.527344 17.777344 26.355469 18.316406 26.355469 Z M 18.316406 26.355469 " fill-opacity="1" fill-rule="nonzero"/><path fill="#000000" d="M 14.695312 26.953125 C 15.238281 26.953125 15.238281 26.125 14.695312 26.125 C 14.164062 26.125 14.164062 26.953125 14.695312 26.953125 Z M 14.695312 26.953125 " fill-opacity="1" fill-rule="nonzero"/><g clip-path="url(#5ba5f93b7a)"><path fill="#000000" d="M 13.21875 29.019531 C 13.761719 29.019531 13.761719 28.195312 13.21875 28.195312 C 12.675781 28.195312 12.675781 29.019531 13.21875 29.019531 Z M 13.21875 29.019531 " fill-opacity="1" fill-rule="nonzero"/></g><path fill="#000000" d="M 9.828125 28.101562 C 10.371094 28.101562 10.371094 27.273438 9.828125 27.273438 C 9.296875 27.273438 9.296875 28.101562 9.828125 28.101562 Z M 9.828125 28.101562 " fill-opacity="1" fill-rule="nonzero"/><path fill="#000000" d="M 7.5625 23.464844 C 8.105469 23.464844 8.105469 22.636719 7.5625 22.636719 C 7.019531 22.636719 7.019531 23.464844 7.5625 23.464844 Z M 7.5625 23.464844 " fill-opacity="1" fill-rule="nonzero"/><path fill="#000000" d="M 3.523438 12.921875 L 9.09375 12.921875 L 9.09375 13.230469 L 3.523438 13.230469 Z M 3.523438 12.921875 " fill-opacity="1" fill-rule="nonzero"/><path fill="#000000" d="M 1.355469 14.839844 L 9.402344 14.839844 L 9.402344 15.144531 L 1.355469 15.144531 Z M 1.355469 14.839844 " fill-opacity="1" fill-rule="nonzero"/><path fill="#000000" d="M 1.046875 10.164062 L 1.355469 10.164062 L 1.355469 15.144531 L 1.046875 15.144531 Z M 1.046875 10.164062 " fill-opacity="1" fill-rule="nonzero"/><path fill="#000000" d="M 4.140625 20.355469 L 3.832031 20.355469 L 3.832031 16.707031 L 3.980469 16.523438 L 9.402344 16.523438 L 9.402344 16.753906 L 4.09375 16.753906 L 4.140625 16.824219 Z M 4.140625 20.355469 " fill-opacity="1" fill-rule="nonzero"/><g clip-path="url(#7ed72092de)"><path fill="#000000" d="M 1.164062 10.660156 C 1.703125 10.660156 1.703125 9.835938 1.164062 9.835938 C 0.628906 9.835938 0.628906 10.660156 1.164062 10.660156 Z M 1.164062 10.660156 " fill-opacity="1" fill-rule="nonzero"/></g><path fill="#000000" d="M 3.578125 13.503906 C 4.117188 13.503906 4.117188 12.675781 3.578125 12.675781 C 3.035156 12.675781 3.035156 13.503906 3.578125 13.503906 Z M 3.578125 13.503906 " fill-opacity="1" fill-rule="nonzero"/><path fill="#000000" d="M 3.855469 20.890625 C 4.398438 20.890625 4.398438 20.0625 3.855469 20.0625 C 3.3125 20.070312 3.3125 20.890625 3.855469 20.890625 Z M 3.855469 20.890625 " fill-opacity="1" fill-rule="nonzero"/></svg>