<svg xmlns="http://www.w3.org/2000/svg" xmlns:xlink="http://www.w3.org/1999/xlink" width="40" zoomAndPan="magnify" viewBox="0 0 30 30.000001" height="40" preserveAspectRatio="xMidYMid meet" version="1.0"><defs><clipPath id="961d7905bb"><path d="M 6.289062 0 L 23.710938 0 L 23.710938 29 L 6.289062 29 Z M 6.289062 0 " clip-rule="nonzero"/></clipPath></defs><g clip-path="url(#961d7905bb)"><path fill="#ffffff" d="M 19.988281 -0.00390625 L 10.011719 -0.00390625 C 7.960938 -0.00390625 6.292969 1.457031 6.292969 3.253906 L 6.292969 25.742188 C 6.292969 27.539062 7.960938 29 10.011719 29 L 19.988281 29 C 22.039062 29 23.707031 27.539062 23.707031 25.742188 L 23.707031 3.253906 C 23.707031 1.457031 22.039062 -0.00390625 19.988281 -0.00390625 Z M 22.621094 25.742188 C 22.621094 26.941406 21.441406 27.914062 19.988281 27.914062 L 10.011719 27.914062 C 8.558594 27.914062 7.378906 26.941406 7.378906 25.742188 L 7.378906 3.253906 C 7.378906 2.054688 8.5625 1.082031 10.011719 1.082031 L 19.988281 1.082031 C 21.441406 1.082031 22.621094 2.054688 22.621094 3.253906 Z M 22.621094 25.742188 " fill-opacity="1" fill-rule="nonzero"/></g><path fill="#ffffff" d="M 19.613281 9.902344 C 19.613281 9.835938 19.605469 9.773438 19.585938 9.714844 C 19.585938 9.710938 19.585938 9.710938 19.582031 9.710938 C 19.558594 9.644531 19.523438 9.589844 19.480469 9.535156 C 19.476562 9.535156 19.476562 9.53125 19.472656 9.527344 C 19.472656 9.527344 19.472656 9.523438 19.46875 9.523438 C 19.46875 9.523438 19.464844 9.519531 19.464844 9.515625 C 19.421875 9.472656 19.367188 9.4375 19.3125 9.40625 C 19.304688 9.40625 19.296875 9.402344 19.289062 9.398438 C 19.234375 9.371094 19.171875 9.359375 19.113281 9.355469 C 19.101562 9.351562 19.09375 9.351562 19.082031 9.351562 C 19.070312 9.351562 19.058594 9.347656 19.042969 9.351562 L 16.820312 9.464844 C 16.519531 9.480469 16.289062 9.734375 16.304688 10.035156 C 16.320312 10.335938 16.5625 10.566406 16.875 10.550781 L 17.585938 10.511719 L 15.640625 12.285156 C 15.417969 12.488281 15.402344 12.832031 15.605469 13.050781 C 15.714844 13.171875 15.859375 13.230469 16.007812 13.230469 C 16.136719 13.230469 16.269531 13.183594 16.375 13.085938 L 18.402344 11.238281 L 18.324219 12.070312 C 18.296875 12.367188 18.515625 12.632812 18.816406 12.660156 C 18.832031 12.660156 18.847656 12.660156 18.867188 12.660156 C 19.144531 12.660156 19.378906 12.449219 19.40625 12.167969 L 19.613281 9.941406 C 19.613281 9.9375 19.613281 9.933594 19.613281 9.925781 C 19.613281 9.917969 19.613281 9.910156 19.613281 9.902344 Z M 19.613281 9.902344 " fill-opacity="1" fill-rule="nonzero"/><path fill="#ffffff" d="M 13.789062 13.972656 L 11.585938 15.980469 L 11.65625 15.148438 C 11.683594 14.851562 11.460938 14.585938 11.164062 14.5625 C 10.863281 14.539062 10.601562 14.757812 10.574219 15.058594 L 10.386719 17.269531 C 10.386719 17.273438 10.386719 17.277344 10.386719 17.285156 C 10.386719 17.289062 10.386719 17.296875 10.386719 17.304688 C 10.386719 17.371094 10.394531 17.433594 10.414062 17.492188 C 10.414062 17.496094 10.417969 17.5 10.417969 17.503906 C 10.441406 17.566406 10.476562 17.628906 10.523438 17.679688 C 10.523438 17.679688 10.523438 17.679688 10.527344 17.679688 C 10.527344 17.679688 10.527344 17.683594 10.527344 17.683594 C 10.53125 17.6875 10.535156 17.6875 10.539062 17.691406 C 10.5625 17.714844 10.585938 17.738281 10.609375 17.757812 C 10.625 17.765625 10.640625 17.773438 10.65625 17.78125 C 10.671875 17.792969 10.6875 17.804688 10.707031 17.8125 C 10.722656 17.820312 10.742188 17.824219 10.761719 17.832031 C 10.777344 17.835938 10.792969 17.84375 10.8125 17.847656 C 10.832031 17.851562 10.851562 17.851562 10.871094 17.851562 C 10.886719 17.855469 10.902344 17.859375 10.917969 17.859375 L 13.320312 17.902344 C 13.324219 17.902344 13.328125 17.902344 13.332031 17.902344 C 13.625 17.902344 13.867188 17.664062 13.871094 17.367188 C 13.878906 17.066406 13.640625 16.820312 13.339844 16.816406 L 12.304688 16.796875 L 14.519531 14.773438 C 14.742188 14.574219 14.757812 14.230469 14.558594 14.007812 C 14.355469 13.785156 14.011719 13.769531 13.789062 13.972656 Z M 13.789062 13.972656 " fill-opacity="1" fill-rule="nonzero"/></svg>