<svg xmlns="http://www.w3.org/2000/svg" xmlns:xlink="http://www.w3.org/1999/xlink" width="40" zoomAndPan="magnify" viewBox="0 0 30 30.000001" height="40" preserveAspectRatio="xMidYMid meet" version="1.0"><defs><clipPath id="18075f5f54"><path d="M 0.484375 6.730469 L 29.515625 6.730469 L 29.515625 21.972656 L 0.484375 21.972656 Z M 0.484375 6.730469 " clip-rule="nonzero"/></clipPath></defs><g clip-path="url(#18075f5f54)"><path fill="#ffffff" d="M 28.484375 6.734375 L 1.515625 6.734375 C 0.949219 6.734375 0.484375 7.1875 0.484375 7.742188 L 0.484375 20.960938 C 0.484375 21.519531 0.949219 21.972656 1.515625 21.972656 L 28.484375 21.972656 C 29.050781 21.972656 29.515625 21.519531 29.515625 20.960938 L 29.515625 7.742188 C 29.515625 7.1875 29.050781 6.734375 28.484375 6.734375 Z M 23.152344 9.585938 L 25.34375 9.585938 L 25.34375 11.734375 L 23.152344 11.734375 Z M 23.839844 12.703125 L 23.839844 14.851562 L 21.644531 14.851562 L 21.644531 12.703125 Z M 20.054688 9.585938 L 22.246094 9.585938 L 22.246094 11.734375 L 20.054688 11.734375 Z M 13.410156 15.738281 L 15.601562 15.738281 L 15.601562 17.886719 L 13.410156 17.886719 Z M 12.355469 14.851562 L 12.355469 12.703125 L 14.546875 12.703125 L 14.546875 14.851562 Z M 15.453125 14.851562 L 15.453125 12.703125 L 17.644531 12.703125 L 17.644531 14.851562 Z M 16.503906 15.738281 L 18.699219 15.738281 L 18.699219 17.886719 L 16.503906 17.886719 Z M 18.546875 14.851562 L 18.546875 12.703125 L 20.742188 12.703125 L 20.742188 14.851562 Z M 16.957031 9.585938 L 19.152344 9.585938 L 19.152344 11.734375 L 16.957031 11.734375 Z M 13.859375 9.585938 L 16.054688 9.585938 L 16.054688 11.734375 L 13.859375 11.734375 Z M 10.761719 9.585938 L 12.957031 9.585938 L 12.957031 11.734375 L 10.761719 11.734375 Z M 11.453125 12.703125 L 11.453125 14.851562 L 9.257812 14.851562 L 9.257812 12.703125 Z M 7.667969 9.585938 L 9.859375 9.585938 L 9.859375 11.734375 L 7.667969 11.734375 Z M 8.355469 12.703125 L 8.355469 14.851562 L 6.160156 14.851562 L 6.160156 12.703125 Z M 4.570312 9.585938 L 6.761719 9.585938 L 6.761719 11.734375 L 4.570312 11.734375 Z M 1.472656 9.585938 L 3.667969 9.585938 L 3.667969 11.734375 L 1.472656 11.734375 Z M 1.472656 12.703125 L 5.171875 12.703125 L 5.171875 14.851562 L 1.472656 14.851562 Z M 1.472656 15.738281 L 6.160156 15.738281 L 6.160156 17.886719 L 1.472656 17.886719 Z M 3.667969 20.878906 L 1.472656 20.878906 L 1.472656 18.730469 L 3.667969 18.730469 Z M 6.761719 20.878906 L 4.570312 20.878906 L 4.570312 18.730469 L 6.761719 18.730469 Z M 7.214844 15.738281 L 9.410156 15.738281 L 9.410156 17.886719 L 7.214844 17.886719 Z M 9.859375 20.878906 L 7.667969 20.878906 L 7.667969 18.730469 L 9.859375 18.730469 Z M 10.3125 15.738281 L 12.503906 15.738281 L 12.503906 17.886719 L 10.3125 17.886719 Z M 21.796875 20.878906 L 10.761719 20.878906 L 10.761719 18.730469 L 21.796875 18.730469 Z M 21.796875 17.886719 L 19.601562 17.886719 L 19.601562 15.738281 L 21.796875 15.738281 Z M 25.34375 20.878906 L 22.742188 20.878906 L 22.742188 18.730469 L 25.34375 18.730469 Z M 28.441406 20.878906 L 26.246094 20.878906 L 26.246094 18.730469 L 28.441406 18.730469 Z M 28.441406 17.886719 L 22.699219 17.886719 L 22.699219 15.738281 L 28.441406 15.738281 Z M 28.441406 14.851562 L 24.871094 14.851562 L 24.871094 12.703125 L 28.441406 12.703125 Z M 28.441406 11.734375 L 26.246094 11.734375 L 26.246094 9.585938 L 28.441406 9.585938 Z M 28.441406 11.734375 " fill-opacity="1" fill-rule="nonzero"/></g></svg>