<?xml version="1.0" encoding="iso-8859-1"?>
<!-- Uploaded to: SVG Repo, www.svgrepo.com, Generator: SVG Repo Mixer Tools -->
<svg version="1.1" id="Layer_1" xmlns="http://www.w3.org/2000/svg" xmlns:xlink="http://www.w3.org/1999/xlink" 
	 viewBox="0 0 512 512" xml:space="preserve" width="45px" height="45px">
<g>
	<path style="fill:#79CAE8;" d="M113.371,179.966h13.584v-73.143h-13.584c-5.771,0-10.449,4.678-10.449,10.449v52.245
		C102.922,175.288,107.6,179.966,113.371,179.966z"/>
	<path style="fill:#79CAE8;" d="M113.371,294.905h13.584v-73.143h-13.584c-5.771,0-10.449,4.678-10.449,10.449v52.245
		C102.922,290.227,107.6,294.905,113.371,294.905z"/>
</g>
<path style="fill:#4B92B9;" d="M388.18,504.163H147.853c-11.542,0-20.898-9.356-20.898-20.898V28.735
	c0-11.542,9.356-20.898,20.898-20.898H388.18c11.542,0,20.898,9.356,20.898,20.898v454.531
	C409.078,494.807,399.721,504.163,388.18,504.163z"/>
<rect x="153.078" y="78.367" style="fill:#CAF9F4;" />
<path d="M388.18,0H147.853c-15.845,0-28.735,12.891-28.735,28.735v70.252h-5.747c-10.082,0-18.286,8.203-18.286,18.286v52.245
	c0,10.082,8.203,18.286,18.286,18.286h5.747v26.122h-5.747c-10.082,0-18.286,8.203-18.286,18.286v52.245
	c0,10.082,8.203,18.286,18.286,18.286h5.747v180.524c0,15.844,12.89,28.735,28.735,28.735H388.18
	c15.845,0,28.735-12.891,28.735-28.735V28.735C416.914,12.891,404.024,0,388.18,0z M113.371,172.129
	c-1.44,0-2.612-1.171-2.612-2.612v-52.245c0-1.441,1.172-2.612,2.612-2.612h5.747v57.469H113.371z M113.371,287.068
	c-1.44,0-2.612-1.171-2.612-2.612v-52.245c0-1.441,1.172-2.612,2.612-2.612h5.747v57.469H113.371z M401.241,483.265
	c0,7.202-5.859,13.061-13.061,13.061H147.853c-7.202,0-13.061-5.859-13.061-13.061V28.735c0-7.202,5.859-13.061,13.061-13.061
	H388.18c7.202,0,13.061,5.859,13.061,13.061V483.265z"/>
<path d="M145.241,441.469h245.551V70.531H145.241V441.469z M160.914,86.204h214.204v339.592H160.914V86.204z"/>
<circle cx="222.386" cy="43.102" r="10.449"/>
<path d="M298.498,50.939h-45.29c-4.328,0-7.837-3.509-7.837-7.837l0,0c0-4.328,3.509-7.837,7.837-7.837h45.29
	c4.328,0,7.837,3.509,7.837,7.837l0,0C306.335,47.43,302.826,50.939,298.498,50.939z"/>
<circle style="fill:#FFFFFF;" cx="259.135" cy="468.898" r="18.286"/>
</svg>